<?xml version="1.0" encoding="UTF-8" standalone="no"?>
<!DOCTYPE svg PUBLIC "-//W3C//DTD SVG 1.1//EN"
 "http://www.w3.org/Graphics/SVG/1.1/DTD/svg11.dtd">
<!-- Generated by graphviz version 12.1.2 (20240928.0832)
 -->
<!-- Pages: 1 -->
<svg width="1165pt" height="236pt"
 viewBox="0.00 0.00 1164.50 236.00" xmlns="http://www.w3.org/2000/svg" xmlns:xlink="http://www.w3.org/1999/xlink">
<g id="graph0" class="graph" transform="scale(1 1) rotate(0) translate(4 232)">
<polygon fill="white" stroke="none" points="-4,4 -4,-232 1160.5,-232 1160.5,4 -4,4"/>
<!-- head -->
<g id="node1" class="node">
<title>head</title>
<polygon fill="none" stroke="black" points="8,-27 8,-49.5 99.5,-49.5 99.5,-27 8,-27"/>
<text text-anchor="start" x="41" y="-33.2" font-family="Times New Roman,serif" font-size="14.00">head</text>
<polygon fill="none" stroke="black" points="8,-4.5 8,-27 99.5,-27 99.5,-4.5 8,-4.5"/>
<text text-anchor="start" x="11" y="-10.7" font-family="Times New Roman,serif" font-size="14.00">0x148138f3dd0</text>
</g>
<!-- node0 -->
<g id="node2" class="node">
<title>node0</title>
<polygon fill="none" stroke="black" points="151.5,-70 151.5,-92 217.5,-92 217.5,-70 151.5,-70"/>
<text text-anchor="start" x="154.12" y="-75.7" font-family="Times New Roman,serif" font-size="14.00">Coefficient</text>
<polygon fill="none" stroke="black" points="217.5,-70 217.5,-92 262.5,-92 262.5,-70 217.5,-70"/>
<text text-anchor="start" x="220.5" y="-75.7" font-family="Times New Roman,serif" font-size="14.00">Degree</text>
<polygon fill="none" stroke="black" points="262.5,-70 262.5,-92 353.5,-92 353.5,-70 262.5,-70"/>
<text text-anchor="start" x="296.38" y="-75.7" font-family="Times New Roman,serif" font-size="14.00">next</text>
<polygon fill="none" stroke="black" points="151.5,-48 151.5,-70 217.5,-70 217.5,-48 151.5,-48"/>
<text text-anchor="start" x="181.12" y="-53.7" font-family="Times New Roman,serif" font-size="14.00">1</text>
<polygon fill="none" stroke="black" points="217.5,-48 217.5,-70 262.5,-70 262.5,-48 217.5,-48"/>
<text text-anchor="start" x="236.62" y="-53.7" font-family="Times New Roman,serif" font-size="14.00">5</text>
<polygon fill="none" stroke="black" points="262.5,-48 262.5,-70 353.5,-70 353.5,-48 262.5,-48"/>
<text text-anchor="start" x="265.25" y="-53.7" font-family="Times New Roman,serif" font-size="14.00">0x148138f33d0</text>
<polygon fill="none" stroke="black" points="151.5,-26 151.5,-48 353.5,-48 353.5,-26 151.5,-26"/>
<text text-anchor="start" x="219.12" y="-31.7" font-family="Times New Roman,serif" font-size="14.00">alamat node</text>
<polygon fill="none" stroke="black" points="151.5,-4 151.5,-26 353.5,-26 353.5,-4 151.5,-4"/>
<text text-anchor="start" x="209.75" y="-9.7" font-family="Times New Roman,serif" font-size="14.00">0x148138f3dd0</text>
</g>
<!-- head&#45;&gt;node0 -->
<g id="edge1" class="edge">
<title>head:contents&#45;&gt;node0:id</title>
<path fill="none" stroke="black" d="M100.5,-15.75C118.38,-15.75 125.47,-15.26 139.14,-15.07"/>
<polygon fill="black" stroke="black" points="139.01,-18.58 148.99,-15.01 138.96,-11.58 139.01,-18.58"/>
</g>
<!-- node1 -->
<g id="node3" class="node">
<title>node1</title>
<polygon fill="none" stroke="black" points="405.5,-114 405.5,-136 471.5,-136 471.5,-114 405.5,-114"/>
<text text-anchor="start" x="408.12" y="-119.7" font-family="Times New Roman,serif" font-size="14.00">Coefficient</text>
<polygon fill="none" stroke="black" points="471.5,-114 471.5,-136 516.5,-136 516.5,-114 471.5,-114"/>
<text text-anchor="start" x="474.5" y="-119.7" font-family="Times New Roman,serif" font-size="14.00">Degree</text>
<polygon fill="none" stroke="black" points="516.5,-114 516.5,-136 606.5,-136 606.5,-114 516.5,-114"/>
<text text-anchor="start" x="549.88" y="-119.7" font-family="Times New Roman,serif" font-size="14.00">next</text>
<polygon fill="none" stroke="black" points="405.5,-92 405.5,-114 471.5,-114 471.5,-92 405.5,-92"/>
<text text-anchor="start" x="435.12" y="-97.7" font-family="Times New Roman,serif" font-size="14.00">3</text>
<polygon fill="none" stroke="black" points="471.5,-92 471.5,-114 516.5,-114 516.5,-92 471.5,-92"/>
<text text-anchor="start" x="490.62" y="-97.7" font-family="Times New Roman,serif" font-size="14.00">4</text>
<polygon fill="none" stroke="black" points="516.5,-92 516.5,-114 606.5,-114 606.5,-92 516.5,-92"/>
<text text-anchor="start" x="519.12" y="-97.7" font-family="Times New Roman,serif" font-size="14.00">0x148138f3e10</text>
<polygon fill="none" stroke="black" points="405.5,-70 405.5,-92 606.5,-92 606.5,-70 405.5,-70"/>
<text text-anchor="start" x="472.62" y="-75.7" font-family="Times New Roman,serif" font-size="14.00">alamat node</text>
<polygon fill="none" stroke="black" points="405.5,-48 405.5,-70 606.5,-70 606.5,-48 405.5,-48"/>
<text text-anchor="start" x="463.25" y="-53.7" font-family="Times New Roman,serif" font-size="14.00">0x148138f33d0</text>
</g>
<!-- node0&#45;&gt;node1 -->
<g id="edge2" class="edge">
<title>node0:next&#45;&gt;node1:id</title>
<path fill="none" stroke="black" d="M354.5,-59C372.38,-59 379.47,-59 393.14,-59"/>
<polygon fill="black" stroke="black" points="392.99,-62.5 402.99,-59 392.99,-55.5 392.99,-62.5"/>
</g>
<!-- node2 -->
<g id="node4" class="node">
<title>node2</title>
<polygon fill="none" stroke="black" points="658.5,-158 658.5,-180 724.5,-180 724.5,-158 658.5,-158"/>
<text text-anchor="start" x="661.12" y="-163.7" font-family="Times New Roman,serif" font-size="14.00">Coefficient</text>
<polygon fill="none" stroke="black" points="724.5,-158 724.5,-180 769.5,-180 769.5,-158 724.5,-158"/>
<text text-anchor="start" x="727.5" y="-163.7" font-family="Times New Roman,serif" font-size="14.00">Degree</text>
<polygon fill="none" stroke="black" points="769.5,-158 769.5,-180 860.5,-180 860.5,-158 769.5,-158"/>
<text text-anchor="start" x="803.38" y="-163.7" font-family="Times New Roman,serif" font-size="14.00">next</text>
<polygon fill="none" stroke="black" points="658.5,-136 658.5,-158 724.5,-158 724.5,-136 658.5,-136"/>
<text text-anchor="start" x="684.75" y="-141.7" font-family="Times New Roman,serif" font-size="14.00">22</text>
<polygon fill="none" stroke="black" points="724.5,-136 724.5,-158 769.5,-158 769.5,-136 724.5,-136"/>
<text text-anchor="start" x="743.62" y="-141.7" font-family="Times New Roman,serif" font-size="14.00">2</text>
<polygon fill="none" stroke="black" points="769.5,-136 769.5,-158 860.5,-158 860.5,-136 769.5,-136"/>
<text text-anchor="start" x="772.25" y="-141.7" font-family="Times New Roman,serif" font-size="14.00">0x148138f30d0</text>
<polygon fill="none" stroke="black" points="658.5,-114 658.5,-136 860.5,-136 860.5,-114 658.5,-114"/>
<text text-anchor="start" x="726.12" y="-119.7" font-family="Times New Roman,serif" font-size="14.00">alamat node</text>
<polygon fill="none" stroke="black" points="658.5,-92 658.5,-114 860.5,-114 860.5,-92 658.5,-92"/>
<text text-anchor="start" x="717.12" y="-97.7" font-family="Times New Roman,serif" font-size="14.00">0x148138f3e10</text>
</g>
<!-- node1&#45;&gt;node2 -->
<g id="edge3" class="edge">
<title>node1:next&#45;&gt;node2:id</title>
<path fill="none" stroke="black" d="M607.5,-103C625.38,-103 632.47,-103 646.14,-103"/>
<polygon fill="black" stroke="black" points="645.99,-106.5 655.99,-103 645.99,-99.5 645.99,-106.5"/>
</g>
<!-- node3 -->
<g id="node5" class="node">
<title>node3</title>
<polygon fill="none" stroke="black" points="912.5,-202 912.5,-224 978.5,-224 978.5,-202 912.5,-202"/>
<text text-anchor="start" x="915.12" y="-207.7" font-family="Times New Roman,serif" font-size="14.00">Coefficient</text>
<polygon fill="none" stroke="black" points="978.5,-202 978.5,-224 1023.5,-224 1023.5,-202 978.5,-202"/>
<text text-anchor="start" x="981.5" y="-207.7" font-family="Times New Roman,serif" font-size="14.00">Degree</text>
<polygon fill="none" stroke="black" points="1023.5,-202 1023.5,-224 1058.5,-224 1058.5,-202 1023.5,-202"/>
<text text-anchor="start" x="1029.38" y="-207.7" font-family="Times New Roman,serif" font-size="14.00">next</text>
<polygon fill="none" stroke="black" points="912.5,-180 912.5,-202 978.5,-202 978.5,-180 912.5,-180"/>
<text text-anchor="start" x="942.12" y="-185.7" font-family="Times New Roman,serif" font-size="14.00">4</text>
<polygon fill="none" stroke="black" points="978.5,-180 978.5,-202 1023.5,-202 1023.5,-180 978.5,-180"/>
<text text-anchor="start" x="997.62" y="-185.7" font-family="Times New Roman,serif" font-size="14.00">0</text>
<polygon fill="none" stroke="black" points="1023.5,-180 1023.5,-202 1058.5,-202 1058.5,-180 1023.5,-180"/>
<text text-anchor="start" x="1026.38" y="-185.7" font-family="Times New Roman,serif" font-size="14.00">None</text>
<polygon fill="none" stroke="black" points="912.5,-158 912.5,-180 1058.5,-180 1058.5,-158 912.5,-158"/>
<text text-anchor="start" x="952.12" y="-163.7" font-family="Times New Roman,serif" font-size="14.00">alamat node</text>
<polygon fill="none" stroke="black" points="912.5,-136 912.5,-158 1058.5,-158 1058.5,-136 912.5,-136"/>
<text text-anchor="start" x="942.75" y="-141.7" font-family="Times New Roman,serif" font-size="14.00">0x148138f30d0</text>
</g>
<!-- node2&#45;&gt;node3 -->
<g id="edge4" class="edge">
<title>node2:next&#45;&gt;node3:id</title>
<path fill="none" stroke="black" d="M861.5,-147C879.38,-147 886.47,-147 900.14,-147"/>
<polygon fill="black" stroke="black" points="899.99,-150.5 909.99,-147 899.99,-143.5 899.99,-150.5"/>
</g>
<!-- node4 -->
<g id="node6" class="node">
<title>node4</title>
<text text-anchor="middle" x="1129.5" y="-185.95" font-family="Times New Roman,serif" font-size="14.00">None</text>
</g>
<!-- node3&#45;&gt;node4 -->
<g id="edge5" class="edge">
<title>node3:next&#45;&gt;node4</title>
<path fill="none" stroke="black" d="M1059.5,-191C1069.86,-191 1081.09,-191 1091.42,-191"/>
<polygon fill="black" stroke="black" points="1091.1,-194.5 1101.1,-191 1091.1,-187.5 1091.1,-194.5"/>
</g>
</g>
</svg>
