<?xml version="1.0" encoding="UTF-8" standalone="no"?>
<!DOCTYPE svg PUBLIC "-//W3C//DTD SVG 1.1//EN"
 "http://www.w3.org/Graphics/SVG/1.1/DTD/svg11.dtd">
<!-- Generated by graphviz version 12.1.2 (20240928.0832)
 -->
<!-- Pages: 1 -->
<svg width="3206pt" height="588pt"
 viewBox="0.00 0.00 3206.25 588.00" xmlns="http://www.w3.org/2000/svg" xmlns:xlink="http://www.w3.org/1999/xlink">
<g id="graph0" class="graph" transform="scale(1 1) rotate(0) translate(4 584)">
<polygon fill="white" stroke="none" points="-4,4 -4,-584 3202.25,-584 3202.25,4 -4,4"/>
<!-- head -->
<g id="node1" class="node">
<title>head</title>
<polygon fill="none" stroke="black" points="8,-27 8,-49.5 100.25,-49.5 100.25,-27 8,-27"/>
<text text-anchor="start" x="41.38" y="-33.2" font-family="Times New Roman,serif" font-size="14.00">head</text>
<polygon fill="none" stroke="black" points="8,-4.5 8,-27 100.25,-27 100.25,-4.5 8,-4.5"/>
<text text-anchor="start" x="11" y="-10.7" font-family="Times New Roman,serif" font-size="14.00">0x1481a141ad0</text>
</g>
<!-- node0 -->
<g id="node2" class="node">
<title>node0</title>
<polygon fill="none" stroke="black" points="152.25,-70 152.25,-92 218.25,-92 218.25,-70 152.25,-70"/>
<text text-anchor="start" x="154.88" y="-75.7" font-family="Times New Roman,serif" font-size="14.00">Coefficient</text>
<polygon fill="none" stroke="black" points="218.25,-70 218.25,-92 263.25,-92 263.25,-70 218.25,-70"/>
<text text-anchor="start" x="221.25" y="-75.7" font-family="Times New Roman,serif" font-size="14.00">Degree</text>
<polygon fill="none" stroke="black" points="263.25,-70 263.25,-92 355.25,-92 355.25,-70 263.25,-70"/>
<text text-anchor="start" x="297.62" y="-75.7" font-family="Times New Roman,serif" font-size="14.00">next</text>
<polygon fill="none" stroke="black" points="152.25,-48 152.25,-70 218.25,-70 218.25,-48 152.25,-48"/>
<text text-anchor="start" x="181.88" y="-53.7" font-family="Times New Roman,serif" font-size="14.00">8</text>
<polygon fill="none" stroke="black" points="218.25,-48 218.25,-70 263.25,-70 263.25,-48 218.25,-48"/>
<text text-anchor="start" x="234" y="-53.7" font-family="Times New Roman,serif" font-size="14.00">13</text>
<polygon fill="none" stroke="black" points="263.25,-48 263.25,-70 355.25,-70 355.25,-48 263.25,-48"/>
<text text-anchor="start" x="266.12" y="-53.7" font-family="Times New Roman,serif" font-size="14.00">0x14813c2e250</text>
<polygon fill="none" stroke="black" points="152.25,-26 152.25,-48 355.25,-48 355.25,-26 152.25,-26"/>
<text text-anchor="start" x="220.38" y="-31.7" font-family="Times New Roman,serif" font-size="14.00">alamat node</text>
<polygon fill="none" stroke="black" points="152.25,-4 152.25,-26 355.25,-26 355.25,-4 152.25,-4"/>
<text text-anchor="start" x="210.62" y="-9.7" font-family="Times New Roman,serif" font-size="14.00">0x1481a141ad0</text>
</g>
<!-- head&#45;&gt;node0 -->
<g id="edge1" class="edge">
<title>head:contents&#45;&gt;node0:id</title>
<path fill="none" stroke="black" d="M101.25,-15.75C119.13,-15.75 126.22,-15.26 139.89,-15.07"/>
<polygon fill="black" stroke="black" points="139.76,-18.58 149.74,-15.01 139.71,-11.58 139.76,-18.58"/>
</g>
<!-- node1 -->
<g id="node3" class="node">
<title>node1</title>
<polygon fill="none" stroke="black" points="407.25,-114 407.25,-136 473.25,-136 473.25,-114 407.25,-114"/>
<text text-anchor="start" x="409.88" y="-119.7" font-family="Times New Roman,serif" font-size="14.00">Coefficient</text>
<polygon fill="none" stroke="black" points="473.25,-114 473.25,-136 518.25,-136 518.25,-114 473.25,-114"/>
<text text-anchor="start" x="476.25" y="-119.7" font-family="Times New Roman,serif" font-size="14.00">Degree</text>
<polygon fill="none" stroke="black" points="518.25,-114 518.25,-136 611.25,-136 611.25,-114 518.25,-114"/>
<text text-anchor="start" x="553.12" y="-119.7" font-family="Times New Roman,serif" font-size="14.00">next</text>
<polygon fill="none" stroke="black" points="407.25,-92 407.25,-114 473.25,-114 473.25,-92 407.25,-92"/>
<text text-anchor="start" x="433.5" y="-97.7" font-family="Times New Roman,serif" font-size="14.00">24</text>
<polygon fill="none" stroke="black" points="473.25,-92 473.25,-114 518.25,-114 518.25,-92 473.25,-92"/>
<text text-anchor="start" x="489" y="-97.7" font-family="Times New Roman,serif" font-size="14.00">12</text>
<polygon fill="none" stroke="black" points="518.25,-92 518.25,-114 611.25,-114 611.25,-92 518.25,-92"/>
<text text-anchor="start" x="521.25" y="-97.7" font-family="Times New Roman,serif" font-size="14.00">0x14813c05690</text>
<polygon fill="none" stroke="black" points="407.25,-70 407.25,-92 611.25,-92 611.25,-70 407.25,-70"/>
<text text-anchor="start" x="475.88" y="-75.7" font-family="Times New Roman,serif" font-size="14.00">alamat node</text>
<polygon fill="none" stroke="black" points="407.25,-48 407.25,-70 611.25,-70 611.25,-48 407.25,-48"/>
<text text-anchor="start" x="466.12" y="-53.7" font-family="Times New Roman,serif" font-size="14.00">0x14813c2e250</text>
</g>
<!-- node0&#45;&gt;node1 -->
<g id="edge2" class="edge">
<title>node0:next&#45;&gt;node1:id</title>
<path fill="none" stroke="black" d="M356.25,-59C374.13,-59 381.22,-59 394.89,-59"/>
<polygon fill="black" stroke="black" points="394.74,-62.5 404.74,-59 394.74,-55.5 394.74,-62.5"/>
</g>
<!-- node2 -->
<g id="node4" class="node">
<title>node2</title>
<polygon fill="none" stroke="black" points="663.25,-158 663.25,-180 729.25,-180 729.25,-158 663.25,-158"/>
<text text-anchor="start" x="665.88" y="-163.7" font-family="Times New Roman,serif" font-size="14.00">Coefficient</text>
<polygon fill="none" stroke="black" points="729.25,-158 729.25,-180 774.25,-180 774.25,-158 729.25,-158"/>
<text text-anchor="start" x="732.25" y="-163.7" font-family="Times New Roman,serif" font-size="14.00">Degree</text>
<polygon fill="none" stroke="black" points="774.25,-158 774.25,-180 866.25,-180 866.25,-158 774.25,-158"/>
<text text-anchor="start" x="808.62" y="-163.7" font-family="Times New Roman,serif" font-size="14.00">next</text>
<polygon fill="none" stroke="black" points="663.25,-136 663.25,-158 729.25,-158 729.25,-136 663.25,-136"/>
<text text-anchor="start" x="692.88" y="-141.7" font-family="Times New Roman,serif" font-size="14.00">6</text>
<polygon fill="none" stroke="black" points="729.25,-136 729.25,-158 774.25,-158 774.25,-136 729.25,-136"/>
<text text-anchor="start" x="745" y="-141.7" font-family="Times New Roman,serif" font-size="14.00">11</text>
<polygon fill="none" stroke="black" points="774.25,-136 774.25,-158 866.25,-158 866.25,-136 774.25,-136"/>
<text text-anchor="start" x="777.12" y="-141.7" font-family="Times New Roman,serif" font-size="14.00">0x14813c2e890</text>
<polygon fill="none" stroke="black" points="663.25,-114 663.25,-136 866.25,-136 866.25,-114 663.25,-114"/>
<text text-anchor="start" x="731.38" y="-119.7" font-family="Times New Roman,serif" font-size="14.00">alamat node</text>
<polygon fill="none" stroke="black" points="663.25,-92 663.25,-114 866.25,-114 866.25,-92 663.25,-92"/>
<text text-anchor="start" x="721.25" y="-97.7" font-family="Times New Roman,serif" font-size="14.00">0x14813c05690</text>
</g>
<!-- node1&#45;&gt;node2 -->
<g id="edge3" class="edge">
<title>node1:next&#45;&gt;node2:id</title>
<path fill="none" stroke="black" d="M612.25,-103C630.13,-103 637.22,-103 650.89,-103"/>
<polygon fill="black" stroke="black" points="650.74,-106.5 660.74,-103 650.74,-99.5 650.74,-106.5"/>
</g>
<!-- node3 -->
<g id="node5" class="node">
<title>node3</title>
<polygon fill="none" stroke="black" points="918.25,-202 918.25,-224 984.25,-224 984.25,-202 918.25,-202"/>
<text text-anchor="start" x="920.88" y="-207.7" font-family="Times New Roman,serif" font-size="14.00">Coefficient</text>
<polygon fill="none" stroke="black" points="984.25,-202 984.25,-224 1029.25,-224 1029.25,-202 984.25,-202"/>
<text text-anchor="start" x="987.25" y="-207.7" font-family="Times New Roman,serif" font-size="14.00">Degree</text>
<polygon fill="none" stroke="black" points="1029.25,-202 1029.25,-224 1121.25,-224 1121.25,-202 1029.25,-202"/>
<text text-anchor="start" x="1063.62" y="-207.7" font-family="Times New Roman,serif" font-size="14.00">next</text>
<polygon fill="none" stroke="black" points="918.25,-180 918.25,-202 984.25,-202 984.25,-180 918.25,-180"/>
<text text-anchor="start" x="941.12" y="-185.7" font-family="Times New Roman,serif" font-size="14.00">193</text>
<polygon fill="none" stroke="black" points="984.25,-180 984.25,-202 1029.25,-202 1029.25,-180 984.25,-180"/>
<text text-anchor="start" x="1000" y="-185.7" font-family="Times New Roman,serif" font-size="14.00">10</text>
<polygon fill="none" stroke="black" points="1029.25,-180 1029.25,-202 1121.25,-202 1121.25,-180 1029.25,-180"/>
<text text-anchor="start" x="1032.12" y="-185.7" font-family="Times New Roman,serif" font-size="14.00">0x14813c2e2d0</text>
<polygon fill="none" stroke="black" points="918.25,-158 918.25,-180 1121.25,-180 1121.25,-158 918.25,-158"/>
<text text-anchor="start" x="986.38" y="-163.7" font-family="Times New Roman,serif" font-size="14.00">alamat node</text>
<polygon fill="none" stroke="black" points="918.25,-136 918.25,-158 1121.25,-158 1121.25,-136 918.25,-136"/>
<text text-anchor="start" x="976.62" y="-141.7" font-family="Times New Roman,serif" font-size="14.00">0x14813c2e890</text>
</g>
<!-- node2&#45;&gt;node3 -->
<g id="edge4" class="edge">
<title>node2:next&#45;&gt;node3:id</title>
<path fill="none" stroke="black" d="M867.25,-147C885.13,-147 892.22,-147 905.89,-147"/>
<polygon fill="black" stroke="black" points="905.74,-150.5 915.74,-147 905.74,-143.5 905.74,-150.5"/>
</g>
<!-- node4 -->
<g id="node6" class="node">
<title>node4</title>
<polygon fill="none" stroke="black" points="1173.25,-246 1173.25,-268 1239.25,-268 1239.25,-246 1173.25,-246"/>
<text text-anchor="start" x="1175.88" y="-251.7" font-family="Times New Roman,serif" font-size="14.00">Coefficient</text>
<polygon fill="none" stroke="black" points="1239.25,-246 1239.25,-268 1284.25,-268 1284.25,-246 1239.25,-246"/>
<text text-anchor="start" x="1242.25" y="-251.7" font-family="Times New Roman,serif" font-size="14.00">Degree</text>
<polygon fill="none" stroke="black" points="1284.25,-246 1284.25,-268 1376.25,-268 1376.25,-246 1284.25,-246"/>
<text text-anchor="start" x="1318.62" y="-251.7" font-family="Times New Roman,serif" font-size="14.00">next</text>
<polygon fill="none" stroke="black" points="1173.25,-224 1173.25,-246 1239.25,-246 1239.25,-224 1173.25,-224"/>
<text text-anchor="start" x="1200.62" y="-229.7" font-family="Times New Roman,serif" font-size="14.00">&#45;3</text>
<polygon fill="none" stroke="black" points="1239.25,-224 1239.25,-246 1284.25,-246 1284.25,-224 1239.25,-224"/>
<text text-anchor="start" x="1258.38" y="-229.7" font-family="Times New Roman,serif" font-size="14.00">9</text>
<polygon fill="none" stroke="black" points="1284.25,-224 1284.25,-246 1376.25,-246 1376.25,-224 1284.25,-224"/>
<text text-anchor="start" x="1287.12" y="-229.7" font-family="Times New Roman,serif" font-size="14.00">0x14813c2e590</text>
<polygon fill="none" stroke="black" points="1173.25,-202 1173.25,-224 1376.25,-224 1376.25,-202 1173.25,-202"/>
<text text-anchor="start" x="1241.38" y="-207.7" font-family="Times New Roman,serif" font-size="14.00">alamat node</text>
<polygon fill="none" stroke="black" points="1173.25,-180 1173.25,-202 1376.25,-202 1376.25,-180 1173.25,-180"/>
<text text-anchor="start" x="1231.62" y="-185.7" font-family="Times New Roman,serif" font-size="14.00">0x14813c2e2d0</text>
</g>
<!-- node3&#45;&gt;node4 -->
<g id="edge5" class="edge">
<title>node3:next&#45;&gt;node4:id</title>
<path fill="none" stroke="black" d="M1122.25,-191C1140.13,-191 1147.22,-191 1160.89,-191"/>
<polygon fill="black" stroke="black" points="1160.74,-194.5 1170.74,-191 1160.74,-187.5 1160.74,-194.5"/>
</g>
<!-- node5 -->
<g id="node7" class="node">
<title>node5</title>
<polygon fill="none" stroke="black" points="1428.25,-290 1428.25,-312 1494.25,-312 1494.25,-290 1428.25,-290"/>
<text text-anchor="start" x="1430.88" y="-295.7" font-family="Times New Roman,serif" font-size="14.00">Coefficient</text>
<polygon fill="none" stroke="black" points="1494.25,-290 1494.25,-312 1539.25,-312 1539.25,-290 1494.25,-290"/>
<text text-anchor="start" x="1497.25" y="-295.7" font-family="Times New Roman,serif" font-size="14.00">Degree</text>
<polygon fill="none" stroke="black" points="1539.25,-290 1539.25,-312 1631.25,-312 1631.25,-290 1539.25,-290"/>
<text text-anchor="start" x="1573.62" y="-295.7" font-family="Times New Roman,serif" font-size="14.00">next</text>
<polygon fill="none" stroke="black" points="1428.25,-268 1428.25,-290 1494.25,-290 1494.25,-268 1428.25,-268"/>
<text text-anchor="start" x="1451.12" y="-273.7" font-family="Times New Roman,serif" font-size="14.00">167</text>
<polygon fill="none" stroke="black" points="1494.25,-268 1494.25,-290 1539.25,-290 1539.25,-268 1494.25,-268"/>
<text text-anchor="start" x="1513.38" y="-273.7" font-family="Times New Roman,serif" font-size="14.00">8</text>
<polygon fill="none" stroke="black" points="1539.25,-268 1539.25,-290 1631.25,-290 1631.25,-268 1539.25,-268"/>
<text text-anchor="start" x="1542.12" y="-273.7" font-family="Times New Roman,serif" font-size="14.00">0x14813c2eb50</text>
<polygon fill="none" stroke="black" points="1428.25,-246 1428.25,-268 1631.25,-268 1631.25,-246 1428.25,-246"/>
<text text-anchor="start" x="1496.38" y="-251.7" font-family="Times New Roman,serif" font-size="14.00">alamat node</text>
<polygon fill="none" stroke="black" points="1428.25,-224 1428.25,-246 1631.25,-246 1631.25,-224 1428.25,-224"/>
<text text-anchor="start" x="1486.62" y="-229.7" font-family="Times New Roman,serif" font-size="14.00">0x14813c2e590</text>
</g>
<!-- node4&#45;&gt;node5 -->
<g id="edge6" class="edge">
<title>node4:next&#45;&gt;node5:id</title>
<path fill="none" stroke="black" d="M1377.25,-235C1395.13,-235 1402.22,-235 1415.89,-235"/>
<polygon fill="black" stroke="black" points="1415.74,-238.5 1425.74,-235 1415.74,-231.5 1415.74,-238.5"/>
</g>
<!-- node6 -->
<g id="node8" class="node">
<title>node6</title>
<polygon fill="none" stroke="black" points="1683.25,-334 1683.25,-356 1749.25,-356 1749.25,-334 1683.25,-334"/>
<text text-anchor="start" x="1685.88" y="-339.7" font-family="Times New Roman,serif" font-size="14.00">Coefficient</text>
<polygon fill="none" stroke="black" points="1749.25,-334 1749.25,-356 1794.25,-356 1794.25,-334 1749.25,-334"/>
<text text-anchor="start" x="1752.25" y="-339.7" font-family="Times New Roman,serif" font-size="14.00">Degree</text>
<polygon fill="none" stroke="black" points="1794.25,-334 1794.25,-356 1887.25,-356 1887.25,-334 1794.25,-334"/>
<text text-anchor="start" x="1829.12" y="-339.7" font-family="Times New Roman,serif" font-size="14.00">next</text>
<polygon fill="none" stroke="black" points="1683.25,-312 1683.25,-334 1749.25,-334 1749.25,-312 1683.25,-312"/>
<text text-anchor="start" x="1707.25" y="-317.7" font-family="Times New Roman,serif" font-size="14.00">&#45;11</text>
<polygon fill="none" stroke="black" points="1749.25,-312 1749.25,-334 1794.25,-334 1794.25,-312 1749.25,-312"/>
<text text-anchor="start" x="1768.38" y="-317.7" font-family="Times New Roman,serif" font-size="14.00">7</text>
<polygon fill="none" stroke="black" points="1794.25,-312 1794.25,-334 1887.25,-334 1887.25,-312 1794.25,-312"/>
<text text-anchor="start" x="1797.25" y="-317.7" font-family="Times New Roman,serif" font-size="14.00">0x14813c2d310</text>
<polygon fill="none" stroke="black" points="1683.25,-290 1683.25,-312 1887.25,-312 1887.25,-290 1683.25,-290"/>
<text text-anchor="start" x="1751.88" y="-295.7" font-family="Times New Roman,serif" font-size="14.00">alamat node</text>
<polygon fill="none" stroke="black" points="1683.25,-268 1683.25,-290 1887.25,-290 1887.25,-268 1683.25,-268"/>
<text text-anchor="start" x="1742.12" y="-273.7" font-family="Times New Roman,serif" font-size="14.00">0x14813c2eb50</text>
</g>
<!-- node5&#45;&gt;node6 -->
<g id="edge7" class="edge">
<title>node5:next&#45;&gt;node6:id</title>
<path fill="none" stroke="black" d="M1632.25,-279C1650.13,-279 1657.22,-279 1670.89,-279"/>
<polygon fill="black" stroke="black" points="1670.74,-282.5 1680.74,-279 1670.74,-275.5 1670.74,-282.5"/>
</g>
<!-- node7 -->
<g id="node9" class="node">
<title>node7</title>
<polygon fill="none" stroke="black" points="1939.25,-378 1939.25,-400 2005.25,-400 2005.25,-378 1939.25,-378"/>
<text text-anchor="start" x="1941.88" y="-383.7" font-family="Times New Roman,serif" font-size="14.00">Coefficient</text>
<polygon fill="none" stroke="black" points="2005.25,-378 2005.25,-400 2050.25,-400 2050.25,-378 2005.25,-378"/>
<text text-anchor="start" x="2008.25" y="-383.7" font-family="Times New Roman,serif" font-size="14.00">Degree</text>
<polygon fill="none" stroke="black" points="2050.25,-378 2050.25,-400 2142.25,-400 2142.25,-378 2050.25,-378"/>
<text text-anchor="start" x="2084.62" y="-383.7" font-family="Times New Roman,serif" font-size="14.00">next</text>
<polygon fill="none" stroke="black" points="1939.25,-356 1939.25,-378 2005.25,-378 2005.25,-356 1939.25,-356"/>
<text text-anchor="start" x="1965.5" y="-361.7" font-family="Times New Roman,serif" font-size="14.00">30</text>
<polygon fill="none" stroke="black" points="2005.25,-356 2005.25,-378 2050.25,-378 2050.25,-356 2005.25,-356"/>
<text text-anchor="start" x="2024.38" y="-361.7" font-family="Times New Roman,serif" font-size="14.00">6</text>
<polygon fill="none" stroke="black" points="2050.25,-356 2050.25,-378 2142.25,-378 2142.25,-356 2050.25,-356"/>
<text text-anchor="start" x="2053.12" y="-361.7" font-family="Times New Roman,serif" font-size="14.00">0x14813c2e8d0</text>
<polygon fill="none" stroke="black" points="1939.25,-334 1939.25,-356 2142.25,-356 2142.25,-334 1939.25,-334"/>
<text text-anchor="start" x="2007.38" y="-339.7" font-family="Times New Roman,serif" font-size="14.00">alamat node</text>
<polygon fill="none" stroke="black" points="1939.25,-312 1939.25,-334 2142.25,-334 2142.25,-312 1939.25,-312"/>
<text text-anchor="start" x="1997.25" y="-317.7" font-family="Times New Roman,serif" font-size="14.00">0x14813c2d310</text>
</g>
<!-- node6&#45;&gt;node7 -->
<g id="edge8" class="edge">
<title>node6:next&#45;&gt;node7:id</title>
<path fill="none" stroke="black" d="M1888.25,-323C1906.13,-323 1913.22,-323 1926.89,-323"/>
<polygon fill="black" stroke="black" points="1926.74,-326.5 1936.74,-323 1926.74,-319.5 1926.74,-326.5"/>
</g>
<!-- node8 -->
<g id="node10" class="node">
<title>node8</title>
<polygon fill="none" stroke="black" points="2194.25,-422 2194.25,-444 2260.25,-444 2260.25,-422 2194.25,-422"/>
<text text-anchor="start" x="2196.88" y="-427.7" font-family="Times New Roman,serif" font-size="14.00">Coefficient</text>
<polygon fill="none" stroke="black" points="2260.25,-422 2260.25,-444 2305.25,-444 2305.25,-422 2260.25,-422"/>
<text text-anchor="start" x="2263.25" y="-427.7" font-family="Times New Roman,serif" font-size="14.00">Degree</text>
<polygon fill="none" stroke="black" points="2305.25,-422 2305.25,-444 2396.25,-444 2396.25,-422 2305.25,-422"/>
<text text-anchor="start" x="2339.12" y="-427.7" font-family="Times New Roman,serif" font-size="14.00">next</text>
<polygon fill="none" stroke="black" points="2194.25,-400 2194.25,-422 2260.25,-422 2260.25,-400 2194.25,-400"/>
<text text-anchor="start" x="2220.5" y="-405.7" font-family="Times New Roman,serif" font-size="14.00">62</text>
<polygon fill="none" stroke="black" points="2260.25,-400 2260.25,-422 2305.25,-422 2305.25,-400 2260.25,-400"/>
<text text-anchor="start" x="2279.38" y="-405.7" font-family="Times New Roman,serif" font-size="14.00">5</text>
<polygon fill="none" stroke="black" points="2305.25,-400 2305.25,-422 2396.25,-422 2396.25,-400 2305.25,-400"/>
<text text-anchor="start" x="2308" y="-405.7" font-family="Times New Roman,serif" font-size="14.00">0x14813c2ec90</text>
<polygon fill="none" stroke="black" points="2194.25,-378 2194.25,-400 2396.25,-400 2396.25,-378 2194.25,-378"/>
<text text-anchor="start" x="2261.88" y="-383.7" font-family="Times New Roman,serif" font-size="14.00">alamat node</text>
<polygon fill="none" stroke="black" points="2194.25,-356 2194.25,-378 2396.25,-378 2396.25,-356 2194.25,-356"/>
<text text-anchor="start" x="2252.12" y="-361.7" font-family="Times New Roman,serif" font-size="14.00">0x14813c2e8d0</text>
</g>
<!-- node7&#45;&gt;node8 -->
<g id="edge9" class="edge">
<title>node7:next&#45;&gt;node8:id</title>
<path fill="none" stroke="black" d="M2143.25,-367C2161.13,-367 2168.22,-367 2181.89,-367"/>
<polygon fill="black" stroke="black" points="2181.74,-370.5 2191.74,-367 2181.74,-363.5 2181.74,-370.5"/>
</g>
<!-- node9 -->
<g id="node11" class="node">
<title>node9</title>
<polygon fill="none" stroke="black" points="2448.25,-466 2448.25,-488 2514.25,-488 2514.25,-466 2448.25,-466"/>
<text text-anchor="start" x="2450.88" y="-471.7" font-family="Times New Roman,serif" font-size="14.00">Coefficient</text>
<polygon fill="none" stroke="black" points="2514.25,-466 2514.25,-488 2559.25,-488 2559.25,-466 2514.25,-466"/>
<text text-anchor="start" x="2517.25" y="-471.7" font-family="Times New Roman,serif" font-size="14.00">Degree</text>
<polygon fill="none" stroke="black" points="2559.25,-466 2559.25,-488 2649.25,-488 2649.25,-466 2559.25,-466"/>
<text text-anchor="start" x="2592.62" y="-471.7" font-family="Times New Roman,serif" font-size="14.00">next</text>
<polygon fill="none" stroke="black" points="2448.25,-444 2448.25,-466 2514.25,-466 2514.25,-444 2448.25,-444"/>
<text text-anchor="start" x="2474.5" y="-449.7" font-family="Times New Roman,serif" font-size="14.00">44</text>
<polygon fill="none" stroke="black" points="2514.25,-444 2514.25,-466 2559.25,-466 2559.25,-444 2514.25,-444"/>
<text text-anchor="start" x="2533.38" y="-449.7" font-family="Times New Roman,serif" font-size="14.00">4</text>
<polygon fill="none" stroke="black" points="2559.25,-444 2559.25,-466 2649.25,-466 2649.25,-444 2559.25,-444"/>
<text text-anchor="start" x="2562.25" y="-449.7" font-family="Times New Roman,serif" font-size="14.00">0x14813c2fcd0</text>
<polygon fill="none" stroke="black" points="2448.25,-422 2448.25,-444 2649.25,-444 2649.25,-422 2448.25,-422"/>
<text text-anchor="start" x="2515.38" y="-427.7" font-family="Times New Roman,serif" font-size="14.00">alamat node</text>
<polygon fill="none" stroke="black" points="2448.25,-400 2448.25,-422 2649.25,-422 2649.25,-400 2448.25,-400"/>
<text text-anchor="start" x="2506" y="-405.7" font-family="Times New Roman,serif" font-size="14.00">0x14813c2ec90</text>
</g>
<!-- node8&#45;&gt;node9 -->
<g id="edge10" class="edge">
<title>node8:next&#45;&gt;node9:id</title>
<path fill="none" stroke="black" d="M2397.25,-411C2415.13,-411 2422.22,-411 2435.89,-411"/>
<polygon fill="black" stroke="black" points="2435.74,-414.5 2445.74,-411 2435.74,-407.5 2435.74,-414.5"/>
</g>
<!-- node10 -->
<g id="node12" class="node">
<title>node10</title>
<polygon fill="none" stroke="black" points="2701.25,-510 2701.25,-532 2767.25,-532 2767.25,-510 2701.25,-510"/>
<text text-anchor="start" x="2703.88" y="-515.7" font-family="Times New Roman,serif" font-size="14.00">Coefficient</text>
<polygon fill="none" stroke="black" points="2767.25,-510 2767.25,-532 2812.25,-532 2812.25,-510 2767.25,-510"/>
<text text-anchor="start" x="2770.25" y="-515.7" font-family="Times New Roman,serif" font-size="14.00">Degree</text>
<polygon fill="none" stroke="black" points="2812.25,-510 2812.25,-532 2902.25,-532 2902.25,-510 2812.25,-510"/>
<text text-anchor="start" x="2845.62" y="-515.7" font-family="Times New Roman,serif" font-size="14.00">next</text>
<polygon fill="none" stroke="black" points="2701.25,-488 2701.25,-510 2767.25,-510 2767.25,-488 2701.25,-488"/>
<text text-anchor="start" x="2727.5" y="-493.7" font-family="Times New Roman,serif" font-size="14.00">12</text>
<polygon fill="none" stroke="black" points="2767.25,-488 2767.25,-510 2812.25,-510 2812.25,-488 2767.25,-488"/>
<text text-anchor="start" x="2786.38" y="-493.7" font-family="Times New Roman,serif" font-size="14.00">3</text>
<polygon fill="none" stroke="black" points="2812.25,-488 2812.25,-510 2902.25,-510 2902.25,-488 2812.25,-488"/>
<text text-anchor="start" x="2814.88" y="-493.7" font-family="Times New Roman,serif" font-size="14.00">0x14813c2f2d0</text>
<polygon fill="none" stroke="black" points="2701.25,-466 2701.25,-488 2902.25,-488 2902.25,-466 2701.25,-466"/>
<text text-anchor="start" x="2768.38" y="-471.7" font-family="Times New Roman,serif" font-size="14.00">alamat node</text>
<polygon fill="none" stroke="black" points="2701.25,-444 2701.25,-466 2902.25,-466 2902.25,-444 2701.25,-444"/>
<text text-anchor="start" x="2759.75" y="-449.7" font-family="Times New Roman,serif" font-size="14.00">0x14813c2fcd0</text>
</g>
<!-- node9&#45;&gt;node10 -->
<g id="edge11" class="edge">
<title>node9:next&#45;&gt;node10:id</title>
<path fill="none" stroke="black" d="M2650.25,-455C2668.13,-455 2675.22,-455 2688.89,-455"/>
<polygon fill="black" stroke="black" points="2688.74,-458.5 2698.74,-455 2688.74,-451.5 2688.74,-458.5"/>
</g>
<!-- node11 -->
<g id="node13" class="node">
<title>node11</title>
<polygon fill="none" stroke="black" points="2954.25,-554 2954.25,-576 3020.25,-576 3020.25,-554 2954.25,-554"/>
<text text-anchor="start" x="2956.88" y="-559.7" font-family="Times New Roman,serif" font-size="14.00">Coefficient</text>
<polygon fill="none" stroke="black" points="3020.25,-554 3020.25,-576 3065.25,-576 3065.25,-554 3020.25,-554"/>
<text text-anchor="start" x="3023.25" y="-559.7" font-family="Times New Roman,serif" font-size="14.00">Degree</text>
<polygon fill="none" stroke="black" points="3065.25,-554 3065.25,-576 3100.25,-576 3100.25,-554 3065.25,-554"/>
<text text-anchor="start" x="3071.12" y="-559.7" font-family="Times New Roman,serif" font-size="14.00">next</text>
<polygon fill="none" stroke="black" points="2954.25,-532 2954.25,-554 3020.25,-554 3020.25,-532 2954.25,-532"/>
<text text-anchor="start" x="2983.88" y="-537.7" font-family="Times New Roman,serif" font-size="14.00">8</text>
<polygon fill="none" stroke="black" points="3020.25,-532 3020.25,-554 3065.25,-554 3065.25,-532 3020.25,-532"/>
<text text-anchor="start" x="3039.38" y="-537.7" font-family="Times New Roman,serif" font-size="14.00">2</text>
<polygon fill="none" stroke="black" points="3065.25,-532 3065.25,-554 3100.25,-554 3100.25,-532 3065.25,-532"/>
<text text-anchor="start" x="3068.12" y="-537.7" font-family="Times New Roman,serif" font-size="14.00">None</text>
<polygon fill="none" stroke="black" points="2954.25,-510 2954.25,-532 3100.25,-532 3100.25,-510 2954.25,-510"/>
<text text-anchor="start" x="2993.88" y="-515.7" font-family="Times New Roman,serif" font-size="14.00">alamat node</text>
<polygon fill="none" stroke="black" points="2954.25,-488 2954.25,-510 3100.25,-510 3100.25,-488 2954.25,-488"/>
<text text-anchor="start" x="2984.88" y="-493.7" font-family="Times New Roman,serif" font-size="14.00">0x14813c2f2d0</text>
</g>
<!-- node10&#45;&gt;node11 -->
<g id="edge12" class="edge">
<title>node10:next&#45;&gt;node11:id</title>
<path fill="none" stroke="black" d="M2903.25,-499C2921.13,-499 2928.22,-499 2941.89,-499"/>
<polygon fill="black" stroke="black" points="2941.74,-502.5 2951.74,-499 2941.74,-495.5 2941.74,-502.5"/>
</g>
<!-- node12 -->
<g id="node14" class="node">
<title>node12</title>
<text text-anchor="middle" x="3171.25" y="-537.95" font-family="Times New Roman,serif" font-size="14.00">None</text>
</g>
<!-- node11&#45;&gt;node12 -->
<g id="edge13" class="edge">
<title>node11:next&#45;&gt;node12</title>
<path fill="none" stroke="black" d="M3101.25,-543C3111.61,-543 3122.84,-543 3133.17,-543"/>
<polygon fill="black" stroke="black" points="3132.85,-546.5 3142.85,-543 3132.85,-539.5 3132.85,-546.5"/>
</g>
</g>
</svg>
