<?xml version="1.0" encoding="UTF-8" standalone="no"?>
<!DOCTYPE svg PUBLIC "-//W3C//DTD SVG 1.1//EN"
 "http://www.w3.org/Graphics/SVG/1.1/DTD/svg11.dtd">
<!-- Generated by graphviz version 12.1.2 (20240928.0832)
 -->
<!-- Pages: 1 -->
<svg width="914pt" height="192pt"
 viewBox="0.00 0.00 914.25 192.00" xmlns="http://www.w3.org/2000/svg" xmlns:xlink="http://www.w3.org/1999/xlink">
<g id="graph0" class="graph" transform="scale(1 1) rotate(0) translate(4 188)">
<polygon fill="white" stroke="none" points="-4,4 -4,-188 910.25,-188 910.25,4 -4,4"/>
<!-- head -->
<g id="node1" class="node">
<title>head</title>
<polygon fill="none" stroke="black" points="8,-27 8,-49.5 100.25,-49.5 100.25,-27 8,-27"/>
<text text-anchor="start" x="41.38" y="-33.2" font-family="Times New Roman,serif" font-size="14.00">head</text>
<polygon fill="none" stroke="black" points="8,-4.5 8,-27 100.25,-27 100.25,-4.5 8,-4.5"/>
<text text-anchor="start" x="11" y="-10.7" font-family="Times New Roman,serif" font-size="14.00">0x2a127991e50</text>
</g>
<!-- node0 -->
<g id="node2" class="node">
<title>node0</title>
<polygon fill="none" stroke="black" points="152.25,-70 152.25,-92 218.25,-92 218.25,-70 152.25,-70"/>
<text text-anchor="start" x="154.88" y="-75.7" font-family="Times New Roman,serif" font-size="14.00">Coefficient</text>
<polygon fill="none" stroke="black" points="218.25,-70 218.25,-92 263.25,-92 263.25,-70 218.25,-70"/>
<text text-anchor="start" x="221.25" y="-75.7" font-family="Times New Roman,serif" font-size="14.00">Degree</text>
<polygon fill="none" stroke="black" points="263.25,-70 263.25,-92 354.25,-92 354.25,-70 263.25,-70"/>
<text text-anchor="start" x="297.12" y="-75.7" font-family="Times New Roman,serif" font-size="14.00">next</text>
<polygon fill="none" stroke="black" points="152.25,-48 152.25,-70 218.25,-70 218.25,-48 152.25,-48"/>
<text text-anchor="start" x="181.88" y="-53.7" font-family="Times New Roman,serif" font-size="14.00">2</text>
<polygon fill="none" stroke="black" points="218.25,-48 218.25,-70 263.25,-70 263.25,-48 218.25,-48"/>
<text text-anchor="start" x="237.38" y="-53.7" font-family="Times New Roman,serif" font-size="14.00">5</text>
<polygon fill="none" stroke="black" points="263.25,-48 263.25,-70 354.25,-70 354.25,-48 263.25,-48"/>
<text text-anchor="start" x="266" y="-53.7" font-family="Times New Roman,serif" font-size="14.00">0x2a126aa1290</text>
<polygon fill="none" stroke="black" points="152.25,-26 152.25,-48 354.25,-48 354.25,-26 152.25,-26"/>
<text text-anchor="start" x="219.88" y="-31.7" font-family="Times New Roman,serif" font-size="14.00">alamat node</text>
<polygon fill="none" stroke="black" points="152.25,-4 152.25,-26 354.25,-26 354.25,-4 152.25,-4"/>
<text text-anchor="start" x="210.12" y="-9.7" font-family="Times New Roman,serif" font-size="14.00">0x2a127991e50</text>
</g>
<!-- head&#45;&gt;node0 -->
<g id="edge1" class="edge">
<title>head:contents&#45;&gt;node0:id</title>
<path fill="none" stroke="black" d="M101.25,-15.75C119.13,-15.75 126.22,-15.26 139.89,-15.07"/>
<polygon fill="black" stroke="black" points="139.76,-18.58 149.74,-15.01 139.71,-11.58 139.76,-18.58"/>
</g>
<!-- node1 -->
<g id="node3" class="node">
<title>node1</title>
<polygon fill="none" stroke="black" points="406.25,-114 406.25,-136 472.25,-136 472.25,-114 406.25,-114"/>
<text text-anchor="start" x="408.88" y="-119.7" font-family="Times New Roman,serif" font-size="14.00">Coefficient</text>
<polygon fill="none" stroke="black" points="472.25,-114 472.25,-136 517.25,-136 517.25,-114 472.25,-114"/>
<text text-anchor="start" x="475.25" y="-119.7" font-family="Times New Roman,serif" font-size="14.00">Degree</text>
<polygon fill="none" stroke="black" points="517.25,-114 517.25,-136 610.25,-136 610.25,-114 517.25,-114"/>
<text text-anchor="start" x="552.12" y="-119.7" font-family="Times New Roman,serif" font-size="14.00">next</text>
<polygon fill="none" stroke="black" points="406.25,-92 406.25,-114 472.25,-114 472.25,-92 406.25,-92"/>
<text text-anchor="start" x="430.25" y="-97.7" font-family="Times New Roman,serif" font-size="14.00">&#45;10</text>
<polygon fill="none" stroke="black" points="472.25,-92 472.25,-114 517.25,-114 517.25,-92 472.25,-92"/>
<text text-anchor="start" x="491.38" y="-97.7" font-family="Times New Roman,serif" font-size="14.00">4</text>
<polygon fill="none" stroke="black" points="517.25,-92 517.25,-114 610.25,-114 610.25,-92 517.25,-92"/>
<text text-anchor="start" x="520.25" y="-97.7" font-family="Times New Roman,serif" font-size="14.00">0x2a1279915d0</text>
<polygon fill="none" stroke="black" points="406.25,-70 406.25,-92 610.25,-92 610.25,-70 406.25,-70"/>
<text text-anchor="start" x="474.88" y="-75.7" font-family="Times New Roman,serif" font-size="14.00">alamat node</text>
<polygon fill="none" stroke="black" points="406.25,-48 406.25,-70 610.25,-70 610.25,-48 406.25,-48"/>
<text text-anchor="start" x="465.5" y="-53.7" font-family="Times New Roman,serif" font-size="14.00">0x2a126aa1290</text>
</g>
<!-- node0&#45;&gt;node1 -->
<g id="edge2" class="edge">
<title>node0:next&#45;&gt;node1:id</title>
<path fill="none" stroke="black" d="M355.25,-59C373.13,-59 380.22,-59 393.89,-59"/>
<polygon fill="black" stroke="black" points="393.74,-62.5 403.74,-59 393.74,-55.5 393.74,-62.5"/>
</g>
<!-- node2 -->
<g id="node4" class="node">
<title>node2</title>
<polygon fill="none" stroke="black" points="662.25,-158 662.25,-180 728.25,-180 728.25,-158 662.25,-158"/>
<text text-anchor="start" x="664.88" y="-163.7" font-family="Times New Roman,serif" font-size="14.00">Coefficient</text>
<polygon fill="none" stroke="black" points="728.25,-158 728.25,-180 773.25,-180 773.25,-158 728.25,-158"/>
<text text-anchor="start" x="731.25" y="-163.7" font-family="Times New Roman,serif" font-size="14.00">Degree</text>
<polygon fill="none" stroke="black" points="773.25,-158 773.25,-180 808.25,-180 808.25,-158 773.25,-158"/>
<text text-anchor="start" x="779.12" y="-163.7" font-family="Times New Roman,serif" font-size="14.00">next</text>
<polygon fill="none" stroke="black" points="662.25,-136 662.25,-158 728.25,-158 728.25,-136 662.25,-136"/>
<text text-anchor="start" x="691.88" y="-141.7" font-family="Times New Roman,serif" font-size="14.00">1</text>
<polygon fill="none" stroke="black" points="728.25,-136 728.25,-158 773.25,-158 773.25,-136 728.25,-136"/>
<text text-anchor="start" x="747.38" y="-141.7" font-family="Times New Roman,serif" font-size="14.00">2</text>
<polygon fill="none" stroke="black" points="773.25,-136 773.25,-158 808.25,-158 808.25,-136 773.25,-136"/>
<text text-anchor="start" x="776.12" y="-141.7" font-family="Times New Roman,serif" font-size="14.00">None</text>
<polygon fill="none" stroke="black" points="662.25,-114 662.25,-136 808.25,-136 808.25,-114 662.25,-114"/>
<text text-anchor="start" x="701.88" y="-119.7" font-family="Times New Roman,serif" font-size="14.00">alamat node</text>
<polygon fill="none" stroke="black" points="662.25,-92 662.25,-114 808.25,-114 808.25,-92 662.25,-92"/>
<text text-anchor="start" x="691.75" y="-97.7" font-family="Times New Roman,serif" font-size="14.00">0x2a1279915d0</text>
</g>
<!-- node1&#45;&gt;node2 -->
<g id="edge3" class="edge">
<title>node1:next&#45;&gt;node2:id</title>
<path fill="none" stroke="black" d="M611.25,-103C629.13,-103 636.22,-103 649.89,-103"/>
<polygon fill="black" stroke="black" points="649.74,-106.5 659.74,-103 649.74,-99.5 649.74,-106.5"/>
</g>
<!-- node3 -->
<g id="node5" class="node">
<title>node3</title>
<text text-anchor="middle" x="879.25" y="-141.95" font-family="Times New Roman,serif" font-size="14.00">None</text>
</g>
<!-- node2&#45;&gt;node3 -->
<g id="edge4" class="edge">
<title>node2:next&#45;&gt;node3</title>
<path fill="none" stroke="black" d="M809.25,-147C819.61,-147 830.84,-147 841.17,-147"/>
<polygon fill="black" stroke="black" points="840.85,-150.5 850.85,-147 840.85,-143.5 840.85,-150.5"/>
</g>
</g>
</svg>
