<?xml version="1.0" encoding="UTF-8" standalone="no"?>
<!DOCTYPE svg PUBLIC "-//W3C//DTD SVG 1.1//EN"
 "http://www.w3.org/Graphics/SVG/1.1/DTD/svg11.dtd">
<!-- Generated by graphviz version 12.1.2 (20240928.0832)
 -->
<!-- Pages: 1 -->
<svg width="1418pt" height="280pt"
 viewBox="0.00 0.00 1418.25 280.00" xmlns="http://www.w3.org/2000/svg" xmlns:xlink="http://www.w3.org/1999/xlink">
<g id="graph0" class="graph" transform="scale(1 1) rotate(0) translate(4 276)">
<polygon fill="white" stroke="none" points="-4,4 -4,-276 1414.25,-276 1414.25,4 -4,4"/>
<!-- head -->
<g id="node1" class="node">
<title>head</title>
<polygon fill="none" stroke="black" points="8,-27 8,-49.5 100.25,-49.5 100.25,-27 8,-27"/>
<text text-anchor="start" x="41.38" y="-33.2" font-family="Times New Roman,serif" font-size="14.00">head</text>
<polygon fill="none" stroke="black" points="8,-4.5 8,-27 100.25,-27 100.25,-4.5 8,-4.5"/>
<text text-anchor="start" x="11" y="-10.7" font-family="Times New Roman,serif" font-size="14.00">0x14813c05e10</text>
</g>
<!-- node0 -->
<g id="node2" class="node">
<title>node0</title>
<polygon fill="none" stroke="black" points="152.25,-70 152.25,-92 218.25,-92 218.25,-70 152.25,-70"/>
<text text-anchor="start" x="154.88" y="-75.7" font-family="Times New Roman,serif" font-size="14.00">Coefficient</text>
<polygon fill="none" stroke="black" points="218.25,-70 218.25,-92 263.25,-92 263.25,-70 218.25,-70"/>
<text text-anchor="start" x="221.25" y="-75.7" font-family="Times New Roman,serif" font-size="14.00">Degree</text>
<polygon fill="none" stroke="black" points="263.25,-70 263.25,-92 353.25,-92 353.25,-70 263.25,-70"/>
<text text-anchor="start" x="296.62" y="-75.7" font-family="Times New Roman,serif" font-size="14.00">next</text>
<polygon fill="none" stroke="black" points="152.25,-48 152.25,-70 218.25,-70 218.25,-48 152.25,-48"/>
<text text-anchor="start" x="181.88" y="-53.7" font-family="Times New Roman,serif" font-size="14.00">8</text>
<polygon fill="none" stroke="black" points="218.25,-48 218.25,-70 263.25,-70 263.25,-48 218.25,-48"/>
<text text-anchor="start" x="237.38" y="-53.7" font-family="Times New Roman,serif" font-size="14.00">8</text>
<polygon fill="none" stroke="black" points="263.25,-48 263.25,-70 353.25,-70 353.25,-48 263.25,-48"/>
<text text-anchor="start" x="265.88" y="-53.7" font-family="Times New Roman,serif" font-size="14.00">0x14813c05f10</text>
<polygon fill="none" stroke="black" points="152.25,-26 152.25,-48 353.25,-48 353.25,-26 152.25,-26"/>
<text text-anchor="start" x="219.38" y="-31.7" font-family="Times New Roman,serif" font-size="14.00">alamat node</text>
<polygon fill="none" stroke="black" points="152.25,-4 152.25,-26 353.25,-26 353.25,-4 152.25,-4"/>
<text text-anchor="start" x="209.62" y="-9.7" font-family="Times New Roman,serif" font-size="14.00">0x14813c05e10</text>
</g>
<!-- head&#45;&gt;node0 -->
<g id="edge1" class="edge">
<title>head:contents&#45;&gt;node0:id</title>
<path fill="none" stroke="black" d="M101.25,-15.75C119.13,-15.75 126.22,-15.26 139.89,-15.07"/>
<polygon fill="black" stroke="black" points="139.76,-18.58 149.74,-15.01 139.71,-11.58 139.76,-18.58"/>
</g>
<!-- node1 -->
<g id="node3" class="node">
<title>node1</title>
<polygon fill="none" stroke="black" points="405.25,-114 405.25,-136 471.25,-136 471.25,-114 405.25,-114"/>
<text text-anchor="start" x="407.88" y="-119.7" font-family="Times New Roman,serif" font-size="14.00">Coefficient</text>
<polygon fill="none" stroke="black" points="471.25,-114 471.25,-136 516.25,-136 516.25,-114 471.25,-114"/>
<text text-anchor="start" x="474.25" y="-119.7" font-family="Times New Roman,serif" font-size="14.00">Degree</text>
<polygon fill="none" stroke="black" points="516.25,-114 516.25,-136 606.25,-136 606.25,-114 516.25,-114"/>
<text text-anchor="start" x="549.62" y="-119.7" font-family="Times New Roman,serif" font-size="14.00">next</text>
<polygon fill="none" stroke="black" points="405.25,-92 405.25,-114 471.25,-114 471.25,-92 405.25,-92"/>
<text text-anchor="start" x="434.88" y="-97.7" font-family="Times New Roman,serif" font-size="14.00">6</text>
<polygon fill="none" stroke="black" points="471.25,-92 471.25,-114 516.25,-114 516.25,-92 471.25,-92"/>
<text text-anchor="start" x="490.38" y="-97.7" font-family="Times New Roman,serif" font-size="14.00">6</text>
<polygon fill="none" stroke="black" points="516.25,-92 516.25,-114 606.25,-114 606.25,-92 516.25,-92"/>
<text text-anchor="start" x="518.88" y="-97.7" font-family="Times New Roman,serif" font-size="14.00">0x14813c05f50</text>
<polygon fill="none" stroke="black" points="405.25,-70 405.25,-92 606.25,-92 606.25,-70 405.25,-70"/>
<text text-anchor="start" x="472.38" y="-75.7" font-family="Times New Roman,serif" font-size="14.00">alamat node</text>
<polygon fill="none" stroke="black" points="405.25,-48 405.25,-70 606.25,-70 606.25,-48 405.25,-48"/>
<text text-anchor="start" x="463.38" y="-53.7" font-family="Times New Roman,serif" font-size="14.00">0x14813c05f10</text>
</g>
<!-- node0&#45;&gt;node1 -->
<g id="edge2" class="edge">
<title>node0:next&#45;&gt;node1:id</title>
<path fill="none" stroke="black" d="M354.25,-59C372.13,-59 379.22,-59 392.89,-59"/>
<polygon fill="black" stroke="black" points="392.74,-62.5 402.74,-59 392.74,-55.5 392.74,-62.5"/>
</g>
<!-- node2 -->
<g id="node4" class="node">
<title>node2</title>
<polygon fill="none" stroke="black" points="658.25,-158 658.25,-180 724.25,-180 724.25,-158 658.25,-158"/>
<text text-anchor="start" x="660.88" y="-163.7" font-family="Times New Roman,serif" font-size="14.00">Coefficient</text>
<polygon fill="none" stroke="black" points="724.25,-158 724.25,-180 769.25,-180 769.25,-158 724.25,-158"/>
<text text-anchor="start" x="727.25" y="-163.7" font-family="Times New Roman,serif" font-size="14.00">Degree</text>
<polygon fill="none" stroke="black" points="769.25,-158 769.25,-180 861.25,-180 861.25,-158 769.25,-158"/>
<text text-anchor="start" x="803.62" y="-163.7" font-family="Times New Roman,serif" font-size="14.00">next</text>
<polygon fill="none" stroke="black" points="658.25,-136 658.25,-158 724.25,-158 724.25,-136 658.25,-136"/>
<text text-anchor="start" x="685.62" y="-141.7" font-family="Times New Roman,serif" font-size="14.00">&#45;1</text>
<polygon fill="none" stroke="black" points="724.25,-136 724.25,-158 769.25,-158 769.25,-136 724.25,-136"/>
<text text-anchor="start" x="743.38" y="-141.7" font-family="Times New Roman,serif" font-size="14.00">5</text>
<polygon fill="none" stroke="black" points="769.25,-136 769.25,-158 861.25,-158 861.25,-136 769.25,-136"/>
<text text-anchor="start" x="772.12" y="-141.7" font-family="Times New Roman,serif" font-size="14.00">0x14813c05e50</text>
<polygon fill="none" stroke="black" points="658.25,-114 658.25,-136 861.25,-136 861.25,-114 658.25,-114"/>
<text text-anchor="start" x="726.38" y="-119.7" font-family="Times New Roman,serif" font-size="14.00">alamat node</text>
<polygon fill="none" stroke="black" points="658.25,-92 658.25,-114 861.25,-114 861.25,-92 658.25,-92"/>
<text text-anchor="start" x="717.38" y="-97.7" font-family="Times New Roman,serif" font-size="14.00">0x14813c05f50</text>
</g>
<!-- node1&#45;&gt;node2 -->
<g id="edge3" class="edge">
<title>node1:next&#45;&gt;node2:id</title>
<path fill="none" stroke="black" d="M607.25,-103C625.13,-103 632.22,-103 645.89,-103"/>
<polygon fill="black" stroke="black" points="645.74,-106.5 655.74,-103 645.74,-99.5 645.74,-106.5"/>
</g>
<!-- node3 -->
<g id="node5" class="node">
<title>node3</title>
<polygon fill="none" stroke="black" points="913.25,-202 913.25,-224 979.25,-224 979.25,-202 913.25,-202"/>
<text text-anchor="start" x="915.88" y="-207.7" font-family="Times New Roman,serif" font-size="14.00">Coefficient</text>
<polygon fill="none" stroke="black" points="979.25,-202 979.25,-224 1024.25,-224 1024.25,-202 979.25,-202"/>
<text text-anchor="start" x="982.25" y="-207.7" font-family="Times New Roman,serif" font-size="14.00">Degree</text>
<polygon fill="none" stroke="black" points="1024.25,-202 1024.25,-224 1114.25,-224 1114.25,-202 1024.25,-202"/>
<text text-anchor="start" x="1057.62" y="-207.7" font-family="Times New Roman,serif" font-size="14.00">next</text>
<polygon fill="none" stroke="black" points="913.25,-180 913.25,-202 979.25,-202 979.25,-180 913.25,-180"/>
<text text-anchor="start" x="942.88" y="-185.7" font-family="Times New Roman,serif" font-size="14.00">3</text>
<polygon fill="none" stroke="black" points="979.25,-180 979.25,-202 1024.25,-202 1024.25,-180 979.25,-180"/>
<text text-anchor="start" x="998.38" y="-185.7" font-family="Times New Roman,serif" font-size="14.00">3</text>
<polygon fill="none" stroke="black" points="1024.25,-180 1024.25,-202 1114.25,-202 1114.25,-180 1024.25,-180"/>
<text text-anchor="start" x="1026.88" y="-185.7" font-family="Times New Roman,serif" font-size="14.00">0x1481a436f50</text>
<polygon fill="none" stroke="black" points="913.25,-158 913.25,-180 1114.25,-180 1114.25,-158 913.25,-158"/>
<text text-anchor="start" x="980.38" y="-163.7" font-family="Times New Roman,serif" font-size="14.00">alamat node</text>
<polygon fill="none" stroke="black" points="913.25,-136 913.25,-158 1114.25,-158 1114.25,-136 913.25,-136"/>
<text text-anchor="start" x="970.62" y="-141.7" font-family="Times New Roman,serif" font-size="14.00">0x14813c05e50</text>
</g>
<!-- node2&#45;&gt;node3 -->
<g id="edge4" class="edge">
<title>node2:next&#45;&gt;node3:id</title>
<path fill="none" stroke="black" d="M862.25,-147C880.13,-147 887.22,-147 900.89,-147"/>
<polygon fill="black" stroke="black" points="900.74,-150.5 910.74,-147 900.74,-143.5 900.74,-150.5"/>
</g>
<!-- node4 -->
<g id="node6" class="node">
<title>node4</title>
<polygon fill="none" stroke="black" points="1166.25,-246 1166.25,-268 1232.25,-268 1232.25,-246 1166.25,-246"/>
<text text-anchor="start" x="1168.88" y="-251.7" font-family="Times New Roman,serif" font-size="14.00">Coefficient</text>
<polygon fill="none" stroke="black" points="1232.25,-246 1232.25,-268 1277.25,-268 1277.25,-246 1232.25,-246"/>
<text text-anchor="start" x="1235.25" y="-251.7" font-family="Times New Roman,serif" font-size="14.00">Degree</text>
<polygon fill="none" stroke="black" points="1277.25,-246 1277.25,-268 1312.25,-268 1312.25,-246 1277.25,-246"/>
<text text-anchor="start" x="1283.12" y="-251.7" font-family="Times New Roman,serif" font-size="14.00">next</text>
<polygon fill="none" stroke="black" points="1166.25,-224 1166.25,-246 1232.25,-246 1232.25,-224 1166.25,-224"/>
<text text-anchor="start" x="1195.88" y="-229.7" font-family="Times New Roman,serif" font-size="14.00">2</text>
<polygon fill="none" stroke="black" points="1232.25,-224 1232.25,-246 1277.25,-246 1277.25,-224 1232.25,-224"/>
<text text-anchor="start" x="1251.38" y="-229.7" font-family="Times New Roman,serif" font-size="14.00">2</text>
<polygon fill="none" stroke="black" points="1277.25,-224 1277.25,-246 1312.25,-246 1312.25,-224 1277.25,-224"/>
<text text-anchor="start" x="1280.12" y="-229.7" font-family="Times New Roman,serif" font-size="14.00">None</text>
<polygon fill="none" stroke="black" points="1166.25,-202 1166.25,-224 1312.25,-224 1312.25,-202 1166.25,-202"/>
<text text-anchor="start" x="1205.88" y="-207.7" font-family="Times New Roman,serif" font-size="14.00">alamat node</text>
<polygon fill="none" stroke="black" points="1166.25,-180 1166.25,-202 1312.25,-202 1312.25,-180 1166.25,-180"/>
<text text-anchor="start" x="1196.88" y="-185.7" font-family="Times New Roman,serif" font-size="14.00">0x1481a436f50</text>
</g>
<!-- node3&#45;&gt;node4 -->
<g id="edge5" class="edge">
<title>node3:next&#45;&gt;node4:id</title>
<path fill="none" stroke="black" d="M1115.25,-191C1133.13,-191 1140.22,-191 1153.89,-191"/>
<polygon fill="black" stroke="black" points="1153.74,-194.5 1163.74,-191 1153.74,-187.5 1153.74,-194.5"/>
</g>
<!-- node5 -->
<g id="node7" class="node">
<title>node5</title>
<text text-anchor="middle" x="1383.25" y="-229.95" font-family="Times New Roman,serif" font-size="14.00">None</text>
</g>
<!-- node4&#45;&gt;node5 -->
<g id="edge6" class="edge">
<title>node4:next&#45;&gt;node5</title>
<path fill="none" stroke="black" d="M1313.25,-235C1323.61,-235 1334.84,-235 1345.17,-235"/>
<polygon fill="black" stroke="black" points="1344.85,-238.5 1354.85,-235 1344.85,-231.5 1344.85,-238.5"/>
</g>
</g>
</svg>
