<?xml version="1.0" encoding="UTF-8" standalone="no"?>
<!DOCTYPE svg PUBLIC "-//W3C//DTD SVG 1.1//EN"
 "http://www.w3.org/Graphics/SVG/1.1/DTD/svg11.dtd">
<!-- Generated by graphviz version 2.43.0 (0)
 -->
<!-- Title: %3 Pages: 1 -->
<svg width="170pt" height="188pt"
 viewBox="0.00 0.00 170.00 188.00" xmlns="http://www.w3.org/2000/svg" xmlns:xlink="http://www.w3.org/1999/xlink">
<g id="graph0" class="graph" transform="scale(1 1) rotate(0) translate(4 184)">
<title>%3</title>
<polygon fill="white" stroke="transparent" points="-4,4 -4,-184 166,-184 166,4 -4,4"/>
<!-- node0 -->
<g id="node1" class="node">
<title>node0</title>
<ellipse fill="none" stroke="black" cx="99" cy="-162" rx="27" ry="18"/>
<text text-anchor="middle" x="99" y="-158.3" font-family="Times,serif" font-size="14.00">10</text>
</g>
<!-- node1 -->
<g id="node2" class="node">
<title>node1</title>
<ellipse fill="none" stroke="black" cx="63" cy="-90" rx="27" ry="18"/>
<text text-anchor="middle" x="63" y="-86.3" font-family="Times,serif" font-size="14.00">5</text>
</g>
<!-- node0&#45;&gt;node1 -->
<g id="edge1" class="edge">
<title>node0&#45;&gt;node1</title>
<path fill="none" stroke="black" d="M90.65,-144.76C86.29,-136.28 80.85,-125.71 75.96,-116.2"/>
<polygon fill="black" stroke="black" points="78.99,-114.44 71.3,-107.15 72.77,-117.64 78.99,-114.44"/>
</g>
<!-- node2 -->
<g id="node3" class="node">
<title>node2</title>
<text text-anchor="middle" x="135" y="-86.3" font-family="Times,serif" font-size="14.00">NULL</text>
</g>
<!-- node0&#45;&gt;node2 -->
<g id="edge2" class="edge">
<title>node0&#45;&gt;node2</title>
<path fill="none" stroke="black" d="M107.35,-144.76C111.54,-136.61 116.73,-126.53 121.47,-117.31"/>
<polygon fill="black" stroke="black" points="124.73,-118.62 126.19,-108.12 118.51,-115.42 124.73,-118.62"/>
</g>
<!-- node3 -->
<g id="node4" class="node">
<title>node3</title>
<text text-anchor="middle" x="27" y="-14.3" font-family="Times,serif" font-size="14.00">NULL</text>
</g>
<!-- node1&#45;&gt;node3 -->
<g id="edge3" class="edge">
<title>node1&#45;&gt;node3</title>
<path fill="none" stroke="black" d="M54.65,-72.76C50.46,-64.61 45.27,-54.53 40.53,-45.31"/>
<polygon fill="black" stroke="black" points="43.49,-43.42 35.81,-36.12 37.27,-46.62 43.49,-43.42"/>
</g>
<!-- node4 -->
<g id="node5" class="node">
<title>node4</title>
<text text-anchor="middle" x="99" y="-14.3" font-family="Times,serif" font-size="14.00">NULL</text>
</g>
<!-- node1&#45;&gt;node4 -->
<g id="edge4" class="edge">
<title>node1&#45;&gt;node4</title>
<path fill="none" stroke="black" d="M71.35,-72.76C75.54,-64.61 80.73,-54.53 85.47,-45.31"/>
<polygon fill="black" stroke="black" points="88.73,-46.62 90.19,-36.12 82.51,-43.42 88.73,-46.62"/>
</g>
</g>
</svg>
