<?xml version="1.0" encoding="UTF-8" standalone="no"?>
<!DOCTYPE svg PUBLIC "-//W3C//DTD SVG 1.1//EN"
 "http://www.w3.org/Graphics/SVG/1.1/DTD/svg11.dtd">
<!-- Generated by graphviz version 8.1.0 (20230707.0739)
 -->
<!-- Pages: 1 -->
<svg width="65pt" height="132pt"
 viewBox="0.00 0.00 65.00 132.00" xmlns="http://www.w3.org/2000/svg" xmlns:xlink="http://www.w3.org/1999/xlink">
<g id="graph0" class="graph" transform="scale(1 1) rotate(0) translate(4 128)">
<polygon fill="white" stroke="none" points="-4,4 -4,-128 61,-128 61,4 -4,4"/>
<!-- A -->
<g id="node1" class="node">
<title>A</title>
<polygon fill="none" stroke="black" points="8,-76 8,-120 21,-120 21,-76 8,-76"/>
<text text-anchor="start" x="10.61" y="-93.8" font-family="Times,serif" font-size="14.00">P</text>
<polygon fill="none" stroke="black" points="21,-98 21,-120 49,-120 49,-98 21,-98"/>
<text text-anchor="start" x="29.94" y="-104.4" font-family="Times,serif" font-size="14.00">Q</text>
<polygon fill="none" stroke="black" points="21,-76 21,-98 36,-98 36,-76 21,-76"/>
<text text-anchor="start" x="23.83" y="-82.4" font-family="Times,serif" font-size="14.00">R</text>
<polygon fill="none" stroke="black" points="36,-76 36,-98 49,-98 49,-76 36,-76"/>
<text text-anchor="start" x="38.61" y="-82.4" font-family="Times,serif" font-size="14.00">S</text>
</g>
<!-- B -->
<g id="node2" class="node">
<title>B</title>
<ellipse fill="none" stroke="black" cx="28.5" cy="-18" rx="27" ry="18"/>
<text text-anchor="middle" x="28.5" y="-13.8" font-family="Times,serif" font-size="14.00">B</text>
</g>
<!-- A&#45;&gt;B -->
<g id="edge1" class="edge">
<title>A&#45;&gt;B</title>
<path fill="none" stroke="black" d="M28.5,-72.32C28.5,-64.22 28.5,-55.16 28.5,-46.84"/>
<polygon fill="black" stroke="black" points="32,-47.12 28.5,-37.12 25,-47.12 32,-47.12"/>
</g>
</g>
</svg>
