<?xml version="1.0" encoding="UTF-8" standalone="no"?>
<!DOCTYPE svg PUBLIC "-//W3C//DTD SVG 1.1//EN"
 "http://www.w3.org/Graphics/SVG/1.1/DTD/svg11.dtd">
<!-- Generated by graphviz version 8.1.0 (20230707.0739)
 -->
<!-- Pages: 1 -->
<svg width="1065pt" height="258pt"
 viewBox="0.00 0.00 1064.88 257.87" xmlns="http://www.w3.org/2000/svg" xmlns:xlink="http://www.w3.org/1999/xlink">
<g id="graph0" class="graph" transform="scale(1 1) rotate(0) translate(4 253.87)">
<polygon fill="white" stroke="none" points="-4,4 -4,-253.87 1060.88,-253.87 1060.88,4 -4,4"/>
<!-- head -->
<g id="node1" class="node">
<title>head</title>
<polygon fill="none" stroke="black" points="8,-141.8 8,-164.6 87.88,-164.6 87.88,-141.8 8,-141.8"/>
<text text-anchor="start" x="34.72" y="-149" font-family="Times,serif" font-size="14.00">head</text>
<polygon fill="none" stroke="black" points="8,-119 8,-141.8 87.88,-141.8 87.88,-119 8,-119"/>
<text text-anchor="start" x="11" y="-126.2" font-family="Times,serif" font-size="14.00">0x112f3a620</text>
</g>
<!-- node0 -->
<g id="node2" class="node">
<title>node0</title>
<polygon fill="none" stroke="black" points="139.88,-185.8 139.88,-207.8 175.88,-207.8 175.88,-185.8 139.88,-185.8"/>
<text text-anchor="start" x="145.44" y="-192.2" font-family="Times,serif" font-size="14.00">prev</text>
<polygon fill="none" stroke="black" points="175.88,-185.8 175.88,-207.8 204.88,-207.8 204.88,-185.8 175.88,-185.8"/>
<text text-anchor="start" x="178.72" y="-192.2" font-family="Times,serif" font-size="14.00">data</text>
<polygon fill="none" stroke="black" points="204.88,-185.8 204.88,-207.8 283.88,-207.8 283.88,-185.8 204.88,-185.8"/>
<text text-anchor="start" x="232.32" y="-192.2" font-family="Times,serif" font-size="14.00">next</text>
<polygon fill="none" stroke="black" points="139.88,-163.8 139.88,-185.8 175.88,-185.8 175.88,-163.8 139.88,-163.8"/>
<text text-anchor="start" x="142.71" y="-170.2" font-family="Times,serif" font-size="14.00">None</text>
<polygon fill="none" stroke="black" points="175.88,-163.8 175.88,-185.8 204.88,-185.8 204.88,-163.8 175.88,-163.8"/>
<text text-anchor="start" x="183.38" y="-170.2" font-family="Times,serif" font-size="14.00">35</text>
<polygon fill="none" stroke="black" points="204.88,-163.8 204.88,-185.8 283.88,-185.8 283.88,-163.8 204.88,-163.8"/>
<text text-anchor="start" x="207.44" y="-170.2" font-family="Times,serif" font-size="14.00">0x112f3bbe0</text>
<polygon fill="none" stroke="black" points="139.88,-141.8 139.88,-163.8 283.88,-163.8 283.88,-141.8 139.88,-141.8"/>
<text text-anchor="start" x="177.86" y="-148.2" font-family="Times,serif" font-size="14.00">alamat node</text>
<polygon fill="none" stroke="black" points="139.88,-119.8 139.88,-141.8 283.88,-141.8 283.88,-119.8 139.88,-119.8"/>
<text text-anchor="start" x="174.94" y="-126.2" font-family="Times,serif" font-size="14.00">0x112f3a620</text>
</g>
<!-- head&#45;&gt;node0 -->
<g id="edge1" class="edge">
<title>head:contents&#45;&gt;node0:id</title>
<path fill="none" stroke="black" d="M88.94,-130.8C106.97,-130.8 114.02,-130.8 127.93,-130.8"/>
<polygon fill="black" stroke="black" points="127.88,-134.3 137.88,-130.8 127.88,-127.3 127.88,-134.3"/>
</g>
<!-- node1 -->
<g id="node3" class="node">
<title>node1</title>
<polygon fill="none" stroke="black" points="335.88,-141.8 335.88,-163.8 414.88,-163.8 414.88,-141.8 335.88,-141.8"/>
<text text-anchor="start" x="362.94" y="-148.2" font-family="Times,serif" font-size="14.00">prev</text>
<polygon fill="none" stroke="black" points="414.88,-141.8 414.88,-163.8 443.88,-163.8 443.88,-141.8 414.88,-141.8"/>
<text text-anchor="start" x="417.72" y="-148.2" font-family="Times,serif" font-size="14.00">data</text>
<polygon fill="none" stroke="black" points="443.88,-141.8 443.88,-163.8 522.88,-163.8 522.88,-141.8 443.88,-141.8"/>
<text text-anchor="start" x="471.32" y="-148.2" font-family="Times,serif" font-size="14.00">next</text>
<polygon fill="none" stroke="black" points="335.88,-119.8 335.88,-141.8 414.88,-141.8 414.88,-119.8 335.88,-119.8"/>
<text text-anchor="start" x="338.44" y="-126.2" font-family="Times,serif" font-size="14.00">0x112f3a620</text>
<polygon fill="none" stroke="black" points="414.88,-119.8 414.88,-141.8 443.88,-141.8 443.88,-119.8 414.88,-119.8"/>
<text text-anchor="start" x="422.38" y="-126.2" font-family="Times,serif" font-size="14.00">25</text>
<polygon fill="none" stroke="black" points="443.88,-119.8 443.88,-141.8 522.88,-141.8 522.88,-119.8 443.88,-119.8"/>
<text text-anchor="start" x="446.44" y="-126.2" font-family="Times,serif" font-size="14.00">0x112f3add0</text>
<polygon fill="none" stroke="black" points="335.88,-97.8 335.88,-119.8 522.88,-119.8 522.88,-97.8 335.88,-97.8"/>
<text text-anchor="start" x="395.36" y="-104.2" font-family="Times,serif" font-size="14.00">alamat node</text>
<polygon fill="none" stroke="black" points="335.88,-75.8 335.88,-97.8 522.88,-97.8 522.88,-75.8 335.88,-75.8"/>
<text text-anchor="start" x="392.44" y="-82.2" font-family="Times,serif" font-size="14.00">0x112f3bbe0</text>
</g>
<!-- node0&#45;&gt;node1 -->
<g id="edge2" class="edge">
<title>node0:next&#45;&gt;node1:id</title>
<path fill="none" stroke="black" d="M284.88,-174.8C325.54,-174.8 296.3,-102.53 323.86,-88.98"/>
<polygon fill="black" stroke="black" points="324.29,-92.25 333.38,-86.8 322.87,-85.4 324.29,-92.25"/>
</g>
<!-- node&#45;1 -->
<g id="node4" class="node">
<title>node&#45;1</title>
<text text-anchor="middle" x="429.38" y="-199.6" font-family="Times,serif" font-size="14.00">None</text>
</g>
<!-- node0&#45;&gt;node&#45;1 -->
<g id="edge3" class="edge">
<title>node0:prev&#45;&gt;node&#45;1</title>
<path fill="none" stroke="black" d="M138.88,-174.8C122.43,-174.8 128.09,-200.33 139.88,-211.8 207.42,-277.54 331.48,-242.35 392.53,-219.06"/>
<polygon fill="black" stroke="black" points="393.43,-222.07 401.46,-215.16 390.88,-215.55 393.43,-222.07"/>
</g>
<!-- node1&#45;&gt;node0 -->
<g id="edge5" class="edge">
<title>node1:prev&#45;&gt;node0:id</title>
<path fill="none" stroke="black" d="M334.38,-130.8C316.5,-130.8 309.52,-130.8 295.73,-130.8"/>
<polygon fill="black" stroke="black" points="295.88,-127.3 285.88,-130.8 295.88,-134.3 295.88,-127.3"/>
</g>
<!-- node2 -->
<g id="node5" class="node">
<title>node2</title>
<polygon fill="none" stroke="black" points="574.88,-141.8 574.88,-163.8 653.88,-163.8 653.88,-141.8 574.88,-141.8"/>
<text text-anchor="start" x="601.94" y="-148.2" font-family="Times,serif" font-size="14.00">prev</text>
<polygon fill="none" stroke="black" points="653.88,-141.8 653.88,-163.8 682.88,-163.8 682.88,-141.8 653.88,-141.8"/>
<text text-anchor="start" x="656.72" y="-148.2" font-family="Times,serif" font-size="14.00">data</text>
<polygon fill="none" stroke="black" points="682.88,-141.8 682.88,-163.8 762.88,-163.8 762.88,-141.8 682.88,-141.8"/>
<text text-anchor="start" x="710.82" y="-148.2" font-family="Times,serif" font-size="14.00">next</text>
<polygon fill="none" stroke="black" points="574.88,-119.8 574.88,-141.8 653.88,-141.8 653.88,-119.8 574.88,-119.8"/>
<text text-anchor="start" x="577.44" y="-126.2" font-family="Times,serif" font-size="14.00">0x112f3bbe0</text>
<polygon fill="none" stroke="black" points="653.88,-119.8 653.88,-141.8 682.88,-141.8 682.88,-119.8 653.88,-119.8"/>
<text text-anchor="start" x="661.38" y="-126.2" font-family="Times,serif" font-size="14.00">15</text>
<polygon fill="none" stroke="black" points="682.88,-119.8 682.88,-141.8 762.88,-141.8 762.88,-119.8 682.88,-119.8"/>
<text text-anchor="start" x="685.54" y="-126.2" font-family="Times,serif" font-size="14.00">0x112f3b670</text>
<polygon fill="none" stroke="black" points="574.88,-97.8 574.88,-119.8 762.88,-119.8 762.88,-97.8 574.88,-97.8"/>
<text text-anchor="start" x="634.86" y="-104.2" font-family="Times,serif" font-size="14.00">alamat node</text>
<polygon fill="none" stroke="black" points="574.88,-75.8 574.88,-97.8 762.88,-97.8 762.88,-75.8 574.88,-75.8"/>
<text text-anchor="start" x="631.94" y="-82.2" font-family="Times,serif" font-size="14.00">0x112f3add0</text>
</g>
<!-- node1&#45;&gt;node2 -->
<g id="edge4" class="edge">
<title>node1:next&#45;&gt;node2:id</title>
<path fill="none" stroke="black" d="M524.38,-130.8C549.67,-130.8 546.31,-98.3 563.54,-89.17"/>
<polygon fill="black" stroke="black" points="563.91,-92.44 572.88,-86.8 562.35,-85.62 563.91,-92.44"/>
</g>
<!-- node2&#45;&gt;node1 -->
<g id="edge7" class="edge">
<title>node2:prev&#45;&gt;node1:id</title>
<path fill="none" stroke="black" d="M573.88,-130.8C548.58,-130.8 551.94,-98.3 534.71,-89.17"/>
<polygon fill="black" stroke="black" points="535.9,-85.62 525.38,-86.8 534.34,-92.44 535.9,-85.62"/>
</g>
<!-- node3 -->
<g id="node6" class="node">
<title>node3</title>
<polygon fill="none" stroke="black" points="814.88,-97.8 814.88,-119.8 893.88,-119.8 893.88,-97.8 814.88,-97.8"/>
<text text-anchor="start" x="841.94" y="-104.2" font-family="Times,serif" font-size="14.00">prev</text>
<polygon fill="none" stroke="black" points="893.88,-97.8 893.88,-119.8 922.88,-119.8 922.88,-97.8 893.88,-97.8"/>
<text text-anchor="start" x="896.72" y="-104.2" font-family="Times,serif" font-size="14.00">data</text>
<polygon fill="none" stroke="black" points="922.88,-97.8 922.88,-119.8 958.88,-119.8 958.88,-97.8 922.88,-97.8"/>
<text text-anchor="start" x="928.82" y="-104.2" font-family="Times,serif" font-size="14.00">next</text>
<polygon fill="none" stroke="black" points="814.88,-75.8 814.88,-97.8 893.88,-97.8 893.88,-75.8 814.88,-75.8"/>
<text text-anchor="start" x="817.44" y="-82.2" font-family="Times,serif" font-size="14.00">0x112f3add0</text>
<polygon fill="none" stroke="black" points="893.88,-75.8 893.88,-97.8 922.88,-97.8 922.88,-75.8 893.88,-75.8"/>
<text text-anchor="start" x="904.88" y="-82.2" font-family="Times,serif" font-size="14.00">5</text>
<polygon fill="none" stroke="black" points="922.88,-75.8 922.88,-97.8 958.88,-97.8 958.88,-75.8 922.88,-75.8"/>
<text text-anchor="start" x="925.71" y="-82.2" font-family="Times,serif" font-size="14.00">None</text>
<polygon fill="none" stroke="black" points="814.88,-53.8 814.88,-75.8 958.88,-75.8 958.88,-53.8 814.88,-53.8"/>
<text text-anchor="start" x="852.86" y="-60.2" font-family="Times,serif" font-size="14.00">alamat node</text>
<polygon fill="none" stroke="black" points="814.88,-31.8 814.88,-53.8 958.88,-53.8 958.88,-31.8 814.88,-31.8"/>
<text text-anchor="start" x="849.54" y="-38.2" font-family="Times,serif" font-size="14.00">0x112f3b670</text>
</g>
<!-- node2&#45;&gt;node3 -->
<g id="edge6" class="edge">
<title>node2:next&#45;&gt;node3:id</title>
<path fill="none" stroke="black" d="M763.88,-130.8C804.64,-130.8 775.64,-58.53 803.32,-44.98"/>
<polygon fill="black" stroke="black" points="803.79,-48.25 812.88,-42.8 802.38,-41.39 803.79,-48.25"/>
</g>
<!-- node3&#45;&gt;node2 -->
<g id="edge9" class="edge">
<title>node3:prev&#45;&gt;node2:id</title>
<path fill="none" stroke="black" d="M813.88,-86.8C795.82,-86.8 788.77,-86.8 774.84,-86.8"/>
<polygon fill="black" stroke="black" points="774.88,-83.3 764.88,-86.8 774.88,-90.3 774.88,-83.3"/>
</g>
<!-- node4 -->
<g id="node7" class="node">
<title>node4</title>
<text text-anchor="middle" x="1029.88" y="-82.6" font-family="Times,serif" font-size="14.00">None</text>
</g>
<!-- node3&#45;&gt;node4 -->
<g id="edge8" class="edge">
<title>node3:next&#45;&gt;node4</title>
<path fill="none" stroke="black" d="M959.88,-86.8C970.34,-86.8 981.71,-86.8 992.13,-86.8"/>
<polygon fill="black" stroke="black" points="991.99,-90.3 1001.99,-86.8 991.99,-83.3 991.99,-90.3"/>
</g>
<!-- tail -->
<g id="node8" class="node">
<title>tail</title>
<polygon fill="none" stroke="black" points="628.54,-26.8 628.54,-49.6 709.21,-49.6 709.21,-26.8 628.54,-26.8"/>
<text text-anchor="start" x="659.93" y="-34" font-family="Times,serif" font-size="14.00">tail</text>
<polygon fill="none" stroke="black" points="628.54,-4 628.54,-26.8 709.21,-26.8 709.21,-4 628.54,-4"/>
<text text-anchor="start" x="631.54" y="-11.2" font-family="Times,serif" font-size="14.00">0x112f3b670</text>
</g>
<!-- tail&#45;&gt;node3 -->
<g id="edge10" class="edge">
<title>tail:contents&#45;&gt;node3:id</title>
<path fill="none" stroke="black" d="M709.88,-15.8C753.9,-15.8 764.56,-38.75 803.37,-42.33"/>
<polygon fill="black" stroke="black" points="802.73,-45.85 812.88,-42.8 803.04,-38.86 802.73,-45.85"/>
</g>
</g>
</svg>
