<?xml version="1.0" encoding="UTF-8" standalone="no"?>
<!DOCTYPE svg PUBLIC "-//W3C//DTD SVG 1.1//EN"
 "http://www.w3.org/Graphics/SVG/1.1/DTD/svg11.dtd">
<!-- Generated by graphviz version 12.1.2 (20240928.0832)
 -->
<!-- Pages: 1 -->
<svg width="1502pt" height="404pt"
 viewBox="0.00 0.00 1502.00 404.00" xmlns="http://www.w3.org/2000/svg" xmlns:xlink="http://www.w3.org/1999/xlink">
<g id="graph0" class="graph" transform="scale(1 1) rotate(0) translate(4 400)">
<polygon fill="white" stroke="none" points="-4,4 -4,-400 1498,-400 1498,4 -4,4"/>
<!-- root -->
<g id="node1" class="node">
<title>root</title>
<ellipse fill="none" stroke="black" cx="963" cy="-378" rx="27" ry="18"/>
<text text-anchor="middle" x="963" y="-372.95" font-family="Times New Roman,serif" font-size="14.00">3</text>
</g>
<!-- root&#45;&gt;left -->
<g id="node2" class="node">
<title>root&#45;&gt;left</title>
<ellipse fill="none" stroke="black" cx="783" cy="-306" rx="27" ry="18"/>
<text text-anchor="middle" x="783" y="-300.95" font-family="Times New Roman,serif" font-size="14.00">2</text>
</g>
<!-- root&#45;&gt;root&#45;&gt;left -->
<g id="edge1" class="edge">
<title>root&#45;&gt;root&#45;&gt;left</title>
<path fill="none" stroke="black" d="M940.2,-368.13C908.91,-355.97 852.44,-334 816.38,-319.98"/>
<polygon fill="black" stroke="black" points="817.89,-316.81 807.31,-316.45 815.36,-323.34 817.89,-316.81"/>
</g>
<!-- root&#45;&gt;right -->
<g id="node29" class="node">
<title>root&#45;&gt;right</title>
<ellipse fill="none" stroke="black" cx="1071" cy="-306" rx="27" ry="18"/>
<text text-anchor="middle" x="1071" y="-300.95" font-family="Times New Roman,serif" font-size="14.00">t</text>
</g>
<!-- root&#45;&gt;root&#45;&gt;right -->
<g id="edge28" class="edge">
<title>root&#45;&gt;root&#45;&gt;right</title>
<path fill="none" stroke="black" d="M981.81,-364.81C998.59,-353.93 1023.39,-337.86 1042.59,-325.42"/>
<polygon fill="black" stroke="black" points="1044.28,-328.49 1050.77,-320.11 1040.48,-322.61 1044.28,-328.49"/>
</g>
<!-- root&#45;&gt;left&#45;&gt;left -->
<g id="node3" class="node">
<title>root&#45;&gt;left&#45;&gt;left</title>
<ellipse fill="none" stroke="black" cx="423" cy="-234" rx="27" ry="18"/>
<text text-anchor="middle" x="423" y="-228.95" font-family="Times New Roman,serif" font-size="14.00">1</text>
</g>
<!-- root&#45;&gt;left&#45;&gt;root&#45;&gt;left&#45;&gt;left -->
<g id="edge2" class="edge">
<title>root&#45;&gt;left&#45;&gt;root&#45;&gt;left&#45;&gt;left</title>
<path fill="none" stroke="black" d="M757.11,-299.97C694.06,-287.71 532.4,-256.27 459.56,-242.11"/>
<polygon fill="black" stroke="black" points="460.63,-238.75 450.14,-240.28 459.29,-245.62 460.63,-238.75"/>
</g>
<!-- root&#45;&gt;left&#45;&gt;right -->
<g id="node18" class="node">
<title>root&#45;&gt;left&#45;&gt;right</title>
<ellipse fill="none" stroke="black" cx="783" cy="-234" rx="27" ry="18"/>
<text text-anchor="middle" x="783" y="-228.95" font-family="Times New Roman,serif" font-size="14.00">S</text>
</g>
<!-- root&#45;&gt;left&#45;&gt;root&#45;&gt;left&#45;&gt;right -->
<g id="edge17" class="edge">
<title>root&#45;&gt;left&#45;&gt;root&#45;&gt;left&#45;&gt;right</title>
<path fill="none" stroke="black" d="M783,-287.7C783,-280.41 783,-271.73 783,-263.54"/>
<polygon fill="black" stroke="black" points="786.5,-263.62 783,-253.62 779.5,-263.62 786.5,-263.62"/>
</g>
<!-- root&#45;&gt;left&#45;&gt;left&#45;&gt;left -->
<g id="node4" class="node">
<title>root&#45;&gt;left&#45;&gt;left&#45;&gt;left</title>
<ellipse fill="none" stroke="black" cx="207" cy="-162" rx="27" ry="18"/>
<text text-anchor="middle" x="207" y="-156.95" font-family="Times New Roman,serif" font-size="14.00">g</text>
</g>
<!-- root&#45;&gt;left&#45;&gt;left&#45;&gt;root&#45;&gt;left&#45;&gt;left&#45;&gt;left -->
<g id="edge3" class="edge">
<title>root&#45;&gt;left&#45;&gt;left&#45;&gt;root&#45;&gt;left&#45;&gt;left&#45;&gt;left</title>
<path fill="none" stroke="black" d="M399.06,-225.24C360.86,-212.86 285.96,-188.59 241.83,-174.29"/>
<polygon fill="black" stroke="black" points="243.08,-171.01 232.49,-171.26 240.92,-177.67 243.08,-171.01"/>
</g>
<!-- root&#45;&gt;left&#45;&gt;left&#45;&gt;right -->
<g id="node11" class="node">
<title>root&#45;&gt;left&#45;&gt;left&#45;&gt;right</title>
<ellipse fill="none" stroke="black" cx="423" cy="-162" rx="27" ry="18"/>
<text text-anchor="middle" x="423" y="-156.95" font-family="Times New Roman,serif" font-size="14.00">o</text>
</g>
<!-- root&#45;&gt;left&#45;&gt;left&#45;&gt;root&#45;&gt;left&#45;&gt;left&#45;&gt;right -->
<g id="edge10" class="edge">
<title>root&#45;&gt;left&#45;&gt;left&#45;&gt;root&#45;&gt;left&#45;&gt;left&#45;&gt;right</title>
<path fill="none" stroke="black" d="M423,-215.7C423,-208.41 423,-199.73 423,-191.54"/>
<polygon fill="black" stroke="black" points="426.5,-191.62 423,-181.62 419.5,-191.62 426.5,-191.62"/>
</g>
<!-- root&#45;&gt;left&#45;&gt;left&#45;&gt;left&#45;&gt;left -->
<g id="node5" class="node">
<title>root&#45;&gt;left&#45;&gt;left&#45;&gt;left&#45;&gt;left</title>
<ellipse fill="none" stroke="black" cx="99" cy="-90" rx="27" ry="18"/>
<text text-anchor="middle" x="99" y="-84.95" font-family="Times New Roman,serif" font-size="14.00">a</text>
</g>
<!-- root&#45;&gt;left&#45;&gt;left&#45;&gt;left&#45;&gt;root&#45;&gt;left&#45;&gt;left&#45;&gt;left&#45;&gt;left -->
<g id="edge4" class="edge">
<title>root&#45;&gt;left&#45;&gt;left&#45;&gt;left&#45;&gt;root&#45;&gt;left&#45;&gt;left&#45;&gt;left&#45;&gt;left</title>
<path fill="none" stroke="black" d="M188.19,-148.81C171.41,-137.93 146.61,-121.86 127.41,-109.42"/>
<polygon fill="black" stroke="black" points="129.52,-106.61 119.23,-104.11 125.72,-112.49 129.52,-106.61"/>
</g>
<!-- root&#45;&gt;left&#45;&gt;left&#45;&gt;left&#45;&gt;right -->
<g id="node8" class="node">
<title>root&#45;&gt;left&#45;&gt;left&#45;&gt;left&#45;&gt;right</title>
<ellipse fill="none" stroke="black" cx="207" cy="-90" rx="27" ry="18"/>
<text text-anchor="middle" x="207" y="-84.95" font-family="Times New Roman,serif" font-size="14.00">a</text>
</g>
<!-- root&#45;&gt;left&#45;&gt;left&#45;&gt;left&#45;&gt;root&#45;&gt;left&#45;&gt;left&#45;&gt;left&#45;&gt;right -->
<g id="edge7" class="edge">
<title>root&#45;&gt;left&#45;&gt;left&#45;&gt;left&#45;&gt;root&#45;&gt;left&#45;&gt;left&#45;&gt;left&#45;&gt;right</title>
<path fill="none" stroke="black" d="M207,-143.7C207,-136.41 207,-127.73 207,-119.54"/>
<polygon fill="black" stroke="black" points="210.5,-119.62 207,-109.62 203.5,-119.62 210.5,-119.62"/>
</g>
<!-- root&#45;&gt;left&#45;&gt;left&#45;&gt;left&#45;&gt;left&#45;&gt;left -->
<g id="node6" class="node">
<title>root&#45;&gt;left&#45;&gt;left&#45;&gt;left&#45;&gt;left&#45;&gt;left</title>
<text text-anchor="middle" x="27" y="-12.95" font-family="Times New Roman,serif" font-size="14.00">NULL</text>
</g>
<!-- root&#45;&gt;left&#45;&gt;left&#45;&gt;left&#45;&gt;left&#45;&gt;root&#45;&gt;left&#45;&gt;left&#45;&gt;left&#45;&gt;left&#45;&gt;left -->
<g id="edge5" class="edge">
<title>root&#45;&gt;left&#45;&gt;left&#45;&gt;left&#45;&gt;left&#45;&gt;root&#45;&gt;left&#45;&gt;left&#45;&gt;left&#45;&gt;left&#45;&gt;left</title>
<path fill="none" stroke="black" d="M84.08,-74.5C74.98,-65.65 63.11,-54.1 52.54,-43.84"/>
<polygon fill="black" stroke="black" points="55.13,-41.47 45.52,-37.01 50.25,-46.49 55.13,-41.47"/>
</g>
<!-- root&#45;&gt;left&#45;&gt;left&#45;&gt;left&#45;&gt;left&#45;&gt;right -->
<g id="node7" class="node">
<title>root&#45;&gt;left&#45;&gt;left&#45;&gt;left&#45;&gt;left&#45;&gt;right</title>
<text text-anchor="middle" x="99" y="-12.95" font-family="Times New Roman,serif" font-size="14.00">NULL</text>
</g>
<!-- root&#45;&gt;left&#45;&gt;left&#45;&gt;left&#45;&gt;left&#45;&gt;root&#45;&gt;left&#45;&gt;left&#45;&gt;left&#45;&gt;left&#45;&gt;right -->
<g id="edge6" class="edge">
<title>root&#45;&gt;left&#45;&gt;left&#45;&gt;left&#45;&gt;left&#45;&gt;root&#45;&gt;left&#45;&gt;left&#45;&gt;left&#45;&gt;left&#45;&gt;right</title>
<path fill="none" stroke="black" d="M99,-71.7C99,-64.21 99,-55.26 99,-46.88"/>
<polygon fill="black" stroke="black" points="102.5,-47.14 99,-37.14 95.5,-47.14 102.5,-47.14"/>
</g>
<!-- root&#45;&gt;left&#45;&gt;left&#45;&gt;left&#45;&gt;right&#45;&gt;left -->
<g id="node9" class="node">
<title>root&#45;&gt;left&#45;&gt;left&#45;&gt;left&#45;&gt;right&#45;&gt;left</title>
<text text-anchor="middle" x="171" y="-12.95" font-family="Times New Roman,serif" font-size="14.00">NULL</text>
</g>
<!-- root&#45;&gt;left&#45;&gt;left&#45;&gt;left&#45;&gt;right&#45;&gt;root&#45;&gt;left&#45;&gt;left&#45;&gt;left&#45;&gt;right&#45;&gt;left -->
<g id="edge8" class="edge">
<title>root&#45;&gt;left&#45;&gt;left&#45;&gt;left&#45;&gt;right&#45;&gt;root&#45;&gt;left&#45;&gt;left&#45;&gt;left&#45;&gt;right&#45;&gt;left</title>
<path fill="none" stroke="black" d="M198.65,-72.76C194.53,-64.75 189.45,-54.88 184.78,-45.79"/>
<polygon fill="black" stroke="black" points="187.93,-44.27 180.25,-36.98 181.71,-47.47 187.93,-44.27"/>
</g>
<!-- root&#45;&gt;left&#45;&gt;left&#45;&gt;left&#45;&gt;right&#45;&gt;right -->
<g id="node10" class="node">
<title>root&#45;&gt;left&#45;&gt;left&#45;&gt;left&#45;&gt;right&#45;&gt;right</title>
<text text-anchor="middle" x="243" y="-12.95" font-family="Times New Roman,serif" font-size="14.00">NULL</text>
</g>
<!-- root&#45;&gt;left&#45;&gt;left&#45;&gt;left&#45;&gt;right&#45;&gt;root&#45;&gt;left&#45;&gt;left&#45;&gt;left&#45;&gt;right&#45;&gt;right -->
<g id="edge9" class="edge">
<title>root&#45;&gt;left&#45;&gt;left&#45;&gt;left&#45;&gt;right&#45;&gt;root&#45;&gt;left&#45;&gt;left&#45;&gt;left&#45;&gt;right&#45;&gt;right</title>
<path fill="none" stroke="black" d="M215.35,-72.76C219.47,-64.75 224.55,-54.88 229.22,-45.79"/>
<polygon fill="black" stroke="black" points="232.29,-47.47 233.75,-36.98 226.07,-44.27 232.29,-47.47"/>
</g>
<!-- root&#45;&gt;left&#45;&gt;left&#45;&gt;right&#45;&gt;left -->
<g id="node12" class="node">
<title>root&#45;&gt;left&#45;&gt;left&#45;&gt;right&#45;&gt;left</title>
<ellipse fill="none" stroke="black" cx="387" cy="-90" rx="27" ry="18"/>
<text text-anchor="middle" x="387" y="-84.95" font-family="Times New Roman,serif" font-size="14.00">l</text>
</g>
<!-- root&#45;&gt;left&#45;&gt;left&#45;&gt;right&#45;&gt;root&#45;&gt;left&#45;&gt;left&#45;&gt;right&#45;&gt;left -->
<g id="edge11" class="edge">
<title>root&#45;&gt;left&#45;&gt;left&#45;&gt;right&#45;&gt;root&#45;&gt;left&#45;&gt;left&#45;&gt;right&#45;&gt;left</title>
<path fill="none" stroke="black" d="M414.65,-144.76C410.42,-136.55 405.19,-126.37 400.42,-117.09"/>
<polygon fill="black" stroke="black" points="403.68,-115.79 396,-108.49 397.46,-118.99 403.68,-115.79"/>
</g>
<!-- root&#45;&gt;left&#45;&gt;left&#45;&gt;right&#45;&gt;right -->
<g id="node15" class="node">
<title>root&#45;&gt;left&#45;&gt;left&#45;&gt;right&#45;&gt;right</title>
<ellipse fill="none" stroke="black" cx="459" cy="-90" rx="27" ry="18"/>
<text text-anchor="middle" x="459" y="-84.95" font-family="Times New Roman,serif" font-size="14.00">m</text>
</g>
<!-- root&#45;&gt;left&#45;&gt;left&#45;&gt;right&#45;&gt;root&#45;&gt;left&#45;&gt;left&#45;&gt;right&#45;&gt;right -->
<g id="edge14" class="edge">
<title>root&#45;&gt;left&#45;&gt;left&#45;&gt;right&#45;&gt;root&#45;&gt;left&#45;&gt;left&#45;&gt;right&#45;&gt;right</title>
<path fill="none" stroke="black" d="M431.35,-144.76C435.58,-136.55 440.81,-126.37 445.58,-117.09"/>
<polygon fill="black" stroke="black" points="448.54,-118.99 450,-108.49 442.32,-115.79 448.54,-118.99"/>
</g>
<!-- root&#45;&gt;left&#45;&gt;left&#45;&gt;right&#45;&gt;left&#45;&gt;left -->
<g id="node13" class="node">
<title>root&#45;&gt;left&#45;&gt;left&#45;&gt;right&#45;&gt;left&#45;&gt;left</title>
<text text-anchor="middle" x="315" y="-12.95" font-family="Times New Roman,serif" font-size="14.00">NULL</text>
</g>
<!-- root&#45;&gt;left&#45;&gt;left&#45;&gt;right&#45;&gt;left&#45;&gt;root&#45;&gt;left&#45;&gt;left&#45;&gt;right&#45;&gt;left&#45;&gt;left -->
<g id="edge12" class="edge">
<title>root&#45;&gt;left&#45;&gt;left&#45;&gt;right&#45;&gt;left&#45;&gt;root&#45;&gt;left&#45;&gt;left&#45;&gt;right&#45;&gt;left&#45;&gt;left</title>
<path fill="none" stroke="black" d="M372.08,-74.5C362.98,-65.65 351.11,-54.1 340.54,-43.84"/>
<polygon fill="black" stroke="black" points="343.13,-41.47 333.52,-37.01 338.25,-46.49 343.13,-41.47"/>
</g>
<!-- root&#45;&gt;left&#45;&gt;left&#45;&gt;right&#45;&gt;left&#45;&gt;right -->
<g id="node14" class="node">
<title>root&#45;&gt;left&#45;&gt;left&#45;&gt;right&#45;&gt;left&#45;&gt;right</title>
<text text-anchor="middle" x="387" y="-12.95" font-family="Times New Roman,serif" font-size="14.00">NULL</text>
</g>
<!-- root&#45;&gt;left&#45;&gt;left&#45;&gt;right&#45;&gt;left&#45;&gt;root&#45;&gt;left&#45;&gt;left&#45;&gt;right&#45;&gt;left&#45;&gt;right -->
<g id="edge13" class="edge">
<title>root&#45;&gt;left&#45;&gt;left&#45;&gt;right&#45;&gt;left&#45;&gt;root&#45;&gt;left&#45;&gt;left&#45;&gt;right&#45;&gt;left&#45;&gt;right</title>
<path fill="none" stroke="black" d="M387,-71.7C387,-64.21 387,-55.26 387,-46.88"/>
<polygon fill="black" stroke="black" points="390.5,-47.14 387,-37.14 383.5,-47.14 390.5,-47.14"/>
</g>
<!-- root&#45;&gt;left&#45;&gt;left&#45;&gt;right&#45;&gt;right&#45;&gt;left -->
<g id="node16" class="node">
<title>root&#45;&gt;left&#45;&gt;left&#45;&gt;right&#45;&gt;right&#45;&gt;left</title>
<text text-anchor="middle" x="459" y="-12.95" font-family="Times New Roman,serif" font-size="14.00">NULL</text>
</g>
<!-- root&#45;&gt;left&#45;&gt;left&#45;&gt;right&#45;&gt;right&#45;&gt;root&#45;&gt;left&#45;&gt;left&#45;&gt;right&#45;&gt;right&#45;&gt;left -->
<g id="edge15" class="edge">
<title>root&#45;&gt;left&#45;&gt;left&#45;&gt;right&#45;&gt;right&#45;&gt;root&#45;&gt;left&#45;&gt;left&#45;&gt;right&#45;&gt;right&#45;&gt;left</title>
<path fill="none" stroke="black" d="M459,-71.7C459,-64.21 459,-55.26 459,-46.88"/>
<polygon fill="black" stroke="black" points="462.5,-47.14 459,-37.14 455.5,-47.14 462.5,-47.14"/>
</g>
<!-- root&#45;&gt;left&#45;&gt;left&#45;&gt;right&#45;&gt;right&#45;&gt;right -->
<g id="node17" class="node">
<title>root&#45;&gt;left&#45;&gt;left&#45;&gt;right&#45;&gt;right&#45;&gt;right</title>
<text text-anchor="middle" x="531" y="-12.95" font-family="Times New Roman,serif" font-size="14.00">NULL</text>
</g>
<!-- root&#45;&gt;left&#45;&gt;left&#45;&gt;right&#45;&gt;right&#45;&gt;root&#45;&gt;left&#45;&gt;left&#45;&gt;right&#45;&gt;right&#45;&gt;right -->
<g id="edge16" class="edge">
<title>root&#45;&gt;left&#45;&gt;left&#45;&gt;right&#45;&gt;right&#45;&gt;root&#45;&gt;left&#45;&gt;left&#45;&gt;right&#45;&gt;right&#45;&gt;right</title>
<path fill="none" stroke="black" d="M473.92,-74.5C483.02,-65.65 494.89,-54.1 505.46,-43.84"/>
<polygon fill="black" stroke="black" points="507.75,-46.49 512.48,-37.01 502.87,-41.47 507.75,-46.49"/>
</g>
<!-- root&#45;&gt;left&#45;&gt;right&#45;&gt;left -->
<g id="node19" class="node">
<title>root&#45;&gt;left&#45;&gt;right&#45;&gt;left</title>
<ellipse fill="none" stroke="black" cx="747" cy="-162" rx="27" ry="18"/>
<text text-anchor="middle" x="747" y="-156.95" font-family="Times New Roman,serif" font-size="14.00">H</text>
</g>
<!-- root&#45;&gt;left&#45;&gt;right&#45;&gt;root&#45;&gt;left&#45;&gt;right&#45;&gt;left -->
<g id="edge18" class="edge">
<title>root&#45;&gt;left&#45;&gt;right&#45;&gt;root&#45;&gt;left&#45;&gt;right&#45;&gt;left</title>
<path fill="none" stroke="black" d="M774.65,-216.76C770.42,-208.55 765.19,-198.37 760.42,-189.09"/>
<polygon fill="black" stroke="black" points="763.68,-187.79 756,-180.49 757.46,-190.99 763.68,-187.79"/>
</g>
<!-- root&#45;&gt;left&#45;&gt;right&#45;&gt;right -->
<g id="node26" class="node">
<title>root&#45;&gt;left&#45;&gt;right&#45;&gt;right</title>
<ellipse fill="none" stroke="black" cx="819" cy="-162" rx="27" ry="18"/>
<text text-anchor="middle" x="819" y="-156.95" font-family="Times New Roman,serif" font-size="14.00">t</text>
</g>
<!-- root&#45;&gt;left&#45;&gt;right&#45;&gt;root&#45;&gt;left&#45;&gt;right&#45;&gt;right -->
<g id="edge25" class="edge">
<title>root&#45;&gt;left&#45;&gt;right&#45;&gt;root&#45;&gt;left&#45;&gt;right&#45;&gt;right</title>
<path fill="none" stroke="black" d="M791.35,-216.76C795.58,-208.55 800.81,-198.37 805.58,-189.09"/>
<polygon fill="black" stroke="black" points="808.54,-190.99 810,-180.49 802.32,-187.79 808.54,-190.99"/>
</g>
<!-- root&#45;&gt;left&#45;&gt;right&#45;&gt;left&#45;&gt;left -->
<g id="node20" class="node">
<title>root&#45;&gt;left&#45;&gt;right&#45;&gt;left&#45;&gt;left</title>
<ellipse fill="none" stroke="black" cx="675" cy="-90" rx="27" ry="18"/>
<text text-anchor="middle" x="675" y="-84.95" font-family="Times New Roman,serif" font-size="14.00">a</text>
</g>
<!-- root&#45;&gt;left&#45;&gt;right&#45;&gt;left&#45;&gt;root&#45;&gt;left&#45;&gt;right&#45;&gt;left&#45;&gt;left -->
<g id="edge19" class="edge">
<title>root&#45;&gt;left&#45;&gt;right&#45;&gt;left&#45;&gt;root&#45;&gt;left&#45;&gt;right&#45;&gt;left&#45;&gt;left</title>
<path fill="none" stroke="black" d="M732.08,-146.5C722.23,-136.92 709.14,-124.19 697.97,-113.34"/>
<polygon fill="black" stroke="black" points="700.59,-111 690.98,-106.54 695.71,-116.02 700.59,-111"/>
</g>
<!-- root&#45;&gt;left&#45;&gt;right&#45;&gt;left&#45;&gt;right -->
<g id="node23" class="node">
<title>root&#45;&gt;left&#45;&gt;right&#45;&gt;left&#45;&gt;right</title>
<ellipse fill="none" stroke="black" cx="747" cy="-90" rx="27" ry="18"/>
<text text-anchor="middle" x="747" y="-84.95" font-family="Times New Roman,serif" font-size="14.00">a</text>
</g>
<!-- root&#45;&gt;left&#45;&gt;right&#45;&gt;left&#45;&gt;root&#45;&gt;left&#45;&gt;right&#45;&gt;left&#45;&gt;right -->
<g id="edge22" class="edge">
<title>root&#45;&gt;left&#45;&gt;right&#45;&gt;left&#45;&gt;root&#45;&gt;left&#45;&gt;right&#45;&gt;left&#45;&gt;right</title>
<path fill="none" stroke="black" d="M747,-143.7C747,-136.41 747,-127.73 747,-119.54"/>
<polygon fill="black" stroke="black" points="750.5,-119.62 747,-109.62 743.5,-119.62 750.5,-119.62"/>
</g>
<!-- root&#45;&gt;left&#45;&gt;right&#45;&gt;left&#45;&gt;left&#45;&gt;left -->
<g id="node21" class="node">
<title>root&#45;&gt;left&#45;&gt;right&#45;&gt;left&#45;&gt;left&#45;&gt;left</title>
<text text-anchor="middle" x="603" y="-12.95" font-family="Times New Roman,serif" font-size="14.00">NULL</text>
</g>
<!-- root&#45;&gt;left&#45;&gt;right&#45;&gt;left&#45;&gt;left&#45;&gt;root&#45;&gt;left&#45;&gt;right&#45;&gt;left&#45;&gt;left&#45;&gt;left -->
<g id="edge20" class="edge">
<title>root&#45;&gt;left&#45;&gt;right&#45;&gt;left&#45;&gt;left&#45;&gt;root&#45;&gt;left&#45;&gt;right&#45;&gt;left&#45;&gt;left&#45;&gt;left</title>
<path fill="none" stroke="black" d="M660.08,-74.5C650.98,-65.65 639.11,-54.1 628.54,-43.84"/>
<polygon fill="black" stroke="black" points="631.13,-41.47 621.52,-37.01 626.25,-46.49 631.13,-41.47"/>
</g>
<!-- root&#45;&gt;left&#45;&gt;right&#45;&gt;left&#45;&gt;left&#45;&gt;right -->
<g id="node22" class="node">
<title>root&#45;&gt;left&#45;&gt;right&#45;&gt;left&#45;&gt;left&#45;&gt;right</title>
<text text-anchor="middle" x="675" y="-12.95" font-family="Times New Roman,serif" font-size="14.00">NULL</text>
</g>
<!-- root&#45;&gt;left&#45;&gt;right&#45;&gt;left&#45;&gt;left&#45;&gt;root&#45;&gt;left&#45;&gt;right&#45;&gt;left&#45;&gt;left&#45;&gt;right -->
<g id="edge21" class="edge">
<title>root&#45;&gt;left&#45;&gt;right&#45;&gt;left&#45;&gt;left&#45;&gt;root&#45;&gt;left&#45;&gt;right&#45;&gt;left&#45;&gt;left&#45;&gt;right</title>
<path fill="none" stroke="black" d="M675,-71.7C675,-64.21 675,-55.26 675,-46.88"/>
<polygon fill="black" stroke="black" points="678.5,-47.14 675,-37.14 671.5,-47.14 678.5,-47.14"/>
</g>
<!-- root&#45;&gt;left&#45;&gt;right&#45;&gt;left&#45;&gt;right&#45;&gt;left -->
<g id="node24" class="node">
<title>root&#45;&gt;left&#45;&gt;right&#45;&gt;left&#45;&gt;right&#45;&gt;left</title>
<text text-anchor="middle" x="747" y="-12.95" font-family="Times New Roman,serif" font-size="14.00">NULL</text>
</g>
<!-- root&#45;&gt;left&#45;&gt;right&#45;&gt;left&#45;&gt;right&#45;&gt;root&#45;&gt;left&#45;&gt;right&#45;&gt;left&#45;&gt;right&#45;&gt;left -->
<g id="edge23" class="edge">
<title>root&#45;&gt;left&#45;&gt;right&#45;&gt;left&#45;&gt;right&#45;&gt;root&#45;&gt;left&#45;&gt;right&#45;&gt;left&#45;&gt;right&#45;&gt;left</title>
<path fill="none" stroke="black" d="M747,-71.7C747,-64.21 747,-55.26 747,-46.88"/>
<polygon fill="black" stroke="black" points="750.5,-47.14 747,-37.14 743.5,-47.14 750.5,-47.14"/>
</g>
<!-- root&#45;&gt;left&#45;&gt;right&#45;&gt;left&#45;&gt;right&#45;&gt;right -->
<g id="node25" class="node">
<title>root&#45;&gt;left&#45;&gt;right&#45;&gt;left&#45;&gt;right&#45;&gt;right</title>
<text text-anchor="middle" x="819" y="-12.95" font-family="Times New Roman,serif" font-size="14.00">NULL</text>
</g>
<!-- root&#45;&gt;left&#45;&gt;right&#45;&gt;left&#45;&gt;right&#45;&gt;root&#45;&gt;left&#45;&gt;right&#45;&gt;left&#45;&gt;right&#45;&gt;right -->
<g id="edge24" class="edge">
<title>root&#45;&gt;left&#45;&gt;right&#45;&gt;left&#45;&gt;right&#45;&gt;root&#45;&gt;left&#45;&gt;right&#45;&gt;left&#45;&gt;right&#45;&gt;right</title>
<path fill="none" stroke="black" d="M761.92,-74.5C771.02,-65.65 782.89,-54.1 793.46,-43.84"/>
<polygon fill="black" stroke="black" points="795.75,-46.49 800.48,-37.01 790.87,-41.47 795.75,-46.49"/>
</g>
<!-- root&#45;&gt;left&#45;&gt;right&#45;&gt;right&#45;&gt;left -->
<g id="node27" class="node">
<title>root&#45;&gt;left&#45;&gt;right&#45;&gt;right&#45;&gt;left</title>
<text text-anchor="middle" x="819" y="-84.95" font-family="Times New Roman,serif" font-size="14.00">NULL</text>
</g>
<!-- root&#45;&gt;left&#45;&gt;right&#45;&gt;right&#45;&gt;root&#45;&gt;left&#45;&gt;right&#45;&gt;right&#45;&gt;left -->
<g id="edge26" class="edge">
<title>root&#45;&gt;left&#45;&gt;right&#45;&gt;right&#45;&gt;root&#45;&gt;left&#45;&gt;right&#45;&gt;right&#45;&gt;left</title>
<path fill="none" stroke="black" d="M819,-143.7C819,-136.21 819,-127.26 819,-118.88"/>
<polygon fill="black" stroke="black" points="822.5,-119.14 819,-109.14 815.5,-119.14 822.5,-119.14"/>
</g>
<!-- root&#45;&gt;left&#45;&gt;right&#45;&gt;right&#45;&gt;right -->
<g id="node28" class="node">
<title>root&#45;&gt;left&#45;&gt;right&#45;&gt;right&#45;&gt;right</title>
<text text-anchor="middle" x="891" y="-84.95" font-family="Times New Roman,serif" font-size="14.00">NULL</text>
</g>
<!-- root&#45;&gt;left&#45;&gt;right&#45;&gt;right&#45;&gt;root&#45;&gt;left&#45;&gt;right&#45;&gt;right&#45;&gt;right -->
<g id="edge27" class="edge">
<title>root&#45;&gt;left&#45;&gt;right&#45;&gt;right&#45;&gt;root&#45;&gt;left&#45;&gt;right&#45;&gt;right&#45;&gt;right</title>
<path fill="none" stroke="black" d="M833.92,-146.5C843.02,-137.65 854.89,-126.1 865.46,-115.84"/>
<polygon fill="black" stroke="black" points="867.75,-118.49 872.48,-109.01 862.87,-113.47 867.75,-118.49"/>
</g>
<!-- root&#45;&gt;right&#45;&gt;left -->
<g id="node30" class="node">
<title>root&#45;&gt;right&#45;&gt;left</title>
<ellipse fill="none" stroke="black" cx="1071" cy="-234" rx="27" ry="18"/>
<text text-anchor="middle" x="1071" y="-228.95" font-family="Times New Roman,serif" font-size="14.00">l</text>
</g>
<!-- root&#45;&gt;right&#45;&gt;root&#45;&gt;right&#45;&gt;left -->
<g id="edge29" class="edge">
<title>root&#45;&gt;right&#45;&gt;root&#45;&gt;right&#45;&gt;left</title>
<path fill="none" stroke="black" d="M1071,-287.7C1071,-280.41 1071,-271.73 1071,-263.54"/>
<polygon fill="black" stroke="black" points="1074.5,-263.62 1071,-253.62 1067.5,-263.62 1074.5,-263.62"/>
</g>
<!-- root&#45;&gt;right&#45;&gt;right -->
<g id="node37" class="node">
<title>root&#45;&gt;right&#45;&gt;right</title>
<ellipse fill="none" stroke="black" cx="1287" cy="-234" rx="27" ry="18"/>
<text text-anchor="middle" x="1287" y="-228.95" font-family="Times New Roman,serif" font-size="14.00">n</text>
</g>
<!-- root&#45;&gt;right&#45;&gt;root&#45;&gt;right&#45;&gt;right -->
<g id="edge36" class="edge">
<title>root&#45;&gt;right&#45;&gt;root&#45;&gt;right&#45;&gt;right</title>
<path fill="none" stroke="black" d="M1094.94,-297.24C1133.14,-284.86 1208.04,-260.59 1252.17,-246.29"/>
<polygon fill="black" stroke="black" points="1253.08,-249.67 1261.51,-243.26 1250.92,-243.01 1253.08,-249.67"/>
</g>
<!-- root&#45;&gt;right&#45;&gt;left&#45;&gt;left -->
<g id="node31" class="node">
<title>root&#45;&gt;right&#45;&gt;left&#45;&gt;left</title>
<ellipse fill="none" stroke="black" cx="1035" cy="-162" rx="27" ry="18"/>
<text text-anchor="middle" x="1035" y="-156.95" font-family="Times New Roman,serif" font-size="14.00">e</text>
</g>
<!-- root&#45;&gt;right&#45;&gt;left&#45;&gt;root&#45;&gt;right&#45;&gt;left&#45;&gt;left -->
<g id="edge30" class="edge">
<title>root&#45;&gt;right&#45;&gt;left&#45;&gt;root&#45;&gt;right&#45;&gt;left&#45;&gt;left</title>
<path fill="none" stroke="black" d="M1062.65,-216.76C1058.42,-208.55 1053.19,-198.37 1048.42,-189.09"/>
<polygon fill="black" stroke="black" points="1051.68,-187.79 1044,-180.49 1045.46,-190.99 1051.68,-187.79"/>
</g>
<!-- root&#45;&gt;right&#45;&gt;left&#45;&gt;right -->
<g id="node34" class="node">
<title>root&#45;&gt;right&#45;&gt;left&#45;&gt;right</title>
<ellipse fill="none" stroke="black" cx="1107" cy="-162" rx="27" ry="18"/>
<text text-anchor="middle" x="1107" y="-156.95" font-family="Times New Roman,serif" font-size="14.00">i</text>
</g>
<!-- root&#45;&gt;right&#45;&gt;left&#45;&gt;root&#45;&gt;right&#45;&gt;left&#45;&gt;right -->
<g id="edge33" class="edge">
<title>root&#45;&gt;right&#45;&gt;left&#45;&gt;root&#45;&gt;right&#45;&gt;left&#45;&gt;right</title>
<path fill="none" stroke="black" d="M1079.35,-216.76C1083.58,-208.55 1088.81,-198.37 1093.58,-189.09"/>
<polygon fill="black" stroke="black" points="1096.54,-190.99 1098,-180.49 1090.32,-187.79 1096.54,-190.99"/>
</g>
<!-- root&#45;&gt;right&#45;&gt;left&#45;&gt;left&#45;&gt;left -->
<g id="node32" class="node">
<title>root&#45;&gt;right&#45;&gt;left&#45;&gt;left&#45;&gt;left</title>
<text text-anchor="middle" x="963" y="-84.95" font-family="Times New Roman,serif" font-size="14.00">NULL</text>
</g>
<!-- root&#45;&gt;right&#45;&gt;left&#45;&gt;left&#45;&gt;root&#45;&gt;right&#45;&gt;left&#45;&gt;left&#45;&gt;left -->
<g id="edge31" class="edge">
<title>root&#45;&gt;right&#45;&gt;left&#45;&gt;left&#45;&gt;root&#45;&gt;right&#45;&gt;left&#45;&gt;left&#45;&gt;left</title>
<path fill="none" stroke="black" d="M1020.08,-146.5C1010.98,-137.65 999.11,-126.1 988.54,-115.84"/>
<polygon fill="black" stroke="black" points="991.13,-113.47 981.52,-109.01 986.25,-118.49 991.13,-113.47"/>
</g>
<!-- root&#45;&gt;right&#45;&gt;left&#45;&gt;left&#45;&gt;right -->
<g id="node33" class="node">
<title>root&#45;&gt;right&#45;&gt;left&#45;&gt;left&#45;&gt;right</title>
<text text-anchor="middle" x="1035" y="-84.95" font-family="Times New Roman,serif" font-size="14.00">NULL</text>
</g>
<!-- root&#45;&gt;right&#45;&gt;left&#45;&gt;left&#45;&gt;root&#45;&gt;right&#45;&gt;left&#45;&gt;left&#45;&gt;right -->
<g id="edge32" class="edge">
<title>root&#45;&gt;right&#45;&gt;left&#45;&gt;left&#45;&gt;root&#45;&gt;right&#45;&gt;left&#45;&gt;left&#45;&gt;right</title>
<path fill="none" stroke="black" d="M1035,-143.7C1035,-136.21 1035,-127.26 1035,-118.88"/>
<polygon fill="black" stroke="black" points="1038.5,-119.14 1035,-109.14 1031.5,-119.14 1038.5,-119.14"/>
</g>
<!-- root&#45;&gt;right&#45;&gt;left&#45;&gt;right&#45;&gt;left -->
<g id="node35" class="node">
<title>root&#45;&gt;right&#45;&gt;left&#45;&gt;right&#45;&gt;left</title>
<text text-anchor="middle" x="1107" y="-84.95" font-family="Times New Roman,serif" font-size="14.00">NULL</text>
</g>
<!-- root&#45;&gt;right&#45;&gt;left&#45;&gt;right&#45;&gt;root&#45;&gt;right&#45;&gt;left&#45;&gt;right&#45;&gt;left -->
<g id="edge34" class="edge">
<title>root&#45;&gt;right&#45;&gt;left&#45;&gt;right&#45;&gt;root&#45;&gt;right&#45;&gt;left&#45;&gt;right&#45;&gt;left</title>
<path fill="none" stroke="black" d="M1107,-143.7C1107,-136.21 1107,-127.26 1107,-118.88"/>
<polygon fill="black" stroke="black" points="1110.5,-119.14 1107,-109.14 1103.5,-119.14 1110.5,-119.14"/>
</g>
<!-- root&#45;&gt;right&#45;&gt;left&#45;&gt;right&#45;&gt;right -->
<g id="node36" class="node">
<title>root&#45;&gt;right&#45;&gt;left&#45;&gt;right&#45;&gt;right</title>
<text text-anchor="middle" x="1179" y="-84.95" font-family="Times New Roman,serif" font-size="14.00">NULL</text>
</g>
<!-- root&#45;&gt;right&#45;&gt;left&#45;&gt;right&#45;&gt;root&#45;&gt;right&#45;&gt;left&#45;&gt;right&#45;&gt;right -->
<g id="edge35" class="edge">
<title>root&#45;&gt;right&#45;&gt;left&#45;&gt;right&#45;&gt;root&#45;&gt;right&#45;&gt;left&#45;&gt;right&#45;&gt;right</title>
<path fill="none" stroke="black" d="M1121.92,-146.5C1131.02,-137.65 1142.89,-126.1 1153.46,-115.84"/>
<polygon fill="black" stroke="black" points="1155.75,-118.49 1160.48,-109.01 1150.87,-113.47 1155.75,-118.49"/>
</g>
<!-- root&#45;&gt;right&#45;&gt;right&#45;&gt;left -->
<g id="node38" class="node">
<title>root&#45;&gt;right&#45;&gt;right&#45;&gt;left</title>
<ellipse fill="none" stroke="black" cx="1287" cy="-162" rx="27" ry="18"/>
<text text-anchor="middle" x="1287" y="-156.95" font-family="Times New Roman,serif" font-size="14.00">l</text>
</g>
<!-- root&#45;&gt;right&#45;&gt;right&#45;&gt;root&#45;&gt;right&#45;&gt;right&#45;&gt;left -->
<g id="edge37" class="edge">
<title>root&#45;&gt;right&#45;&gt;right&#45;&gt;root&#45;&gt;right&#45;&gt;right&#45;&gt;left</title>
<path fill="none" stroke="black" d="M1287,-215.7C1287,-208.41 1287,-199.73 1287,-191.54"/>
<polygon fill="black" stroke="black" points="1290.5,-191.62 1287,-181.62 1283.5,-191.62 1290.5,-191.62"/>
</g>
<!-- root&#45;&gt;right&#45;&gt;right&#45;&gt;right -->
<g id="node41" class="node">
<title>root&#45;&gt;right&#45;&gt;right&#45;&gt;right</title>
<ellipse fill="none" stroke="black" cx="1395" cy="-162" rx="27" ry="18"/>
<text text-anchor="middle" x="1395" y="-156.95" font-family="Times New Roman,serif" font-size="14.00">g</text>
</g>
<!-- root&#45;&gt;right&#45;&gt;right&#45;&gt;root&#45;&gt;right&#45;&gt;right&#45;&gt;right -->
<g id="edge40" class="edge">
<title>root&#45;&gt;right&#45;&gt;right&#45;&gt;root&#45;&gt;right&#45;&gt;right&#45;&gt;right</title>
<path fill="none" stroke="black" d="M1305.81,-220.81C1322.59,-209.93 1347.39,-193.86 1366.59,-181.42"/>
<polygon fill="black" stroke="black" points="1368.28,-184.49 1374.77,-176.11 1364.48,-178.61 1368.28,-184.49"/>
</g>
<!-- root&#45;&gt;right&#45;&gt;right&#45;&gt;left&#45;&gt;left -->
<g id="node39" class="node">
<title>root&#45;&gt;right&#45;&gt;right&#45;&gt;left&#45;&gt;left</title>
<text text-anchor="middle" x="1251" y="-84.95" font-family="Times New Roman,serif" font-size="14.00">NULL</text>
</g>
<!-- root&#45;&gt;right&#45;&gt;right&#45;&gt;left&#45;&gt;root&#45;&gt;right&#45;&gt;right&#45;&gt;left&#45;&gt;left -->
<g id="edge38" class="edge">
<title>root&#45;&gt;right&#45;&gt;right&#45;&gt;left&#45;&gt;root&#45;&gt;right&#45;&gt;right&#45;&gt;left&#45;&gt;left</title>
<path fill="none" stroke="black" d="M1278.65,-144.76C1274.53,-136.75 1269.45,-126.88 1264.78,-117.79"/>
<polygon fill="black" stroke="black" points="1267.93,-116.27 1260.25,-108.98 1261.71,-119.47 1267.93,-116.27"/>
</g>
<!-- root&#45;&gt;right&#45;&gt;right&#45;&gt;left&#45;&gt;right -->
<g id="node40" class="node">
<title>root&#45;&gt;right&#45;&gt;right&#45;&gt;left&#45;&gt;right</title>
<text text-anchor="middle" x="1323" y="-84.95" font-family="Times New Roman,serif" font-size="14.00">NULL</text>
</g>
<!-- root&#45;&gt;right&#45;&gt;right&#45;&gt;left&#45;&gt;root&#45;&gt;right&#45;&gt;right&#45;&gt;left&#45;&gt;right -->
<g id="edge39" class="edge">
<title>root&#45;&gt;right&#45;&gt;right&#45;&gt;left&#45;&gt;root&#45;&gt;right&#45;&gt;right&#45;&gt;left&#45;&gt;right</title>
<path fill="none" stroke="black" d="M1295.35,-144.76C1299.47,-136.75 1304.55,-126.88 1309.22,-117.79"/>
<polygon fill="black" stroke="black" points="1312.29,-119.47 1313.75,-108.98 1306.07,-116.27 1312.29,-119.47"/>
</g>
<!-- root&#45;&gt;right&#45;&gt;right&#45;&gt;right&#45;&gt;left -->
<g id="node42" class="node">
<title>root&#45;&gt;right&#45;&gt;right&#45;&gt;right&#45;&gt;left</title>
<text text-anchor="middle" x="1395" y="-84.95" font-family="Times New Roman,serif" font-size="14.00">NULL</text>
</g>
<!-- root&#45;&gt;right&#45;&gt;right&#45;&gt;right&#45;&gt;root&#45;&gt;right&#45;&gt;right&#45;&gt;right&#45;&gt;left -->
<g id="edge41" class="edge">
<title>root&#45;&gt;right&#45;&gt;right&#45;&gt;right&#45;&gt;root&#45;&gt;right&#45;&gt;right&#45;&gt;right&#45;&gt;left</title>
<path fill="none" stroke="black" d="M1395,-143.7C1395,-136.21 1395,-127.26 1395,-118.88"/>
<polygon fill="black" stroke="black" points="1398.5,-119.14 1395,-109.14 1391.5,-119.14 1398.5,-119.14"/>
</g>
<!-- root&#45;&gt;right&#45;&gt;right&#45;&gt;right&#45;&gt;right -->
<g id="node43" class="node">
<title>root&#45;&gt;right&#45;&gt;right&#45;&gt;right&#45;&gt;right</title>
<text text-anchor="middle" x="1467" y="-84.95" font-family="Times New Roman,serif" font-size="14.00">NULL</text>
</g>
<!-- root&#45;&gt;right&#45;&gt;right&#45;&gt;right&#45;&gt;root&#45;&gt;right&#45;&gt;right&#45;&gt;right&#45;&gt;right -->
<g id="edge42" class="edge">
<title>root&#45;&gt;right&#45;&gt;right&#45;&gt;right&#45;&gt;root&#45;&gt;right&#45;&gt;right&#45;&gt;right&#45;&gt;right</title>
<path fill="none" stroke="black" d="M1409.92,-146.5C1419.02,-137.65 1430.89,-126.1 1441.46,-115.84"/>
<polygon fill="black" stroke="black" points="1443.75,-118.49 1448.48,-109.01 1438.87,-113.47 1443.75,-118.49"/>
</g>
</g>
</svg>
