<?xml version="1.0" encoding="UTF-8" standalone="no"?>
<!DOCTYPE svg PUBLIC "-//W3C//DTD SVG 1.1//EN"
 "http://www.w3.org/Graphics/SVG/1.1/DTD/svg11.dtd">
<!-- Generated by graphviz version 8.1.0 (20230707.0739)
 -->
<!-- Pages: 1 -->
<svg width="566pt" height="332pt"
 viewBox="0.00 0.00 566.00 332.00" xmlns="http://www.w3.org/2000/svg" xmlns:xlink="http://www.w3.org/1999/xlink">
<g id="graph0" class="graph" transform="scale(1 1) rotate(0) translate(4 328)">
<polygon fill="white" stroke="none" points="-4,4 -4,-328 562,-328 562,4 -4,4"/>
<!-- root -->
<g id="node1" class="node">
<title>root</title>
<ellipse fill="none" stroke="black" cx="279" cy="-306" rx="27" ry="18"/>
<text text-anchor="middle" x="279" y="-301.8" font-family="Times,serif" font-size="14.00">10</text>
</g>
<!-- root&#45;&gt;left -->
<g id="node2" class="node">
<title>root&#45;&gt;left</title>
<ellipse fill="none" stroke="black" cx="207" cy="-234" rx="27" ry="18"/>
<text text-anchor="middle" x="207" y="-229.8" font-family="Times,serif" font-size="14.00">5</text>
</g>
<!-- root&#45;&gt;root&#45;&gt;left -->
<g id="edge1" class="edge">
<title>root&#45;&gt;root&#45;&gt;left</title>
<path fill="none" stroke="black" d="M264.08,-290.5C254.14,-280.83 240.88,-267.94 229.65,-257.02"/>
<polygon fill="black" stroke="black" points="232.51,-254.95 222.9,-250.49 227.63,-259.97 232.51,-254.95"/>
</g>
<!-- root&#45;&gt;right -->
<g id="node11" class="node">
<title>root&#45;&gt;right</title>
<ellipse fill="none" stroke="black" cx="351" cy="-234" rx="27" ry="18"/>
<text text-anchor="middle" x="351" y="-229.8" font-family="Times,serif" font-size="14.00">27</text>
</g>
<!-- root&#45;&gt;root&#45;&gt;right -->
<g id="edge16" class="edge">
<title>root&#45;&gt;root&#45;&gt;right</title>
<path fill="none" stroke="black" d="M293.92,-290.5C303.86,-280.83 317.12,-267.94 328.35,-257.02"/>
<polygon fill="black" stroke="black" points="330.37,-259.97 335.1,-250.49 325.49,-254.95 330.37,-259.97"/>
</g>
<!-- root&#45;&gt;left&#45;&gt;left -->
<g id="node3" class="node">
<title>root&#45;&gt;left&#45;&gt;left</title>
<ellipse fill="none" stroke="black" cx="99" cy="-162" rx="27" ry="18"/>
<text text-anchor="middle" x="99" y="-157.8" font-family="Times,serif" font-size="14.00">3</text>
</g>
<!-- root&#45;&gt;left&#45;&gt;root&#45;&gt;left&#45;&gt;left -->
<g id="edge2" class="edge">
<title>root&#45;&gt;left&#45;&gt;root&#45;&gt;left&#45;&gt;left</title>
<path fill="none" stroke="black" d="M188.19,-220.81C171.33,-209.88 146.38,-193.71 127.15,-181.24"/>
<polygon fill="black" stroke="black" points="129.25,-177.79 118.96,-175.29 125.45,-183.66 129.25,-177.79"/>
</g>
<!-- root&#45;&gt;left&#45;&gt;right -->
<g id="node6" class="node">
<title>root&#45;&gt;left&#45;&gt;right</title>
<ellipse fill="none" stroke="black" cx="207" cy="-162" rx="27" ry="18"/>
<text text-anchor="middle" x="207" y="-157.8" font-family="Times,serif" font-size="14.00">8</text>
</g>
<!-- root&#45;&gt;left&#45;&gt;root&#45;&gt;left&#45;&gt;right -->
<g id="edge9" class="edge">
<title>root&#45;&gt;left&#45;&gt;root&#45;&gt;left&#45;&gt;right</title>
<path fill="none" stroke="black" d="M207,-215.7C207,-208.24 207,-199.32 207,-190.97"/>
<polygon fill="black" stroke="black" points="210.5,-191.1 207,-181.1 203.5,-191.1 210.5,-191.1"/>
</g>
<!-- root&#45;&gt;left&#45;&gt;left&#45;&gt;left -->
<g id="node4" class="node">
<title>root&#45;&gt;left&#45;&gt;left&#45;&gt;left</title>
<text text-anchor="middle" x="27" y="-85.8" font-family="Times,serif" font-size="14.00">NULL</text>
</g>
<!-- root&#45;&gt;left&#45;&gt;left&#45;&gt;root&#45;&gt;left&#45;&gt;left&#45;&gt;left -->
<g id="edge3" class="edge">
<title>root&#45;&gt;left&#45;&gt;left&#45;&gt;root&#45;&gt;left&#45;&gt;left&#45;&gt;left</title>
<path fill="none" stroke="black" d="M84.08,-146.5C74.89,-137.56 62.87,-125.87 52.23,-115.53"/>
<polygon fill="black" stroke="black" points="55.04,-113.41 45.43,-108.95 50.17,-118.43 55.04,-113.41"/>
</g>
<!-- root&#45;&gt;left&#45;&gt;left&#45;&gt;right -->
<g id="node5" class="node">
<title>root&#45;&gt;left&#45;&gt;left&#45;&gt;right</title>
<text text-anchor="middle" x="99" y="-85.8" font-family="Times,serif" font-size="14.00">NULL</text>
</g>
<!-- root&#45;&gt;left&#45;&gt;left&#45;&gt;root&#45;&gt;left&#45;&gt;left&#45;&gt;right -->
<g id="edge4" class="edge">
<title>root&#45;&gt;left&#45;&gt;left&#45;&gt;root&#45;&gt;left&#45;&gt;left&#45;&gt;right</title>
<path fill="none" stroke="black" d="M99,-143.7C99,-136.13 99,-127.06 99,-118.59"/>
<polygon fill="black" stroke="black" points="102.5,-118.62 99,-108.62 95.5,-118.62 102.5,-118.62"/>
</g>
<!-- root&#45;&gt;left&#45;&gt;right&#45;&gt;left -->
<g id="node7" class="node">
<title>root&#45;&gt;left&#45;&gt;right&#45;&gt;left</title>
<text text-anchor="middle" x="171" y="-85.8" font-family="Times,serif" font-size="14.00">NULL</text>
</g>
<!-- root&#45;&gt;left&#45;&gt;right&#45;&gt;root&#45;&gt;left&#45;&gt;right&#45;&gt;left -->
<g id="edge5" class="edge">
<title>root&#45;&gt;left&#45;&gt;right&#45;&gt;root&#45;&gt;left&#45;&gt;right&#45;&gt;left</title>
<path fill="none" stroke="black" d="M198.65,-144.76C194.44,-136.58 189.23,-126.45 184.47,-117.2"/>
<polygon fill="black" stroke="black" points="187.24,-115.93 179.55,-108.63 181.02,-119.13 187.24,-115.93"/>
</g>
<!-- root&#45;&gt;left&#45;&gt;right&#45;&gt;right -->
<g id="node8" class="node">
<title>root&#45;&gt;left&#45;&gt;right&#45;&gt;right</title>
<ellipse fill="none" stroke="black" cx="243" cy="-90" rx="27" ry="18"/>
<text text-anchor="middle" x="243" y="-85.8" font-family="Times,serif" font-size="14.00">9</text>
</g>
<!-- root&#45;&gt;left&#45;&gt;right&#45;&gt;root&#45;&gt;left&#45;&gt;right&#45;&gt;right -->
<g id="edge8" class="edge">
<title>root&#45;&gt;left&#45;&gt;right&#45;&gt;root&#45;&gt;left&#45;&gt;right&#45;&gt;right</title>
<path fill="none" stroke="black" d="M215.35,-144.76C219.62,-136.46 224.92,-126.15 229.73,-116.79"/>
<polygon fill="black" stroke="black" points="233.23,-118.64 234.7,-108.15 227.01,-115.44 233.23,-118.64"/>
</g>
<!-- root&#45;&gt;left&#45;&gt;right&#45;&gt;right&#45;&gt;left -->
<g id="node9" class="node">
<title>root&#45;&gt;left&#45;&gt;right&#45;&gt;right&#45;&gt;left</title>
<text text-anchor="middle" x="207" y="-13.8" font-family="Times,serif" font-size="14.00">NULL</text>
</g>
<!-- root&#45;&gt;left&#45;&gt;right&#45;&gt;right&#45;&gt;root&#45;&gt;left&#45;&gt;right&#45;&gt;right&#45;&gt;left -->
<g id="edge6" class="edge">
<title>root&#45;&gt;left&#45;&gt;right&#45;&gt;right&#45;&gt;root&#45;&gt;left&#45;&gt;right&#45;&gt;right&#45;&gt;left</title>
<path fill="none" stroke="black" d="M234.65,-72.76C230.44,-64.58 225.23,-54.45 220.47,-45.2"/>
<polygon fill="black" stroke="black" points="223.24,-43.93 215.55,-36.63 217.02,-47.13 223.24,-43.93"/>
</g>
<!-- root&#45;&gt;left&#45;&gt;right&#45;&gt;right&#45;&gt;right -->
<g id="node10" class="node">
<title>root&#45;&gt;left&#45;&gt;right&#45;&gt;right&#45;&gt;right</title>
<text text-anchor="middle" x="279" y="-13.8" font-family="Times,serif" font-size="14.00">NULL</text>
</g>
<!-- root&#45;&gt;left&#45;&gt;right&#45;&gt;right&#45;&gt;root&#45;&gt;left&#45;&gt;right&#45;&gt;right&#45;&gt;right -->
<g id="edge7" class="edge">
<title>root&#45;&gt;left&#45;&gt;right&#45;&gt;right&#45;&gt;root&#45;&gt;left&#45;&gt;right&#45;&gt;right&#45;&gt;right</title>
<path fill="none" stroke="black" d="M251.35,-72.76C255.56,-64.58 260.77,-54.45 265.53,-45.2"/>
<polygon fill="black" stroke="black" points="268.98,-47.13 270.45,-36.63 262.76,-43.93 268.98,-47.13"/>
</g>
<!-- root&#45;&gt;right&#45;&gt;left -->
<g id="node12" class="node">
<title>root&#45;&gt;right&#45;&gt;left</title>
<ellipse fill="none" stroke="black" cx="351" cy="-162" rx="27" ry="18"/>
<text text-anchor="middle" x="351" y="-157.8" font-family="Times,serif" font-size="14.00">16</text>
</g>
<!-- root&#45;&gt;right&#45;&gt;root&#45;&gt;right&#45;&gt;left -->
<g id="edge10" class="edge">
<title>root&#45;&gt;right&#45;&gt;root&#45;&gt;right&#45;&gt;left</title>
<path fill="none" stroke="black" d="M351,-215.7C351,-208.24 351,-199.32 351,-190.97"/>
<polygon fill="black" stroke="black" points="354.5,-191.1 351,-181.1 347.5,-191.1 354.5,-191.1"/>
</g>
<!-- root&#45;&gt;right&#45;&gt;right -->
<g id="node15" class="node">
<title>root&#45;&gt;right&#45;&gt;right</title>
<ellipse fill="none" stroke="black" cx="459" cy="-162" rx="27" ry="18"/>
<text text-anchor="middle" x="459" y="-157.8" font-family="Times,serif" font-size="14.00">38</text>
</g>
<!-- root&#45;&gt;right&#45;&gt;root&#45;&gt;right&#45;&gt;right -->
<g id="edge15" class="edge">
<title>root&#45;&gt;right&#45;&gt;root&#45;&gt;right&#45;&gt;right</title>
<path fill="none" stroke="black" d="M369.81,-220.81C386.67,-209.88 411.62,-193.71 430.85,-181.24"/>
<polygon fill="black" stroke="black" points="432.55,-183.66 439.04,-175.29 428.75,-177.79 432.55,-183.66"/>
</g>
<!-- root&#45;&gt;right&#45;&gt;left&#45;&gt;left -->
<g id="node13" class="node">
<title>root&#45;&gt;right&#45;&gt;left&#45;&gt;left</title>
<text text-anchor="middle" x="315" y="-85.8" font-family="Times,serif" font-size="14.00">NULL</text>
</g>
<!-- root&#45;&gt;right&#45;&gt;left&#45;&gt;root&#45;&gt;right&#45;&gt;left&#45;&gt;left -->
<g id="edge11" class="edge">
<title>root&#45;&gt;right&#45;&gt;left&#45;&gt;root&#45;&gt;right&#45;&gt;left&#45;&gt;left</title>
<path fill="none" stroke="black" d="M342.65,-144.76C338.44,-136.58 333.23,-126.45 328.47,-117.2"/>
<polygon fill="black" stroke="black" points="331.24,-115.93 323.55,-108.63 325.02,-119.13 331.24,-115.93"/>
</g>
<!-- root&#45;&gt;right&#45;&gt;left&#45;&gt;right -->
<g id="node14" class="node">
<title>root&#45;&gt;right&#45;&gt;left&#45;&gt;right</title>
<text text-anchor="middle" x="387" y="-85.8" font-family="Times,serif" font-size="14.00">NULL</text>
</g>
<!-- root&#45;&gt;right&#45;&gt;left&#45;&gt;root&#45;&gt;right&#45;&gt;left&#45;&gt;right -->
<g id="edge12" class="edge">
<title>root&#45;&gt;right&#45;&gt;left&#45;&gt;root&#45;&gt;right&#45;&gt;left&#45;&gt;right</title>
<path fill="none" stroke="black" d="M359.35,-144.76C363.56,-136.58 368.77,-126.45 373.53,-117.2"/>
<polygon fill="black" stroke="black" points="376.98,-119.13 378.45,-108.63 370.76,-115.93 376.98,-119.13"/>
</g>
<!-- root&#45;&gt;right&#45;&gt;right&#45;&gt;left -->
<g id="node16" class="node">
<title>root&#45;&gt;right&#45;&gt;right&#45;&gt;left</title>
<text text-anchor="middle" x="459" y="-85.8" font-family="Times,serif" font-size="14.00">NULL</text>
</g>
<!-- root&#45;&gt;right&#45;&gt;right&#45;&gt;root&#45;&gt;right&#45;&gt;right&#45;&gt;left -->
<g id="edge13" class="edge">
<title>root&#45;&gt;right&#45;&gt;right&#45;&gt;root&#45;&gt;right&#45;&gt;right&#45;&gt;left</title>
<path fill="none" stroke="black" d="M459,-143.7C459,-136.13 459,-127.06 459,-118.59"/>
<polygon fill="black" stroke="black" points="462.5,-118.62 459,-108.62 455.5,-118.62 462.5,-118.62"/>
</g>
<!-- root&#45;&gt;right&#45;&gt;right&#45;&gt;right -->
<g id="node17" class="node">
<title>root&#45;&gt;right&#45;&gt;right&#45;&gt;right</title>
<text text-anchor="middle" x="531" y="-85.8" font-family="Times,serif" font-size="14.00">NULL</text>
</g>
<!-- root&#45;&gt;right&#45;&gt;right&#45;&gt;root&#45;&gt;right&#45;&gt;right&#45;&gt;right -->
<g id="edge14" class="edge">
<title>root&#45;&gt;right&#45;&gt;right&#45;&gt;root&#45;&gt;right&#45;&gt;right&#45;&gt;right</title>
<path fill="none" stroke="black" d="M473.92,-146.5C483.11,-137.56 495.13,-125.87 505.77,-115.53"/>
<polygon fill="black" stroke="black" points="507.83,-118.43 512.57,-108.95 502.96,-113.41 507.83,-118.43"/>
</g>
</g>
</svg>
