<?xml version="1.0" encoding="UTF-8" standalone="no"?>
<!DOCTYPE svg PUBLIC "-//W3C//DTD SVG 1.1//EN"
 "http://www.w3.org/Graphics/SVG/1.1/DTD/svg11.dtd">
<!-- Generated by graphviz version 2.43.0 (0)
 -->
<!-- Title: %3 Pages: 1 -->
<svg width="350pt" height="260pt"
 viewBox="0.00 0.00 350.00 260.00" xmlns="http://www.w3.org/2000/svg" xmlns:xlink="http://www.w3.org/1999/xlink">
<g id="graph0" class="graph" transform="scale(1 1) rotate(0) translate(4 256)">
<title>%3</title>
<polygon fill="white" stroke="transparent" points="-4,4 -4,-256 346,-256 346,4 -4,4"/>
<!-- node0 -->
<g id="node1" class="node">
<title>node0</title>
<ellipse fill="none" stroke="black" cx="207" cy="-234" rx="27" ry="18"/>
<text text-anchor="middle" x="207" y="-230.3" font-family="Times,serif" font-size="14.00">y</text>
</g>
<!-- node1 -->
<g id="node2" class="node">
<title>node1</title>
<ellipse fill="none" stroke="black" cx="171" cy="-162" rx="27" ry="18"/>
<text text-anchor="middle" x="171" y="-158.3" font-family="Times,serif" font-size="14.00">s</text>
</g>
<!-- node0&#45;&gt;node1 -->
<g id="edge1" class="edge">
<title>node0&#45;&gt;node1</title>
<path fill="none" stroke="black" d="M198.65,-216.76C194.29,-208.28 188.85,-197.71 183.96,-188.2"/>
<polygon fill="black" stroke="black" points="186.99,-186.44 179.3,-179.15 180.77,-189.64 186.99,-186.44"/>
</g>
<!-- node2 -->
<g id="node3" class="node">
<title>node2</title>
<ellipse fill="none" stroke="black" cx="243" cy="-162" rx="27" ry="18"/>
<text text-anchor="middle" x="243" y="-158.3" font-family="Times,serif" font-size="14.00">f</text>
</g>
<!-- node0&#45;&gt;node2 -->
<g id="edge2" class="edge">
<title>node0&#45;&gt;node2</title>
<path fill="none" stroke="black" d="M215.35,-216.76C219.71,-208.28 225.15,-197.71 230.04,-188.2"/>
<polygon fill="black" stroke="black" points="233.23,-189.64 234.7,-179.15 227.01,-186.44 233.23,-189.64"/>
</g>
<!-- node3 -->
<g id="node4" class="node">
<title>node3</title>
<ellipse fill="none" stroke="black" cx="99" cy="-90" rx="27" ry="18"/>
<text text-anchor="middle" x="99" y="-86.3" font-family="Times,serif" font-size="14.00">a</text>
</g>
<!-- node1&#45;&gt;node3 -->
<g id="edge3" class="edge">
<title>node1&#45;&gt;node3</title>
<path fill="none" stroke="black" d="M156.43,-146.83C146.25,-136.94 132.48,-123.55 120.97,-112.36"/>
<polygon fill="black" stroke="black" points="123.41,-109.85 113.8,-105.38 118.53,-114.87 123.41,-109.85"/>
</g>
<!-- node4 -->
<g id="node5" class="node">
<title>node4</title>
<ellipse fill="none" stroke="black" cx="171" cy="-90" rx="27" ry="18"/>
<text text-anchor="middle" x="171" y="-86.3" font-family="Times,serif" font-size="14.00">a</text>
</g>
<!-- node1&#45;&gt;node4 -->
<g id="edge4" class="edge">
<title>node1&#45;&gt;node4</title>
<path fill="none" stroke="black" d="M171,-143.7C171,-135.98 171,-126.71 171,-118.11"/>
<polygon fill="black" stroke="black" points="174.5,-118.1 171,-108.1 167.5,-118.1 174.5,-118.1"/>
</g>
<!-- node5 -->
<g id="node6" class="node">
<title>node5</title>
<text text-anchor="middle" x="243" y="-86.3" font-family="Times,serif" font-size="14.00">NULL</text>
</g>
<!-- node2&#45;&gt;node5 -->
<g id="edge5" class="edge">
<title>node2&#45;&gt;node5</title>
<path fill="none" stroke="black" d="M243,-143.7C243,-135.98 243,-126.71 243,-118.11"/>
<polygon fill="black" stroke="black" points="246.5,-118.1 243,-108.1 239.5,-118.1 246.5,-118.1"/>
</g>
<!-- node6 -->
<g id="node7" class="node">
<title>node6</title>
<text text-anchor="middle" x="315" y="-86.3" font-family="Times,serif" font-size="14.00">NULL</text>
</g>
<!-- node2&#45;&gt;node6 -->
<g id="edge6" class="edge">
<title>node2&#45;&gt;node6</title>
<path fill="none" stroke="black" d="M257.57,-146.83C266.92,-137.75 279.3,-125.71 290.17,-115.14"/>
<polygon fill="black" stroke="black" points="292.67,-117.59 297.4,-108.11 287.79,-112.57 292.67,-117.59"/>
</g>
<!-- node7 -->
<g id="node8" class="node">
<title>node7</title>
<text text-anchor="middle" x="27" y="-14.3" font-family="Times,serif" font-size="14.00">NULL</text>
</g>
<!-- node3&#45;&gt;node7 -->
<g id="edge7" class="edge">
<title>node3&#45;&gt;node7</title>
<path fill="none" stroke="black" d="M84.43,-74.83C75.08,-65.75 62.7,-53.71 51.83,-43.14"/>
<polygon fill="black" stroke="black" points="54.21,-40.57 44.6,-36.11 49.33,-45.59 54.21,-40.57"/>
</g>
<!-- node8 -->
<g id="node9" class="node">
<title>node8</title>
<text text-anchor="middle" x="99" y="-14.3" font-family="Times,serif" font-size="14.00">NULL</text>
</g>
<!-- node3&#45;&gt;node8 -->
<g id="edge8" class="edge">
<title>node3&#45;&gt;node8</title>
<path fill="none" stroke="black" d="M99,-71.7C99,-63.98 99,-54.71 99,-46.11"/>
<polygon fill="black" stroke="black" points="102.5,-46.1 99,-36.1 95.5,-46.1 102.5,-46.1"/>
</g>
<!-- node9 -->
<g id="node10" class="node">
<title>node9</title>
<text text-anchor="middle" x="171" y="-14.3" font-family="Times,serif" font-size="14.00">NULL</text>
</g>
<!-- node4&#45;&gt;node9 -->
<g id="edge9" class="edge">
<title>node4&#45;&gt;node9</title>
<path fill="none" stroke="black" d="M171,-71.7C171,-63.98 171,-54.71 171,-46.11"/>
<polygon fill="black" stroke="black" points="174.5,-46.1 171,-36.1 167.5,-46.1 174.5,-46.1"/>
</g>
<!-- node10 -->
<g id="node11" class="node">
<title>node10</title>
<text text-anchor="middle" x="243" y="-14.3" font-family="Times,serif" font-size="14.00">NULL</text>
</g>
<!-- node4&#45;&gt;node10 -->
<g id="edge10" class="edge">
<title>node4&#45;&gt;node10</title>
<path fill="none" stroke="black" d="M185.57,-74.83C194.92,-65.75 207.3,-53.71 218.17,-43.14"/>
<polygon fill="black" stroke="black" points="220.67,-45.59 225.4,-36.11 215.79,-40.57 220.67,-45.59"/>
</g>
</g>
</svg>
