<?xml version="1.0" encoding="UTF-8" standalone="no"?>
<!DOCTYPE svg PUBLIC "-//W3C//DTD SVG 1.1//EN"
 "http://www.w3.org/Graphics/SVG/1.1/DTD/svg11.dtd">
<!-- Generated by graphviz version 2.43.0 (0)
 -->
<!-- Title: %3 Pages: 1 -->
<svg width="566pt" height="332pt"
 viewBox="0.00 0.00 566.00 332.00" xmlns="http://www.w3.org/2000/svg" xmlns:xlink="http://www.w3.org/1999/xlink">
<g id="graph0" class="graph" transform="scale(1 1) rotate(0) translate(4 328)">
<title>%3</title>
<polygon fill="white" stroke="transparent" points="-4,4 -4,-328 562,-328 562,4 -4,4"/>
<!-- root -->
<g id="node1" class="node">
<title>root</title>
<ellipse fill="none" stroke="black" cx="279" cy="-306" rx="27" ry="18"/>
<text text-anchor="middle" x="279" y="-302.3" font-family="Times,serif" font-size="14.00">10</text>
</g>
<!-- root&#45;&gt;left -->
<g id="node2" class="node">
<title>root&#45;&gt;left</title>
<ellipse fill="none" stroke="black" cx="207" cy="-234" rx="27" ry="18"/>
<text text-anchor="middle" x="207" y="-230.3" font-family="Times,serif" font-size="14.00">5</text>
</g>
<!-- root&#45;&gt;root&#45;&gt;left -->
<g id="edge1" class="edge">
<title>root&#45;&gt;root&#45;&gt;left</title>
<path fill="none" stroke="black" d="M264.43,-290.83C254.25,-280.94 240.48,-267.55 228.97,-256.36"/>
<polygon fill="black" stroke="black" points="231.41,-253.85 221.8,-249.38 226.53,-258.87 231.41,-253.85"/>
</g>
<!-- root&#45;&gt;right -->
<g id="node11" class="node">
<title>root&#45;&gt;right</title>
<ellipse fill="none" stroke="black" cx="351" cy="-234" rx="27" ry="18"/>
<text text-anchor="middle" x="351" y="-230.3" font-family="Times,serif" font-size="14.00">27</text>
</g>
<!-- root&#45;&gt;root&#45;&gt;right -->
<g id="edge16" class="edge">
<title>root&#45;&gt;root&#45;&gt;right</title>
<path fill="none" stroke="black" d="M293.57,-290.83C303.75,-280.94 317.52,-267.55 329.03,-256.36"/>
<polygon fill="black" stroke="black" points="331.47,-258.87 336.2,-249.38 326.59,-253.85 331.47,-258.87"/>
</g>
<!-- root&#45;&gt;left&#45;&gt;left -->
<g id="node3" class="node">
<title>root&#45;&gt;left&#45;&gt;left</title>
<ellipse fill="none" stroke="black" cx="99" cy="-162" rx="27" ry="18"/>
<text text-anchor="middle" x="99" y="-158.3" font-family="Times,serif" font-size="14.00">3</text>
</g>
<!-- root&#45;&gt;left&#45;&gt;root&#45;&gt;left&#45;&gt;left -->
<g id="edge2" class="edge">
<title>root&#45;&gt;left&#45;&gt;root&#45;&gt;left&#45;&gt;left</title>
<path fill="none" stroke="black" d="M188.19,-220.81C171,-209.67 145.38,-193.06 126.01,-180.5"/>
<polygon fill="black" stroke="black" points="127.89,-177.56 117.6,-175.05 124.08,-183.43 127.89,-177.56"/>
</g>
<!-- root&#45;&gt;left&#45;&gt;right -->
<g id="node6" class="node">
<title>root&#45;&gt;left&#45;&gt;right</title>
<ellipse fill="none" stroke="black" cx="207" cy="-162" rx="27" ry="18"/>
<text text-anchor="middle" x="207" y="-158.3" font-family="Times,serif" font-size="14.00">8</text>
</g>
<!-- root&#45;&gt;left&#45;&gt;root&#45;&gt;left&#45;&gt;right -->
<g id="edge9" class="edge">
<title>root&#45;&gt;left&#45;&gt;root&#45;&gt;left&#45;&gt;right</title>
<path fill="none" stroke="black" d="M207,-215.7C207,-207.98 207,-198.71 207,-190.11"/>
<polygon fill="black" stroke="black" points="210.5,-190.1 207,-180.1 203.5,-190.1 210.5,-190.1"/>
</g>
<!-- root&#45;&gt;left&#45;&gt;left&#45;&gt;left -->
<g id="node4" class="node">
<title>root&#45;&gt;left&#45;&gt;left&#45;&gt;left</title>
<text text-anchor="middle" x="27" y="-86.3" font-family="Times,serif" font-size="14.00">NULL</text>
</g>
<!-- root&#45;&gt;left&#45;&gt;left&#45;&gt;root&#45;&gt;left&#45;&gt;left&#45;&gt;left -->
<g id="edge3" class="edge">
<title>root&#45;&gt;left&#45;&gt;left&#45;&gt;root&#45;&gt;left&#45;&gt;left&#45;&gt;left</title>
<path fill="none" stroke="black" d="M84.43,-146.83C75.08,-137.75 62.7,-125.71 51.83,-115.14"/>
<polygon fill="black" stroke="black" points="54.21,-112.57 44.6,-108.11 49.33,-117.59 54.21,-112.57"/>
</g>
<!-- root&#45;&gt;left&#45;&gt;left&#45;&gt;right -->
<g id="node5" class="node">
<title>root&#45;&gt;left&#45;&gt;left&#45;&gt;right</title>
<text text-anchor="middle" x="99" y="-86.3" font-family="Times,serif" font-size="14.00">NULL</text>
</g>
<!-- root&#45;&gt;left&#45;&gt;left&#45;&gt;root&#45;&gt;left&#45;&gt;left&#45;&gt;right -->
<g id="edge4" class="edge">
<title>root&#45;&gt;left&#45;&gt;left&#45;&gt;root&#45;&gt;left&#45;&gt;left&#45;&gt;right</title>
<path fill="none" stroke="black" d="M99,-143.7C99,-135.98 99,-126.71 99,-118.11"/>
<polygon fill="black" stroke="black" points="102.5,-118.1 99,-108.1 95.5,-118.1 102.5,-118.1"/>
</g>
<!-- root&#45;&gt;left&#45;&gt;right&#45;&gt;left -->
<g id="node7" class="node">
<title>root&#45;&gt;left&#45;&gt;right&#45;&gt;left</title>
<text text-anchor="middle" x="171" y="-86.3" font-family="Times,serif" font-size="14.00">NULL</text>
</g>
<!-- root&#45;&gt;left&#45;&gt;right&#45;&gt;root&#45;&gt;left&#45;&gt;right&#45;&gt;left -->
<g id="edge5" class="edge">
<title>root&#45;&gt;left&#45;&gt;right&#45;&gt;root&#45;&gt;left&#45;&gt;right&#45;&gt;left</title>
<path fill="none" stroke="black" d="M198.65,-144.76C194.46,-136.61 189.27,-126.53 184.53,-117.31"/>
<polygon fill="black" stroke="black" points="187.49,-115.42 179.81,-108.12 181.27,-118.62 187.49,-115.42"/>
</g>
<!-- root&#45;&gt;left&#45;&gt;right&#45;&gt;right -->
<g id="node8" class="node">
<title>root&#45;&gt;left&#45;&gt;right&#45;&gt;right</title>
<ellipse fill="none" stroke="black" cx="243" cy="-90" rx="27" ry="18"/>
<text text-anchor="middle" x="243" y="-86.3" font-family="Times,serif" font-size="14.00">9</text>
</g>
<!-- root&#45;&gt;left&#45;&gt;right&#45;&gt;root&#45;&gt;left&#45;&gt;right&#45;&gt;right -->
<g id="edge8" class="edge">
<title>root&#45;&gt;left&#45;&gt;right&#45;&gt;root&#45;&gt;left&#45;&gt;right&#45;&gt;right</title>
<path fill="none" stroke="black" d="M215.35,-144.76C219.71,-136.28 225.15,-125.71 230.04,-116.2"/>
<polygon fill="black" stroke="black" points="233.23,-117.64 234.7,-107.15 227.01,-114.44 233.23,-117.64"/>
</g>
<!-- root&#45;&gt;left&#45;&gt;right&#45;&gt;right&#45;&gt;left -->
<g id="node9" class="node">
<title>root&#45;&gt;left&#45;&gt;right&#45;&gt;right&#45;&gt;left</title>
<text text-anchor="middle" x="207" y="-14.3" font-family="Times,serif" font-size="14.00">NULL</text>
</g>
<!-- root&#45;&gt;left&#45;&gt;right&#45;&gt;right&#45;&gt;root&#45;&gt;left&#45;&gt;right&#45;&gt;right&#45;&gt;left -->
<g id="edge6" class="edge">
<title>root&#45;&gt;left&#45;&gt;right&#45;&gt;right&#45;&gt;root&#45;&gt;left&#45;&gt;right&#45;&gt;right&#45;&gt;left</title>
<path fill="none" stroke="black" d="M234.65,-72.76C230.46,-64.61 225.27,-54.53 220.53,-45.31"/>
<polygon fill="black" stroke="black" points="223.49,-43.42 215.81,-36.12 217.27,-46.62 223.49,-43.42"/>
</g>
<!-- root&#45;&gt;left&#45;&gt;right&#45;&gt;right&#45;&gt;right -->
<g id="node10" class="node">
<title>root&#45;&gt;left&#45;&gt;right&#45;&gt;right&#45;&gt;right</title>
<text text-anchor="middle" x="279" y="-14.3" font-family="Times,serif" font-size="14.00">NULL</text>
</g>
<!-- root&#45;&gt;left&#45;&gt;right&#45;&gt;right&#45;&gt;root&#45;&gt;left&#45;&gt;right&#45;&gt;right&#45;&gt;right -->
<g id="edge7" class="edge">
<title>root&#45;&gt;left&#45;&gt;right&#45;&gt;right&#45;&gt;root&#45;&gt;left&#45;&gt;right&#45;&gt;right&#45;&gt;right</title>
<path fill="none" stroke="black" d="M251.35,-72.76C255.54,-64.61 260.73,-54.53 265.47,-45.31"/>
<polygon fill="black" stroke="black" points="268.73,-46.62 270.19,-36.12 262.51,-43.42 268.73,-46.62"/>
</g>
<!-- root&#45;&gt;right&#45;&gt;left -->
<g id="node12" class="node">
<title>root&#45;&gt;right&#45;&gt;left</title>
<ellipse fill="none" stroke="black" cx="351" cy="-162" rx="27" ry="18"/>
<text text-anchor="middle" x="351" y="-158.3" font-family="Times,serif" font-size="14.00">16</text>
</g>
<!-- root&#45;&gt;right&#45;&gt;root&#45;&gt;right&#45;&gt;left -->
<g id="edge10" class="edge">
<title>root&#45;&gt;right&#45;&gt;root&#45;&gt;right&#45;&gt;left</title>
<path fill="none" stroke="black" d="M351,-215.7C351,-207.98 351,-198.71 351,-190.11"/>
<polygon fill="black" stroke="black" points="354.5,-190.1 351,-180.1 347.5,-190.1 354.5,-190.1"/>
</g>
<!-- root&#45;&gt;right&#45;&gt;right -->
<g id="node15" class="node">
<title>root&#45;&gt;right&#45;&gt;right</title>
<ellipse fill="none" stroke="black" cx="459" cy="-162" rx="27" ry="18"/>
<text text-anchor="middle" x="459" y="-158.3" font-family="Times,serif" font-size="14.00">38</text>
</g>
<!-- root&#45;&gt;right&#45;&gt;root&#45;&gt;right&#45;&gt;right -->
<g id="edge15" class="edge">
<title>root&#45;&gt;right&#45;&gt;root&#45;&gt;right&#45;&gt;right</title>
<path fill="none" stroke="black" d="M369.81,-220.81C387,-209.67 412.62,-193.06 431.99,-180.5"/>
<polygon fill="black" stroke="black" points="433.92,-183.43 440.4,-175.05 430.11,-177.56 433.92,-183.43"/>
</g>
<!-- root&#45;&gt;right&#45;&gt;left&#45;&gt;left -->
<g id="node13" class="node">
<title>root&#45;&gt;right&#45;&gt;left&#45;&gt;left</title>
<text text-anchor="middle" x="315" y="-86.3" font-family="Times,serif" font-size="14.00">NULL</text>
</g>
<!-- root&#45;&gt;right&#45;&gt;left&#45;&gt;root&#45;&gt;right&#45;&gt;left&#45;&gt;left -->
<g id="edge11" class="edge">
<title>root&#45;&gt;right&#45;&gt;left&#45;&gt;root&#45;&gt;right&#45;&gt;left&#45;&gt;left</title>
<path fill="none" stroke="black" d="M342.65,-144.76C338.46,-136.61 333.27,-126.53 328.53,-117.31"/>
<polygon fill="black" stroke="black" points="331.49,-115.42 323.81,-108.12 325.27,-118.62 331.49,-115.42"/>
</g>
<!-- root&#45;&gt;right&#45;&gt;left&#45;&gt;right -->
<g id="node14" class="node">
<title>root&#45;&gt;right&#45;&gt;left&#45;&gt;right</title>
<text text-anchor="middle" x="387" y="-86.3" font-family="Times,serif" font-size="14.00">NULL</text>
</g>
<!-- root&#45;&gt;right&#45;&gt;left&#45;&gt;root&#45;&gt;right&#45;&gt;left&#45;&gt;right -->
<g id="edge12" class="edge">
<title>root&#45;&gt;right&#45;&gt;left&#45;&gt;root&#45;&gt;right&#45;&gt;left&#45;&gt;right</title>
<path fill="none" stroke="black" d="M359.35,-144.76C363.54,-136.61 368.73,-126.53 373.47,-117.31"/>
<polygon fill="black" stroke="black" points="376.73,-118.62 378.19,-108.12 370.51,-115.42 376.73,-118.62"/>
</g>
<!-- root&#45;&gt;right&#45;&gt;right&#45;&gt;left -->
<g id="node16" class="node">
<title>root&#45;&gt;right&#45;&gt;right&#45;&gt;left</title>
<text text-anchor="middle" x="459" y="-86.3" font-family="Times,serif" font-size="14.00">NULL</text>
</g>
<!-- root&#45;&gt;right&#45;&gt;right&#45;&gt;root&#45;&gt;right&#45;&gt;right&#45;&gt;left -->
<g id="edge13" class="edge">
<title>root&#45;&gt;right&#45;&gt;right&#45;&gt;root&#45;&gt;right&#45;&gt;right&#45;&gt;left</title>
<path fill="none" stroke="black" d="M459,-143.7C459,-135.98 459,-126.71 459,-118.11"/>
<polygon fill="black" stroke="black" points="462.5,-118.1 459,-108.1 455.5,-118.1 462.5,-118.1"/>
</g>
<!-- root&#45;&gt;right&#45;&gt;right&#45;&gt;right -->
<g id="node17" class="node">
<title>root&#45;&gt;right&#45;&gt;right&#45;&gt;right</title>
<text text-anchor="middle" x="531" y="-86.3" font-family="Times,serif" font-size="14.00">NULL</text>
</g>
<!-- root&#45;&gt;right&#45;&gt;right&#45;&gt;root&#45;&gt;right&#45;&gt;right&#45;&gt;right -->
<g id="edge14" class="edge">
<title>root&#45;&gt;right&#45;&gt;right&#45;&gt;root&#45;&gt;right&#45;&gt;right&#45;&gt;right</title>
<path fill="none" stroke="black" d="M473.57,-146.83C482.92,-137.75 495.3,-125.71 506.17,-115.14"/>
<polygon fill="black" stroke="black" points="508.67,-117.59 513.4,-108.11 503.79,-112.57 508.67,-117.59"/>
</g>
</g>
</svg>
