<?xml version="1.0" encoding="UTF-8" standalone="no"?>
<!DOCTYPE svg PUBLIC "-//W3C//DTD SVG 1.1//EN"
 "http://www.w3.org/Graphics/SVG/1.1/DTD/svg11.dtd">
<!-- Generated by graphviz version 8.1.0 (20230707.0739)
 -->
<!-- Pages: 1 -->
<svg width="62pt" height="130pt"
 viewBox="0.00 0.00 62.00 130.00" xmlns="http://www.w3.org/2000/svg" xmlns:xlink="http://www.w3.org/1999/xlink">
<g id="graph0" class="graph" transform="scale(1 1) rotate(0) translate(4 126)">
<polygon fill="white" stroke="none" points="-4,4 -4,-126 58,-126 58,4 -4,4"/>
<!-- SLStack -->
<g id="node1" class="node">
<title>SLStack</title>
<polygon fill="none" stroke="black" points="11.94,-95.2 11.94,-118 42.06,-118 42.06,-95.2 11.94,-95.2"/>
<text text-anchor="start" x="16.89" y="-102.4" font-family="Times,serif" font-size="14.00">xyz</text>
<polygon fill="none" stroke="black" points="11.94,-72.4 11.94,-95.2 42.06,-95.2 42.06,-72.4 11.94,-72.4"/>
<text text-anchor="start" x="14.94" y="-79.6" font-family="Times,serif" font-size="14.00">pqrs</text>
<polygon fill="none" stroke="black" points="11.94,-49.6 11.94,-72.4 42.06,-72.4 42.06,-49.6 11.94,-49.6"/>
<text text-anchor="start" x="19.61" y="-56.8" font-family="Times,serif" font-size="14.00">ijk</text>
<polygon fill="none" stroke="black" points="11.94,-26.8 11.94,-49.6 42.06,-49.6 42.06,-26.8 11.94,-26.8"/>
<text text-anchor="start" x="21.17" y="-34" font-family="Times,serif" font-size="14.00">fg</text>
<polygon fill="none" stroke="black" points="11.94,-4 11.94,-26.8 42.06,-26.8 42.06,-4 11.94,-4"/>
<text text-anchor="start" x="17.29" y="-11.2" font-family="Times,serif" font-size="14.00">abc</text>
</g>
</g>
</svg>
