<?xml version="1.0" encoding="UTF-8" standalone="no"?>
<!DOCTYPE svg PUBLIC "-//W3C//DTD SVG 1.1//EN"
 "http://www.w3.org/Graphics/SVG/1.1/DTD/svg11.dtd">
<!-- Generated by graphviz version 2.43.0 (0)
 -->
<!-- Title: %3 Pages: 1 -->
<svg width="64pt" height="138pt"
 viewBox="0.00 0.00 64.00 138.00" xmlns="http://www.w3.org/2000/svg" xmlns:xlink="http://www.w3.org/1999/xlink">
<g id="graph0" class="graph" transform="scale(1 1) rotate(0) translate(4 134)">
<title>%3</title>
<polygon fill="white" stroke="transparent" points="-4,4 -4,-134 60,-134 60,4 -4,4"/>
<!-- A -->
<g id="node1" class="node">
<title>A</title>
<polygon fill="none" stroke="black" points="11,-102 11,-123 27,-123 27,-102 11,-102"/>
<text text-anchor="start" x="15" y="-108.8" font-family="Times,serif" font-size="14.00">P</text>
<polygon fill="none" stroke="black" points="29,-102 29,-123 45,-123 45,-102 29,-102"/>
<text text-anchor="start" x="32" y="-108.8" font-family="Times,serif" font-size="14.00">Q</text>
<polygon fill="none" stroke="black" points="11,-79 11,-100 27,-100 27,-79 11,-79"/>
<text text-anchor="start" x="14" y="-85.8" font-family="Times,serif" font-size="14.00">R</text>
<polygon fill="none" stroke="black" points="29,-79 29,-100 45,-100 45,-79 29,-79"/>
<text text-anchor="start" x="33" y="-85.8" font-family="Times,serif" font-size="14.00">S</text>
<polygon fill="none" stroke="black" points="8,-76 8,-126 48,-126 48,-76 8,-76"/>
</g>
<!-- B -->
<g id="node2" class="node">
<title>B</title>
<ellipse fill="none" stroke="black" cx="28" cy="-18" rx="27" ry="18"/>
<text text-anchor="middle" x="28" y="-14.3" font-family="Times,serif" font-size="14.00">B</text>
</g>
<!-- A&#45;&gt;B -->
<g id="edge1" class="edge">
<title>A&#45;&gt;B</title>
<path fill="none" stroke="black" d="M28,-71.67C28,-63.42 28,-54.43 28,-46.25"/>
<polygon fill="black" stroke="black" points="31.5,-46.1 28,-36.1 24.5,-46.1 31.5,-46.1"/>
</g>
</g>
</svg>
