<?xml version="1.0" encoding="UTF-8" standalone="no"?>
<!DOCTYPE svg PUBLIC "-//W3C//DTD SVG 1.1//EN"
 "http://www.w3.org/Graphics/SVG/1.1/DTD/svg11.dtd">
<!-- Generated by graphviz version 2.43.0 (0)
 -->
<!-- Title: %3 Pages: 1 -->
<svg width="170pt" height="188pt"
 viewBox="0.00 0.00 170.00 188.00" xmlns="http://www.w3.org/2000/svg" xmlns:xlink="http://www.w3.org/1999/xlink">
<g id="graph0" class="graph" transform="scale(1 1) rotate(0) translate(4 184)">
<title>%3</title>
<polygon fill="white" stroke="transparent" points="-4,4 -4,-184 166,-184 166,4 -4,4"/>
<!-- root -->
<g id="node1" class="node">
<title>root</title>
<ellipse fill="none" stroke="black" cx="63" cy="-162" rx="27" ry="18"/>
<text text-anchor="middle" x="63" y="-158.3" font-family="Times,serif" font-size="14.00">10</text>
</g>
<!-- root&#45;&gt;left -->
<g id="node2" class="node">
<title>root&#45;&gt;left</title>
<text text-anchor="middle" x="27" y="-86.3" font-family="Times,serif" font-size="14.00">NULL</text>
</g>
<!-- root&#45;&gt;root&#45;&gt;left -->
<g id="edge1" class="edge">
<title>root&#45;&gt;root&#45;&gt;left</title>
<path fill="none" stroke="black" d="M54.65,-144.76C50.46,-136.61 45.27,-126.53 40.53,-117.31"/>
<polygon fill="black" stroke="black" points="43.49,-115.42 35.81,-108.12 37.27,-118.62 43.49,-115.42"/>
</g>
<!-- root&#45;&gt;right -->
<g id="node3" class="node">
<title>root&#45;&gt;right</title>
<ellipse fill="none" stroke="black" cx="99" cy="-90" rx="27" ry="18"/>
<text text-anchor="middle" x="99" y="-86.3" font-family="Times,serif" font-size="14.00">27</text>
</g>
<!-- root&#45;&gt;root&#45;&gt;right -->
<g id="edge4" class="edge">
<title>root&#45;&gt;root&#45;&gt;right</title>
<path fill="none" stroke="black" d="M71.35,-144.76C75.71,-136.28 81.15,-125.71 86.04,-116.2"/>
<polygon fill="black" stroke="black" points="89.23,-117.64 90.7,-107.15 83.01,-114.44 89.23,-117.64"/>
</g>
<!-- root&#45;&gt;right&#45;&gt;left -->
<g id="node4" class="node">
<title>root&#45;&gt;right&#45;&gt;left</title>
<text text-anchor="middle" x="63" y="-14.3" font-family="Times,serif" font-size="14.00">NULL</text>
</g>
<!-- root&#45;&gt;right&#45;&gt;root&#45;&gt;right&#45;&gt;left -->
<g id="edge2" class="edge">
<title>root&#45;&gt;right&#45;&gt;root&#45;&gt;right&#45;&gt;left</title>
<path fill="none" stroke="black" d="M90.65,-72.76C86.46,-64.61 81.27,-54.53 76.53,-45.31"/>
<polygon fill="black" stroke="black" points="79.49,-43.42 71.81,-36.12 73.27,-46.62 79.49,-43.42"/>
</g>
<!-- root&#45;&gt;right&#45;&gt;right -->
<g id="node5" class="node">
<title>root&#45;&gt;right&#45;&gt;right</title>
<text text-anchor="middle" x="135" y="-14.3" font-family="Times,serif" font-size="14.00">NULL</text>
</g>
<!-- root&#45;&gt;right&#45;&gt;root&#45;&gt;right&#45;&gt;right -->
<g id="edge3" class="edge">
<title>root&#45;&gt;right&#45;&gt;root&#45;&gt;right&#45;&gt;right</title>
<path fill="none" stroke="black" d="M107.35,-72.76C111.54,-64.61 116.73,-54.53 121.47,-45.31"/>
<polygon fill="black" stroke="black" points="124.73,-46.62 126.19,-36.12 118.51,-43.42 124.73,-46.62"/>
</g>
</g>
</svg>
