<?xml version="1.0" encoding="UTF-8" standalone="no"?>
<!DOCTYPE svg PUBLIC "-//W3C//DTD SVG 1.1//EN"
 "http://www.w3.org/Graphics/SVG/1.1/DTD/svg11.dtd">
<!-- Generated by graphviz version 2.43.0 (0)
 -->
<!-- Title: %3 Pages: 1 -->
<svg width="440pt" height="404pt"
 viewBox="0.00 0.00 440.00 404.00" xmlns="http://www.w3.org/2000/svg" xmlns:xlink="http://www.w3.org/1999/xlink">
<g id="graph0" class="graph" transform="scale(1 1) rotate(0) translate(4 400)">
<title>%3</title>
<polygon fill="white" stroke="transparent" points="-4,4 -4,-400 436,-400 436,4 -4,4"/>
<!-- root -->
<g id="node1" class="node">
<title>root</title>
<ellipse fill="none" stroke="black" cx="162" cy="-378" rx="27" ry="18"/>
<text text-anchor="middle" x="162" y="-374.3" font-family="Times,serif" font-size="14.00">26</text>
</g>
<!-- root&#45;&gt;left -->
<g id="node2" class="node">
<title>root&#45;&gt;left</title>
<ellipse fill="none" stroke="black" cx="126" cy="-306" rx="27" ry="18"/>
<text text-anchor="middle" x="126" y="-302.3" font-family="Times,serif" font-size="14.00">89</text>
</g>
<!-- root&#45;&gt;root&#45;&gt;left -->
<g id="edge1" class="edge">
<title>root&#45;&gt;root&#45;&gt;left</title>
<path fill="none" stroke="black" d="M153.65,-360.76C149.29,-352.28 143.85,-341.71 138.96,-332.2"/>
<polygon fill="black" stroke="black" points="141.99,-330.44 134.3,-323.15 135.77,-333.64 141.99,-330.44"/>
</g>
<!-- root&#45;&gt;right -->
<g id="node11" class="node">
<title>root&#45;&gt;right</title>
<ellipse fill="none" stroke="black" cx="198" cy="-306" rx="27" ry="18"/>
<text text-anchor="middle" x="198" y="-302.3" font-family="Times,serif" font-size="14.00">54</text>
</g>
<!-- root&#45;&gt;root&#45;&gt;right -->
<g id="edge18" class="edge">
<title>root&#45;&gt;root&#45;&gt;right</title>
<path fill="none" stroke="black" d="M170.35,-360.76C174.71,-352.28 180.15,-341.71 185.04,-332.2"/>
<polygon fill="black" stroke="black" points="188.23,-333.64 189.7,-323.15 182.01,-330.44 188.23,-333.64"/>
</g>
<!-- root&#45;&gt;left&#45;&gt;left -->
<g id="node3" class="node">
<title>root&#45;&gt;left&#45;&gt;left</title>
<text text-anchor="middle" x="54" y="-230.3" font-family="Times,serif" font-size="14.00">NULL</text>
</g>
<!-- root&#45;&gt;left&#45;&gt;root&#45;&gt;left&#45;&gt;left -->
<g id="edge2" class="edge">
<title>root&#45;&gt;left&#45;&gt;root&#45;&gt;left&#45;&gt;left</title>
<path fill="none" stroke="black" d="M111.43,-290.83C102.08,-281.75 89.7,-269.71 78.83,-259.14"/>
<polygon fill="black" stroke="black" points="81.21,-256.57 71.6,-252.11 76.33,-261.59 81.21,-256.57"/>
</g>
<!-- root&#45;&gt;left&#45;&gt;right -->
<g id="node4" class="node">
<title>root&#45;&gt;left&#45;&gt;right</title>
<ellipse fill="none" stroke="black" cx="126" cy="-234" rx="27" ry="18"/>
<text text-anchor="middle" x="126" y="-230.3" font-family="Times,serif" font-size="14.00">43</text>
</g>
<!-- root&#45;&gt;left&#45;&gt;root&#45;&gt;left&#45;&gt;right -->
<g id="edge9" class="edge">
<title>root&#45;&gt;left&#45;&gt;root&#45;&gt;left&#45;&gt;right</title>
<path fill="none" stroke="black" d="M126,-287.7C126,-279.98 126,-270.71 126,-262.11"/>
<polygon fill="black" stroke="black" points="129.5,-262.1 126,-252.1 122.5,-262.1 129.5,-262.1"/>
</g>
<!-- root&#45;&gt;left&#45;&gt;right&#45;&gt;left -->
<g id="node5" class="node">
<title>root&#45;&gt;left&#45;&gt;right&#45;&gt;left</title>
<ellipse fill="none" stroke="black" cx="63" cy="-162" rx="27" ry="18"/>
<text text-anchor="middle" x="63" y="-158.3" font-family="Times,serif" font-size="14.00">90</text>
</g>
<!-- root&#45;&gt;left&#45;&gt;right&#45;&gt;root&#45;&gt;left&#45;&gt;right&#45;&gt;left -->
<g id="edge3" class="edge">
<title>root&#45;&gt;left&#45;&gt;right&#45;&gt;root&#45;&gt;left&#45;&gt;right&#45;&gt;left</title>
<path fill="none" stroke="black" d="M112.64,-218.15C104.12,-208.69 92.91,-196.24 83.31,-185.56"/>
<polygon fill="black" stroke="black" points="85.63,-182.92 76.34,-177.82 80.43,-187.6 85.63,-182.92"/>
</g>
<!-- root&#45;&gt;left&#45;&gt;right&#45;&gt;right -->
<g id="node10" class="node">
<title>root&#45;&gt;left&#45;&gt;right&#45;&gt;right</title>
<text text-anchor="middle" x="135" y="-158.3" font-family="Times,serif" font-size="14.00">NULL</text>
</g>
<!-- root&#45;&gt;left&#45;&gt;right&#45;&gt;root&#45;&gt;left&#45;&gt;right&#45;&gt;right -->
<g id="edge8" class="edge">
<title>root&#45;&gt;left&#45;&gt;right&#45;&gt;root&#45;&gt;left&#45;&gt;right&#45;&gt;right</title>
<path fill="none" stroke="black" d="M128.18,-216.05C129.17,-208.35 130.37,-199.03 131.48,-190.36"/>
<polygon fill="black" stroke="black" points="134.98,-190.64 132.78,-180.28 128.03,-189.75 134.98,-190.64"/>
</g>
<!-- root&#45;&gt;left&#45;&gt;right&#45;&gt;left&#45;&gt;left -->
<g id="node6" class="node">
<title>root&#45;&gt;left&#45;&gt;right&#45;&gt;left&#45;&gt;left</title>
<text text-anchor="middle" x="27" y="-86.3" font-family="Times,serif" font-size="14.00">NULL</text>
</g>
<!-- root&#45;&gt;left&#45;&gt;right&#45;&gt;left&#45;&gt;root&#45;&gt;left&#45;&gt;right&#45;&gt;left&#45;&gt;left -->
<g id="edge4" class="edge">
<title>root&#45;&gt;left&#45;&gt;right&#45;&gt;left&#45;&gt;root&#45;&gt;left&#45;&gt;right&#45;&gt;left&#45;&gt;left</title>
<path fill="none" stroke="black" d="M54.65,-144.76C50.46,-136.61 45.27,-126.53 40.53,-117.31"/>
<polygon fill="black" stroke="black" points="43.49,-115.42 35.81,-108.12 37.27,-118.62 43.49,-115.42"/>
</g>
<!-- root&#45;&gt;left&#45;&gt;right&#45;&gt;left&#45;&gt;right -->
<g id="node7" class="node">
<title>root&#45;&gt;left&#45;&gt;right&#45;&gt;left&#45;&gt;right</title>
<ellipse fill="none" stroke="black" cx="99" cy="-90" rx="27" ry="18"/>
<text text-anchor="middle" x="99" y="-86.3" font-family="Times,serif" font-size="14.00">16</text>
</g>
<!-- root&#45;&gt;left&#45;&gt;right&#45;&gt;left&#45;&gt;root&#45;&gt;left&#45;&gt;right&#45;&gt;left&#45;&gt;right -->
<g id="edge7" class="edge">
<title>root&#45;&gt;left&#45;&gt;right&#45;&gt;left&#45;&gt;root&#45;&gt;left&#45;&gt;right&#45;&gt;left&#45;&gt;right</title>
<path fill="none" stroke="black" d="M71.35,-144.76C75.71,-136.28 81.15,-125.71 86.04,-116.2"/>
<polygon fill="black" stroke="black" points="89.23,-117.64 90.7,-107.15 83.01,-114.44 89.23,-117.64"/>
</g>
<!-- root&#45;&gt;left&#45;&gt;right&#45;&gt;left&#45;&gt;right&#45;&gt;left -->
<g id="node8" class="node">
<title>root&#45;&gt;left&#45;&gt;right&#45;&gt;left&#45;&gt;right&#45;&gt;left</title>
<text text-anchor="middle" x="63" y="-14.3" font-family="Times,serif" font-size="14.00">NULL</text>
</g>
<!-- root&#45;&gt;left&#45;&gt;right&#45;&gt;left&#45;&gt;right&#45;&gt;root&#45;&gt;left&#45;&gt;right&#45;&gt;left&#45;&gt;right&#45;&gt;left -->
<g id="edge5" class="edge">
<title>root&#45;&gt;left&#45;&gt;right&#45;&gt;left&#45;&gt;right&#45;&gt;root&#45;&gt;left&#45;&gt;right&#45;&gt;left&#45;&gt;right&#45;&gt;left</title>
<path fill="none" stroke="black" d="M90.65,-72.76C86.46,-64.61 81.27,-54.53 76.53,-45.31"/>
<polygon fill="black" stroke="black" points="79.49,-43.42 71.81,-36.12 73.27,-46.62 79.49,-43.42"/>
</g>
<!-- root&#45;&gt;left&#45;&gt;right&#45;&gt;left&#45;&gt;right&#45;&gt;right -->
<g id="node9" class="node">
<title>root&#45;&gt;left&#45;&gt;right&#45;&gt;left&#45;&gt;right&#45;&gt;right</title>
<text text-anchor="middle" x="135" y="-14.3" font-family="Times,serif" font-size="14.00">NULL</text>
</g>
<!-- root&#45;&gt;left&#45;&gt;right&#45;&gt;left&#45;&gt;right&#45;&gt;root&#45;&gt;left&#45;&gt;right&#45;&gt;left&#45;&gt;right&#45;&gt;right -->
<g id="edge6" class="edge">
<title>root&#45;&gt;left&#45;&gt;right&#45;&gt;left&#45;&gt;right&#45;&gt;root&#45;&gt;left&#45;&gt;right&#45;&gt;left&#45;&gt;right&#45;&gt;right</title>
<path fill="none" stroke="black" d="M107.35,-72.76C111.54,-64.61 116.73,-54.53 121.47,-45.31"/>
<polygon fill="black" stroke="black" points="124.73,-46.62 126.19,-36.12 118.51,-43.42 124.73,-46.62"/>
</g>
<!-- root&#45;&gt;right&#45;&gt;left -->
<g id="node12" class="node">
<title>root&#45;&gt;right&#45;&gt;left</title>
<text text-anchor="middle" x="198" y="-230.3" font-family="Times,serif" font-size="14.00">NULL</text>
</g>
<!-- root&#45;&gt;right&#45;&gt;root&#45;&gt;right&#45;&gt;left -->
<g id="edge10" class="edge">
<title>root&#45;&gt;right&#45;&gt;root&#45;&gt;right&#45;&gt;left</title>
<path fill="none" stroke="black" d="M198,-287.7C198,-279.98 198,-270.71 198,-262.11"/>
<polygon fill="black" stroke="black" points="201.5,-262.1 198,-252.1 194.5,-262.1 201.5,-262.1"/>
</g>
<!-- root&#45;&gt;right&#45;&gt;right -->
<g id="node13" class="node">
<title>root&#45;&gt;right&#45;&gt;right</title>
<ellipse fill="none" stroke="black" cx="270" cy="-234" rx="27" ry="18"/>
<text text-anchor="middle" x="270" y="-230.3" font-family="Times,serif" font-size="14.00">11</text>
</g>
<!-- root&#45;&gt;right&#45;&gt;root&#45;&gt;right&#45;&gt;right -->
<g id="edge17" class="edge">
<title>root&#45;&gt;right&#45;&gt;root&#45;&gt;right&#45;&gt;right</title>
<path fill="none" stroke="black" d="M212.57,-290.83C222.75,-280.94 236.52,-267.55 248.03,-256.36"/>
<polygon fill="black" stroke="black" points="250.47,-258.87 255.2,-249.38 245.59,-253.85 250.47,-258.87"/>
</g>
<!-- root&#45;&gt;right&#45;&gt;right&#45;&gt;left -->
<g id="node14" class="node">
<title>root&#45;&gt;right&#45;&gt;right&#45;&gt;left</title>
<ellipse fill="none" stroke="black" cx="261" cy="-162" rx="27" ry="18"/>
<text text-anchor="middle" x="261" y="-158.3" font-family="Times,serif" font-size="14.00">72</text>
</g>
<!-- root&#45;&gt;right&#45;&gt;right&#45;&gt;root&#45;&gt;right&#45;&gt;right&#45;&gt;left -->
<g id="edge11" class="edge">
<title>root&#45;&gt;right&#45;&gt;right&#45;&gt;root&#45;&gt;right&#45;&gt;right&#45;&gt;left</title>
<path fill="none" stroke="black" d="M267.82,-216.05C266.83,-208.35 265.63,-199.03 264.52,-190.36"/>
<polygon fill="black" stroke="black" points="267.97,-189.75 263.22,-180.28 261.02,-190.64 267.97,-189.75"/>
</g>
<!-- root&#45;&gt;right&#45;&gt;right&#45;&gt;right -->
<g id="node17" class="node">
<title>root&#45;&gt;right&#45;&gt;right&#45;&gt;right</title>
<ellipse fill="none" stroke="black" cx="333" cy="-162" rx="27" ry="18"/>
<text text-anchor="middle" x="333" y="-158.3" font-family="Times,serif" font-size="14.00">35</text>
</g>
<!-- root&#45;&gt;right&#45;&gt;right&#45;&gt;root&#45;&gt;right&#45;&gt;right&#45;&gt;right -->
<g id="edge16" class="edge">
<title>root&#45;&gt;right&#45;&gt;right&#45;&gt;root&#45;&gt;right&#45;&gt;right&#45;&gt;right</title>
<path fill="none" stroke="black" d="M283.36,-218.15C291.88,-208.69 303.09,-196.24 312.69,-185.56"/>
<polygon fill="black" stroke="black" points="315.57,-187.6 319.66,-177.82 310.37,-182.92 315.57,-187.6"/>
</g>
<!-- root&#45;&gt;right&#45;&gt;right&#45;&gt;left&#45;&gt;left -->
<g id="node15" class="node">
<title>root&#45;&gt;right&#45;&gt;right&#45;&gt;left&#45;&gt;left</title>
<text text-anchor="middle" x="189" y="-86.3" font-family="Times,serif" font-size="14.00">NULL</text>
</g>
<!-- root&#45;&gt;right&#45;&gt;right&#45;&gt;left&#45;&gt;root&#45;&gt;right&#45;&gt;right&#45;&gt;left&#45;&gt;left -->
<g id="edge12" class="edge">
<title>root&#45;&gt;right&#45;&gt;right&#45;&gt;left&#45;&gt;root&#45;&gt;right&#45;&gt;right&#45;&gt;left&#45;&gt;left</title>
<path fill="none" stroke="black" d="M246.43,-146.83C237.08,-137.75 224.7,-125.71 213.83,-115.14"/>
<polygon fill="black" stroke="black" points="216.21,-112.57 206.6,-108.11 211.33,-117.59 216.21,-112.57"/>
</g>
<!-- root&#45;&gt;right&#45;&gt;right&#45;&gt;left&#45;&gt;right -->
<g id="node16" class="node">
<title>root&#45;&gt;right&#45;&gt;right&#45;&gt;left&#45;&gt;right</title>
<text text-anchor="middle" x="261" y="-86.3" font-family="Times,serif" font-size="14.00">NULL</text>
</g>
<!-- root&#45;&gt;right&#45;&gt;right&#45;&gt;left&#45;&gt;root&#45;&gt;right&#45;&gt;right&#45;&gt;left&#45;&gt;right -->
<g id="edge13" class="edge">
<title>root&#45;&gt;right&#45;&gt;right&#45;&gt;left&#45;&gt;root&#45;&gt;right&#45;&gt;right&#45;&gt;left&#45;&gt;right</title>
<path fill="none" stroke="black" d="M261,-143.7C261,-135.98 261,-126.71 261,-118.11"/>
<polygon fill="black" stroke="black" points="264.5,-118.1 261,-108.1 257.5,-118.1 264.5,-118.1"/>
</g>
<!-- root&#45;&gt;right&#45;&gt;right&#45;&gt;right&#45;&gt;left -->
<g id="node18" class="node">
<title>root&#45;&gt;right&#45;&gt;right&#45;&gt;right&#45;&gt;left</title>
<text text-anchor="middle" x="333" y="-86.3" font-family="Times,serif" font-size="14.00">NULL</text>
</g>
<!-- root&#45;&gt;right&#45;&gt;right&#45;&gt;right&#45;&gt;root&#45;&gt;right&#45;&gt;right&#45;&gt;right&#45;&gt;left -->
<g id="edge14" class="edge">
<title>root&#45;&gt;right&#45;&gt;right&#45;&gt;right&#45;&gt;root&#45;&gt;right&#45;&gt;right&#45;&gt;right&#45;&gt;left</title>
<path fill="none" stroke="black" d="M333,-143.7C333,-135.98 333,-126.71 333,-118.11"/>
<polygon fill="black" stroke="black" points="336.5,-118.1 333,-108.1 329.5,-118.1 336.5,-118.1"/>
</g>
<!-- root&#45;&gt;right&#45;&gt;right&#45;&gt;right&#45;&gt;right -->
<g id="node19" class="node">
<title>root&#45;&gt;right&#45;&gt;right&#45;&gt;right&#45;&gt;right</title>
<text text-anchor="middle" x="405" y="-86.3" font-family="Times,serif" font-size="14.00">NULL</text>
</g>
<!-- root&#45;&gt;right&#45;&gt;right&#45;&gt;right&#45;&gt;root&#45;&gt;right&#45;&gt;right&#45;&gt;right&#45;&gt;right -->
<g id="edge15" class="edge">
<title>root&#45;&gt;right&#45;&gt;right&#45;&gt;right&#45;&gt;root&#45;&gt;right&#45;&gt;right&#45;&gt;right&#45;&gt;right</title>
<path fill="none" stroke="black" d="M347.57,-146.83C356.92,-137.75 369.3,-125.71 380.17,-115.14"/>
<polygon fill="black" stroke="black" points="382.67,-117.59 387.4,-108.11 377.79,-112.57 382.67,-117.59"/>
</g>
</g>
</svg>
