<?xml version="1.0" encoding="UTF-8" standalone="no"?>
<!DOCTYPE svg PUBLIC "-//W3C//DTD SVG 1.1//EN"
 "http://www.w3.org/Graphics/SVG/1.1/DTD/svg11.dtd">
<!-- Generated by graphviz version 2.43.0 (0)
 -->
<!-- Title: %3 Pages: 1 -->
<svg width="422pt" height="332pt"
 viewBox="0.00 0.00 422.00 332.00" xmlns="http://www.w3.org/2000/svg" xmlns:xlink="http://www.w3.org/1999/xlink">
<g id="graph0" class="graph" transform="scale(1 1) rotate(0) translate(4 328)">
<title>%3</title>
<polygon fill="white" stroke="transparent" points="-4,4 -4,-328 418,-328 418,4 -4,4"/>
<!-- root -->
<g id="node1" class="node">
<title>root</title>
<ellipse fill="none" stroke="black" cx="135" cy="-306" rx="27" ry="18"/>
<text text-anchor="middle" x="135" y="-302.3" font-family="Times,serif" font-size="14.00">10</text>
</g>
<!-- root&#45;&gt;left -->
<g id="node2" class="node">
<title>root&#45;&gt;left</title>
<ellipse fill="none" stroke="black" cx="99" cy="-234" rx="27" ry="18"/>
<text text-anchor="middle" x="99" y="-230.3" font-family="Times,serif" font-size="14.00">5</text>
</g>
<!-- root&#45;&gt;root&#45;&gt;left -->
<g id="edge1" class="edge">
<title>root&#45;&gt;root&#45;&gt;left</title>
<path fill="none" stroke="black" d="M126.65,-288.76C122.29,-280.28 116.85,-269.71 111.96,-260.2"/>
<polygon fill="black" stroke="black" points="114.99,-258.44 107.3,-251.15 108.77,-261.64 114.99,-258.44"/>
</g>
<!-- root&#45;&gt;right -->
<g id="node9" class="node">
<title>root&#45;&gt;right</title>
<ellipse fill="none" stroke="black" cx="207" cy="-234" rx="27" ry="18"/>
<text text-anchor="middle" x="207" y="-230.3" font-family="Times,serif" font-size="14.00">27</text>
</g>
<!-- root&#45;&gt;root&#45;&gt;right -->
<g id="edge14" class="edge">
<title>root&#45;&gt;root&#45;&gt;right</title>
<path fill="none" stroke="black" d="M149.57,-290.83C159.75,-280.94 173.52,-267.55 185.03,-256.36"/>
<polygon fill="black" stroke="black" points="187.47,-258.87 192.2,-249.38 182.59,-253.85 187.47,-258.87"/>
</g>
<!-- root&#45;&gt;left&#45;&gt;left -->
<g id="node3" class="node">
<title>root&#45;&gt;left&#45;&gt;left</title>
<text text-anchor="middle" x="27" y="-158.3" font-family="Times,serif" font-size="14.00">NULL</text>
</g>
<!-- root&#45;&gt;left&#45;&gt;root&#45;&gt;left&#45;&gt;left -->
<g id="edge2" class="edge">
<title>root&#45;&gt;left&#45;&gt;root&#45;&gt;left&#45;&gt;left</title>
<path fill="none" stroke="black" d="M84.43,-218.83C75.08,-209.75 62.7,-197.71 51.83,-187.14"/>
<polygon fill="black" stroke="black" points="54.21,-184.57 44.6,-180.11 49.33,-189.59 54.21,-184.57"/>
</g>
<!-- root&#45;&gt;left&#45;&gt;right -->
<g id="node4" class="node">
<title>root&#45;&gt;left&#45;&gt;right</title>
<ellipse fill="none" stroke="black" cx="99" cy="-162" rx="27" ry="18"/>
<text text-anchor="middle" x="99" y="-158.3" font-family="Times,serif" font-size="14.00">8</text>
</g>
<!-- root&#45;&gt;left&#45;&gt;root&#45;&gt;left&#45;&gt;right -->
<g id="edge7" class="edge">
<title>root&#45;&gt;left&#45;&gt;root&#45;&gt;left&#45;&gt;right</title>
<path fill="none" stroke="black" d="M99,-215.7C99,-207.98 99,-198.71 99,-190.11"/>
<polygon fill="black" stroke="black" points="102.5,-190.1 99,-180.1 95.5,-190.1 102.5,-190.1"/>
</g>
<!-- root&#45;&gt;left&#45;&gt;right&#45;&gt;left -->
<g id="node5" class="node">
<title>root&#45;&gt;left&#45;&gt;right&#45;&gt;left</title>
<text text-anchor="middle" x="27" y="-86.3" font-family="Times,serif" font-size="14.00">NULL</text>
</g>
<!-- root&#45;&gt;left&#45;&gt;right&#45;&gt;root&#45;&gt;left&#45;&gt;right&#45;&gt;left -->
<g id="edge3" class="edge">
<title>root&#45;&gt;left&#45;&gt;right&#45;&gt;root&#45;&gt;left&#45;&gt;right&#45;&gt;left</title>
<path fill="none" stroke="black" d="M84.43,-146.83C75.08,-137.75 62.7,-125.71 51.83,-115.14"/>
<polygon fill="black" stroke="black" points="54.21,-112.57 44.6,-108.11 49.33,-117.59 54.21,-112.57"/>
</g>
<!-- root&#45;&gt;left&#45;&gt;right&#45;&gt;right -->
<g id="node6" class="node">
<title>root&#45;&gt;left&#45;&gt;right&#45;&gt;right</title>
<ellipse fill="none" stroke="black" cx="99" cy="-90" rx="27" ry="18"/>
<text text-anchor="middle" x="99" y="-86.3" font-family="Times,serif" font-size="14.00">9</text>
</g>
<!-- root&#45;&gt;left&#45;&gt;right&#45;&gt;root&#45;&gt;left&#45;&gt;right&#45;&gt;right -->
<g id="edge6" class="edge">
<title>root&#45;&gt;left&#45;&gt;right&#45;&gt;root&#45;&gt;left&#45;&gt;right&#45;&gt;right</title>
<path fill="none" stroke="black" d="M99,-143.7C99,-135.98 99,-126.71 99,-118.11"/>
<polygon fill="black" stroke="black" points="102.5,-118.1 99,-108.1 95.5,-118.1 102.5,-118.1"/>
</g>
<!-- root&#45;&gt;left&#45;&gt;right&#45;&gt;right&#45;&gt;left -->
<g id="node7" class="node">
<title>root&#45;&gt;left&#45;&gt;right&#45;&gt;right&#45;&gt;left</title>
<text text-anchor="middle" x="63" y="-14.3" font-family="Times,serif" font-size="14.00">NULL</text>
</g>
<!-- root&#45;&gt;left&#45;&gt;right&#45;&gt;right&#45;&gt;root&#45;&gt;left&#45;&gt;right&#45;&gt;right&#45;&gt;left -->
<g id="edge4" class="edge">
<title>root&#45;&gt;left&#45;&gt;right&#45;&gt;right&#45;&gt;root&#45;&gt;left&#45;&gt;right&#45;&gt;right&#45;&gt;left</title>
<path fill="none" stroke="black" d="M90.65,-72.76C86.46,-64.61 81.27,-54.53 76.53,-45.31"/>
<polygon fill="black" stroke="black" points="79.49,-43.42 71.81,-36.12 73.27,-46.62 79.49,-43.42"/>
</g>
<!-- root&#45;&gt;left&#45;&gt;right&#45;&gt;right&#45;&gt;right -->
<g id="node8" class="node">
<title>root&#45;&gt;left&#45;&gt;right&#45;&gt;right&#45;&gt;right</title>
<text text-anchor="middle" x="135" y="-14.3" font-family="Times,serif" font-size="14.00">NULL</text>
</g>
<!-- root&#45;&gt;left&#45;&gt;right&#45;&gt;right&#45;&gt;root&#45;&gt;left&#45;&gt;right&#45;&gt;right&#45;&gt;right -->
<g id="edge5" class="edge">
<title>root&#45;&gt;left&#45;&gt;right&#45;&gt;right&#45;&gt;root&#45;&gt;left&#45;&gt;right&#45;&gt;right&#45;&gt;right</title>
<path fill="none" stroke="black" d="M107.35,-72.76C111.54,-64.61 116.73,-54.53 121.47,-45.31"/>
<polygon fill="black" stroke="black" points="124.73,-46.62 126.19,-36.12 118.51,-43.42 124.73,-46.62"/>
</g>
<!-- root&#45;&gt;right&#45;&gt;left -->
<g id="node10" class="node">
<title>root&#45;&gt;right&#45;&gt;left</title>
<ellipse fill="none" stroke="black" cx="207" cy="-162" rx="27" ry="18"/>
<text text-anchor="middle" x="207" y="-158.3" font-family="Times,serif" font-size="14.00">16</text>
</g>
<!-- root&#45;&gt;right&#45;&gt;root&#45;&gt;right&#45;&gt;left -->
<g id="edge8" class="edge">
<title>root&#45;&gt;right&#45;&gt;root&#45;&gt;right&#45;&gt;left</title>
<path fill="none" stroke="black" d="M207,-215.7C207,-207.98 207,-198.71 207,-190.11"/>
<polygon fill="black" stroke="black" points="210.5,-190.1 207,-180.1 203.5,-190.1 210.5,-190.1"/>
</g>
<!-- root&#45;&gt;right&#45;&gt;right -->
<g id="node13" class="node">
<title>root&#45;&gt;right&#45;&gt;right</title>
<ellipse fill="none" stroke="black" cx="315" cy="-162" rx="27" ry="18"/>
<text text-anchor="middle" x="315" y="-158.3" font-family="Times,serif" font-size="14.00">38</text>
</g>
<!-- root&#45;&gt;right&#45;&gt;root&#45;&gt;right&#45;&gt;right -->
<g id="edge13" class="edge">
<title>root&#45;&gt;right&#45;&gt;root&#45;&gt;right&#45;&gt;right</title>
<path fill="none" stroke="black" d="M225.81,-220.81C243,-209.67 268.62,-193.06 287.99,-180.5"/>
<polygon fill="black" stroke="black" points="289.92,-183.43 296.4,-175.05 286.11,-177.56 289.92,-183.43"/>
</g>
<!-- root&#45;&gt;right&#45;&gt;left&#45;&gt;left -->
<g id="node11" class="node">
<title>root&#45;&gt;right&#45;&gt;left&#45;&gt;left</title>
<text text-anchor="middle" x="171" y="-86.3" font-family="Times,serif" font-size="14.00">NULL</text>
</g>
<!-- root&#45;&gt;right&#45;&gt;left&#45;&gt;root&#45;&gt;right&#45;&gt;left&#45;&gt;left -->
<g id="edge9" class="edge">
<title>root&#45;&gt;right&#45;&gt;left&#45;&gt;root&#45;&gt;right&#45;&gt;left&#45;&gt;left</title>
<path fill="none" stroke="black" d="M198.65,-144.76C194.46,-136.61 189.27,-126.53 184.53,-117.31"/>
<polygon fill="black" stroke="black" points="187.49,-115.42 179.81,-108.12 181.27,-118.62 187.49,-115.42"/>
</g>
<!-- root&#45;&gt;right&#45;&gt;left&#45;&gt;right -->
<g id="node12" class="node">
<title>root&#45;&gt;right&#45;&gt;left&#45;&gt;right</title>
<text text-anchor="middle" x="243" y="-86.3" font-family="Times,serif" font-size="14.00">NULL</text>
</g>
<!-- root&#45;&gt;right&#45;&gt;left&#45;&gt;root&#45;&gt;right&#45;&gt;left&#45;&gt;right -->
<g id="edge10" class="edge">
<title>root&#45;&gt;right&#45;&gt;left&#45;&gt;root&#45;&gt;right&#45;&gt;left&#45;&gt;right</title>
<path fill="none" stroke="black" d="M215.35,-144.76C219.54,-136.61 224.73,-126.53 229.47,-117.31"/>
<polygon fill="black" stroke="black" points="232.73,-118.62 234.19,-108.12 226.51,-115.42 232.73,-118.62"/>
</g>
<!-- root&#45;&gt;right&#45;&gt;right&#45;&gt;left -->
<g id="node14" class="node">
<title>root&#45;&gt;right&#45;&gt;right&#45;&gt;left</title>
<text text-anchor="middle" x="315" y="-86.3" font-family="Times,serif" font-size="14.00">NULL</text>
</g>
<!-- root&#45;&gt;right&#45;&gt;right&#45;&gt;root&#45;&gt;right&#45;&gt;right&#45;&gt;left -->
<g id="edge11" class="edge">
<title>root&#45;&gt;right&#45;&gt;right&#45;&gt;root&#45;&gt;right&#45;&gt;right&#45;&gt;left</title>
<path fill="none" stroke="black" d="M315,-143.7C315,-135.98 315,-126.71 315,-118.11"/>
<polygon fill="black" stroke="black" points="318.5,-118.1 315,-108.1 311.5,-118.1 318.5,-118.1"/>
</g>
<!-- root&#45;&gt;right&#45;&gt;right&#45;&gt;right -->
<g id="node15" class="node">
<title>root&#45;&gt;right&#45;&gt;right&#45;&gt;right</title>
<text text-anchor="middle" x="387" y="-86.3" font-family="Times,serif" font-size="14.00">NULL</text>
</g>
<!-- root&#45;&gt;right&#45;&gt;right&#45;&gt;root&#45;&gt;right&#45;&gt;right&#45;&gt;right -->
<g id="edge12" class="edge">
<title>root&#45;&gt;right&#45;&gt;right&#45;&gt;root&#45;&gt;right&#45;&gt;right&#45;&gt;right</title>
<path fill="none" stroke="black" d="M329.57,-146.83C338.92,-137.75 351.3,-125.71 362.17,-115.14"/>
<polygon fill="black" stroke="black" points="364.67,-117.59 369.4,-108.11 359.79,-112.57 364.67,-117.59"/>
</g>
</g>
</svg>
