<?xml version="1.0" encoding="UTF-8" standalone="no"?>
<!DOCTYPE svg PUBLIC "-//W3C//DTD SVG 1.1//EN"
 "http://www.w3.org/Graphics/SVG/1.1/DTD/svg11.dtd">
<!-- Generated by graphviz version 8.1.0 (20230707.0739)
 -->
<!-- Pages: 1 -->
<svg width="350pt" height="260pt"
 viewBox="0.00 0.00 350.00 260.00" xmlns="http://www.w3.org/2000/svg" xmlns:xlink="http://www.w3.org/1999/xlink">
<g id="graph0" class="graph" transform="scale(1 1) rotate(0) translate(4 256)">
<polygon fill="white" stroke="none" points="-4,4 -4,-256 346,-256 346,4 -4,4"/>
<!-- root -->
<g id="node1" class="node">
<title>root</title>
<ellipse fill="none" stroke="black" cx="207" cy="-234" rx="27" ry="18"/>
<text text-anchor="middle" x="207" y="-229.8" font-family="Times,serif" font-size="14.00">5</text>
</g>
<!-- root&#45;&gt;left -->
<g id="node2" class="node">
<title>root&#45;&gt;left</title>
<ellipse fill="none" stroke="black" cx="171" cy="-162" rx="27" ry="18"/>
<text text-anchor="middle" x="171" y="-157.8" font-family="Times,serif" font-size="14.00">2</text>
</g>
<!-- root&#45;&gt;root&#45;&gt;left -->
<g id="edge1" class="edge">
<title>root&#45;&gt;root&#45;&gt;left</title>
<path fill="none" stroke="black" d="M198.65,-216.76C194.38,-208.46 189.08,-198.15 184.27,-188.79"/>
<polygon fill="black" stroke="black" points="186.99,-187.44 179.3,-180.15 180.77,-190.64 186.99,-187.44"/>
</g>
<!-- root&#45;&gt;right -->
<g id="node9" class="node">
<title>root&#45;&gt;right</title>
<ellipse fill="none" stroke="black" cx="243" cy="-162" rx="27" ry="18"/>
<text text-anchor="middle" x="243" y="-157.8" font-family="Times,serif" font-size="14.00">10</text>
</g>
<!-- root&#45;&gt;root&#45;&gt;right -->
<g id="edge10" class="edge">
<title>root&#45;&gt;root&#45;&gt;right</title>
<path fill="none" stroke="black" d="M215.35,-216.76C219.62,-208.46 224.92,-198.15 229.73,-188.79"/>
<polygon fill="black" stroke="black" points="233.23,-190.64 234.7,-180.15 227.01,-187.44 233.23,-190.64"/>
</g>
<!-- root&#45;&gt;left&#45;&gt;left -->
<g id="node3" class="node">
<title>root&#45;&gt;left&#45;&gt;left</title>
<ellipse fill="none" stroke="black" cx="99" cy="-90" rx="27" ry="18"/>
<text text-anchor="middle" x="99" y="-85.8" font-family="Times,serif" font-size="14.00">1</text>
</g>
<!-- root&#45;&gt;left&#45;&gt;root&#45;&gt;left&#45;&gt;left -->
<g id="edge2" class="edge">
<title>root&#45;&gt;left&#45;&gt;root&#45;&gt;left&#45;&gt;left</title>
<path fill="none" stroke="black" d="M156.08,-146.5C146.14,-136.83 132.88,-123.94 121.65,-113.02"/>
<polygon fill="black" stroke="black" points="124.51,-110.95 114.9,-106.49 119.63,-115.97 124.51,-110.95"/>
</g>
<!-- root&#45;&gt;left&#45;&gt;right -->
<g id="node6" class="node">
<title>root&#45;&gt;left&#45;&gt;right</title>
<ellipse fill="none" stroke="black" cx="171" cy="-90" rx="27" ry="18"/>
<text text-anchor="middle" x="171" y="-85.8" font-family="Times,serif" font-size="14.00">3</text>
</g>
<!-- root&#45;&gt;left&#45;&gt;root&#45;&gt;left&#45;&gt;right -->
<g id="edge7" class="edge">
<title>root&#45;&gt;left&#45;&gt;root&#45;&gt;left&#45;&gt;right</title>
<path fill="none" stroke="black" d="M171,-143.7C171,-136.24 171,-127.32 171,-118.97"/>
<polygon fill="black" stroke="black" points="174.5,-119.1 171,-109.1 167.5,-119.1 174.5,-119.1"/>
</g>
<!-- root&#45;&gt;left&#45;&gt;left&#45;&gt;left -->
<g id="node4" class="node">
<title>root&#45;&gt;left&#45;&gt;left&#45;&gt;left</title>
<text text-anchor="middle" x="27" y="-13.8" font-family="Times,serif" font-size="14.00">NULL</text>
</g>
<!-- root&#45;&gt;left&#45;&gt;left&#45;&gt;root&#45;&gt;left&#45;&gt;left&#45;&gt;left -->
<g id="edge3" class="edge">
<title>root&#45;&gt;left&#45;&gt;left&#45;&gt;root&#45;&gt;left&#45;&gt;left&#45;&gt;left</title>
<path fill="none" stroke="black" d="M84.08,-74.5C74.89,-65.56 62.87,-53.87 52.23,-43.53"/>
<polygon fill="black" stroke="black" points="55.04,-41.41 45.43,-36.95 50.17,-46.43 55.04,-41.41"/>
</g>
<!-- root&#45;&gt;left&#45;&gt;left&#45;&gt;right -->
<g id="node5" class="node">
<title>root&#45;&gt;left&#45;&gt;left&#45;&gt;right</title>
<text text-anchor="middle" x="99" y="-13.8" font-family="Times,serif" font-size="14.00">NULL</text>
</g>
<!-- root&#45;&gt;left&#45;&gt;left&#45;&gt;root&#45;&gt;left&#45;&gt;left&#45;&gt;right -->
<g id="edge4" class="edge">
<title>root&#45;&gt;left&#45;&gt;left&#45;&gt;root&#45;&gt;left&#45;&gt;left&#45;&gt;right</title>
<path fill="none" stroke="black" d="M99,-71.7C99,-64.13 99,-55.06 99,-46.59"/>
<polygon fill="black" stroke="black" points="102.5,-46.62 99,-36.62 95.5,-46.62 102.5,-46.62"/>
</g>
<!-- root&#45;&gt;left&#45;&gt;right&#45;&gt;left -->
<g id="node7" class="node">
<title>root&#45;&gt;left&#45;&gt;right&#45;&gt;left</title>
<text text-anchor="middle" x="171" y="-13.8" font-family="Times,serif" font-size="14.00">NULL</text>
</g>
<!-- root&#45;&gt;left&#45;&gt;right&#45;&gt;root&#45;&gt;left&#45;&gt;right&#45;&gt;left -->
<g id="edge5" class="edge">
<title>root&#45;&gt;left&#45;&gt;right&#45;&gt;root&#45;&gt;left&#45;&gt;right&#45;&gt;left</title>
<path fill="none" stroke="black" d="M171,-71.7C171,-64.13 171,-55.06 171,-46.59"/>
<polygon fill="black" stroke="black" points="174.5,-46.62 171,-36.62 167.5,-46.62 174.5,-46.62"/>
</g>
<!-- root&#45;&gt;left&#45;&gt;right&#45;&gt;right -->
<g id="node8" class="node">
<title>root&#45;&gt;left&#45;&gt;right&#45;&gt;right</title>
<text text-anchor="middle" x="243" y="-13.8" font-family="Times,serif" font-size="14.00">NULL</text>
</g>
<!-- root&#45;&gt;left&#45;&gt;right&#45;&gt;root&#45;&gt;left&#45;&gt;right&#45;&gt;right -->
<g id="edge6" class="edge">
<title>root&#45;&gt;left&#45;&gt;right&#45;&gt;root&#45;&gt;left&#45;&gt;right&#45;&gt;right</title>
<path fill="none" stroke="black" d="M185.92,-74.5C195.11,-65.56 207.13,-53.87 217.77,-43.53"/>
<polygon fill="black" stroke="black" points="219.83,-46.43 224.57,-36.95 214.96,-41.41 219.83,-46.43"/>
</g>
<!-- root&#45;&gt;right&#45;&gt;left -->
<g id="node10" class="node">
<title>root&#45;&gt;right&#45;&gt;left</title>
<text text-anchor="middle" x="243" y="-85.8" font-family="Times,serif" font-size="14.00">NULL</text>
</g>
<!-- root&#45;&gt;right&#45;&gt;root&#45;&gt;right&#45;&gt;left -->
<g id="edge8" class="edge">
<title>root&#45;&gt;right&#45;&gt;root&#45;&gt;right&#45;&gt;left</title>
<path fill="none" stroke="black" d="M243,-143.7C243,-136.13 243,-127.06 243,-118.59"/>
<polygon fill="black" stroke="black" points="246.5,-118.62 243,-108.62 239.5,-118.62 246.5,-118.62"/>
</g>
<!-- root&#45;&gt;right&#45;&gt;right -->
<g id="node11" class="node">
<title>root&#45;&gt;right&#45;&gt;right</title>
<text text-anchor="middle" x="315" y="-85.8" font-family="Times,serif" font-size="14.00">NULL</text>
</g>
<!-- root&#45;&gt;right&#45;&gt;root&#45;&gt;right&#45;&gt;right -->
<g id="edge9" class="edge">
<title>root&#45;&gt;right&#45;&gt;root&#45;&gt;right&#45;&gt;right</title>
<path fill="none" stroke="black" d="M257.92,-146.5C267.11,-137.56 279.13,-125.87 289.77,-115.53"/>
<polygon fill="black" stroke="black" points="291.83,-118.43 296.57,-108.95 286.96,-113.41 291.83,-118.43"/>
</g>
</g>
</svg>
