<?xml version="1.0" encoding="UTF-8" standalone="no"?>
<!DOCTYPE svg PUBLIC "-//W3C//DTD SVG 1.1//EN"
 "http://www.w3.org/Graphics/SVG/1.1/DTD/svg11.dtd">
<!-- Generated by graphviz version 8.1.0 (20230707.0739)
 -->
<!-- Pages: 1 -->
<svg width="278pt" height="260pt"
 viewBox="0.00 0.00 278.00 260.00" xmlns="http://www.w3.org/2000/svg" xmlns:xlink="http://www.w3.org/1999/xlink">
<g id="graph0" class="graph" transform="scale(1 1) rotate(0) translate(4 256)">
<polygon fill="white" stroke="none" points="-4,4 -4,-256 274,-256 274,4 -4,4"/>
<!-- root -->
<g id="node1" class="node">
<title>root</title>
<ellipse fill="none" stroke="black" cx="135" cy="-234" rx="27" ry="18"/>
<text text-anchor="middle" x="135" y="-229.8" font-family="Times,serif" font-size="14.00">2</text>
</g>
<!-- root&#45;&gt;left -->
<g id="node2" class="node">
<title>root&#45;&gt;left</title>
<ellipse fill="none" stroke="black" cx="99" cy="-162" rx="27" ry="18"/>
<text text-anchor="middle" x="99" y="-157.8" font-family="Times,serif" font-size="14.00">1</text>
</g>
<!-- root&#45;&gt;root&#45;&gt;left -->
<g id="edge1" class="edge">
<title>root&#45;&gt;root&#45;&gt;left</title>
<path fill="none" stroke="black" d="M126.65,-216.76C122.38,-208.46 117.08,-198.15 112.27,-188.79"/>
<polygon fill="black" stroke="black" points="114.99,-187.44 107.3,-180.15 108.77,-190.64 114.99,-187.44"/>
</g>
<!-- root&#45;&gt;right -->
<g id="node5" class="node">
<title>root&#45;&gt;right</title>
<ellipse fill="none" stroke="black" cx="171" cy="-162" rx="27" ry="18"/>
<text text-anchor="middle" x="171" y="-157.8" font-family="Times,serif" font-size="14.00">5</text>
</g>
<!-- root&#45;&gt;root&#45;&gt;right -->
<g id="edge8" class="edge">
<title>root&#45;&gt;root&#45;&gt;right</title>
<path fill="none" stroke="black" d="M143.35,-216.76C147.62,-208.46 152.92,-198.15 157.73,-188.79"/>
<polygon fill="black" stroke="black" points="161.23,-190.64 162.7,-180.15 155.01,-187.44 161.23,-190.64"/>
</g>
<!-- root&#45;&gt;left&#45;&gt;left -->
<g id="node3" class="node">
<title>root&#45;&gt;left&#45;&gt;left</title>
<text text-anchor="middle" x="27" y="-85.8" font-family="Times,serif" font-size="14.00">NULL</text>
</g>
<!-- root&#45;&gt;left&#45;&gt;root&#45;&gt;left&#45;&gt;left -->
<g id="edge2" class="edge">
<title>root&#45;&gt;left&#45;&gt;root&#45;&gt;left&#45;&gt;left</title>
<path fill="none" stroke="black" d="M84.08,-146.5C74.89,-137.56 62.87,-125.87 52.23,-115.53"/>
<polygon fill="black" stroke="black" points="55.04,-113.41 45.43,-108.95 50.17,-118.43 55.04,-113.41"/>
</g>
<!-- root&#45;&gt;left&#45;&gt;right -->
<g id="node4" class="node">
<title>root&#45;&gt;left&#45;&gt;right</title>
<text text-anchor="middle" x="99" y="-85.8" font-family="Times,serif" font-size="14.00">NULL</text>
</g>
<!-- root&#45;&gt;left&#45;&gt;root&#45;&gt;left&#45;&gt;right -->
<g id="edge3" class="edge">
<title>root&#45;&gt;left&#45;&gt;root&#45;&gt;left&#45;&gt;right</title>
<path fill="none" stroke="black" d="M99,-143.7C99,-136.13 99,-127.06 99,-118.59"/>
<polygon fill="black" stroke="black" points="102.5,-118.62 99,-108.62 95.5,-118.62 102.5,-118.62"/>
</g>
<!-- root&#45;&gt;right&#45;&gt;left -->
<g id="node6" class="node">
<title>root&#45;&gt;right&#45;&gt;left</title>
<ellipse fill="none" stroke="black" cx="171" cy="-90" rx="27" ry="18"/>
<text text-anchor="middle" x="171" y="-85.8" font-family="Times,serif" font-size="14.00">3</text>
</g>
<!-- root&#45;&gt;right&#45;&gt;root&#45;&gt;right&#45;&gt;left -->
<g id="edge4" class="edge">
<title>root&#45;&gt;right&#45;&gt;root&#45;&gt;right&#45;&gt;left</title>
<path fill="none" stroke="black" d="M171,-143.7C171,-136.24 171,-127.32 171,-118.97"/>
<polygon fill="black" stroke="black" points="174.5,-119.1 171,-109.1 167.5,-119.1 174.5,-119.1"/>
</g>
<!-- root&#45;&gt;right&#45;&gt;right -->
<g id="node9" class="node">
<title>root&#45;&gt;right&#45;&gt;right</title>
<text text-anchor="middle" x="243" y="-85.8" font-family="Times,serif" font-size="14.00">NULL</text>
</g>
<!-- root&#45;&gt;right&#45;&gt;root&#45;&gt;right&#45;&gt;right -->
<g id="edge7" class="edge">
<title>root&#45;&gt;right&#45;&gt;root&#45;&gt;right&#45;&gt;right</title>
<path fill="none" stroke="black" d="M185.92,-146.5C195.11,-137.56 207.13,-125.87 217.77,-115.53"/>
<polygon fill="black" stroke="black" points="219.83,-118.43 224.57,-108.95 214.96,-113.41 219.83,-118.43"/>
</g>
<!-- root&#45;&gt;right&#45;&gt;left&#45;&gt;left -->
<g id="node7" class="node">
<title>root&#45;&gt;right&#45;&gt;left&#45;&gt;left</title>
<text text-anchor="middle" x="135" y="-13.8" font-family="Times,serif" font-size="14.00">NULL</text>
</g>
<!-- root&#45;&gt;right&#45;&gt;left&#45;&gt;root&#45;&gt;right&#45;&gt;left&#45;&gt;left -->
<g id="edge5" class="edge">
<title>root&#45;&gt;right&#45;&gt;left&#45;&gt;root&#45;&gt;right&#45;&gt;left&#45;&gt;left</title>
<path fill="none" stroke="black" d="M162.65,-72.76C158.44,-64.58 153.23,-54.45 148.47,-45.2"/>
<polygon fill="black" stroke="black" points="151.24,-43.93 143.55,-36.63 145.02,-47.13 151.24,-43.93"/>
</g>
<!-- root&#45;&gt;right&#45;&gt;left&#45;&gt;right -->
<g id="node8" class="node">
<title>root&#45;&gt;right&#45;&gt;left&#45;&gt;right</title>
<text text-anchor="middle" x="207" y="-13.8" font-family="Times,serif" font-size="14.00">NULL</text>
</g>
<!-- root&#45;&gt;right&#45;&gt;left&#45;&gt;root&#45;&gt;right&#45;&gt;left&#45;&gt;right -->
<g id="edge6" class="edge">
<title>root&#45;&gt;right&#45;&gt;left&#45;&gt;root&#45;&gt;right&#45;&gt;left&#45;&gt;right</title>
<path fill="none" stroke="black" d="M179.35,-72.76C183.56,-64.58 188.77,-54.45 193.53,-45.2"/>
<polygon fill="black" stroke="black" points="196.98,-47.13 198.45,-36.63 190.76,-43.93 196.98,-47.13"/>
</g>
</g>
</svg>
