<?xml version="1.0" encoding="UTF-8" standalone="no"?>
<!DOCTYPE svg PUBLIC "-//W3C//DTD SVG 1.1//EN"
 "http://www.w3.org/Graphics/SVG/1.1/DTD/svg11.dtd">
<!-- Generated by graphviz version 2.43.0 (0)
 -->
<!-- Title: %3 Pages: 1 -->
<svg width="729pt" height="186pt"
 viewBox="0.00 0.00 729.00 186.00" xmlns="http://www.w3.org/2000/svg" xmlns:xlink="http://www.w3.org/1999/xlink">
<g id="graph0" class="graph" transform="scale(1 1) rotate(0) translate(4 182)">
<title>%3</title>
<polygon fill="white" stroke="transparent" points="-4,4 -4,-182 725,-182 725,4 -4,4"/>
<!-- head -->
<g id="node1" class="node">
<title>head</title>
<polygon fill="none" stroke="black" points="8,-25 8,-46 108,-46 108,-25 8,-25"/>
<text text-anchor="start" x="45" y="-31.8" font-family="Times,serif" font-size="14.00">head</text>
<polygon fill="none" stroke="black" points="8,-4 8,-25 108,-25 108,-4 8,-4"/>
<text text-anchor="start" x="11" y="-10.8" font-family="Times,serif" font-size="14.00">0x7dd7686776a0</text>
</g>
<!-- node0 -->
<g id="node2" class="node">
<title>node0</title>
<polygon fill="none" stroke="black" points="160,-67 160,-88 189,-88 189,-67 160,-67"/>
<text text-anchor="start" x="163" y="-73.8" font-family="Times,serif" font-size="14.00">data</text>
<polygon fill="none" stroke="black" points="189,-67 189,-88 290,-88 290,-67 189,-67"/>
<text text-anchor="start" x="227.5" y="-73.8" font-family="Times,serif" font-size="14.00">next</text>
<polygon fill="none" stroke="black" points="160,-46 160,-67 189,-67 189,-46 160,-46"/>
<text text-anchor="start" x="167.5" y="-52.8" font-family="Times,serif" font-size="14.00">15</text>
<polygon fill="none" stroke="black" points="189,-46 189,-67 290,-67 290,-46 189,-46"/>
<text text-anchor="start" x="192" y="-52.8" font-family="Times,serif" font-size="14.00">0x7dd768675420</text>
<polygon fill="none" stroke="black" points="160,-25 160,-46 290,-46 290,-25 160,-25"/>
<text text-anchor="start" x="191.5" y="-31.8" font-family="Times,serif" font-size="14.00">alamat node</text>
<polygon fill="none" stroke="black" points="160,-4 160,-25 290,-25 290,-4 160,-4"/>
<text text-anchor="start" x="178" y="-10.8" font-family="Times,serif" font-size="14.00">0x7dd7686776a0</text>
</g>
<!-- head&#45;&gt;node0 -->
<g id="edge1" class="edge">
<title>head:contents&#45;&gt;node0:id</title>
<path fill="none" stroke="black" d="M109,-14C127.4,-14 134.38,-14 148.85,-14"/>
<polygon fill="black" stroke="black" points="149,-17.5 159,-14 149,-10.5 149,-17.5"/>
</g>
<!-- node1 -->
<g id="node3" class="node">
<title>node1</title>
<polygon fill="none" stroke="black" points="342.5,-110 342.5,-131 371.5,-131 371.5,-110 342.5,-110"/>
<text text-anchor="start" x="345.5" y="-116.8" font-family="Times,serif" font-size="14.00">data</text>
<polygon fill="none" stroke="black" points="371.5,-110 371.5,-131 471.5,-131 471.5,-110 371.5,-110"/>
<text text-anchor="start" x="409.5" y="-116.8" font-family="Times,serif" font-size="14.00">next</text>
<polygon fill="none" stroke="black" points="342.5,-89 342.5,-110 371.5,-110 371.5,-89 342.5,-89"/>
<text text-anchor="start" x="350" y="-95.8" font-family="Times,serif" font-size="14.00">76</text>
<polygon fill="none" stroke="black" points="371.5,-89 371.5,-110 471.5,-110 471.5,-89 371.5,-89"/>
<text text-anchor="start" x="374.5" y="-95.8" font-family="Times,serif" font-size="14.00">0x7dd768677ca0</text>
<polygon fill="none" stroke="black" points="342.5,-68 342.5,-89 471.5,-89 471.5,-68 342.5,-68"/>
<text text-anchor="start" x="373.5" y="-74.8" font-family="Times,serif" font-size="14.00">alamat node</text>
<polygon fill="none" stroke="black" points="342.5,-47 342.5,-68 471.5,-68 471.5,-47 342.5,-47"/>
<text text-anchor="start" x="359.5" y="-53.8" font-family="Times,serif" font-size="14.00">0x7dd768675420</text>
</g>
<!-- node0&#45;&gt;node1 -->
<g id="edge2" class="edge">
<title>node0:next&#45;&gt;node1:id</title>
<path fill="none" stroke="black" d="M291,-57C309.59,-57 316.63,-57 331.25,-57"/>
<polygon fill="black" stroke="black" points="331.5,-60.5 341.5,-57 331.5,-53.5 331.5,-60.5"/>
</g>
<!-- node2 -->
<g id="node4" class="node">
<title>node2</title>
<polygon fill="none" stroke="black" points="523,-153 523,-174 569,-174 569,-153 523,-153"/>
<text text-anchor="start" x="534.5" y="-159.8" font-family="Times,serif" font-size="14.00">data</text>
<polygon fill="none" stroke="black" points="569,-153 569,-174 623,-174 623,-153 569,-153"/>
<text text-anchor="start" x="584" y="-159.8" font-family="Times,serif" font-size="14.00">next</text>
<polygon fill="none" stroke="black" points="523,-132 523,-153 569,-153 569,-132 523,-132"/>
<text text-anchor="start" x="542.5" y="-138.8" font-family="Times,serif" font-size="14.00">5</text>
<polygon fill="none" stroke="black" points="569,-132 569,-153 623,-153 623,-132 569,-132"/>
<text text-anchor="start" x="581" y="-138.8" font-family="Times,serif" font-size="14.00">None</text>
<polygon fill="none" stroke="black" points="523,-111 523,-132 623,-132 623,-111 523,-111"/>
<text text-anchor="start" x="539.5" y="-117.8" font-family="Times,serif" font-size="14.00">alamat node</text>
<polygon fill="none" stroke="black" points="523,-90 523,-111 623,-111 623,-90 523,-90"/>
<text text-anchor="start" x="526" y="-96.8" font-family="Times,serif" font-size="14.00">0x7dd768677ca0</text>
</g>
<!-- node1&#45;&gt;node2 -->
<g id="edge3" class="edge">
<title>node1:next&#45;&gt;node2:id</title>
<path fill="none" stroke="black" d="M472.5,-100C490.72,-100 497.62,-100 511.95,-100"/>
<polygon fill="black" stroke="black" points="512,-103.5 522,-100 512,-96.5 512,-103.5"/>
</g>
<!-- node3 -->
<g id="node5" class="node">
<title>node3</title>
<text text-anchor="middle" x="694" y="-139.3" font-family="Times,serif" font-size="14.00">None</text>
</g>
<!-- node2&#45;&gt;node3 -->
<g id="edge4" class="edge">
<title>node2:next&#45;&gt;node3</title>
<path fill="none" stroke="black" d="M624,-143C634.6,-143 646.12,-143 656.65,-143"/>
<polygon fill="black" stroke="black" points="656.79,-146.5 666.79,-143 656.79,-139.5 656.79,-146.5"/>
</g>
</g>
</svg>
