<?xml version="1.0" encoding="UTF-8" standalone="no"?>
<!DOCTYPE svg PUBLIC "-//W3C//DTD SVG 1.1//EN"
 "http://www.w3.org/Graphics/SVG/1.1/DTD/svg11.dtd">
<!-- Generated by graphviz version 2.43.0 (0)
 -->
<!-- Title: %3 Pages: 1 -->
<svg width="1205pt" height="255pt"
 viewBox="0.00 0.00 1205.00 254.83" xmlns="http://www.w3.org/2000/svg" xmlns:xlink="http://www.w3.org/1999/xlink">
<g id="graph0" class="graph" transform="scale(1 1) rotate(0) translate(4 250.83)">
<title>%3</title>
<polygon fill="white" stroke="transparent" points="-4,4 -4,-250.83 1201,-250.83 1201,4 -4,4"/>
<!-- head -->
<g id="node1" class="node">
<title>head</title>
<polygon fill="none" stroke="black" points="8.5,-136 8.5,-157 107.5,-157 107.5,-136 8.5,-136"/>
<text text-anchor="start" x="45" y="-142.8" font-family="Times,serif" font-size="14.00">head</text>
<polygon fill="none" stroke="black" points="8.5,-115 8.5,-136 107.5,-136 107.5,-115 8.5,-115"/>
<text text-anchor="start" x="11.5" y="-121.8" font-family="Times,serif" font-size="14.00">0x7dd768fb3430</text>
</g>
<!-- node0 -->
<g id="node2" class="node">
<title>node0</title>
<polygon fill="none" stroke="black" points="159,-178 159,-199 195,-199 195,-178 159,-178"/>
<text text-anchor="start" x="164.5" y="-184.8" font-family="Times,serif" font-size="14.00">prev</text>
<polygon fill="none" stroke="black" points="195,-178 195,-199 224,-199 224,-178 195,-178"/>
<text text-anchor="start" x="198" y="-184.8" font-family="Times,serif" font-size="14.00">data</text>
<polygon fill="none" stroke="black" points="224,-178 224,-199 323,-199 323,-178 224,-178"/>
<text text-anchor="start" x="261.5" y="-184.8" font-family="Times,serif" font-size="14.00">next</text>
<polygon fill="none" stroke="black" points="159,-157 159,-178 195,-178 195,-157 159,-157"/>
<text text-anchor="start" x="162" y="-163.8" font-family="Times,serif" font-size="14.00">None</text>
<polygon fill="none" stroke="black" points="195,-157 195,-178 224,-178 224,-157 195,-157"/>
<text text-anchor="start" x="202.5" y="-163.8" font-family="Times,serif" font-size="14.00">35</text>
<polygon fill="none" stroke="black" points="224,-157 224,-178 323,-178 323,-157 224,-157"/>
<text text-anchor="start" x="227" y="-163.8" font-family="Times,serif" font-size="14.00">0x7dd768fb39d0</text>
<polygon fill="none" stroke="black" points="159,-136 159,-157 323,-157 323,-136 159,-136"/>
<text text-anchor="start" x="207.5" y="-142.8" font-family="Times,serif" font-size="14.00">alamat node</text>
<polygon fill="none" stroke="black" points="159,-115 159,-136 323,-136 323,-115 159,-115"/>
<text text-anchor="start" x="194.5" y="-121.8" font-family="Times,serif" font-size="14.00">0x7dd768fb3430</text>
</g>
<!-- head&#45;&gt;node0 -->
<g id="edge1" class="edge">
<title>head:contents&#45;&gt;node0:id</title>
<path fill="none" stroke="black" d="M108.5,-125C126.72,-125 133.62,-125 147.95,-125"/>
<polygon fill="black" stroke="black" points="148,-128.5 158,-125 148,-121.5 148,-128.5"/>
</g>
<!-- node1 -->
<g id="node3" class="node">
<title>node1</title>
<polygon fill="none" stroke="black" points="375.5,-135 375.5,-156 474.5,-156 474.5,-135 375.5,-135"/>
<text text-anchor="start" x="412.5" y="-141.8" font-family="Times,serif" font-size="14.00">prev</text>
<polygon fill="none" stroke="black" points="474.5,-135 474.5,-156 503.5,-156 503.5,-135 474.5,-135"/>
<text text-anchor="start" x="477.5" y="-141.8" font-family="Times,serif" font-size="14.00">data</text>
<polygon fill="none" stroke="black" points="503.5,-135 503.5,-156 602.5,-156 602.5,-135 503.5,-135"/>
<text text-anchor="start" x="541" y="-141.8" font-family="Times,serif" font-size="14.00">next</text>
<polygon fill="none" stroke="black" points="375.5,-114 375.5,-135 474.5,-135 474.5,-114 375.5,-114"/>
<text text-anchor="start" x="378.5" y="-120.8" font-family="Times,serif" font-size="14.00">0x7dd768fb3430</text>
<polygon fill="none" stroke="black" points="474.5,-114 474.5,-135 503.5,-135 503.5,-114 474.5,-114"/>
<text text-anchor="start" x="482" y="-120.8" font-family="Times,serif" font-size="14.00">25</text>
<polygon fill="none" stroke="black" points="503.5,-114 503.5,-135 602.5,-135 602.5,-114 503.5,-114"/>
<text text-anchor="start" x="506.5" y="-120.8" font-family="Times,serif" font-size="14.00">0x7dd768fb3790</text>
<polygon fill="none" stroke="black" points="375.5,-93 375.5,-114 602.5,-114 602.5,-93 375.5,-93"/>
<text text-anchor="start" x="455.5" y="-99.8" font-family="Times,serif" font-size="14.00">alamat node</text>
<polygon fill="none" stroke="black" points="375.5,-72 375.5,-93 602.5,-93 602.5,-72 375.5,-72"/>
<text text-anchor="start" x="442.5" y="-78.8" font-family="Times,serif" font-size="14.00">0x7dd768fb39d0</text>
</g>
<!-- node0&#45;&gt;node1 -->
<g id="edge2" class="edge">
<title>node0:next&#45;&gt;node1:id</title>
<path fill="none" stroke="black" d="M324,-168C364.34,-168 336.36,-96.76 364.43,-83.96"/>
<polygon fill="black" stroke="black" points="365.35,-87.34 374.5,-82 364.02,-80.47 365.35,-87.34"/>
</g>
<!-- node&#45;1 -->
<g id="node4" class="node">
<title>node&#45;1</title>
<text text-anchor="middle" x="488.5" y="-192.3" font-family="Times,serif" font-size="14.00">None</text>
</g>
<!-- node0&#45;&gt;node&#45;1 -->
<g id="edge3" class="edge">
<title>node0:prev&#45;&gt;node&#45;1</title>
<path fill="none" stroke="black" d="M158,-168C142.44,-168 147.84,-192.15 159,-203 237.96,-279.73 384.58,-236.78 451.96,-211"/>
<polygon fill="black" stroke="black" points="453.28,-214.24 461.31,-207.34 450.72,-207.73 453.28,-214.24"/>
</g>
<!-- node1&#45;&gt;node0 -->
<g id="edge5" class="edge">
<title>node1:prev&#45;&gt;node0:id</title>
<path fill="none" stroke="black" d="M374.5,-125C355.91,-125 348.87,-125 334.25,-125"/>
<polygon fill="black" stroke="black" points="334,-121.5 324,-125 334,-128.5 334,-121.5"/>
</g>
<!-- node2 -->
<g id="node5" class="node">
<title>node2</title>
<polygon fill="none" stroke="black" points="654.5,-135 654.5,-156 753.5,-156 753.5,-135 654.5,-135"/>
<text text-anchor="start" x="691.5" y="-141.8" font-family="Times,serif" font-size="14.00">prev</text>
<polygon fill="none" stroke="black" points="753.5,-135 753.5,-156 782.5,-156 782.5,-135 753.5,-135"/>
<text text-anchor="start" x="756.5" y="-141.8" font-family="Times,serif" font-size="14.00">data</text>
<polygon fill="none" stroke="black" points="782.5,-135 782.5,-156 883.5,-156 883.5,-135 782.5,-135"/>
<text text-anchor="start" x="821" y="-141.8" font-family="Times,serif" font-size="14.00">next</text>
<polygon fill="none" stroke="black" points="654.5,-114 654.5,-135 753.5,-135 753.5,-114 654.5,-114"/>
<text text-anchor="start" x="657.5" y="-120.8" font-family="Times,serif" font-size="14.00">0x7dd768fb39d0</text>
<polygon fill="none" stroke="black" points="753.5,-114 753.5,-135 782.5,-135 782.5,-114 753.5,-114"/>
<text text-anchor="start" x="761" y="-120.8" font-family="Times,serif" font-size="14.00">15</text>
<polygon fill="none" stroke="black" points="782.5,-114 782.5,-135 883.5,-135 883.5,-114 782.5,-114"/>
<text text-anchor="start" x="785.5" y="-120.8" font-family="Times,serif" font-size="14.00">0x7dd76993bd00</text>
<polygon fill="none" stroke="black" points="654.5,-93 654.5,-114 883.5,-114 883.5,-93 654.5,-93"/>
<text text-anchor="start" x="735.5" y="-99.8" font-family="Times,serif" font-size="14.00">alamat node</text>
<polygon fill="none" stroke="black" points="654.5,-72 654.5,-93 883.5,-93 883.5,-72 654.5,-72"/>
<text text-anchor="start" x="722.5" y="-78.8" font-family="Times,serif" font-size="14.00">0x7dd768fb3790</text>
</g>
<!-- node1&#45;&gt;node2 -->
<g id="edge4" class="edge">
<title>node1:next&#45;&gt;node2:id</title>
<path fill="none" stroke="black" d="M603.5,-125C628.92,-125 625.81,-92.66 643.65,-84.07"/>
<polygon fill="black" stroke="black" points="644.44,-87.49 653.5,-82 642.99,-80.64 644.44,-87.49"/>
</g>
<!-- node2&#45;&gt;node1 -->
<g id="edge7" class="edge">
<title>node2:prev&#45;&gt;node1:id</title>
<path fill="none" stroke="black" d="M653.5,-125C628.08,-125 631.19,-92.66 613.35,-84.07"/>
<polygon fill="black" stroke="black" points="614.01,-80.64 603.5,-82 612.56,-87.49 614.01,-80.64"/>
</g>
<!-- node3 -->
<g id="node6" class="node">
<title>node3</title>
<polygon fill="none" stroke="black" points="935,-92 935,-113 1034,-113 1034,-92 935,-92"/>
<text text-anchor="start" x="972" y="-98.8" font-family="Times,serif" font-size="14.00">prev</text>
<polygon fill="none" stroke="black" points="1034,-92 1034,-113 1063,-113 1063,-92 1034,-92"/>
<text text-anchor="start" x="1037" y="-98.8" font-family="Times,serif" font-size="14.00">data</text>
<polygon fill="none" stroke="black" points="1063,-92 1063,-113 1099,-113 1099,-92 1063,-92"/>
<text text-anchor="start" x="1069" y="-98.8" font-family="Times,serif" font-size="14.00">next</text>
<polygon fill="none" stroke="black" points="935,-71 935,-92 1034,-92 1034,-71 935,-71"/>
<text text-anchor="start" x="938" y="-77.8" font-family="Times,serif" font-size="14.00">0x7dd768fb3790</text>
<polygon fill="none" stroke="black" points="1034,-71 1034,-92 1063,-92 1063,-71 1034,-71"/>
<text text-anchor="start" x="1045" y="-77.8" font-family="Times,serif" font-size="14.00">5</text>
<polygon fill="none" stroke="black" points="1063,-71 1063,-92 1099,-92 1099,-71 1063,-71"/>
<text text-anchor="start" x="1066" y="-77.8" font-family="Times,serif" font-size="14.00">None</text>
<polygon fill="none" stroke="black" points="935,-50 935,-71 1099,-71 1099,-50 935,-50"/>
<text text-anchor="start" x="983.5" y="-56.8" font-family="Times,serif" font-size="14.00">alamat node</text>
<polygon fill="none" stroke="black" points="935,-29 935,-50 1099,-50 1099,-29 935,-29"/>
<text text-anchor="start" x="969.5" y="-35.8" font-family="Times,serif" font-size="14.00">0x7dd76993bd00</text>
</g>
<!-- node2&#45;&gt;node3 -->
<g id="edge6" class="edge">
<title>node2:next&#45;&gt;node3:id</title>
<path fill="none" stroke="black" d="M884.5,-125C924.64,-125 896.18,-53.76 924,-40.96"/>
<polygon fill="black" stroke="black" points="924.86,-44.36 934,-39 923.51,-37.49 924.86,-44.36"/>
</g>
<!-- node3&#45;&gt;node2 -->
<g id="edge9" class="edge">
<title>node3:prev&#45;&gt;node2:id</title>
<path fill="none" stroke="black" d="M934,-82C915.78,-82 908.88,-82 894.55,-82"/>
<polygon fill="black" stroke="black" points="894.5,-78.5 884.5,-82 894.5,-85.5 894.5,-78.5"/>
</g>
<!-- node4 -->
<g id="node7" class="node">
<title>node4</title>
<text text-anchor="middle" x="1170" y="-78.3" font-family="Times,serif" font-size="14.00">None</text>
</g>
<!-- node3&#45;&gt;node4 -->
<g id="edge8" class="edge">
<title>node3:next&#45;&gt;node4</title>
<path fill="none" stroke="black" d="M1100,-82C1110.6,-82 1122.12,-82 1132.65,-82"/>
<polygon fill="black" stroke="black" points="1132.79,-85.5 1142.79,-82 1132.79,-78.5 1132.79,-85.5"/>
</g>
<!-- tail -->
<g id="node8" class="node">
<title>tail</title>
<polygon fill="none" stroke="black" points="718.5,-25 718.5,-46 819.5,-46 819.5,-25 718.5,-25"/>
<text text-anchor="start" x="760" y="-31.8" font-family="Times,serif" font-size="14.00">tail</text>
<polygon fill="none" stroke="black" points="718.5,-4 718.5,-25 819.5,-25 819.5,-4 718.5,-4"/>
<text text-anchor="start" x="721.5" y="-10.8" font-family="Times,serif" font-size="14.00">0x7dd76993bd00</text>
</g>
<!-- tail&#45;&gt;node3 -->
<g id="edge10" class="edge">
<title>tail:contents&#45;&gt;node3:id</title>
<path fill="none" stroke="black" d="M820.5,-14C868.62,-14 880.76,-35.7 923.96,-38.67"/>
<polygon fill="black" stroke="black" points="923.89,-42.16 934,-39 924.12,-35.17 923.89,-42.16"/>
</g>
</g>
</svg>
