<?xml version="1.0" encoding="UTF-8" standalone="no"?>
<!DOCTYPE svg PUBLIC "-//W3C//DTD SVG 1.1//EN"
 "http://www.w3.org/Graphics/SVG/1.1/DTD/svg11.dtd">
<!-- Generated by graphviz version 2.43.0 (0)
 -->
<!-- Title: %3 Pages: 1 -->
<svg width="62pt" height="130pt"
 viewBox="0.00 0.00 62.00 130.00" xmlns="http://www.w3.org/2000/svg" xmlns:xlink="http://www.w3.org/1999/xlink">
<g id="graph0" class="graph" transform="scale(1 1) rotate(0) translate(4 126)">
<title>%3</title>
<polygon fill="white" stroke="transparent" points="-4,4 -4,-126 58,-126 58,4 -4,4"/>
<!-- A -->
<g id="node1" class="node">
<title>A</title>
<polygon fill="none" stroke="black" points="11,-97 11,-118 27,-118 27,-97 11,-97"/>
<text text-anchor="start" x="15" y="-103.8" font-family="Times,serif" font-size="14.00">P</text>
<polygon fill="none" stroke="black" points="27,-97 27,-118 43,-118 43,-97 27,-97"/>
<text text-anchor="start" x="30" y="-103.8" font-family="Times,serif" font-size="14.00">Q</text>
<polygon fill="none" stroke="black" points="11,-76 11,-97 27,-97 27,-76 11,-76"/>
<text text-anchor="start" x="14" y="-82.8" font-family="Times,serif" font-size="14.00">R</text>
<polygon fill="none" stroke="black" points="27,-76 27,-97 43,-97 43,-76 27,-76"/>
<text text-anchor="start" x="31" y="-82.8" font-family="Times,serif" font-size="14.00">S</text>
</g>
<!-- B -->
<g id="node2" class="node">
<title>B</title>
<ellipse fill="none" stroke="black" cx="27" cy="-18" rx="27" ry="18"/>
<text text-anchor="middle" x="27" y="-14.3" font-family="Times,serif" font-size="14.00">B</text>
</g>
<!-- A&#45;&gt;B -->
<g id="edge1" class="edge">
<title>A&#45;&gt;B</title>
<path fill="none" stroke="black" d="M27,-71.64C27,-63.67 27,-54.77 27,-46.58"/>
<polygon fill="black" stroke="black" points="30.5,-46.38 27,-36.38 23.5,-46.38 30.5,-46.38"/>
</g>
</g>
</svg>
