<?xml version="1.0" encoding="UTF-8" standalone="no"?>
<!DOCTYPE svg PUBLIC "-//W3C//DTD SVG 1.1//EN"
 "http://www.w3.org/Graphics/SVG/1.1/DTD/svg11.dtd">
<!-- Generated by graphviz version 9.0.0 (20230911.1827)
 -->
<!-- Pages: 1 -->
<svg width="642pt" height="230pt"
 viewBox="0.00 0.00 642.25 229.75" xmlns="http://www.w3.org/2000/svg" xmlns:xlink="http://www.w3.org/1999/xlink">
<g id="graph0" class="graph" transform="scale(1 1) rotate(0) translate(4 225.75)">
<polygon fill="white" stroke="none" points="-4,4 -4,-225.75 638.25,-225.75 638.25,4 -4,4"/>
<!-- node0 -->
<g id="node1" class="node">
<title>node0</title>
<polygon fill="none" stroke="black" points="8,-132.75 8,-153.75 37,-153.75 37,-132.75 8,-132.75"/>
<text text-anchor="start" x="10.88" y="-137.45" font-family="Times New Roman,serif" font-size="14.00">data</text>
<polygon fill="none" stroke="black" points="37,-132.75 37,-153.75 130,-153.75 130,-132.75 37,-132.75"/>
<text text-anchor="start" x="71.88" y="-137.45" font-family="Times New Roman,serif" font-size="14.00">next</text>
<polygon fill="none" stroke="black" points="8,-111.75 8,-132.75 37,-132.75 37,-111.75 8,-111.75"/>
<text text-anchor="start" x="15.75" y="-116.45" font-family="Times New Roman,serif" font-size="14.00">15</text>
<polygon fill="none" stroke="black" points="37,-111.75 37,-132.75 130,-132.75 130,-111.75 37,-111.75"/>
<text text-anchor="start" x="39.62" y="-116.45" font-family="Times New Roman,serif" font-size="14.00">0x1d249030a70</text>
<polygon fill="none" stroke="black" points="8,-90.75 8,-111.75 130,-111.75 130,-90.75 8,-90.75"/>
<text text-anchor="start" x="35.62" y="-95.45" font-family="Times New Roman,serif" font-size="14.00">alamat node</text>
<polygon fill="none" stroke="black" points="8,-69.75 8,-90.75 130,-90.75 130,-69.75 8,-69.75"/>
<text text-anchor="start" x="24.38" y="-74.45" font-family="Times New Roman,serif" font-size="14.00">0x1d2490867b0</text>
</g>
<!-- node1 -->
<g id="node2" class="node">
<title>node1</title>
<polygon fill="none" stroke="black" points="182,-174.75 182,-195.75 211,-195.75 211,-174.75 182,-174.75"/>
<text text-anchor="start" x="184.88" y="-179.45" font-family="Times New Roman,serif" font-size="14.00">data</text>
<polygon fill="none" stroke="black" points="211,-174.75 211,-195.75 303,-195.75 303,-174.75 211,-174.75"/>
<text text-anchor="start" x="245.38" y="-179.45" font-family="Times New Roman,serif" font-size="14.00">next</text>
<polygon fill="none" stroke="black" points="182,-153.75 182,-174.75 211,-174.75 211,-153.75 182,-153.75"/>
<text text-anchor="start" x="189.75" y="-158.45" font-family="Times New Roman,serif" font-size="14.00">10</text>
<polygon fill="none" stroke="black" points="211,-153.75 211,-174.75 303,-174.75 303,-153.75 211,-153.75"/>
<text text-anchor="start" x="213.88" y="-158.45" font-family="Times New Roman,serif" font-size="14.00">0x1d249030f50</text>
<polygon fill="none" stroke="black" points="182,-132.75 182,-153.75 303,-153.75 303,-132.75 182,-132.75"/>
<text text-anchor="start" x="209.12" y="-137.45" font-family="Times New Roman,serif" font-size="14.00">alamat node</text>
<polygon fill="none" stroke="black" points="182,-111.75 182,-132.75 303,-132.75 303,-111.75 182,-111.75"/>
<text text-anchor="start" x="198.62" y="-116.45" font-family="Times New Roman,serif" font-size="14.00">0x1d249030a70</text>
</g>
<!-- node0&#45;&gt;node1 -->
<g id="edge1" class="edge">
<title>node0:next&#45;&gt;node1:id</title>
<path fill="none" stroke="black" d="M131,-122.75C148.71,-122.75 155.72,-122.1 169.25,-121.85"/>
<polygon fill="black" stroke="black" points="169.02,-125.35 178.99,-121.76 168.96,-118.35 169.02,-125.35"/>
</g>
<!-- node2 -->
<g id="node3" class="node">
<title>node2</title>
<polygon fill="none" stroke="black" points="356.62,-196.75 356.62,-217.75 398.62,-217.75 398.62,-196.75 356.62,-196.75"/>
<text text-anchor="start" x="366" y="-201.45" font-family="Times New Roman,serif" font-size="14.00">data</text>
<polygon fill="none" stroke="black" points="398.62,-196.75 398.62,-217.75 448.62,-217.75 448.62,-196.75 398.62,-196.75"/>
<text text-anchor="start" x="412" y="-201.45" font-family="Times New Roman,serif" font-size="14.00">next</text>
<polygon fill="none" stroke="black" points="356.62,-175.75 356.62,-196.75 398.62,-196.75 398.62,-175.75 356.62,-175.75"/>
<text text-anchor="start" x="374.25" y="-180.45" font-family="Times New Roman,serif" font-size="14.00">5</text>
<polygon fill="none" stroke="black" points="398.62,-175.75 398.62,-196.75 448.62,-196.75 448.62,-175.75 398.62,-175.75"/>
<text text-anchor="start" x="408.62" y="-180.45" font-family="Times New Roman,serif" font-size="14.00">None</text>
<polygon fill="none" stroke="black" points="356.62,-154.75 356.62,-175.75 448.62,-175.75 448.62,-154.75 356.62,-154.75"/>
<text text-anchor="start" x="369.25" y="-159.45" font-family="Times New Roman,serif" font-size="14.00">alamat node</text>
<polygon fill="none" stroke="black" points="356.62,-133.75 356.62,-154.75 448.62,-154.75 448.62,-133.75 356.62,-133.75"/>
<text text-anchor="start" x="359.5" y="-138.45" font-family="Times New Roman,serif" font-size="14.00">0x1d249030f50</text>
</g>
<!-- node1&#45;&gt;node2 -->
<g id="edge2" class="edge">
<title>node1:next&#45;&gt;node2:id</title>
<path fill="none" stroke="black" d="M304.5,-164.75C324.65,-164.75 329.61,-150.62 344.31,-145.54"/>
<polygon fill="black" stroke="black" points="344.8,-149.01 354.13,-143.99 343.71,-142.09 344.8,-149.01"/>
</g>
<!-- node3 -->
<g id="node4" class="node">
<title>node3</title>
<polygon fill="none" stroke="black" points="502.25,-132.75 502.25,-153.75 531.25,-153.75 531.25,-132.75 502.25,-132.75"/>
<text text-anchor="start" x="505.12" y="-137.45" font-family="Times New Roman,serif" font-size="14.00">data</text>
<polygon fill="none" stroke="black" points="531.25,-132.75 531.25,-153.75 626.25,-153.75 626.25,-132.75 531.25,-132.75"/>
<text text-anchor="start" x="567.12" y="-137.45" font-family="Times New Roman,serif" font-size="14.00">next</text>
<polygon fill="none" stroke="black" points="502.25,-111.75 502.25,-132.75 531.25,-132.75 531.25,-111.75 502.25,-111.75"/>
<text text-anchor="start" x="513.38" y="-116.45" font-family="Times New Roman,serif" font-size="14.00">1</text>
<polygon fill="none" stroke="black" points="531.25,-111.75 531.25,-132.75 626.25,-132.75 626.25,-111.75 531.25,-111.75"/>
<text text-anchor="start" x="534.12" y="-116.45" font-family="Times New Roman,serif" font-size="14.00">0x1d2490867b0</text>
<polygon fill="none" stroke="black" points="502.25,-90.75 502.25,-111.75 626.25,-111.75 626.25,-90.75 502.25,-90.75"/>
<text text-anchor="start" x="530.88" y="-95.45" font-family="Times New Roman,serif" font-size="14.00">alamat node</text>
<polygon fill="none" stroke="black" points="502.25,-69.75 502.25,-90.75 626.25,-90.75 626.25,-69.75 502.25,-69.75"/>
<text text-anchor="start" x="521.12" y="-74.45" font-family="Times New Roman,serif" font-size="14.00">0x1d2490be0f0</text>
</g>
<!-- node2&#45;&gt;node3 -->
<g id="edge3" class="edge">
<title>node2:next&#45;&gt;node3</title>
<path fill="none" stroke="black" d="M449.62,-186.75C471.56,-186.75 492.53,-176.89 510.35,-164.32"/>
<polygon fill="black" stroke="black" points="512.27,-167.26 518.16,-158.45 508.06,-161.66 512.27,-167.26"/>
</g>
<!-- node3&#45;&gt;node0 -->
<g id="edge5" class="edge">
<title>node3:id&#45;&gt;node0:id</title>
<path fill="none" stroke="black" d="M501.25,-79.75C340.55,-79.75 297.55,-79.75 142.37,-79.75"/>
<polygon fill="black" stroke="black" points="142.51,-76.25 132.51,-79.75 142.51,-83.25 142.51,-76.25"/>
</g>
<!-- tail -->
<g id="node5" class="node">
<title>tail</title>
<polygon fill="none" stroke="black" points="355,-25.75 355,-47.5 450.25,-47.5 450.25,-25.75 355,-25.75"/>
<text text-anchor="start" x="394.75" y="-31.2" font-family="Times New Roman,serif" font-size="14.00">tail</text>
<polygon fill="none" stroke="black" points="355,-4 355,-25.75 450.25,-25.75 450.25,-4 355,-4"/>
<text text-anchor="start" x="358" y="-9.45" font-family="Times New Roman,serif" font-size="14.00">0x1d2490867b0</text>
</g>
<!-- tail&#45;&gt;node3 -->
<g id="edge4" class="edge">
<title>tail:contents&#45;&gt;node3:id</title>
<path fill="none" stroke="black" d="M451.62,-14.75C483.43,-14.75 469.74,-64.52 490.17,-76.96"/>
<polygon fill="black" stroke="black" points="489.23,-80.33 499.78,-79.38 490.94,-73.54 489.23,-80.33"/>
</g>
</g>
</svg>
