<?xml version="1.0" encoding="UTF-8" standalone="no"?>
<!DOCTYPE svg PUBLIC "-//W3C//DTD SVG 1.1//EN"
 "http://www.w3.org/Graphics/SVG/1.1/DTD/svg11.dtd">
<!-- Generated by graphviz version 2.43.0 (0)
 -->
<!-- Title: %3 Pages: 1 -->
<svg width="68pt" height="130pt"
 viewBox="0.00 0.00 68.00 130.00" xmlns="http://www.w3.org/2000/svg" xmlns:xlink="http://www.w3.org/1999/xlink">
<g id="graph0" class="graph" transform="scale(1 1) rotate(0) translate(4 126)">
<title>%3</title>
<polygon fill="white" stroke="transparent" points="-4,4 -4,-126 64,-126 64,4 -4,4"/>
<!-- A -->
<g id="node1" class="node">
<title>A</title>
<polygon fill="none" stroke="black" points="8,-76 8,-118 22,-118 22,-76 8,-76"/>
<text text-anchor="start" x="11" y="-93.3" font-family="Times,serif" font-size="14.00">P</text>
<polygon fill="none" stroke="black" points="22,-97 22,-118 52,-118 52,-97 22,-97"/>
<text text-anchor="start" x="32" y="-103.8" font-family="Times,serif" font-size="14.00">Q</text>
<polygon fill="none" stroke="black" points="22,-76 22,-97 38,-97 38,-76 22,-76"/>
<text text-anchor="start" x="25" y="-82.8" font-family="Times,serif" font-size="14.00">R</text>
<polygon fill="none" stroke="black" points="38,-76 38,-97 52,-97 52,-76 38,-76"/>
<text text-anchor="start" x="41" y="-82.8" font-family="Times,serif" font-size="14.00">S</text>
</g>
<!-- B -->
<g id="node2" class="node">
<title>B</title>
<ellipse fill="none" stroke="black" cx="30" cy="-18" rx="27" ry="18"/>
<text text-anchor="middle" x="30" y="-14.3" font-family="Times,serif" font-size="14.00">B</text>
</g>
<!-- A&#45;&gt;B -->
<g id="edge1" class="edge">
<title>A&#45;&gt;B</title>
<path fill="none" stroke="black" d="M30,-71.64C30,-63.67 30,-54.77 30,-46.58"/>
<polygon fill="black" stroke="black" points="33.5,-46.38 30,-36.38 26.5,-46.38 33.5,-46.38"/>
</g>
</g>
</svg>
