<?xml version="1.0" encoding="UTF-8" standalone="no"?>
<!DOCTYPE svg PUBLIC "-//W3C//DTD SVG 1.1//EN"
 "http://www.w3.org/Graphics/SVG/1.1/DTD/svg11.dtd">
<!-- Generated by graphviz version 9.0.0 (20230911.1827)
 -->
<!-- Pages: 1 -->
<svg width="1169pt" height="255pt"
 viewBox="0.00 0.00 1168.50 255.11" xmlns="http://www.w3.org/2000/svg" xmlns:xlink="http://www.w3.org/1999/xlink">
<g id="graph0" class="graph" transform="scale(1 1) rotate(0) translate(4 251.11)">
<polygon fill="white" stroke="none" points="-4,4 -4,-251.11 1164.5,-251.11 1164.5,4 -4,4"/>
<!-- head -->
<g id="node1" class="node">
<title>head</title>
<polygon fill="none" stroke="black" points="8,-137.75 8,-159.5 102.5,-159.5 102.5,-137.75 8,-137.75"/>
<text text-anchor="start" x="42.12" y="-143.2" font-family="Times New Roman,serif" font-size="14.00">head</text>
<polygon fill="none" stroke="black" points="8,-116 8,-137.75 102.5,-137.75 102.5,-116 8,-116"/>
<text text-anchor="start" x="11" y="-121.45" font-family="Times New Roman,serif" font-size="14.00">0x1d2476ecb00</text>
</g>
<!-- node0 -->
<g id="node2" class="node">
<title>node0</title>
<polygon fill="none" stroke="black" points="154.5,-179.75 154.5,-200.75 190.5,-200.75 190.5,-179.75 154.5,-179.75"/>
<text text-anchor="start" x="160.12" y="-184.45" font-family="Times New Roman,serif" font-size="14.00">prev</text>
<polygon fill="none" stroke="black" points="190.5,-179.75 190.5,-200.75 219.5,-200.75 219.5,-179.75 190.5,-179.75"/>
<text text-anchor="start" x="193.38" y="-184.45" font-family="Times New Roman,serif" font-size="14.00">data</text>
<polygon fill="none" stroke="black" points="219.5,-179.75 219.5,-200.75 312.5,-200.75 312.5,-179.75 219.5,-179.75"/>
<text text-anchor="start" x="254.38" y="-184.45" font-family="Times New Roman,serif" font-size="14.00">next</text>
<polygon fill="none" stroke="black" points="154.5,-158.75 154.5,-179.75 190.5,-179.75 190.5,-158.75 154.5,-158.75"/>
<text text-anchor="start" x="157.5" y="-163.45" font-family="Times New Roman,serif" font-size="14.00">None</text>
<polygon fill="none" stroke="black" points="190.5,-158.75 190.5,-179.75 219.5,-179.75 219.5,-158.75 190.5,-158.75"/>
<text text-anchor="start" x="198.25" y="-163.45" font-family="Times New Roman,serif" font-size="14.00">35</text>
<polygon fill="none" stroke="black" points="219.5,-158.75 219.5,-179.75 312.5,-179.75 312.5,-158.75 219.5,-158.75"/>
<text text-anchor="start" x="222.5" y="-163.45" font-family="Times New Roman,serif" font-size="14.00">0x1d2476e1e50</text>
<polygon fill="none" stroke="black" points="154.5,-137.75 154.5,-158.75 312.5,-158.75 312.5,-137.75 154.5,-137.75"/>
<text text-anchor="start" x="200.12" y="-142.45" font-family="Times New Roman,serif" font-size="14.00">alamat node</text>
<polygon fill="none" stroke="black" points="154.5,-116.75 154.5,-137.75 312.5,-137.75 312.5,-116.75 154.5,-116.75"/>
<text text-anchor="start" x="189.25" y="-121.45" font-family="Times New Roman,serif" font-size="14.00">0x1d2476ecb00</text>
</g>
<!-- head&#45;&gt;node0 -->
<g id="edge1" class="edge">
<title>head:contents&#45;&gt;node0:id</title>
<path fill="none" stroke="black" d="M103.25,-126.75C121.22,-126.75 128.35,-126.75 142.08,-126.75"/>
<polygon fill="black" stroke="black" points="141.99,-130.25 151.99,-126.75 141.99,-123.25 141.99,-130.25"/>
</g>
<!-- node1 -->
<g id="node3" class="node">
<title>node1</title>
<polygon fill="none" stroke="black" points="364.5,-136.75 364.5,-157.75 458.5,-157.75 458.5,-136.75 364.5,-136.75"/>
<text text-anchor="start" x="399.12" y="-141.45" font-family="Times New Roman,serif" font-size="14.00">prev</text>
<polygon fill="none" stroke="black" points="458.5,-136.75 458.5,-157.75 487.5,-157.75 487.5,-136.75 458.5,-136.75"/>
<text text-anchor="start" x="461.38" y="-141.45" font-family="Times New Roman,serif" font-size="14.00">data</text>
<polygon fill="none" stroke="black" points="487.5,-136.75 487.5,-157.75 582.5,-157.75 582.5,-136.75 487.5,-136.75"/>
<text text-anchor="start" x="523.38" y="-141.45" font-family="Times New Roman,serif" font-size="14.00">next</text>
<polygon fill="none" stroke="black" points="364.5,-115.75 364.5,-136.75 458.5,-136.75 458.5,-115.75 364.5,-115.75"/>
<text text-anchor="start" x="367.25" y="-120.45" font-family="Times New Roman,serif" font-size="14.00">0x1d2476ecb00</text>
<polygon fill="none" stroke="black" points="458.5,-115.75 458.5,-136.75 487.5,-136.75 487.5,-115.75 458.5,-115.75"/>
<text text-anchor="start" x="466.25" y="-120.45" font-family="Times New Roman,serif" font-size="14.00">25</text>
<polygon fill="none" stroke="black" points="487.5,-115.75 487.5,-136.75 582.5,-136.75 582.5,-115.75 487.5,-115.75"/>
<text text-anchor="start" x="490.38" y="-120.45" font-family="Times New Roman,serif" font-size="14.00">0x1d2476e1bd0</text>
<polygon fill="none" stroke="black" points="364.5,-94.75 364.5,-115.75 582.5,-115.75 582.5,-94.75 364.5,-94.75"/>
<text text-anchor="start" x="440.12" y="-99.45" font-family="Times New Roman,serif" font-size="14.00">alamat node</text>
<polygon fill="none" stroke="black" points="364.5,-73.75 364.5,-94.75 582.5,-94.75 582.5,-73.75 364.5,-73.75"/>
<text text-anchor="start" x="430" y="-78.45" font-family="Times New Roman,serif" font-size="14.00">0x1d2476e1e50</text>
</g>
<!-- node0&#45;&gt;node1 -->
<g id="edge2" class="edge">
<title>node0:next&#45;&gt;node1:id</title>
<path fill="none" stroke="black" d="M313.5,-169.75C353.22,-169.75 326.24,-100.33 352.41,-86.23"/>
<polygon fill="black" stroke="black" points="353.03,-89.68 362.02,-84.08 351.5,-82.85 353.03,-89.68"/>
</g>
<!-- node&#45;1 -->
<g id="node4" class="node">
<title>node&#45;1</title>
<text text-anchor="middle" x="473.5" y="-192.32" font-family="Times New Roman,serif" font-size="14.00">None</text>
</g>
<!-- node0&#45;&gt;node&#45;1 -->
<g id="edge3" class="edge">
<title>node0:prev&#45;&gt;node&#45;1</title>
<path fill="none" stroke="black" d="M153.5,-169.75C137.94,-169.75 143.34,-193.9 154.5,-204.75 230.12,-278.24 369.86,-238.2 435.99,-213.11"/>
<polygon fill="black" stroke="black" points="437.25,-216.38 445.29,-209.48 434.7,-209.86 437.25,-216.38"/>
</g>
<!-- node1&#45;&gt;node0 -->
<g id="edge5" class="edge">
<title>node1:prev&#45;&gt;node0:id</title>
<path fill="none" stroke="black" d="M363.5,-126.75C345.62,-126.75 338.53,-126.75 324.86,-126.75"/>
<polygon fill="black" stroke="black" points="325.01,-123.25 315.01,-126.75 325.01,-130.25 325.01,-123.25"/>
</g>
<!-- node2 -->
<g id="node5" class="node">
<title>node2</title>
<polygon fill="none" stroke="black" points="634.5,-136.75 634.5,-157.75 727.5,-157.75 727.5,-136.75 634.5,-136.75"/>
<text text-anchor="start" x="668.62" y="-141.45" font-family="Times New Roman,serif" font-size="14.00">prev</text>
<polygon fill="none" stroke="black" points="727.5,-136.75 727.5,-157.75 756.5,-157.75 756.5,-136.75 727.5,-136.75"/>
<text text-anchor="start" x="730.38" y="-141.45" font-family="Times New Roman,serif" font-size="14.00">data</text>
<polygon fill="none" stroke="black" points="756.5,-136.75 756.5,-157.75 850.5,-157.75 850.5,-136.75 756.5,-136.75"/>
<text text-anchor="start" x="791.88" y="-141.45" font-family="Times New Roman,serif" font-size="14.00">next</text>
<polygon fill="none" stroke="black" points="634.5,-115.75 634.5,-136.75 727.5,-136.75 727.5,-115.75 634.5,-115.75"/>
<text text-anchor="start" x="637.5" y="-120.45" font-family="Times New Roman,serif" font-size="14.00">0x1d2476e1e50</text>
<polygon fill="none" stroke="black" points="727.5,-115.75 727.5,-136.75 756.5,-136.75 756.5,-115.75 727.5,-115.75"/>
<text text-anchor="start" x="735.25" y="-120.45" font-family="Times New Roman,serif" font-size="14.00">15</text>
<polygon fill="none" stroke="black" points="756.5,-115.75 756.5,-136.75 850.5,-136.75 850.5,-115.75 756.5,-115.75"/>
<text text-anchor="start" x="759.25" y="-120.45" font-family="Times New Roman,serif" font-size="14.00">0x1d24774da90</text>
<polygon fill="none" stroke="black" points="634.5,-94.75 634.5,-115.75 850.5,-115.75 850.5,-94.75 634.5,-94.75"/>
<text text-anchor="start" x="709.12" y="-99.45" font-family="Times New Roman,serif" font-size="14.00">alamat node</text>
<polygon fill="none" stroke="black" points="634.5,-73.75 634.5,-94.75 850.5,-94.75 850.5,-73.75 634.5,-73.75"/>
<text text-anchor="start" x="697.88" y="-78.45" font-family="Times New Roman,serif" font-size="14.00">0x1d2476e1bd0</text>
</g>
<!-- node1&#45;&gt;node2 -->
<g id="edge4" class="edge">
<title>node1:next&#45;&gt;node2:id</title>
<path fill="none" stroke="black" d="M583.5,-126.75C608.46,-126.75 605.91,-95.57 622.71,-86.31"/>
<polygon fill="black" stroke="black" points="623.11,-89.81 632.03,-84.1 621.49,-83 623.11,-89.81"/>
</g>
<!-- node2&#45;&gt;node1 -->
<g id="edge7" class="edge">
<title>node2:prev&#45;&gt;node1:id</title>
<path fill="none" stroke="black" d="M633.5,-126.75C608.54,-126.75 611.09,-95.57 594.29,-86.31"/>
<polygon fill="black" stroke="black" points="595.51,-83 584.97,-84.1 593.89,-89.81 595.51,-83"/>
</g>
<!-- node3 -->
<g id="node6" class="node">
<title>node3</title>
<polygon fill="none" stroke="black" points="902.5,-93.75 902.5,-114.75 997.5,-114.75 997.5,-93.75 902.5,-93.75"/>
<text text-anchor="start" x="937.62" y="-98.45" font-family="Times New Roman,serif" font-size="14.00">prev</text>
<polygon fill="none" stroke="black" points="997.5,-93.75 997.5,-114.75 1026.5,-114.75 1026.5,-93.75 997.5,-93.75"/>
<text text-anchor="start" x="1000.38" y="-98.45" font-family="Times New Roman,serif" font-size="14.00">data</text>
<polygon fill="none" stroke="black" points="1026.5,-93.75 1026.5,-114.75 1062.5,-114.75 1062.5,-93.75 1026.5,-93.75"/>
<text text-anchor="start" x="1032.88" y="-98.45" font-family="Times New Roman,serif" font-size="14.00">next</text>
<polygon fill="none" stroke="black" points="902.5,-72.75 902.5,-93.75 997.5,-93.75 997.5,-72.75 902.5,-72.75"/>
<text text-anchor="start" x="905.38" y="-77.45" font-family="Times New Roman,serif" font-size="14.00">0x1d2476e1bd0</text>
<polygon fill="none" stroke="black" points="997.5,-72.75 997.5,-93.75 1026.5,-93.75 1026.5,-72.75 997.5,-72.75"/>
<text text-anchor="start" x="1008.62" y="-77.45" font-family="Times New Roman,serif" font-size="14.00">5</text>
<polygon fill="none" stroke="black" points="1026.5,-72.75 1026.5,-93.75 1062.5,-93.75 1062.5,-72.75 1026.5,-72.75"/>
<text text-anchor="start" x="1029.5" y="-77.45" font-family="Times New Roman,serif" font-size="14.00">None</text>
<polygon fill="none" stroke="black" points="902.5,-51.75 902.5,-72.75 1062.5,-72.75 1062.5,-51.75 902.5,-51.75"/>
<text text-anchor="start" x="949.12" y="-56.45" font-family="Times New Roman,serif" font-size="14.00">alamat node</text>
<polygon fill="none" stroke="black" points="902.5,-30.75 902.5,-51.75 1062.5,-51.75 1062.5,-30.75 902.5,-30.75"/>
<text text-anchor="start" x="938.25" y="-35.45" font-family="Times New Roman,serif" font-size="14.00">0x1d24774da90</text>
</g>
<!-- node2&#45;&gt;node3 -->
<g id="edge6" class="edge">
<title>node2:next&#45;&gt;node3:id</title>
<path fill="none" stroke="black" d="M851.5,-126.75C891.22,-126.75 864.24,-57.33 890.41,-43.23"/>
<polygon fill="black" stroke="black" points="891.03,-46.68 900.02,-41.08 889.5,-39.85 891.03,-46.68"/>
</g>
<!-- node3&#45;&gt;node2 -->
<g id="edge9" class="edge">
<title>node3:prev&#45;&gt;node2:id</title>
<path fill="none" stroke="black" d="M901.5,-83.75C883.62,-83.75 876.53,-83.75 862.86,-83.75"/>
<polygon fill="black" stroke="black" points="863.01,-80.25 853.01,-83.75 863.01,-87.25 863.01,-80.25"/>
</g>
<!-- node4 -->
<g id="node7" class="node">
<title>node4</title>
<text text-anchor="middle" x="1133.5" y="-78.33" font-family="Times New Roman,serif" font-size="14.00">None</text>
</g>
<!-- node3&#45;&gt;node4 -->
<g id="edge8" class="edge">
<title>node3:next&#45;&gt;node4</title>
<path fill="none" stroke="black" d="M1063.5,-83.75C1073.86,-83.75 1085.09,-83.75 1095.42,-83.75"/>
<polygon fill="black" stroke="black" points="1095.1,-87.25 1105.1,-83.75 1095.1,-80.25 1095.1,-87.25"/>
</g>
<!-- tail -->
<g id="node8" class="node">
<title>tail</title>
<polygon fill="none" stroke="black" points="695.25,-25.75 695.25,-47.5 789.75,-47.5 789.75,-25.75 695.25,-25.75"/>
<text text-anchor="start" x="734.62" y="-31.2" font-family="Times New Roman,serif" font-size="14.00">tail</text>
<polygon fill="none" stroke="black" points="695.25,-4 695.25,-25.75 789.75,-25.75 789.75,-4 695.25,-4"/>
<text text-anchor="start" x="698.25" y="-9.45" font-family="Times New Roman,serif" font-size="14.00">0x1d24774da90</text>
</g>
<!-- tail&#45;&gt;node3 -->
<g id="edge10" class="edge">
<title>tail:contents&#45;&gt;node3:id</title>
<path fill="none" stroke="black" d="M790.5,-14.75C837.11,-14.75 849.02,-36.75 890.07,-40.28"/>
<polygon fill="black" stroke="black" points="889.85,-43.77 899.99,-40.69 890.14,-36.78 889.85,-43.77"/>
</g>
</g>
</svg>
