<?xml version="1.0" encoding="UTF-8" standalone="no"?>
<!DOCTYPE svg PUBLIC "-//W3C//DTD SVG 1.1//EN"
 "http://www.w3.org/Graphics/SVG/1.1/DTD/svg11.dtd">
<!-- Generated by graphviz version 9.0.0 (20230911.1827)
 -->
<!-- Pages: 1 -->
<svg width="704pt" height="187pt"
 viewBox="0.00 0.00 703.50 186.75" xmlns="http://www.w3.org/2000/svg" xmlns:xlink="http://www.w3.org/1999/xlink">
<g id="graph0" class="graph" transform="scale(1 1) rotate(0) translate(4 182.75)">
<polygon fill="white" stroke="none" points="-4,4 -4,-182.75 699.5,-182.75 699.5,4 -4,4"/>
<!-- head -->
<g id="node1" class="node">
<title>head</title>
<polygon fill="none" stroke="black" points="8,-25.75 8,-47.5 102.5,-47.5 102.5,-25.75 8,-25.75"/>
<text text-anchor="start" x="42.12" y="-31.2" font-family="Times New Roman,serif" font-size="14.00">head</text>
<polygon fill="none" stroke="black" points="8,-4 8,-25.75 102.5,-25.75 102.5,-4 8,-4"/>
<text text-anchor="start" x="11" y="-9.45" font-family="Times New Roman,serif" font-size="14.00">0x1d2476e11d0</text>
</g>
<!-- node0 -->
<g id="node2" class="node">
<title>node0</title>
<polygon fill="none" stroke="black" points="154.5,-67.75 154.5,-88.75 183.5,-88.75 183.5,-67.75 154.5,-67.75"/>
<text text-anchor="start" x="157.38" y="-72.45" font-family="Times New Roman,serif" font-size="14.00">data</text>
<polygon fill="none" stroke="black" points="183.5,-67.75 183.5,-88.75 276.5,-88.75 276.5,-67.75 183.5,-67.75"/>
<text text-anchor="start" x="218.38" y="-72.45" font-family="Times New Roman,serif" font-size="14.00">next</text>
<polygon fill="none" stroke="black" points="154.5,-46.75 154.5,-67.75 183.5,-67.75 183.5,-46.75 154.5,-46.75"/>
<text text-anchor="start" x="162.25" y="-51.45" font-family="Times New Roman,serif" font-size="14.00">15</text>
<polygon fill="none" stroke="black" points="183.5,-46.75 183.5,-67.75 276.5,-67.75 276.5,-46.75 183.5,-46.75"/>
<text text-anchor="start" x="186.5" y="-51.45" font-family="Times New Roman,serif" font-size="14.00">0x1d2474b20f0</text>
<polygon fill="none" stroke="black" points="154.5,-25.75 154.5,-46.75 276.5,-46.75 276.5,-25.75 154.5,-25.75"/>
<text text-anchor="start" x="182.12" y="-30.45" font-family="Times New Roman,serif" font-size="14.00">alamat node</text>
<polygon fill="none" stroke="black" points="154.5,-4.75 154.5,-25.75 276.5,-25.75 276.5,-4.75 154.5,-4.75"/>
<text text-anchor="start" x="171.25" y="-9.45" font-family="Times New Roman,serif" font-size="14.00">0x1d2476e11d0</text>
</g>
<!-- head&#45;&gt;node0 -->
<g id="edge1" class="edge">
<title>head:contents&#45;&gt;node0:id</title>
<path fill="none" stroke="black" d="M103.25,-14.75C121.22,-14.75 128.35,-14.75 142.08,-14.75"/>
<polygon fill="black" stroke="black" points="141.99,-18.25 151.99,-14.75 141.99,-11.25 141.99,-18.25"/>
</g>
<!-- node1 -->
<g id="node3" class="node">
<title>node1</title>
<polygon fill="none" stroke="black" points="328.5,-110.75 328.5,-131.75 357.5,-131.75 357.5,-110.75 328.5,-110.75"/>
<text text-anchor="start" x="331.38" y="-115.45" font-family="Times New Roman,serif" font-size="14.00">data</text>
<polygon fill="none" stroke="black" points="357.5,-110.75 357.5,-131.75 451.5,-131.75 451.5,-110.75 357.5,-110.75"/>
<text text-anchor="start" x="392.88" y="-115.45" font-family="Times New Roman,serif" font-size="14.00">next</text>
<polygon fill="none" stroke="black" points="328.5,-89.75 328.5,-110.75 357.5,-110.75 357.5,-89.75 328.5,-89.75"/>
<text text-anchor="start" x="336.25" y="-94.45" font-family="Times New Roman,serif" font-size="14.00">76</text>
<polygon fill="none" stroke="black" points="357.5,-89.75 357.5,-110.75 451.5,-110.75 451.5,-89.75 357.5,-89.75"/>
<text text-anchor="start" x="360.25" y="-94.45" font-family="Times New Roman,serif" font-size="14.00">0x1d24774c440</text>
<polygon fill="none" stroke="black" points="328.5,-68.75 328.5,-89.75 451.5,-89.75 451.5,-68.75 328.5,-68.75"/>
<text text-anchor="start" x="356.62" y="-73.45" font-family="Times New Roman,serif" font-size="14.00">alamat node</text>
<polygon fill="none" stroke="black" points="328.5,-47.75 328.5,-68.75 451.5,-68.75 451.5,-47.75 328.5,-47.75"/>
<text text-anchor="start" x="346.5" y="-52.45" font-family="Times New Roman,serif" font-size="14.00">0x1d2474b20f0</text>
</g>
<!-- node0&#45;&gt;node1 -->
<g id="edge2" class="edge">
<title>node0:next&#45;&gt;node1:id</title>
<path fill="none" stroke="black" d="M277.5,-57.75C295.2,-57.75 302.22,-57.75 315.75,-57.75"/>
<polygon fill="black" stroke="black" points="315.49,-61.25 325.49,-57.75 315.49,-54.25 315.49,-61.25"/>
</g>
<!-- node2 -->
<g id="node4" class="node">
<title>node2</title>
<polygon fill="none" stroke="black" points="503.5,-153.75 503.5,-174.75 546.5,-174.75 546.5,-153.75 503.5,-153.75"/>
<text text-anchor="start" x="513.38" y="-158.45" font-family="Times New Roman,serif" font-size="14.00">data</text>
<polygon fill="none" stroke="black" points="546.5,-153.75 546.5,-174.75 597.5,-174.75 597.5,-153.75 546.5,-153.75"/>
<text text-anchor="start" x="560.38" y="-158.45" font-family="Times New Roman,serif" font-size="14.00">next</text>
<polygon fill="none" stroke="black" points="503.5,-132.75 503.5,-153.75 546.5,-153.75 546.5,-132.75 503.5,-132.75"/>
<text text-anchor="start" x="521.62" y="-137.45" font-family="Times New Roman,serif" font-size="14.00">5</text>
<polygon fill="none" stroke="black" points="546.5,-132.75 546.5,-153.75 597.5,-153.75 597.5,-132.75 546.5,-132.75"/>
<text text-anchor="start" x="557" y="-137.45" font-family="Times New Roman,serif" font-size="14.00">None</text>
<polygon fill="none" stroke="black" points="503.5,-111.75 503.5,-132.75 597.5,-132.75 597.5,-111.75 503.5,-111.75"/>
<text text-anchor="start" x="517.12" y="-116.45" font-family="Times New Roman,serif" font-size="14.00">alamat node</text>
<polygon fill="none" stroke="black" points="503.5,-90.75 503.5,-111.75 597.5,-111.75 597.5,-90.75 503.5,-90.75"/>
<text text-anchor="start" x="506.25" y="-95.45" font-family="Times New Roman,serif" font-size="14.00">0x1d24774c440</text>
</g>
<!-- node1&#45;&gt;node2 -->
<g id="edge3" class="edge">
<title>node1:next&#45;&gt;node2:id</title>
<path fill="none" stroke="black" d="M453,-100.75C470.7,-100.75 477.72,-100.75 491.25,-100.75"/>
<polygon fill="black" stroke="black" points="490.99,-104.25 500.99,-100.75 490.99,-97.25 490.99,-104.25"/>
</g>
<!-- node3 -->
<g id="node5" class="node">
<title>node3</title>
<text text-anchor="middle" x="668.5" y="-138.32" font-family="Times New Roman,serif" font-size="14.00">None</text>
</g>
<!-- node2&#45;&gt;node3 -->
<g id="edge4" class="edge">
<title>node2:next&#45;&gt;node3</title>
<path fill="none" stroke="black" d="M598.5,-143.75C608.86,-143.75 620.09,-143.75 630.42,-143.75"/>
<polygon fill="black" stroke="black" points="630.1,-147.25 640.1,-143.75 630.1,-140.25 630.1,-147.25"/>
</g>
</g>
</svg>
