<?xml version="1.0" encoding="UTF-8" standalone="no"?>
<!DOCTYPE svg PUBLIC "-//W3C//DTD SVG 1.1//EN"
 "http://www.w3.org/Graphics/SVG/1.1/DTD/svg11.dtd">
<!-- Generated by graphviz version 8.1.0 (20230707.0739)
 -->
<!-- Pages: 1 -->
<svg width="62pt" height="107pt"
 viewBox="0.00 0.00 62.00 107.20" xmlns="http://www.w3.org/2000/svg" xmlns:xlink="http://www.w3.org/1999/xlink">
<g id="graph0" class="graph" transform="scale(1 1) rotate(0) translate(4 103.2)">
<polygon fill="white" stroke="none" points="-4,4 -4,-103.2 58,-103.2 58,4 -4,4"/>
<!-- ArrayStack -->
<g id="node1" class="node">
<title>ArrayStack</title>
<polygon fill="none" stroke="black" points="14.67,-72.4 14.67,-95.2 39.33,-95.2 39.33,-72.4 14.67,-72.4"/>
<text text-anchor="start" x="20" y="-79.6" font-family="Times,serif" font-size="14.00">57</text>
<polygon fill="none" stroke="black" points="14.67,-49.6 14.67,-72.4 39.33,-72.4 39.33,-49.6 14.67,-49.6"/>
<text text-anchor="start" x="17.67" y="-56.8" font-family="Times,serif" font-size="14.00">&#45;10</text>
<polygon fill="none" stroke="black" points="14.67,-26.8 14.67,-49.6 39.33,-49.6 39.33,-26.8 14.67,-26.8"/>
<text text-anchor="start" x="20" y="-34" font-family="Times,serif" font-size="14.00">80</text>
<polygon fill="none" stroke="black" points="14.67,-4 14.67,-26.8 39.33,-26.8 39.33,-4 14.67,-4"/>
<text text-anchor="start" x="23.5" y="-11.2" font-family="Times,serif" font-size="14.00">5</text>
</g>
</g>
</svg>
