<?xml version="1.0" encoding="UTF-8" standalone="no"?>
<!DOCTYPE svg PUBLIC "-//W3C//DTD SVG 1.1//EN"
 "http://www.w3.org/Graphics/SVG/1.1/DTD/svg11.dtd">
<!-- Generated by graphviz version 8.1.0 (20230707.0739)
 -->
<!-- Pages: 1 -->
<svg width="241pt" height="44pt"
 viewBox="0.00 0.00 240.66 44.00" xmlns="http://www.w3.org/2000/svg" xmlns:xlink="http://www.w3.org/1999/xlink">
<g id="graph0" class="graph" transform="scale(1 1) rotate(0) translate(4 40)">
<polygon fill="white" stroke="none" points="-4,4 -4,-40 236.66,-40 236.66,4 -4,4"/>
<!-- array -->
<g id="node1" class="node">
<title>array</title>
<polygon fill="none" stroke="black" points="8,-6.6 8,-29.4 21,-29.4 21,-6.6 8,-6.6"/>
<text text-anchor="start" x="11" y="-13.8" font-family="Times,serif" font-size="14.00">5</text>
<polygon fill="none" stroke="black" points="21,-6.6 21,-29.4 41,-29.4 41,-6.6 21,-6.6"/>
<text text-anchor="start" x="24" y="-13.8" font-family="Times,serif" font-size="14.00">80</text>
<polygon fill="none" stroke="black" points="41,-6.6 41,-29.4 65.66,-29.4 65.66,-6.6 41,-6.6"/>
<text text-anchor="start" x="44" y="-13.8" font-family="Times,serif" font-size="14.00">&#45;10</text>
<polygon fill="none" stroke="black" points="65.66,-6.6 65.66,-29.4 85.66,-29.4 85.66,-6.6 65.66,-6.6"/>
<text text-anchor="start" x="68.66" y="-13.8" font-family="Times,serif" font-size="14.00">57</text>
<polygon fill="none" stroke="black" points="85.66,-6.6 85.66,-29.4 224.66,-29.4 224.66,-6.6 85.66,-6.6"/>
<text text-anchor="start" x="88.66" y="-13.8" font-family="Times,serif" font-size="14.00">4625478292286210048</text>
</g>
</g>
</svg>
