<?xml version="1.0" encoding="UTF-8" standalone="no"?>
<!DOCTYPE svg PUBLIC "-//W3C//DTD SVG 1.1//EN"
 "http://www.w3.org/Graphics/SVG/1.1/DTD/svg11.dtd">
<!-- Generated by graphviz version 2.43.0 (0)
 -->
<!-- Title: %3 Pages: 1 -->
<svg width="854pt" height="332pt"
 viewBox="0.00 0.00 854.00 332.00" xmlns="http://www.w3.org/2000/svg" xmlns:xlink="http://www.w3.org/1999/xlink">
<g id="graph0" class="graph" transform="scale(1 1) rotate(0) translate(4 328)">
<title>%3</title>
<polygon fill="white" stroke="transparent" points="-4,4 -4,-328 850,-328 850,4 -4,4"/>
<!-- node0 -->
<g id="node1" class="node">
<title>node0</title>
<ellipse fill="none" stroke="black" cx="531" cy="-306" rx="27" ry="18"/>
<text text-anchor="middle" x="531" y="-302.3" font-family="Times,serif" font-size="14.00">s</text>
</g>
<!-- node1 -->
<g id="node2" class="node">
<title>node1</title>
<ellipse fill="none" stroke="black" cx="423" cy="-234" rx="27" ry="18"/>
<text text-anchor="middle" x="423" y="-230.3" font-family="Times,serif" font-size="14.00">t</text>
</g>
<!-- node0&#45;&gt;node1 -->
<g id="edge1" class="edge">
<title>node0&#45;&gt;node1</title>
<path fill="none" stroke="black" d="M512.19,-292.81C495,-281.67 469.38,-265.06 450.01,-252.5"/>
<polygon fill="black" stroke="black" points="451.89,-249.56 441.6,-247.05 448.08,-255.43 451.89,-249.56"/>
</g>
<!-- node2 -->
<g id="node3" class="node">
<title>node2</title>
<ellipse fill="none" stroke="black" cx="639" cy="-234" rx="27" ry="18"/>
<text text-anchor="middle" x="639" y="-230.3" font-family="Times,serif" font-size="14.00">r</text>
</g>
<!-- node0&#45;&gt;node2 -->
<g id="edge2" class="edge">
<title>node0&#45;&gt;node2</title>
<path fill="none" stroke="black" d="M549.81,-292.81C567,-281.67 592.62,-265.06 611.99,-252.5"/>
<polygon fill="black" stroke="black" points="613.92,-255.43 620.4,-247.05 610.11,-249.56 613.92,-255.43"/>
</g>
<!-- node3 -->
<g id="node4" class="node">
<title>node3</title>
<ellipse fill="none" stroke="black" cx="207" cy="-162" rx="27" ry="18"/>
<text text-anchor="middle" x="207" y="-158.3" font-family="Times,serif" font-size="14.00">u</text>
</g>
<!-- node1&#45;&gt;node3 -->
<g id="edge3" class="edge">
<title>node1&#45;&gt;node3</title>
<path fill="none" stroke="black" d="M399.06,-225.24C360.44,-212.73 284.28,-188.05 240.36,-173.81"/>
<polygon fill="black" stroke="black" points="241.31,-170.44 230.72,-170.69 239.15,-177.1 241.31,-170.44"/>
</g>
<!-- node4 -->
<g id="node5" class="node">
<title>node4</title>
<ellipse fill="none" stroke="black" cx="423" cy="-162" rx="27" ry="18"/>
<text text-anchor="middle" x="423" y="-158.3" font-family="Times,serif" font-size="14.00">k</text>
</g>
<!-- node1&#45;&gt;node4 -->
<g id="edge4" class="edge">
<title>node1&#45;&gt;node4</title>
<path fill="none" stroke="black" d="M423,-215.7C423,-207.98 423,-198.71 423,-190.11"/>
<polygon fill="black" stroke="black" points="426.5,-190.1 423,-180.1 419.5,-190.1 426.5,-190.1"/>
</g>
<!-- node5 -->
<g id="node6" class="node">
<title>node5</title>
<ellipse fill="none" stroke="black" cx="639" cy="-162" rx="27" ry="18"/>
<text text-anchor="middle" x="639" y="-158.3" font-family="Times,serif" font-size="14.00">t</text>
</g>
<!-- node2&#45;&gt;node5 -->
<g id="edge5" class="edge">
<title>node2&#45;&gt;node5</title>
<path fill="none" stroke="black" d="M639,-215.7C639,-207.98 639,-198.71 639,-190.11"/>
<polygon fill="black" stroke="black" points="642.5,-190.1 639,-180.1 635.5,-190.1 642.5,-190.1"/>
</g>
<!-- node6 -->
<g id="node7" class="node">
<title>node6</title>
<ellipse fill="none" stroke="black" cx="747" cy="-162" rx="27" ry="18"/>
<text text-anchor="middle" x="747" y="-158.3" font-family="Times,serif" font-size="14.00">u</text>
</g>
<!-- node2&#45;&gt;node6 -->
<g id="edge6" class="edge">
<title>node2&#45;&gt;node6</title>
<path fill="none" stroke="black" d="M657.81,-220.81C675,-209.67 700.62,-193.06 719.99,-180.5"/>
<polygon fill="black" stroke="black" points="721.92,-183.43 728.4,-175.05 718.11,-177.56 721.92,-183.43"/>
</g>
<!-- node7 -->
<g id="node8" class="node">
<title>node7</title>
<ellipse fill="none" stroke="black" cx="99" cy="-90" rx="27" ry="18"/>
<text text-anchor="middle" x="99" y="-86.3" font-family="Times,serif" font-size="14.00">r</text>
</g>
<!-- node3&#45;&gt;node7 -->
<g id="edge7" class="edge">
<title>node3&#45;&gt;node7</title>
<path fill="none" stroke="black" d="M188.19,-148.81C171,-137.67 145.38,-121.06 126.01,-108.5"/>
<polygon fill="black" stroke="black" points="127.89,-105.56 117.6,-103.05 124.08,-111.43 127.89,-105.56"/>
</g>
<!-- node8 -->
<g id="node9" class="node">
<title>node8</title>
<ellipse fill="none" stroke="black" cx="207" cy="-90" rx="27" ry="18"/>
<text text-anchor="middle" x="207" y="-86.3" font-family="Times,serif" font-size="14.00">d</text>
</g>
<!-- node3&#45;&gt;node8 -->
<g id="edge8" class="edge">
<title>node3&#45;&gt;node8</title>
<path fill="none" stroke="black" d="M207,-143.7C207,-135.98 207,-126.71 207,-118.11"/>
<polygon fill="black" stroke="black" points="210.5,-118.1 207,-108.1 203.5,-118.1 210.5,-118.1"/>
</g>
<!-- node9 -->
<g id="node10" class="node">
<title>node9</title>
<ellipse fill="none" stroke="black" cx="387" cy="-90" rx="27" ry="18"/>
<text text-anchor="middle" x="387" y="-86.3" font-family="Times,serif" font-size="14.00">a</text>
</g>
<!-- node4&#45;&gt;node9 -->
<g id="edge9" class="edge">
<title>node4&#45;&gt;node9</title>
<path fill="none" stroke="black" d="M414.65,-144.76C410.29,-136.28 404.85,-125.71 399.96,-116.2"/>
<polygon fill="black" stroke="black" points="402.99,-114.44 395.3,-107.15 396.77,-117.64 402.99,-114.44"/>
</g>
<!-- node10 -->
<g id="node11" class="node">
<title>node10</title>
<ellipse fill="none" stroke="black" cx="459" cy="-90" rx="27" ry="18"/>
<text text-anchor="middle" x="459" y="-86.3" font-family="Times,serif" font-size="14.00">t</text>
</g>
<!-- node4&#45;&gt;node10 -->
<g id="edge10" class="edge">
<title>node4&#45;&gt;node10</title>
<path fill="none" stroke="black" d="M431.35,-144.76C435.71,-136.28 441.15,-125.71 446.04,-116.2"/>
<polygon fill="black" stroke="black" points="449.23,-117.64 450.7,-107.15 443.01,-114.44 449.23,-117.64"/>
</g>
<!-- node11 -->
<g id="node12" class="node">
<title>node11</title>
<ellipse fill="none" stroke="black" cx="603" cy="-90" rx="27" ry="18"/>
<text text-anchor="middle" x="603" y="-86.3" font-family="Times,serif" font-size="14.00">a</text>
</g>
<!-- node5&#45;&gt;node11 -->
<g id="edge11" class="edge">
<title>node5&#45;&gt;node11</title>
<path fill="none" stroke="black" d="M630.65,-144.76C626.29,-136.28 620.85,-125.71 615.96,-116.2"/>
<polygon fill="black" stroke="black" points="618.99,-114.44 611.3,-107.15 612.77,-117.64 618.99,-114.44"/>
</g>
<!-- node12 -->
<g id="node13" class="node">
<title>node12</title>
<text text-anchor="middle" x="675" y="-86.3" font-family="Times,serif" font-size="14.00">NULL</text>
</g>
<!-- node5&#45;&gt;node12 -->
<g id="edge12" class="edge">
<title>node5&#45;&gt;node12</title>
<path fill="none" stroke="black" d="M647.35,-144.76C651.54,-136.61 656.73,-126.53 661.47,-117.31"/>
<polygon fill="black" stroke="black" points="664.73,-118.62 666.19,-108.12 658.51,-115.42 664.73,-118.62"/>
</g>
<!-- node13 -->
<g id="node14" class="node">
<title>node13</title>
<text text-anchor="middle" x="747" y="-86.3" font-family="Times,serif" font-size="14.00">NULL</text>
</g>
<!-- node6&#45;&gt;node13 -->
<g id="edge13" class="edge">
<title>node6&#45;&gt;node13</title>
<path fill="none" stroke="black" d="M747,-143.7C747,-135.98 747,-126.71 747,-118.11"/>
<polygon fill="black" stroke="black" points="750.5,-118.1 747,-108.1 743.5,-118.1 750.5,-118.1"/>
</g>
<!-- node14 -->
<g id="node15" class="node">
<title>node14</title>
<text text-anchor="middle" x="819" y="-86.3" font-family="Times,serif" font-size="14.00">NULL</text>
</g>
<!-- node6&#45;&gt;node14 -->
<g id="edge14" class="edge">
<title>node6&#45;&gt;node14</title>
<path fill="none" stroke="black" d="M761.57,-146.83C770.92,-137.75 783.3,-125.71 794.17,-115.14"/>
<polygon fill="black" stroke="black" points="796.67,-117.59 801.4,-108.11 791.79,-112.57 796.67,-117.59"/>
</g>
<!-- node15 -->
<g id="node16" class="node">
<title>node15</title>
<text text-anchor="middle" x="27" y="-14.3" font-family="Times,serif" font-size="14.00">NULL</text>
</g>
<!-- node7&#45;&gt;node15 -->
<g id="edge15" class="edge">
<title>node7&#45;&gt;node15</title>
<path fill="none" stroke="black" d="M84.43,-74.83C75.08,-65.75 62.7,-53.71 51.83,-43.14"/>
<polygon fill="black" stroke="black" points="54.21,-40.57 44.6,-36.11 49.33,-45.59 54.21,-40.57"/>
</g>
<!-- node16 -->
<g id="node17" class="node">
<title>node16</title>
<text text-anchor="middle" x="99" y="-14.3" font-family="Times,serif" font-size="14.00">NULL</text>
</g>
<!-- node7&#45;&gt;node16 -->
<g id="edge16" class="edge">
<title>node7&#45;&gt;node16</title>
<path fill="none" stroke="black" d="M99,-71.7C99,-63.98 99,-54.71 99,-46.11"/>
<polygon fill="black" stroke="black" points="102.5,-46.1 99,-36.1 95.5,-46.1 102.5,-46.1"/>
</g>
<!-- node17 -->
<g id="node18" class="node">
<title>node17</title>
<text text-anchor="middle" x="171" y="-14.3" font-family="Times,serif" font-size="14.00">NULL</text>
</g>
<!-- node8&#45;&gt;node17 -->
<g id="edge17" class="edge">
<title>node8&#45;&gt;node17</title>
<path fill="none" stroke="black" d="M198.65,-72.76C194.46,-64.61 189.27,-54.53 184.53,-45.31"/>
<polygon fill="black" stroke="black" points="187.49,-43.42 179.81,-36.12 181.27,-46.62 187.49,-43.42"/>
</g>
<!-- node18 -->
<g id="node19" class="node">
<title>node18</title>
<text text-anchor="middle" x="243" y="-14.3" font-family="Times,serif" font-size="14.00">NULL</text>
</g>
<!-- node8&#45;&gt;node18 -->
<g id="edge18" class="edge">
<title>node8&#45;&gt;node18</title>
<path fill="none" stroke="black" d="M215.35,-72.76C219.54,-64.61 224.73,-54.53 229.47,-45.31"/>
<polygon fill="black" stroke="black" points="232.73,-46.62 234.19,-36.12 226.51,-43.42 232.73,-46.62"/>
</g>
<!-- node19 -->
<g id="node20" class="node">
<title>node19</title>
<text text-anchor="middle" x="315" y="-14.3" font-family="Times,serif" font-size="14.00">NULL</text>
</g>
<!-- node9&#45;&gt;node19 -->
<g id="edge19" class="edge">
<title>node9&#45;&gt;node19</title>
<path fill="none" stroke="black" d="M372.43,-74.83C363.08,-65.75 350.7,-53.71 339.83,-43.14"/>
<polygon fill="black" stroke="black" points="342.21,-40.57 332.6,-36.11 337.33,-45.59 342.21,-40.57"/>
</g>
<!-- node20 -->
<g id="node21" class="node">
<title>node20</title>
<text text-anchor="middle" x="387" y="-14.3" font-family="Times,serif" font-size="14.00">NULL</text>
</g>
<!-- node9&#45;&gt;node20 -->
<g id="edge20" class="edge">
<title>node9&#45;&gt;node20</title>
<path fill="none" stroke="black" d="M387,-71.7C387,-63.98 387,-54.71 387,-46.11"/>
<polygon fill="black" stroke="black" points="390.5,-46.1 387,-36.1 383.5,-46.1 390.5,-46.1"/>
</g>
<!-- node21 -->
<g id="node22" class="node">
<title>node21</title>
<text text-anchor="middle" x="459" y="-14.3" font-family="Times,serif" font-size="14.00">NULL</text>
</g>
<!-- node10&#45;&gt;node21 -->
<g id="edge21" class="edge">
<title>node10&#45;&gt;node21</title>
<path fill="none" stroke="black" d="M459,-71.7C459,-63.98 459,-54.71 459,-46.11"/>
<polygon fill="black" stroke="black" points="462.5,-46.1 459,-36.1 455.5,-46.1 462.5,-46.1"/>
</g>
<!-- node22 -->
<g id="node23" class="node">
<title>node22</title>
<text text-anchor="middle" x="531" y="-14.3" font-family="Times,serif" font-size="14.00">NULL</text>
</g>
<!-- node10&#45;&gt;node22 -->
<g id="edge22" class="edge">
<title>node10&#45;&gt;node22</title>
<path fill="none" stroke="black" d="M473.57,-74.83C482.92,-65.75 495.3,-53.71 506.17,-43.14"/>
<polygon fill="black" stroke="black" points="508.67,-45.59 513.4,-36.11 503.79,-40.57 508.67,-45.59"/>
</g>
<!-- node23 -->
<g id="node24" class="node">
<title>node23</title>
<text text-anchor="middle" x="603" y="-14.3" font-family="Times,serif" font-size="14.00">NULL</text>
</g>
<!-- node11&#45;&gt;node23 -->
<g id="edge23" class="edge">
<title>node11&#45;&gt;node23</title>
<path fill="none" stroke="black" d="M603,-71.7C603,-63.98 603,-54.71 603,-46.11"/>
<polygon fill="black" stroke="black" points="606.5,-46.1 603,-36.1 599.5,-46.1 606.5,-46.1"/>
</g>
<!-- node24 -->
<g id="node25" class="node">
<title>node24</title>
<text text-anchor="middle" x="675" y="-14.3" font-family="Times,serif" font-size="14.00">NULL</text>
</g>
<!-- node11&#45;&gt;node24 -->
<g id="edge24" class="edge">
<title>node11&#45;&gt;node24</title>
<path fill="none" stroke="black" d="M617.57,-74.83C626.92,-65.75 639.3,-53.71 650.17,-43.14"/>
<polygon fill="black" stroke="black" points="652.67,-45.59 657.4,-36.11 647.79,-40.57 652.67,-45.59"/>
</g>
</g>
</svg>
