<?xml version="1.0" encoding="UTF-8" standalone="no"?>
<!DOCTYPE svg PUBLIC "-//W3C//DTD SVG 1.1//EN"
 "http://www.w3.org/Graphics/SVG/1.1/DTD/svg11.dtd">
<!-- Generated by graphviz version 2.43.0 (0)
 -->
<!-- Title: %3 Pages: 1 -->
<svg width="1175pt" height="229pt"
 viewBox="0.00 0.00 1175.00 229.00" xmlns="http://www.w3.org/2000/svg" xmlns:xlink="http://www.w3.org/1999/xlink">
<g id="graph0" class="graph" transform="scale(1 1) rotate(0) translate(4 225)">
<title>%3</title>
<polygon fill="white" stroke="transparent" points="-4,4 -4,-225 1171,-225 1171,4 -4,4"/>
<!-- head -->
<g id="node1" class="node">
<title>head</title>
<polygon fill="none" stroke="black" points="8.5,-25 8.5,-46 105.5,-46 105.5,-25 8.5,-25"/>
<text text-anchor="start" x="44" y="-31.8" font-family="Times,serif" font-size="14.00">head</text>
<polygon fill="none" stroke="black" points="8.5,-4 8.5,-25 105.5,-25 105.5,-4 8.5,-4"/>
<text text-anchor="start" x="11.5" y="-10.8" font-family="Times,serif" font-size="14.00">0x7ca46c4bfb80</text>
</g>
<!-- node0 -->
<g id="node2" class="node">
<title>node0</title>
<polygon fill="none" stroke="black" points="157,-67 157,-88 221,-88 221,-67 157,-67"/>
<text text-anchor="start" x="160" y="-73.8" font-family="Times,serif" font-size="14.00">coefficient</text>
<polygon fill="none" stroke="black" points="221,-67 221,-88 264,-88 264,-67 221,-67"/>
<text text-anchor="start" x="224" y="-73.8" font-family="Times,serif" font-size="14.00">degree</text>
<polygon fill="none" stroke="black" points="264,-67 264,-88 361,-88 361,-67 264,-67"/>
<text text-anchor="start" x="300.5" y="-73.8" font-family="Times,serif" font-size="14.00">next</text>
<polygon fill="none" stroke="black" points="157,-46 157,-67 221,-67 221,-46 157,-46"/>
<text text-anchor="start" x="185.5" y="-52.8" font-family="Times,serif" font-size="14.00">1</text>
<polygon fill="none" stroke="black" points="221,-46 221,-67 264,-67 264,-46 221,-46"/>
<text text-anchor="start" x="239" y="-52.8" font-family="Times,serif" font-size="14.00">5</text>
<polygon fill="none" stroke="black" points="264,-46 264,-67 361,-67 361,-46 264,-46"/>
<text text-anchor="start" x="267" y="-52.8" font-family="Times,serif" font-size="14.00">0x7ca46c4bf310</text>
<polygon fill="none" stroke="black" points="157,-25 157,-46 361,-46 361,-25 157,-25"/>
<text text-anchor="start" x="225.5" y="-31.8" font-family="Times,serif" font-size="14.00">alamat node</text>
<polygon fill="none" stroke="black" points="157,-4 157,-25 361,-25 361,-4 157,-4"/>
<text text-anchor="start" x="213.5" y="-10.8" font-family="Times,serif" font-size="14.00">0x7ca46c4bfb80</text>
</g>
<!-- head&#45;&gt;node0 -->
<g id="edge1" class="edge">
<title>head:contents&#45;&gt;node0:id</title>
<path fill="none" stroke="black" d="M106.5,-14C124.72,-14 131.62,-14 145.95,-14"/>
<polygon fill="black" stroke="black" points="146,-17.5 156,-14 146,-10.5 146,-17.5"/>
</g>
<!-- node1 -->
<g id="node3" class="node">
<title>node1</title>
<polygon fill="none" stroke="black" points="413.5,-110 413.5,-131 477.5,-131 477.5,-110 413.5,-110"/>
<text text-anchor="start" x="416.5" y="-116.8" font-family="Times,serif" font-size="14.00">coefficient</text>
<polygon fill="none" stroke="black" points="477.5,-110 477.5,-131 520.5,-131 520.5,-110 477.5,-110"/>
<text text-anchor="start" x="480.5" y="-116.8" font-family="Times,serif" font-size="14.00">degree</text>
<polygon fill="none" stroke="black" points="520.5,-110 520.5,-131 618.5,-131 618.5,-110 520.5,-110"/>
<text text-anchor="start" x="557.5" y="-116.8" font-family="Times,serif" font-size="14.00">next</text>
<polygon fill="none" stroke="black" points="413.5,-89 413.5,-110 477.5,-110 477.5,-89 413.5,-89"/>
<text text-anchor="start" x="442" y="-95.8" font-family="Times,serif" font-size="14.00">3</text>
<polygon fill="none" stroke="black" points="477.5,-89 477.5,-110 520.5,-110 520.5,-89 477.5,-89"/>
<text text-anchor="start" x="495.5" y="-95.8" font-family="Times,serif" font-size="14.00">4</text>
<polygon fill="none" stroke="black" points="520.5,-89 520.5,-110 618.5,-110 618.5,-89 520.5,-89"/>
<text text-anchor="start" x="523.5" y="-95.8" font-family="Times,serif" font-size="14.00">0x7ca46c4be830</text>
<polygon fill="none" stroke="black" points="413.5,-68 413.5,-89 618.5,-89 618.5,-68 413.5,-68"/>
<text text-anchor="start" x="482.5" y="-74.8" font-family="Times,serif" font-size="14.00">alamat node</text>
<polygon fill="none" stroke="black" points="413.5,-47 413.5,-68 618.5,-68 618.5,-47 413.5,-47"/>
<text text-anchor="start" x="470.5" y="-53.8" font-family="Times,serif" font-size="14.00">0x7ca46c4bf310</text>
</g>
<!-- node0&#45;&gt;node1 -->
<g id="edge2" class="edge">
<title>node0:next&#45;&gt;node1:id</title>
<path fill="none" stroke="black" d="M362,-57C380.59,-57 387.63,-57 402.25,-57"/>
<polygon fill="black" stroke="black" points="402.5,-60.5 412.5,-57 402.5,-53.5 402.5,-60.5"/>
</g>
<!-- node2 -->
<g id="node4" class="node">
<title>node2</title>
<polygon fill="none" stroke="black" points="670,-153 670,-174 734,-174 734,-153 670,-153"/>
<text text-anchor="start" x="673" y="-159.8" font-family="Times,serif" font-size="14.00">coefficient</text>
<polygon fill="none" stroke="black" points="734,-153 734,-174 777,-174 777,-153 734,-153"/>
<text text-anchor="start" x="737" y="-159.8" font-family="Times,serif" font-size="14.00">degree</text>
<polygon fill="none" stroke="black" points="777,-153 777,-174 874,-174 874,-153 777,-153"/>
<text text-anchor="start" x="813.5" y="-159.8" font-family="Times,serif" font-size="14.00">next</text>
<polygon fill="none" stroke="black" points="670,-132 670,-153 734,-153 734,-132 670,-132"/>
<text text-anchor="start" x="695" y="-138.8" font-family="Times,serif" font-size="14.00">22</text>
<polygon fill="none" stroke="black" points="734,-132 734,-153 777,-153 777,-132 734,-132"/>
<text text-anchor="start" x="752" y="-138.8" font-family="Times,serif" font-size="14.00">2</text>
<polygon fill="none" stroke="black" points="777,-132 777,-153 874,-153 874,-132 777,-132"/>
<text text-anchor="start" x="780" y="-138.8" font-family="Times,serif" font-size="14.00">0x7ca46c4bfd30</text>
<polygon fill="none" stroke="black" points="670,-111 670,-132 874,-132 874,-111 670,-111"/>
<text text-anchor="start" x="738.5" y="-117.8" font-family="Times,serif" font-size="14.00">alamat node</text>
<polygon fill="none" stroke="black" points="670,-90 670,-111 874,-111 874,-90 670,-90"/>
<text text-anchor="start" x="726" y="-96.8" font-family="Times,serif" font-size="14.00">0x7ca46c4be830</text>
</g>
<!-- node1&#45;&gt;node2 -->
<g id="edge3" class="edge">
<title>node1:next&#45;&gt;node2:id</title>
<path fill="none" stroke="black" d="M619.5,-100C637.72,-100 644.62,-100 658.95,-100"/>
<polygon fill="black" stroke="black" points="659,-103.5 669,-100 659,-96.5 659,-103.5"/>
</g>
<!-- node3 -->
<g id="node5" class="node">
<title>node3</title>
<polygon fill="none" stroke="black" points="926.5,-196 926.5,-217 990.5,-217 990.5,-196 926.5,-196"/>
<text text-anchor="start" x="929.5" y="-202.8" font-family="Times,serif" font-size="14.00">coefficient</text>
<polygon fill="none" stroke="black" points="990.5,-196 990.5,-217 1033.5,-217 1033.5,-196 990.5,-196"/>
<text text-anchor="start" x="993.5" y="-202.8" font-family="Times,serif" font-size="14.00">degree</text>
<polygon fill="none" stroke="black" points="1033.5,-196 1033.5,-217 1069.5,-217 1069.5,-196 1033.5,-196"/>
<text text-anchor="start" x="1039.5" y="-202.8" font-family="Times,serif" font-size="14.00">next</text>
<polygon fill="none" stroke="black" points="926.5,-175 926.5,-196 990.5,-196 990.5,-175 926.5,-175"/>
<text text-anchor="start" x="955" y="-181.8" font-family="Times,serif" font-size="14.00">4</text>
<polygon fill="none" stroke="black" points="990.5,-175 990.5,-196 1033.5,-196 1033.5,-175 990.5,-175"/>
<text text-anchor="start" x="1008.5" y="-181.8" font-family="Times,serif" font-size="14.00">0</text>
<polygon fill="none" stroke="black" points="1033.5,-175 1033.5,-196 1069.5,-196 1069.5,-175 1033.5,-175"/>
<text text-anchor="start" x="1036.5" y="-181.8" font-family="Times,serif" font-size="14.00">None</text>
<polygon fill="none" stroke="black" points="926.5,-154 926.5,-175 1069.5,-175 1069.5,-154 926.5,-154"/>
<text text-anchor="start" x="964.5" y="-160.8" font-family="Times,serif" font-size="14.00">alamat node</text>
<polygon fill="none" stroke="black" points="926.5,-133 926.5,-154 1069.5,-154 1069.5,-133 926.5,-133"/>
<text text-anchor="start" x="952.5" y="-139.8" font-family="Times,serif" font-size="14.00">0x7ca46c4bfd30</text>
</g>
<!-- node2&#45;&gt;node3 -->
<g id="edge4" class="edge">
<title>node2:next&#45;&gt;node3:id</title>
<path fill="none" stroke="black" d="M875,-143C893.59,-143 900.63,-143 915.25,-143"/>
<polygon fill="black" stroke="black" points="915.5,-146.5 925.5,-143 915.5,-139.5 915.5,-146.5"/>
</g>
<!-- node4 -->
<g id="node6" class="node">
<title>node4</title>
<text text-anchor="middle" x="1140" y="-182.3" font-family="Times,serif" font-size="14.00">None</text>
</g>
<!-- node3&#45;&gt;node4 -->
<g id="edge5" class="edge">
<title>node3:next&#45;&gt;node4</title>
<path fill="none" stroke="black" d="M1070.5,-186C1081.02,-186 1092.46,-186 1102.92,-186"/>
<polygon fill="black" stroke="black" points="1102.98,-189.5 1112.98,-186 1102.98,-182.5 1102.98,-189.5"/>
</g>
</g>
</svg>
