<?xml version="1.0" encoding="UTF-8" standalone="no"?>
<!DOCTYPE svg PUBLIC "-//W3C//DTD SVG 1.1//EN"
 "http://www.w3.org/Graphics/SVG/1.1/DTD/svg11.dtd">
<!-- Generated by graphviz version 8.1.0 (20230707.0739)
 -->
<!-- Pages: 1 -->
<svg width="566pt" height="260pt"
 viewBox="0.00 0.00 566.00 260.00" xmlns="http://www.w3.org/2000/svg" xmlns:xlink="http://www.w3.org/1999/xlink">
<g id="graph0" class="graph" transform="scale(1 1) rotate(0) translate(4 256)">
<polygon fill="white" stroke="none" points="-4,4 -4,-256 562,-256 562,4 -4,4"/>
<!-- root -->
<g id="node1" class="node">
<title>root</title>
<ellipse fill="none" stroke="black" cx="279" cy="-234" rx="27" ry="18"/>
<text text-anchor="middle" x="279" y="-229.8" font-family="Times,serif" font-size="14.00">10</text>
</g>
<!-- root&#45;&gt;left -->
<g id="node2" class="node">
<title>root&#45;&gt;left</title>
<ellipse fill="none" stroke="black" cx="207" cy="-162" rx="27" ry="18"/>
<text text-anchor="middle" x="207" y="-157.8" font-family="Times,serif" font-size="14.00">5</text>
</g>
<!-- root&#45;&gt;root&#45;&gt;left -->
<g id="edge1" class="edge">
<title>root&#45;&gt;root&#45;&gt;left</title>
<path fill="none" stroke="black" d="M264.08,-218.5C254.14,-208.83 240.88,-195.94 229.65,-185.02"/>
<polygon fill="black" stroke="black" points="232.51,-182.95 222.9,-178.49 227.63,-187.97 232.51,-182.95"/>
</g>
<!-- root&#45;&gt;right -->
<g id="node9" class="node">
<title>root&#45;&gt;right</title>
<ellipse fill="none" stroke="black" cx="351" cy="-162" rx="27" ry="18"/>
<text text-anchor="middle" x="351" y="-157.8" font-family="Times,serif" font-size="14.00">27</text>
</g>
<!-- root&#45;&gt;root&#45;&gt;right -->
<g id="edge14" class="edge">
<title>root&#45;&gt;root&#45;&gt;right</title>
<path fill="none" stroke="black" d="M293.92,-218.5C303.86,-208.83 317.12,-195.94 328.35,-185.02"/>
<polygon fill="black" stroke="black" points="330.37,-187.97 335.1,-178.49 325.49,-182.95 330.37,-187.97"/>
</g>
<!-- root&#45;&gt;left&#45;&gt;left -->
<g id="node3" class="node">
<title>root&#45;&gt;left&#45;&gt;left</title>
<ellipse fill="none" stroke="black" cx="99" cy="-90" rx="27" ry="18"/>
<text text-anchor="middle" x="99" y="-85.8" font-family="Times,serif" font-size="14.00">3</text>
</g>
<!-- root&#45;&gt;left&#45;&gt;root&#45;&gt;left&#45;&gt;left -->
<g id="edge2" class="edge">
<title>root&#45;&gt;left&#45;&gt;root&#45;&gt;left&#45;&gt;left</title>
<path fill="none" stroke="black" d="M188.19,-148.81C171.33,-137.88 146.38,-121.71 127.15,-109.24"/>
<polygon fill="black" stroke="black" points="129.25,-105.79 118.96,-103.29 125.45,-111.66 129.25,-105.79"/>
</g>
<!-- root&#45;&gt;left&#45;&gt;right -->
<g id="node6" class="node">
<title>root&#45;&gt;left&#45;&gt;right</title>
<ellipse fill="none" stroke="black" cx="207" cy="-90" rx="27" ry="18"/>
<text text-anchor="middle" x="207" y="-85.8" font-family="Times,serif" font-size="14.00">8</text>
</g>
<!-- root&#45;&gt;left&#45;&gt;root&#45;&gt;left&#45;&gt;right -->
<g id="edge7" class="edge">
<title>root&#45;&gt;left&#45;&gt;root&#45;&gt;left&#45;&gt;right</title>
<path fill="none" stroke="black" d="M207,-143.7C207,-136.24 207,-127.32 207,-118.97"/>
<polygon fill="black" stroke="black" points="210.5,-119.1 207,-109.1 203.5,-119.1 210.5,-119.1"/>
</g>
<!-- root&#45;&gt;left&#45;&gt;left&#45;&gt;left -->
<g id="node4" class="node">
<title>root&#45;&gt;left&#45;&gt;left&#45;&gt;left</title>
<text text-anchor="middle" x="27" y="-13.8" font-family="Times,serif" font-size="14.00">NULL</text>
</g>
<!-- root&#45;&gt;left&#45;&gt;left&#45;&gt;root&#45;&gt;left&#45;&gt;left&#45;&gt;left -->
<g id="edge3" class="edge">
<title>root&#45;&gt;left&#45;&gt;left&#45;&gt;root&#45;&gt;left&#45;&gt;left&#45;&gt;left</title>
<path fill="none" stroke="black" d="M84.08,-74.5C74.89,-65.56 62.87,-53.87 52.23,-43.53"/>
<polygon fill="black" stroke="black" points="55.04,-41.41 45.43,-36.95 50.17,-46.43 55.04,-41.41"/>
</g>
<!-- root&#45;&gt;left&#45;&gt;left&#45;&gt;right -->
<g id="node5" class="node">
<title>root&#45;&gt;left&#45;&gt;left&#45;&gt;right</title>
<text text-anchor="middle" x="99" y="-13.8" font-family="Times,serif" font-size="14.00">NULL</text>
</g>
<!-- root&#45;&gt;left&#45;&gt;left&#45;&gt;root&#45;&gt;left&#45;&gt;left&#45;&gt;right -->
<g id="edge4" class="edge">
<title>root&#45;&gt;left&#45;&gt;left&#45;&gt;root&#45;&gt;left&#45;&gt;left&#45;&gt;right</title>
<path fill="none" stroke="black" d="M99,-71.7C99,-64.13 99,-55.06 99,-46.59"/>
<polygon fill="black" stroke="black" points="102.5,-46.62 99,-36.62 95.5,-46.62 102.5,-46.62"/>
</g>
<!-- root&#45;&gt;left&#45;&gt;right&#45;&gt;left -->
<g id="node7" class="node">
<title>root&#45;&gt;left&#45;&gt;right&#45;&gt;left</title>
<text text-anchor="middle" x="171" y="-13.8" font-family="Times,serif" font-size="14.00">NULL</text>
</g>
<!-- root&#45;&gt;left&#45;&gt;right&#45;&gt;root&#45;&gt;left&#45;&gt;right&#45;&gt;left -->
<g id="edge5" class="edge">
<title>root&#45;&gt;left&#45;&gt;right&#45;&gt;root&#45;&gt;left&#45;&gt;right&#45;&gt;left</title>
<path fill="none" stroke="black" d="M198.65,-72.76C194.44,-64.58 189.23,-54.45 184.47,-45.2"/>
<polygon fill="black" stroke="black" points="187.24,-43.93 179.55,-36.63 181.02,-47.13 187.24,-43.93"/>
</g>
<!-- root&#45;&gt;left&#45;&gt;right&#45;&gt;right -->
<g id="node8" class="node">
<title>root&#45;&gt;left&#45;&gt;right&#45;&gt;right</title>
<text text-anchor="middle" x="243" y="-13.8" font-family="Times,serif" font-size="14.00">NULL</text>
</g>
<!-- root&#45;&gt;left&#45;&gt;right&#45;&gt;root&#45;&gt;left&#45;&gt;right&#45;&gt;right -->
<g id="edge6" class="edge">
<title>root&#45;&gt;left&#45;&gt;right&#45;&gt;root&#45;&gt;left&#45;&gt;right&#45;&gt;right</title>
<path fill="none" stroke="black" d="M215.35,-72.76C219.56,-64.58 224.77,-54.45 229.53,-45.2"/>
<polygon fill="black" stroke="black" points="232.98,-47.13 234.45,-36.63 226.76,-43.93 232.98,-47.13"/>
</g>
<!-- root&#45;&gt;right&#45;&gt;left -->
<g id="node10" class="node">
<title>root&#45;&gt;right&#45;&gt;left</title>
<ellipse fill="none" stroke="black" cx="351" cy="-90" rx="27" ry="18"/>
<text text-anchor="middle" x="351" y="-85.8" font-family="Times,serif" font-size="14.00">16</text>
</g>
<!-- root&#45;&gt;right&#45;&gt;root&#45;&gt;right&#45;&gt;left -->
<g id="edge8" class="edge">
<title>root&#45;&gt;right&#45;&gt;root&#45;&gt;right&#45;&gt;left</title>
<path fill="none" stroke="black" d="M351,-143.7C351,-136.24 351,-127.32 351,-118.97"/>
<polygon fill="black" stroke="black" points="354.5,-119.1 351,-109.1 347.5,-119.1 354.5,-119.1"/>
</g>
<!-- root&#45;&gt;right&#45;&gt;right -->
<g id="node13" class="node">
<title>root&#45;&gt;right&#45;&gt;right</title>
<ellipse fill="none" stroke="black" cx="459" cy="-90" rx="27" ry="18"/>
<text text-anchor="middle" x="459" y="-85.8" font-family="Times,serif" font-size="14.00">38</text>
</g>
<!-- root&#45;&gt;right&#45;&gt;root&#45;&gt;right&#45;&gt;right -->
<g id="edge13" class="edge">
<title>root&#45;&gt;right&#45;&gt;root&#45;&gt;right&#45;&gt;right</title>
<path fill="none" stroke="black" d="M369.81,-148.81C386.67,-137.88 411.62,-121.71 430.85,-109.24"/>
<polygon fill="black" stroke="black" points="432.55,-111.66 439.04,-103.29 428.75,-105.79 432.55,-111.66"/>
</g>
<!-- root&#45;&gt;right&#45;&gt;left&#45;&gt;left -->
<g id="node11" class="node">
<title>root&#45;&gt;right&#45;&gt;left&#45;&gt;left</title>
<text text-anchor="middle" x="315" y="-13.8" font-family="Times,serif" font-size="14.00">NULL</text>
</g>
<!-- root&#45;&gt;right&#45;&gt;left&#45;&gt;root&#45;&gt;right&#45;&gt;left&#45;&gt;left -->
<g id="edge9" class="edge">
<title>root&#45;&gt;right&#45;&gt;left&#45;&gt;root&#45;&gt;right&#45;&gt;left&#45;&gt;left</title>
<path fill="none" stroke="black" d="M342.65,-72.76C338.44,-64.58 333.23,-54.45 328.47,-45.2"/>
<polygon fill="black" stroke="black" points="331.24,-43.93 323.55,-36.63 325.02,-47.13 331.24,-43.93"/>
</g>
<!-- root&#45;&gt;right&#45;&gt;left&#45;&gt;right -->
<g id="node12" class="node">
<title>root&#45;&gt;right&#45;&gt;left&#45;&gt;right</title>
<text text-anchor="middle" x="387" y="-13.8" font-family="Times,serif" font-size="14.00">NULL</text>
</g>
<!-- root&#45;&gt;right&#45;&gt;left&#45;&gt;root&#45;&gt;right&#45;&gt;left&#45;&gt;right -->
<g id="edge10" class="edge">
<title>root&#45;&gt;right&#45;&gt;left&#45;&gt;root&#45;&gt;right&#45;&gt;left&#45;&gt;right</title>
<path fill="none" stroke="black" d="M359.35,-72.76C363.56,-64.58 368.77,-54.45 373.53,-45.2"/>
<polygon fill="black" stroke="black" points="376.98,-47.13 378.45,-36.63 370.76,-43.93 376.98,-47.13"/>
</g>
<!-- root&#45;&gt;right&#45;&gt;right&#45;&gt;left -->
<g id="node14" class="node">
<title>root&#45;&gt;right&#45;&gt;right&#45;&gt;left</title>
<text text-anchor="middle" x="459" y="-13.8" font-family="Times,serif" font-size="14.00">NULL</text>
</g>
<!-- root&#45;&gt;right&#45;&gt;right&#45;&gt;root&#45;&gt;right&#45;&gt;right&#45;&gt;left -->
<g id="edge11" class="edge">
<title>root&#45;&gt;right&#45;&gt;right&#45;&gt;root&#45;&gt;right&#45;&gt;right&#45;&gt;left</title>
<path fill="none" stroke="black" d="M459,-71.7C459,-64.13 459,-55.06 459,-46.59"/>
<polygon fill="black" stroke="black" points="462.5,-46.62 459,-36.62 455.5,-46.62 462.5,-46.62"/>
</g>
<!-- root&#45;&gt;right&#45;&gt;right&#45;&gt;right -->
<g id="node15" class="node">
<title>root&#45;&gt;right&#45;&gt;right&#45;&gt;right</title>
<text text-anchor="middle" x="531" y="-13.8" font-family="Times,serif" font-size="14.00">NULL</text>
</g>
<!-- root&#45;&gt;right&#45;&gt;right&#45;&gt;root&#45;&gt;right&#45;&gt;right&#45;&gt;right -->
<g id="edge12" class="edge">
<title>root&#45;&gt;right&#45;&gt;right&#45;&gt;root&#45;&gt;right&#45;&gt;right&#45;&gt;right</title>
<path fill="none" stroke="black" d="M473.92,-74.5C483.11,-65.56 495.13,-53.87 505.77,-43.53"/>
<polygon fill="black" stroke="black" points="507.83,-46.43 512.57,-36.95 502.96,-41.41 507.83,-46.43"/>
</g>
</g>
</svg>
