<?xml version="1.0" encoding="UTF-8" standalone="no"?>
<!DOCTYPE svg PUBLIC "-//W3C//DTD SVG 1.1//EN"
 "http://www.w3.org/Graphics/SVG/1.1/DTD/svg11.dtd">
<!-- Generated by graphviz version 8.1.0 (20230707.0739)
 -->
<!-- Pages: 1 -->
<svg width="170pt" height="188pt"
 viewBox="0.00 0.00 170.00 188.00" xmlns="http://www.w3.org/2000/svg" xmlns:xlink="http://www.w3.org/1999/xlink">
<g id="graph0" class="graph" transform="scale(1 1) rotate(0) translate(4 184)">
<polygon fill="white" stroke="none" points="-4,4 -4,-184 166,-184 166,4 -4,4"/>
<!-- root -->
<g id="node1" class="node">
<title>root</title>
<ellipse fill="none" stroke="black" cx="63" cy="-162" rx="27" ry="18"/>
<text text-anchor="middle" x="63" y="-157.8" font-family="Times,serif" font-size="14.00">10</text>
</g>
<!-- root&#45;&gt;left -->
<g id="node2" class="node">
<title>root&#45;&gt;left</title>
<text text-anchor="middle" x="27" y="-85.8" font-family="Times,serif" font-size="14.00">NULL</text>
</g>
<!-- root&#45;&gt;root&#45;&gt;left -->
<g id="edge1" class="edge">
<title>root&#45;&gt;root&#45;&gt;left</title>
<path fill="none" stroke="black" d="M54.65,-144.76C50.44,-136.58 45.23,-126.45 40.47,-117.2"/>
<polygon fill="black" stroke="black" points="43.24,-115.93 35.55,-108.63 37.02,-119.13 43.24,-115.93"/>
</g>
<!-- root&#45;&gt;right -->
<g id="node3" class="node">
<title>root&#45;&gt;right</title>
<ellipse fill="none" stroke="black" cx="99" cy="-90" rx="27" ry="18"/>
<text text-anchor="middle" x="99" y="-85.8" font-family="Times,serif" font-size="14.00">27</text>
</g>
<!-- root&#45;&gt;root&#45;&gt;right -->
<g id="edge4" class="edge">
<title>root&#45;&gt;root&#45;&gt;right</title>
<path fill="none" stroke="black" d="M71.35,-144.76C75.62,-136.46 80.92,-126.15 85.73,-116.79"/>
<polygon fill="black" stroke="black" points="89.23,-118.64 90.7,-108.15 83.01,-115.44 89.23,-118.64"/>
</g>
<!-- root&#45;&gt;right&#45;&gt;left -->
<g id="node4" class="node">
<title>root&#45;&gt;right&#45;&gt;left</title>
<text text-anchor="middle" x="63" y="-13.8" font-family="Times,serif" font-size="14.00">NULL</text>
</g>
<!-- root&#45;&gt;right&#45;&gt;root&#45;&gt;right&#45;&gt;left -->
<g id="edge2" class="edge">
<title>root&#45;&gt;right&#45;&gt;root&#45;&gt;right&#45;&gt;left</title>
<path fill="none" stroke="black" d="M90.65,-72.76C86.44,-64.58 81.23,-54.45 76.47,-45.2"/>
<polygon fill="black" stroke="black" points="79.24,-43.93 71.55,-36.63 73.02,-47.13 79.24,-43.93"/>
</g>
<!-- root&#45;&gt;right&#45;&gt;right -->
<g id="node5" class="node">
<title>root&#45;&gt;right&#45;&gt;right</title>
<text text-anchor="middle" x="135" y="-13.8" font-family="Times,serif" font-size="14.00">NULL</text>
</g>
<!-- root&#45;&gt;right&#45;&gt;root&#45;&gt;right&#45;&gt;right -->
<g id="edge3" class="edge">
<title>root&#45;&gt;right&#45;&gt;root&#45;&gt;right&#45;&gt;right</title>
<path fill="none" stroke="black" d="M107.35,-72.76C111.56,-64.58 116.77,-54.45 121.53,-45.2"/>
<polygon fill="black" stroke="black" points="124.98,-47.13 126.45,-36.63 118.76,-43.93 124.98,-47.13"/>
</g>
</g>
</svg>
