<?xml version="1.0" encoding="UTF-8" standalone="no"?>
<!DOCTYPE svg PUBLIC "-//W3C//DTD SVG 1.1//EN"
 "http://www.w3.org/Graphics/SVG/1.1/DTD/svg11.dtd">
<!-- Generated by graphviz version 8.1.0 (20230707.0739)
 -->
<!-- Pages: 1 -->
<svg width="350pt" height="332pt"
 viewBox="0.00 0.00 350.00 332.00" xmlns="http://www.w3.org/2000/svg" xmlns:xlink="http://www.w3.org/1999/xlink">
<g id="graph0" class="graph" transform="scale(1 1) rotate(0) translate(4 328)">
<polygon fill="white" stroke="none" points="-4,4 -4,-328 346,-328 346,4 -4,4"/>
<!-- root -->
<g id="node1" class="node">
<title>root</title>
<ellipse fill="none" stroke="black" cx="207" cy="-306" rx="27" ry="18"/>
<text text-anchor="middle" x="207" y="-301.8" font-family="Times,serif" font-size="14.00">F</text>
</g>
<!-- root&#45;&gt;left -->
<g id="node2" class="node">
<title>root&#45;&gt;left</title>
<ellipse fill="none" stroke="black" cx="171" cy="-234" rx="27" ry="18"/>
<text text-anchor="middle" x="171" y="-229.8" font-family="Times,serif" font-size="14.00">B</text>
</g>
<!-- root&#45;&gt;root&#45;&gt;left -->
<g id="edge1" class="edge">
<title>root&#45;&gt;root&#45;&gt;left</title>
<path fill="none" stroke="black" d="M198.65,-288.76C194.38,-280.46 189.08,-270.15 184.27,-260.79"/>
<polygon fill="black" stroke="black" points="186.99,-259.44 179.3,-252.15 180.77,-262.64 186.99,-259.44"/>
</g>
<!-- root&#45;&gt;right -->
<g id="node13" class="node">
<title>root&#45;&gt;right</title>
<ellipse fill="none" stroke="black" cx="243" cy="-234" rx="27" ry="18"/>
<text text-anchor="middle" x="243" y="-229.8" font-family="Times,serif" font-size="14.00">G</text>
</g>
<!-- root&#45;&gt;root&#45;&gt;right -->
<g id="edge14" class="edge">
<title>root&#45;&gt;root&#45;&gt;right</title>
<path fill="none" stroke="black" d="M215.35,-288.76C219.62,-280.46 224.92,-270.15 229.73,-260.79"/>
<polygon fill="black" stroke="black" points="233.23,-262.64 234.7,-252.15 227.01,-259.44 233.23,-262.64"/>
</g>
<!-- root&#45;&gt;left&#45;&gt;left -->
<g id="node3" class="node">
<title>root&#45;&gt;left&#45;&gt;left</title>
<ellipse fill="none" stroke="black" cx="99" cy="-162" rx="27" ry="18"/>
<text text-anchor="middle" x="99" y="-157.8" font-family="Times,serif" font-size="14.00">A</text>
</g>
<!-- root&#45;&gt;left&#45;&gt;root&#45;&gt;left&#45;&gt;left -->
<g id="edge2" class="edge">
<title>root&#45;&gt;left&#45;&gt;root&#45;&gt;left&#45;&gt;left</title>
<path fill="none" stroke="black" d="M156.08,-218.5C146.14,-208.83 132.88,-195.94 121.65,-185.02"/>
<polygon fill="black" stroke="black" points="124.51,-182.95 114.9,-178.49 119.63,-187.97 124.51,-182.95"/>
</g>
<!-- root&#45;&gt;left&#45;&gt;right -->
<g id="node6" class="node">
<title>root&#45;&gt;left&#45;&gt;right</title>
<ellipse fill="none" stroke="black" cx="171" cy="-162" rx="27" ry="18"/>
<text text-anchor="middle" x="171" y="-157.8" font-family="Times,serif" font-size="14.00">D</text>
</g>
<!-- root&#45;&gt;left&#45;&gt;root&#45;&gt;left&#45;&gt;right -->
<g id="edge11" class="edge">
<title>root&#45;&gt;left&#45;&gt;root&#45;&gt;left&#45;&gt;right</title>
<path fill="none" stroke="black" d="M171,-215.7C171,-208.24 171,-199.32 171,-190.97"/>
<polygon fill="black" stroke="black" points="174.5,-191.1 171,-181.1 167.5,-191.1 174.5,-191.1"/>
</g>
<!-- root&#45;&gt;left&#45;&gt;left&#45;&gt;left -->
<g id="node4" class="node">
<title>root&#45;&gt;left&#45;&gt;left&#45;&gt;left</title>
<text text-anchor="middle" x="27" y="-85.8" font-family="Times,serif" font-size="14.00">NULL</text>
</g>
<!-- root&#45;&gt;left&#45;&gt;left&#45;&gt;root&#45;&gt;left&#45;&gt;left&#45;&gt;left -->
<g id="edge3" class="edge">
<title>root&#45;&gt;left&#45;&gt;left&#45;&gt;root&#45;&gt;left&#45;&gt;left&#45;&gt;left</title>
<path fill="none" stroke="black" d="M84.08,-146.5C74.89,-137.56 62.87,-125.87 52.23,-115.53"/>
<polygon fill="black" stroke="black" points="55.04,-113.41 45.43,-108.95 50.17,-118.43 55.04,-113.41"/>
</g>
<!-- root&#45;&gt;left&#45;&gt;left&#45;&gt;right -->
<g id="node5" class="node">
<title>root&#45;&gt;left&#45;&gt;left&#45;&gt;right</title>
<text text-anchor="middle" x="99" y="-85.8" font-family="Times,serif" font-size="14.00">NULL</text>
</g>
<!-- root&#45;&gt;left&#45;&gt;left&#45;&gt;root&#45;&gt;left&#45;&gt;left&#45;&gt;right -->
<g id="edge4" class="edge">
<title>root&#45;&gt;left&#45;&gt;left&#45;&gt;root&#45;&gt;left&#45;&gt;left&#45;&gt;right</title>
<path fill="none" stroke="black" d="M99,-143.7C99,-136.13 99,-127.06 99,-118.59"/>
<polygon fill="black" stroke="black" points="102.5,-118.62 99,-108.62 95.5,-118.62 102.5,-118.62"/>
</g>
<!-- root&#45;&gt;left&#45;&gt;right&#45;&gt;left -->
<g id="node7" class="node">
<title>root&#45;&gt;left&#45;&gt;right&#45;&gt;left</title>
<ellipse fill="none" stroke="black" cx="171" cy="-90" rx="27" ry="18"/>
<text text-anchor="middle" x="171" y="-85.8" font-family="Times,serif" font-size="14.00">C</text>
</g>
<!-- root&#45;&gt;left&#45;&gt;right&#45;&gt;root&#45;&gt;left&#45;&gt;right&#45;&gt;left -->
<g id="edge5" class="edge">
<title>root&#45;&gt;left&#45;&gt;right&#45;&gt;root&#45;&gt;left&#45;&gt;right&#45;&gt;left</title>
<path fill="none" stroke="black" d="M171,-143.7C171,-136.24 171,-127.32 171,-118.97"/>
<polygon fill="black" stroke="black" points="174.5,-119.1 171,-109.1 167.5,-119.1 174.5,-119.1"/>
</g>
<!-- root&#45;&gt;left&#45;&gt;right&#45;&gt;right -->
<g id="node10" class="node">
<title>root&#45;&gt;left&#45;&gt;right&#45;&gt;right</title>
<ellipse fill="none" stroke="black" cx="243" cy="-90" rx="27" ry="18"/>
<text text-anchor="middle" x="243" y="-85.8" font-family="Times,serif" font-size="14.00">E</text>
</g>
<!-- root&#45;&gt;left&#45;&gt;right&#45;&gt;root&#45;&gt;left&#45;&gt;right&#45;&gt;right -->
<g id="edge10" class="edge">
<title>root&#45;&gt;left&#45;&gt;right&#45;&gt;root&#45;&gt;left&#45;&gt;right&#45;&gt;right</title>
<path fill="none" stroke="black" d="M185.92,-146.5C195.86,-136.83 209.12,-123.94 220.35,-113.02"/>
<polygon fill="black" stroke="black" points="222.37,-115.97 227.1,-106.49 217.49,-110.95 222.37,-115.97"/>
</g>
<!-- root&#45;&gt;left&#45;&gt;right&#45;&gt;left&#45;&gt;left -->
<g id="node8" class="node">
<title>root&#45;&gt;left&#45;&gt;right&#45;&gt;left&#45;&gt;left</title>
<text text-anchor="middle" x="99" y="-13.8" font-family="Times,serif" font-size="14.00">NULL</text>
</g>
<!-- root&#45;&gt;left&#45;&gt;right&#45;&gt;left&#45;&gt;root&#45;&gt;left&#45;&gt;right&#45;&gt;left&#45;&gt;left -->
<g id="edge6" class="edge">
<title>root&#45;&gt;left&#45;&gt;right&#45;&gt;left&#45;&gt;root&#45;&gt;left&#45;&gt;right&#45;&gt;left&#45;&gt;left</title>
<path fill="none" stroke="black" d="M156.08,-74.5C146.89,-65.56 134.87,-53.87 124.23,-43.53"/>
<polygon fill="black" stroke="black" points="127.04,-41.41 117.43,-36.95 122.17,-46.43 127.04,-41.41"/>
</g>
<!-- root&#45;&gt;left&#45;&gt;right&#45;&gt;left&#45;&gt;right -->
<g id="node9" class="node">
<title>root&#45;&gt;left&#45;&gt;right&#45;&gt;left&#45;&gt;right</title>
<text text-anchor="middle" x="171" y="-13.8" font-family="Times,serif" font-size="14.00">NULL</text>
</g>
<!-- root&#45;&gt;left&#45;&gt;right&#45;&gt;left&#45;&gt;root&#45;&gt;left&#45;&gt;right&#45;&gt;left&#45;&gt;right -->
<g id="edge7" class="edge">
<title>root&#45;&gt;left&#45;&gt;right&#45;&gt;left&#45;&gt;root&#45;&gt;left&#45;&gt;right&#45;&gt;left&#45;&gt;right</title>
<path fill="none" stroke="black" d="M171,-71.7C171,-64.13 171,-55.06 171,-46.59"/>
<polygon fill="black" stroke="black" points="174.5,-46.62 171,-36.62 167.5,-46.62 174.5,-46.62"/>
</g>
<!-- root&#45;&gt;left&#45;&gt;right&#45;&gt;right&#45;&gt;left -->
<g id="node11" class="node">
<title>root&#45;&gt;left&#45;&gt;right&#45;&gt;right&#45;&gt;left</title>
<text text-anchor="middle" x="243" y="-13.8" font-family="Times,serif" font-size="14.00">NULL</text>
</g>
<!-- root&#45;&gt;left&#45;&gt;right&#45;&gt;right&#45;&gt;root&#45;&gt;left&#45;&gt;right&#45;&gt;right&#45;&gt;left -->
<g id="edge8" class="edge">
<title>root&#45;&gt;left&#45;&gt;right&#45;&gt;right&#45;&gt;root&#45;&gt;left&#45;&gt;right&#45;&gt;right&#45;&gt;left</title>
<path fill="none" stroke="black" d="M243,-71.7C243,-64.13 243,-55.06 243,-46.59"/>
<polygon fill="black" stroke="black" points="246.5,-46.62 243,-36.62 239.5,-46.62 246.5,-46.62"/>
</g>
<!-- root&#45;&gt;left&#45;&gt;right&#45;&gt;right&#45;&gt;right -->
<g id="node12" class="node">
<title>root&#45;&gt;left&#45;&gt;right&#45;&gt;right&#45;&gt;right</title>
<text text-anchor="middle" x="315" y="-13.8" font-family="Times,serif" font-size="14.00">NULL</text>
</g>
<!-- root&#45;&gt;left&#45;&gt;right&#45;&gt;right&#45;&gt;root&#45;&gt;left&#45;&gt;right&#45;&gt;right&#45;&gt;right -->
<g id="edge9" class="edge">
<title>root&#45;&gt;left&#45;&gt;right&#45;&gt;right&#45;&gt;root&#45;&gt;left&#45;&gt;right&#45;&gt;right&#45;&gt;right</title>
<path fill="none" stroke="black" d="M257.92,-74.5C267.11,-65.56 279.13,-53.87 289.77,-43.53"/>
<polygon fill="black" stroke="black" points="291.83,-46.43 296.57,-36.95 286.96,-41.41 291.83,-46.43"/>
</g>
<!-- root&#45;&gt;right&#45;&gt;left -->
<g id="node14" class="node">
<title>root&#45;&gt;right&#45;&gt;left</title>
<text text-anchor="middle" x="243" y="-157.8" font-family="Times,serif" font-size="14.00">NULL</text>
</g>
<!-- root&#45;&gt;right&#45;&gt;root&#45;&gt;right&#45;&gt;left -->
<g id="edge12" class="edge">
<title>root&#45;&gt;right&#45;&gt;root&#45;&gt;right&#45;&gt;left</title>
<path fill="none" stroke="black" d="M243,-215.7C243,-208.13 243,-199.06 243,-190.59"/>
<polygon fill="black" stroke="black" points="246.5,-190.62 243,-180.62 239.5,-190.62 246.5,-190.62"/>
</g>
<!-- root&#45;&gt;right&#45;&gt;right -->
<g id="node15" class="node">
<title>root&#45;&gt;right&#45;&gt;right</title>
<text text-anchor="middle" x="315" y="-157.8" font-family="Times,serif" font-size="14.00">NULL</text>
</g>
<!-- root&#45;&gt;right&#45;&gt;root&#45;&gt;right&#45;&gt;right -->
<g id="edge13" class="edge">
<title>root&#45;&gt;right&#45;&gt;root&#45;&gt;right&#45;&gt;right</title>
<path fill="none" stroke="black" d="M257.92,-218.5C267.11,-209.56 279.13,-197.87 289.77,-187.53"/>
<polygon fill="black" stroke="black" points="291.83,-190.43 296.57,-180.95 286.96,-185.41 291.83,-190.43"/>
</g>
</g>
</svg>
