<?xml version="1.0" encoding="UTF-8" standalone="no"?>
<!DOCTYPE svg PUBLIC "-//W3C//DTD SVG 1.1//EN"
 "http://www.w3.org/Graphics/SVG/1.1/DTD/svg11.dtd">
<!-- Generated by graphviz version 8.1.0 (20230707.0739)
 -->
<!-- Pages: 1 -->
<svg width="404pt" height="332pt"
 viewBox="0.00 0.00 404.00 332.00" xmlns="http://www.w3.org/2000/svg" xmlns:xlink="http://www.w3.org/1999/xlink">
<g id="graph0" class="graph" transform="scale(1 1) rotate(0) translate(4 328)">
<polygon fill="white" stroke="none" points="-4,4 -4,-328 400,-328 400,4 -4,4"/>
<!-- root -->
<g id="node1" class="node">
<title>root</title>
<ellipse fill="none" stroke="black" cx="135" cy="-306" rx="27" ry="18"/>
<text text-anchor="middle" x="135" y="-301.8" font-family="Times,serif" font-size="14.00">26</text>
</g>
<!-- root&#45;&gt;left -->
<g id="node2" class="node">
<title>root&#45;&gt;left</title>
<ellipse fill="none" stroke="black" cx="99" cy="-234" rx="27" ry="18"/>
<text text-anchor="middle" x="99" y="-229.8" font-family="Times,serif" font-size="14.00">89</text>
</g>
<!-- root&#45;&gt;root&#45;&gt;left -->
<g id="edge1" class="edge">
<title>root&#45;&gt;root&#45;&gt;left</title>
<path fill="none" stroke="black" d="M126.65,-288.76C122.38,-280.46 117.08,-270.15 112.27,-260.79"/>
<polygon fill="black" stroke="black" points="114.99,-259.44 107.3,-252.15 108.77,-262.64 114.99,-259.44"/>
</g>
<!-- root&#45;&gt;right -->
<g id="node7" class="node">
<title>root&#45;&gt;right</title>
<ellipse fill="none" stroke="black" cx="171" cy="-234" rx="27" ry="18"/>
<text text-anchor="middle" x="171" y="-229.8" font-family="Times,serif" font-size="14.00">54</text>
</g>
<!-- root&#45;&gt;root&#45;&gt;right -->
<g id="edge14" class="edge">
<title>root&#45;&gt;root&#45;&gt;right</title>
<path fill="none" stroke="black" d="M143.35,-288.76C147.62,-280.46 152.92,-270.15 157.73,-260.79"/>
<polygon fill="black" stroke="black" points="161.23,-262.64 162.7,-252.15 155.01,-259.44 161.23,-262.64"/>
</g>
<!-- root&#45;&gt;left&#45;&gt;left -->
<g id="node3" class="node">
<title>root&#45;&gt;left&#45;&gt;left</title>
<text text-anchor="middle" x="27" y="-157.8" font-family="Times,serif" font-size="14.00">NULL</text>
</g>
<!-- root&#45;&gt;left&#45;&gt;root&#45;&gt;left&#45;&gt;left -->
<g id="edge2" class="edge">
<title>root&#45;&gt;left&#45;&gt;root&#45;&gt;left&#45;&gt;left</title>
<path fill="none" stroke="black" d="M84.08,-218.5C74.89,-209.56 62.87,-197.87 52.23,-187.53"/>
<polygon fill="black" stroke="black" points="55.04,-185.41 45.43,-180.95 50.17,-190.43 55.04,-185.41"/>
</g>
<!-- root&#45;&gt;left&#45;&gt;right -->
<g id="node4" class="node">
<title>root&#45;&gt;left&#45;&gt;right</title>
<ellipse fill="none" stroke="black" cx="99" cy="-162" rx="27" ry="18"/>
<text text-anchor="middle" x="99" y="-157.8" font-family="Times,serif" font-size="14.00">43</text>
</g>
<!-- root&#45;&gt;left&#45;&gt;root&#45;&gt;left&#45;&gt;right -->
<g id="edge5" class="edge">
<title>root&#45;&gt;left&#45;&gt;root&#45;&gt;left&#45;&gt;right</title>
<path fill="none" stroke="black" d="M99,-215.7C99,-208.24 99,-199.32 99,-190.97"/>
<polygon fill="black" stroke="black" points="102.5,-191.1 99,-181.1 95.5,-191.1 102.5,-191.1"/>
</g>
<!-- root&#45;&gt;left&#45;&gt;right&#45;&gt;left -->
<g id="node5" class="node">
<title>root&#45;&gt;left&#45;&gt;right&#45;&gt;left</title>
<text text-anchor="middle" x="45" y="-85.8" font-family="Times,serif" font-size="14.00">NULL</text>
</g>
<!-- root&#45;&gt;left&#45;&gt;right&#45;&gt;root&#45;&gt;left&#45;&gt;right&#45;&gt;left -->
<g id="edge3" class="edge">
<title>root&#45;&gt;left&#45;&gt;right&#45;&gt;root&#45;&gt;left&#45;&gt;right&#45;&gt;left</title>
<path fill="none" stroke="black" d="M87.02,-145.46C80.45,-136.95 72.15,-126.19 64.66,-116.48"/>
<polygon fill="black" stroke="black" points="66.96,-114.74 58.08,-108.96 61.42,-119.02 66.96,-114.74"/>
</g>
<!-- root&#45;&gt;left&#45;&gt;right&#45;&gt;right -->
<g id="node6" class="node">
<title>root&#45;&gt;left&#45;&gt;right&#45;&gt;right</title>
<text text-anchor="middle" x="117" y="-85.8" font-family="Times,serif" font-size="14.00">NULL</text>
</g>
<!-- root&#45;&gt;left&#45;&gt;right&#45;&gt;root&#45;&gt;left&#45;&gt;right&#45;&gt;right -->
<g id="edge4" class="edge">
<title>root&#45;&gt;left&#45;&gt;right&#45;&gt;root&#45;&gt;left&#45;&gt;right&#45;&gt;right</title>
<path fill="none" stroke="black" d="M103.36,-144.05C105.35,-136.32 107.75,-126.96 109.99,-118.27"/>
<polygon fill="black" stroke="black" points="113.58,-119.35 112.68,-108.79 106.8,-117.6 113.58,-119.35"/>
</g>
<!-- root&#45;&gt;right&#45;&gt;left -->
<g id="node8" class="node">
<title>root&#45;&gt;right&#45;&gt;left</title>
<text text-anchor="middle" x="171" y="-157.8" font-family="Times,serif" font-size="14.00">NULL</text>
</g>
<!-- root&#45;&gt;right&#45;&gt;root&#45;&gt;right&#45;&gt;left -->
<g id="edge6" class="edge">
<title>root&#45;&gt;right&#45;&gt;root&#45;&gt;right&#45;&gt;left</title>
<path fill="none" stroke="black" d="M171,-215.7C171,-208.13 171,-199.06 171,-190.59"/>
<polygon fill="black" stroke="black" points="174.5,-190.62 171,-180.62 167.5,-190.62 174.5,-190.62"/>
</g>
<!-- root&#45;&gt;right&#45;&gt;right -->
<g id="node9" class="node">
<title>root&#45;&gt;right&#45;&gt;right</title>
<ellipse fill="none" stroke="black" cx="243" cy="-162" rx="27" ry="18"/>
<text text-anchor="middle" x="243" y="-157.8" font-family="Times,serif" font-size="14.00">11</text>
</g>
<!-- root&#45;&gt;right&#45;&gt;root&#45;&gt;right&#45;&gt;right -->
<g id="edge13" class="edge">
<title>root&#45;&gt;right&#45;&gt;root&#45;&gt;right&#45;&gt;right</title>
<path fill="none" stroke="black" d="M185.92,-218.5C195.86,-208.83 209.12,-195.94 220.35,-185.02"/>
<polygon fill="black" stroke="black" points="222.37,-187.97 227.1,-178.49 217.49,-182.95 222.37,-187.97"/>
</g>
<!-- root&#45;&gt;right&#45;&gt;right&#45;&gt;left -->
<g id="node10" class="node">
<title>root&#45;&gt;right&#45;&gt;right&#45;&gt;left</title>
<ellipse fill="none" stroke="black" cx="225" cy="-90" rx="27" ry="18"/>
<text text-anchor="middle" x="225" y="-85.8" font-family="Times,serif" font-size="14.00">72</text>
</g>
<!-- root&#45;&gt;right&#45;&gt;right&#45;&gt;root&#45;&gt;right&#45;&gt;right&#45;&gt;left -->
<g id="edge7" class="edge">
<title>root&#45;&gt;right&#45;&gt;right&#45;&gt;root&#45;&gt;right&#45;&gt;right&#45;&gt;left</title>
<path fill="none" stroke="black" d="M238.64,-144.05C236.65,-136.32 234.25,-126.96 232.01,-118.27"/>
<polygon fill="black" stroke="black" points="235.2,-117.6 229.32,-108.79 228.42,-119.35 235.2,-117.6"/>
</g>
<!-- root&#45;&gt;right&#45;&gt;right&#45;&gt;right -->
<g id="node13" class="node">
<title>root&#45;&gt;right&#45;&gt;right&#45;&gt;right</title>
<ellipse fill="none" stroke="black" cx="297" cy="-90" rx="27" ry="18"/>
<text text-anchor="middle" x="297" y="-85.8" font-family="Times,serif" font-size="14.00">35</text>
</g>
<!-- root&#45;&gt;right&#45;&gt;right&#45;&gt;root&#45;&gt;right&#45;&gt;right&#45;&gt;right -->
<g id="edge12" class="edge">
<title>root&#45;&gt;right&#45;&gt;right&#45;&gt;root&#45;&gt;right&#45;&gt;right&#45;&gt;right</title>
<path fill="none" stroke="black" d="M254.98,-145.46C261.91,-136.49 270.76,-125.02 278.55,-114.92"/>
<polygon fill="black" stroke="black" points="281.71,-117.55 285.05,-107.49 276.17,-113.27 281.71,-117.55"/>
</g>
<!-- root&#45;&gt;right&#45;&gt;right&#45;&gt;left&#45;&gt;left -->
<g id="node11" class="node">
<title>root&#45;&gt;right&#45;&gt;right&#45;&gt;left&#45;&gt;left</title>
<text text-anchor="middle" x="153" y="-13.8" font-family="Times,serif" font-size="14.00">NULL</text>
</g>
<!-- root&#45;&gt;right&#45;&gt;right&#45;&gt;left&#45;&gt;root&#45;&gt;right&#45;&gt;right&#45;&gt;left&#45;&gt;left -->
<g id="edge8" class="edge">
<title>root&#45;&gt;right&#45;&gt;right&#45;&gt;left&#45;&gt;root&#45;&gt;right&#45;&gt;right&#45;&gt;left&#45;&gt;left</title>
<path fill="none" stroke="black" d="M210.08,-74.5C200.89,-65.56 188.87,-53.87 178.23,-43.53"/>
<polygon fill="black" stroke="black" points="181.04,-41.41 171.43,-36.95 176.17,-46.43 181.04,-41.41"/>
</g>
<!-- root&#45;&gt;right&#45;&gt;right&#45;&gt;left&#45;&gt;right -->
<g id="node12" class="node">
<title>root&#45;&gt;right&#45;&gt;right&#45;&gt;left&#45;&gt;right</title>
<text text-anchor="middle" x="225" y="-13.8" font-family="Times,serif" font-size="14.00">NULL</text>
</g>
<!-- root&#45;&gt;right&#45;&gt;right&#45;&gt;left&#45;&gt;root&#45;&gt;right&#45;&gt;right&#45;&gt;left&#45;&gt;right -->
<g id="edge9" class="edge">
<title>root&#45;&gt;right&#45;&gt;right&#45;&gt;left&#45;&gt;root&#45;&gt;right&#45;&gt;right&#45;&gt;left&#45;&gt;right</title>
<path fill="none" stroke="black" d="M225,-71.7C225,-64.13 225,-55.06 225,-46.59"/>
<polygon fill="black" stroke="black" points="228.5,-46.62 225,-36.62 221.5,-46.62 228.5,-46.62"/>
</g>
<!-- root&#45;&gt;right&#45;&gt;right&#45;&gt;right&#45;&gt;left -->
<g id="node14" class="node">
<title>root&#45;&gt;right&#45;&gt;right&#45;&gt;right&#45;&gt;left</title>
<text text-anchor="middle" x="297" y="-13.8" font-family="Times,serif" font-size="14.00">NULL</text>
</g>
<!-- root&#45;&gt;right&#45;&gt;right&#45;&gt;right&#45;&gt;root&#45;&gt;right&#45;&gt;right&#45;&gt;right&#45;&gt;left -->
<g id="edge10" class="edge">
<title>root&#45;&gt;right&#45;&gt;right&#45;&gt;right&#45;&gt;root&#45;&gt;right&#45;&gt;right&#45;&gt;right&#45;&gt;left</title>
<path fill="none" stroke="black" d="M297,-71.7C297,-64.13 297,-55.06 297,-46.59"/>
<polygon fill="black" stroke="black" points="300.5,-46.62 297,-36.62 293.5,-46.62 300.5,-46.62"/>
</g>
<!-- root&#45;&gt;right&#45;&gt;right&#45;&gt;right&#45;&gt;right -->
<g id="node15" class="node">
<title>root&#45;&gt;right&#45;&gt;right&#45;&gt;right&#45;&gt;right</title>
<text text-anchor="middle" x="369" y="-13.8" font-family="Times,serif" font-size="14.00">NULL</text>
</g>
<!-- root&#45;&gt;right&#45;&gt;right&#45;&gt;right&#45;&gt;root&#45;&gt;right&#45;&gt;right&#45;&gt;right&#45;&gt;right -->
<g id="edge11" class="edge">
<title>root&#45;&gt;right&#45;&gt;right&#45;&gt;right&#45;&gt;root&#45;&gt;right&#45;&gt;right&#45;&gt;right&#45;&gt;right</title>
<path fill="none" stroke="black" d="M311.92,-74.5C321.11,-65.56 333.13,-53.87 343.77,-43.53"/>
<polygon fill="black" stroke="black" points="345.83,-46.43 350.57,-36.95 340.96,-41.41 345.83,-46.43"/>
</g>
</g>
</svg>
