<?xml version="1.0" encoding="UTF-8" standalone="no"?>
<!DOCTYPE svg PUBLIC "-//W3C//DTD SVG 1.1//EN"
 "http://www.w3.org/Graphics/SVG/1.1/DTD/svg11.dtd">
<!-- Generated by graphviz version 8.1.0 (20230707.0739)
 -->
<!-- Pages: 1 -->
<svg width="440pt" height="404pt"
 viewBox="0.00 0.00 440.00 404.00" xmlns="http://www.w3.org/2000/svg" xmlns:xlink="http://www.w3.org/1999/xlink">
<g id="graph0" class="graph" transform="scale(1 1) rotate(0) translate(4 400)">
<polygon fill="white" stroke="none" points="-4,4 -4,-400 436,-400 436,4 -4,4"/>
<!-- root -->
<g id="node1" class="node">
<title>root</title>
<ellipse fill="none" stroke="black" cx="162" cy="-378" rx="27" ry="18"/>
<text text-anchor="middle" x="162" y="-373.8" font-family="Times,serif" font-size="14.00">26</text>
</g>
<!-- root&#45;&gt;left -->
<g id="node2" class="node">
<title>root&#45;&gt;left</title>
<ellipse fill="none" stroke="black" cx="126" cy="-306" rx="27" ry="18"/>
<text text-anchor="middle" x="126" y="-301.8" font-family="Times,serif" font-size="14.00">89</text>
</g>
<!-- root&#45;&gt;root&#45;&gt;left -->
<g id="edge1" class="edge">
<title>root&#45;&gt;root&#45;&gt;left</title>
<path fill="none" stroke="black" d="M153.65,-360.76C149.38,-352.46 144.08,-342.15 139.27,-332.79"/>
<polygon fill="black" stroke="black" points="141.99,-331.44 134.3,-324.15 135.77,-334.64 141.99,-331.44"/>
</g>
<!-- root&#45;&gt;right -->
<g id="node11" class="node">
<title>root&#45;&gt;right</title>
<ellipse fill="none" stroke="black" cx="198" cy="-306" rx="27" ry="18"/>
<text text-anchor="middle" x="198" y="-301.8" font-family="Times,serif" font-size="14.00">54</text>
</g>
<!-- root&#45;&gt;root&#45;&gt;right -->
<g id="edge18" class="edge">
<title>root&#45;&gt;root&#45;&gt;right</title>
<path fill="none" stroke="black" d="M170.35,-360.76C174.62,-352.46 179.92,-342.15 184.73,-332.79"/>
<polygon fill="black" stroke="black" points="188.23,-334.64 189.7,-324.15 182.01,-331.44 188.23,-334.64"/>
</g>
<!-- root&#45;&gt;left&#45;&gt;left -->
<g id="node3" class="node">
<title>root&#45;&gt;left&#45;&gt;left</title>
<text text-anchor="middle" x="54" y="-229.8" font-family="Times,serif" font-size="14.00">NULL</text>
</g>
<!-- root&#45;&gt;left&#45;&gt;root&#45;&gt;left&#45;&gt;left -->
<g id="edge2" class="edge">
<title>root&#45;&gt;left&#45;&gt;root&#45;&gt;left&#45;&gt;left</title>
<path fill="none" stroke="black" d="M111.08,-290.5C101.89,-281.56 89.87,-269.87 79.23,-259.53"/>
<polygon fill="black" stroke="black" points="82.04,-257.41 72.43,-252.95 77.17,-262.43 82.04,-257.41"/>
</g>
<!-- root&#45;&gt;left&#45;&gt;right -->
<g id="node4" class="node">
<title>root&#45;&gt;left&#45;&gt;right</title>
<ellipse fill="none" stroke="black" cx="126" cy="-234" rx="27" ry="18"/>
<text text-anchor="middle" x="126" y="-229.8" font-family="Times,serif" font-size="14.00">43</text>
</g>
<!-- root&#45;&gt;left&#45;&gt;root&#45;&gt;left&#45;&gt;right -->
<g id="edge9" class="edge">
<title>root&#45;&gt;left&#45;&gt;root&#45;&gt;left&#45;&gt;right</title>
<path fill="none" stroke="black" d="M126,-287.7C126,-280.24 126,-271.32 126,-262.97"/>
<polygon fill="black" stroke="black" points="129.5,-263.1 126,-253.1 122.5,-263.1 129.5,-263.1"/>
</g>
<!-- root&#45;&gt;left&#45;&gt;right&#45;&gt;left -->
<g id="node5" class="node">
<title>root&#45;&gt;left&#45;&gt;right&#45;&gt;left</title>
<ellipse fill="none" stroke="black" cx="63" cy="-162" rx="27" ry="18"/>
<text text-anchor="middle" x="63" y="-157.8" font-family="Times,serif" font-size="14.00">90</text>
</g>
<!-- root&#45;&gt;left&#45;&gt;right&#45;&gt;root&#45;&gt;left&#45;&gt;right&#45;&gt;left -->
<g id="edge3" class="edge">
<title>root&#45;&gt;left&#45;&gt;right&#45;&gt;root&#45;&gt;left&#45;&gt;right&#45;&gt;left</title>
<path fill="none" stroke="black" d="M112.64,-218.15C104.2,-208.78 93.13,-196.48 83.59,-185.88"/>
<polygon fill="black" stroke="black" points="86.63,-183.92 77.34,-178.82 81.43,-188.6 86.63,-183.92"/>
</g>
<!-- root&#45;&gt;left&#45;&gt;right&#45;&gt;right -->
<g id="node10" class="node">
<title>root&#45;&gt;left&#45;&gt;right&#45;&gt;right</title>
<text text-anchor="middle" x="135" y="-157.8" font-family="Times,serif" font-size="14.00">NULL</text>
</g>
<!-- root&#45;&gt;left&#45;&gt;right&#45;&gt;root&#45;&gt;left&#45;&gt;right&#45;&gt;right -->
<g id="edge8" class="edge">
<title>root&#45;&gt;left&#45;&gt;right&#45;&gt;root&#45;&gt;left&#45;&gt;right&#45;&gt;right</title>
<path fill="none" stroke="black" d="M128.22,-215.7C129.21,-208.04 130.39,-198.85 131.49,-190.3"/>
<polygon fill="black" stroke="black" points="135.06,-190.99 132.86,-180.62 128.12,-190.09 135.06,-190.99"/>
</g>
<!-- root&#45;&gt;left&#45;&gt;right&#45;&gt;left&#45;&gt;left -->
<g id="node6" class="node">
<title>root&#45;&gt;left&#45;&gt;right&#45;&gt;left&#45;&gt;left</title>
<text text-anchor="middle" x="27" y="-85.8" font-family="Times,serif" font-size="14.00">NULL</text>
</g>
<!-- root&#45;&gt;left&#45;&gt;right&#45;&gt;left&#45;&gt;root&#45;&gt;left&#45;&gt;right&#45;&gt;left&#45;&gt;left -->
<g id="edge4" class="edge">
<title>root&#45;&gt;left&#45;&gt;right&#45;&gt;left&#45;&gt;root&#45;&gt;left&#45;&gt;right&#45;&gt;left&#45;&gt;left</title>
<path fill="none" stroke="black" d="M54.65,-144.76C50.44,-136.58 45.23,-126.45 40.47,-117.2"/>
<polygon fill="black" stroke="black" points="43.24,-115.93 35.55,-108.63 37.02,-119.13 43.24,-115.93"/>
</g>
<!-- root&#45;&gt;left&#45;&gt;right&#45;&gt;left&#45;&gt;right -->
<g id="node7" class="node">
<title>root&#45;&gt;left&#45;&gt;right&#45;&gt;left&#45;&gt;right</title>
<ellipse fill="none" stroke="black" cx="99" cy="-90" rx="27" ry="18"/>
<text text-anchor="middle" x="99" y="-85.8" font-family="Times,serif" font-size="14.00">16</text>
</g>
<!-- root&#45;&gt;left&#45;&gt;right&#45;&gt;left&#45;&gt;root&#45;&gt;left&#45;&gt;right&#45;&gt;left&#45;&gt;right -->
<g id="edge7" class="edge">
<title>root&#45;&gt;left&#45;&gt;right&#45;&gt;left&#45;&gt;root&#45;&gt;left&#45;&gt;right&#45;&gt;left&#45;&gt;right</title>
<path fill="none" stroke="black" d="M71.35,-144.76C75.62,-136.46 80.92,-126.15 85.73,-116.79"/>
<polygon fill="black" stroke="black" points="89.23,-118.64 90.7,-108.15 83.01,-115.44 89.23,-118.64"/>
</g>
<!-- root&#45;&gt;left&#45;&gt;right&#45;&gt;left&#45;&gt;right&#45;&gt;left -->
<g id="node8" class="node">
<title>root&#45;&gt;left&#45;&gt;right&#45;&gt;left&#45;&gt;right&#45;&gt;left</title>
<text text-anchor="middle" x="63" y="-13.8" font-family="Times,serif" font-size="14.00">NULL</text>
</g>
<!-- root&#45;&gt;left&#45;&gt;right&#45;&gt;left&#45;&gt;right&#45;&gt;root&#45;&gt;left&#45;&gt;right&#45;&gt;left&#45;&gt;right&#45;&gt;left -->
<g id="edge5" class="edge">
<title>root&#45;&gt;left&#45;&gt;right&#45;&gt;left&#45;&gt;right&#45;&gt;root&#45;&gt;left&#45;&gt;right&#45;&gt;left&#45;&gt;right&#45;&gt;left</title>
<path fill="none" stroke="black" d="M90.65,-72.76C86.44,-64.58 81.23,-54.45 76.47,-45.2"/>
<polygon fill="black" stroke="black" points="79.24,-43.93 71.55,-36.63 73.02,-47.13 79.24,-43.93"/>
</g>
<!-- root&#45;&gt;left&#45;&gt;right&#45;&gt;left&#45;&gt;right&#45;&gt;right -->
<g id="node9" class="node">
<title>root&#45;&gt;left&#45;&gt;right&#45;&gt;left&#45;&gt;right&#45;&gt;right</title>
<text text-anchor="middle" x="135" y="-13.8" font-family="Times,serif" font-size="14.00">NULL</text>
</g>
<!-- root&#45;&gt;left&#45;&gt;right&#45;&gt;left&#45;&gt;right&#45;&gt;root&#45;&gt;left&#45;&gt;right&#45;&gt;left&#45;&gt;right&#45;&gt;right -->
<g id="edge6" class="edge">
<title>root&#45;&gt;left&#45;&gt;right&#45;&gt;left&#45;&gt;right&#45;&gt;root&#45;&gt;left&#45;&gt;right&#45;&gt;left&#45;&gt;right&#45;&gt;right</title>
<path fill="none" stroke="black" d="M107.35,-72.76C111.56,-64.58 116.77,-54.45 121.53,-45.2"/>
<polygon fill="black" stroke="black" points="124.98,-47.13 126.45,-36.63 118.76,-43.93 124.98,-47.13"/>
</g>
<!-- root&#45;&gt;right&#45;&gt;left -->
<g id="node12" class="node">
<title>root&#45;&gt;right&#45;&gt;left</title>
<text text-anchor="middle" x="198" y="-229.8" font-family="Times,serif" font-size="14.00">NULL</text>
</g>
<!-- root&#45;&gt;right&#45;&gt;root&#45;&gt;right&#45;&gt;left -->
<g id="edge10" class="edge">
<title>root&#45;&gt;right&#45;&gt;root&#45;&gt;right&#45;&gt;left</title>
<path fill="none" stroke="black" d="M198,-287.7C198,-280.13 198,-271.06 198,-262.59"/>
<polygon fill="black" stroke="black" points="201.5,-262.62 198,-252.62 194.5,-262.62 201.5,-262.62"/>
</g>
<!-- root&#45;&gt;right&#45;&gt;right -->
<g id="node13" class="node">
<title>root&#45;&gt;right&#45;&gt;right</title>
<ellipse fill="none" stroke="black" cx="270" cy="-234" rx="27" ry="18"/>
<text text-anchor="middle" x="270" y="-229.8" font-family="Times,serif" font-size="14.00">11</text>
</g>
<!-- root&#45;&gt;right&#45;&gt;root&#45;&gt;right&#45;&gt;right -->
<g id="edge17" class="edge">
<title>root&#45;&gt;right&#45;&gt;root&#45;&gt;right&#45;&gt;right</title>
<path fill="none" stroke="black" d="M212.92,-290.5C222.86,-280.83 236.12,-267.94 247.35,-257.02"/>
<polygon fill="black" stroke="black" points="249.37,-259.97 254.1,-250.49 244.49,-254.95 249.37,-259.97"/>
</g>
<!-- root&#45;&gt;right&#45;&gt;right&#45;&gt;left -->
<g id="node14" class="node">
<title>root&#45;&gt;right&#45;&gt;right&#45;&gt;left</title>
<ellipse fill="none" stroke="black" cx="261" cy="-162" rx="27" ry="18"/>
<text text-anchor="middle" x="261" y="-157.8" font-family="Times,serif" font-size="14.00">72</text>
</g>
<!-- root&#45;&gt;right&#45;&gt;right&#45;&gt;root&#45;&gt;right&#45;&gt;right&#45;&gt;left -->
<g id="edge11" class="edge">
<title>root&#45;&gt;right&#45;&gt;right&#45;&gt;root&#45;&gt;right&#45;&gt;right&#45;&gt;left</title>
<path fill="none" stroke="black" d="M267.78,-215.7C266.82,-208.24 265.67,-199.32 264.6,-190.97"/>
<polygon fill="black" stroke="black" points="267.95,-190.58 263.2,-181.1 261,-191.47 267.95,-190.58"/>
</g>
<!-- root&#45;&gt;right&#45;&gt;right&#45;&gt;right -->
<g id="node17" class="node">
<title>root&#45;&gt;right&#45;&gt;right&#45;&gt;right</title>
<ellipse fill="none" stroke="black" cx="333" cy="-162" rx="27" ry="18"/>
<text text-anchor="middle" x="333" y="-157.8" font-family="Times,serif" font-size="14.00">35</text>
</g>
<!-- root&#45;&gt;right&#45;&gt;right&#45;&gt;root&#45;&gt;right&#45;&gt;right&#45;&gt;right -->
<g id="edge16" class="edge">
<title>root&#45;&gt;right&#45;&gt;right&#45;&gt;root&#45;&gt;right&#45;&gt;right&#45;&gt;right</title>
<path fill="none" stroke="black" d="M283.36,-218.15C291.8,-208.78 302.87,-196.48 312.41,-185.88"/>
<polygon fill="black" stroke="black" points="314.57,-188.6 318.66,-178.82 309.37,-183.92 314.57,-188.6"/>
</g>
<!-- root&#45;&gt;right&#45;&gt;right&#45;&gt;left&#45;&gt;left -->
<g id="node15" class="node">
<title>root&#45;&gt;right&#45;&gt;right&#45;&gt;left&#45;&gt;left</title>
<text text-anchor="middle" x="189" y="-85.8" font-family="Times,serif" font-size="14.00">NULL</text>
</g>
<!-- root&#45;&gt;right&#45;&gt;right&#45;&gt;left&#45;&gt;root&#45;&gt;right&#45;&gt;right&#45;&gt;left&#45;&gt;left -->
<g id="edge12" class="edge">
<title>root&#45;&gt;right&#45;&gt;right&#45;&gt;left&#45;&gt;root&#45;&gt;right&#45;&gt;right&#45;&gt;left&#45;&gt;left</title>
<path fill="none" stroke="black" d="M246.08,-146.5C236.89,-137.56 224.87,-125.87 214.23,-115.53"/>
<polygon fill="black" stroke="black" points="217.04,-113.41 207.43,-108.95 212.17,-118.43 217.04,-113.41"/>
</g>
<!-- root&#45;&gt;right&#45;&gt;right&#45;&gt;left&#45;&gt;right -->
<g id="node16" class="node">
<title>root&#45;&gt;right&#45;&gt;right&#45;&gt;left&#45;&gt;right</title>
<text text-anchor="middle" x="261" y="-85.8" font-family="Times,serif" font-size="14.00">NULL</text>
</g>
<!-- root&#45;&gt;right&#45;&gt;right&#45;&gt;left&#45;&gt;root&#45;&gt;right&#45;&gt;right&#45;&gt;left&#45;&gt;right -->
<g id="edge13" class="edge">
<title>root&#45;&gt;right&#45;&gt;right&#45;&gt;left&#45;&gt;root&#45;&gt;right&#45;&gt;right&#45;&gt;left&#45;&gt;right</title>
<path fill="none" stroke="black" d="M261,-143.7C261,-136.13 261,-127.06 261,-118.59"/>
<polygon fill="black" stroke="black" points="264.5,-118.62 261,-108.62 257.5,-118.62 264.5,-118.62"/>
</g>
<!-- root&#45;&gt;right&#45;&gt;right&#45;&gt;right&#45;&gt;left -->
<g id="node18" class="node">
<title>root&#45;&gt;right&#45;&gt;right&#45;&gt;right&#45;&gt;left</title>
<text text-anchor="middle" x="333" y="-85.8" font-family="Times,serif" font-size="14.00">NULL</text>
</g>
<!-- root&#45;&gt;right&#45;&gt;right&#45;&gt;right&#45;&gt;root&#45;&gt;right&#45;&gt;right&#45;&gt;right&#45;&gt;left -->
<g id="edge14" class="edge">
<title>root&#45;&gt;right&#45;&gt;right&#45;&gt;right&#45;&gt;root&#45;&gt;right&#45;&gt;right&#45;&gt;right&#45;&gt;left</title>
<path fill="none" stroke="black" d="M333,-143.7C333,-136.13 333,-127.06 333,-118.59"/>
<polygon fill="black" stroke="black" points="336.5,-118.62 333,-108.62 329.5,-118.62 336.5,-118.62"/>
</g>
<!-- root&#45;&gt;right&#45;&gt;right&#45;&gt;right&#45;&gt;right -->
<g id="node19" class="node">
<title>root&#45;&gt;right&#45;&gt;right&#45;&gt;right&#45;&gt;right</title>
<text text-anchor="middle" x="405" y="-85.8" font-family="Times,serif" font-size="14.00">NULL</text>
</g>
<!-- root&#45;&gt;right&#45;&gt;right&#45;&gt;right&#45;&gt;root&#45;&gt;right&#45;&gt;right&#45;&gt;right&#45;&gt;right -->
<g id="edge15" class="edge">
<title>root&#45;&gt;right&#45;&gt;right&#45;&gt;right&#45;&gt;root&#45;&gt;right&#45;&gt;right&#45;&gt;right&#45;&gt;right</title>
<path fill="none" stroke="black" d="M347.92,-146.5C357.11,-137.56 369.13,-125.87 379.77,-115.53"/>
<polygon fill="black" stroke="black" points="381.83,-118.43 386.57,-108.95 376.96,-113.41 381.83,-118.43"/>
</g>
</g>
</svg>
