<?xml version="1.0" encoding="UTF-8" standalone="no"?>
<!DOCTYPE svg PUBLIC "-//W3C//DTD SVG 1.1//EN"
 "http://www.w3.org/Graphics/SVG/1.1/DTD/svg11.dtd">
<!-- Generated by graphviz version 8.1.0 (20230707.0739)
 -->
<!-- Pages: 1 -->
<svg width="314pt" height="260pt"
 viewBox="0.00 0.00 314.00 260.00" xmlns="http://www.w3.org/2000/svg" xmlns:xlink="http://www.w3.org/1999/xlink">
<g id="graph0" class="graph" transform="scale(1 1) rotate(0) translate(4 256)">
<polygon fill="white" stroke="none" points="-4,4 -4,-256 310,-256 310,4 -4,4"/>
<!-- node0 -->
<g id="node1" class="node">
<title>node0</title>
<ellipse fill="none" stroke="black" cx="171" cy="-234" rx="27" ry="18"/>
<text text-anchor="middle" x="171" y="-229.8" font-family="Times,serif" font-size="14.00">15</text>
</g>
<!-- node1 -->
<g id="node2" class="node">
<title>node1</title>
<ellipse fill="none" stroke="black" cx="135" cy="-162" rx="27" ry="18"/>
<text text-anchor="middle" x="135" y="-157.8" font-family="Times,serif" font-size="14.00">22</text>
</g>
<!-- node0&#45;&gt;node1 -->
<g id="edge1" class="edge">
<title>node0&#45;&gt;node1</title>
<path fill="none" stroke="black" d="M162.65,-216.76C158.38,-208.46 153.08,-198.15 148.27,-188.79"/>
<polygon fill="black" stroke="black" points="150.99,-187.44 143.3,-180.15 144.77,-190.64 150.99,-187.44"/>
</g>
<!-- node2 -->
<g id="node3" class="node">
<title>node2</title>
<ellipse fill="none" stroke="black" cx="207" cy="-162" rx="27" ry="18"/>
<text text-anchor="middle" x="207" y="-157.8" font-family="Times,serif" font-size="14.00">14</text>
</g>
<!-- node0&#45;&gt;node2 -->
<g id="edge2" class="edge">
<title>node0&#45;&gt;node2</title>
<path fill="none" stroke="black" d="M179.35,-216.76C183.62,-208.46 188.92,-198.15 193.73,-188.79"/>
<polygon fill="black" stroke="black" points="197.23,-190.64 198.7,-180.15 191.01,-187.44 197.23,-190.64"/>
</g>
<!-- node3 -->
<g id="node4" class="node">
<title>node3</title>
<ellipse fill="none" stroke="black" cx="63" cy="-90" rx="27" ry="18"/>
<text text-anchor="middle" x="63" y="-85.8" font-family="Times,serif" font-size="14.00">75</text>
</g>
<!-- node1&#45;&gt;node3 -->
<g id="edge3" class="edge">
<title>node1&#45;&gt;node3</title>
<path fill="none" stroke="black" d="M120.08,-146.5C110.14,-136.83 96.88,-123.94 85.65,-113.02"/>
<polygon fill="black" stroke="black" points="88.51,-110.95 78.9,-106.49 83.63,-115.97 88.51,-110.95"/>
</g>
<!-- node4 -->
<g id="node5" class="node">
<title>node4</title>
<text text-anchor="middle" x="135" y="-85.8" font-family="Times,serif" font-size="14.00">NULL</text>
</g>
<!-- node1&#45;&gt;node4 -->
<g id="edge4" class="edge">
<title>node1&#45;&gt;node4</title>
<path fill="none" stroke="black" d="M135,-143.7C135,-136.13 135,-127.06 135,-118.59"/>
<polygon fill="black" stroke="black" points="138.5,-118.62 135,-108.62 131.5,-118.62 138.5,-118.62"/>
</g>
<!-- node5 -->
<g id="node6" class="node">
<title>node5</title>
<ellipse fill="none" stroke="black" cx="207" cy="-90" rx="27" ry="18"/>
<text text-anchor="middle" x="207" y="-85.8" font-family="Times,serif" font-size="14.00">67</text>
</g>
<!-- node2&#45;&gt;node5 -->
<g id="edge5" class="edge">
<title>node2&#45;&gt;node5</title>
<path fill="none" stroke="black" d="M207,-143.7C207,-136.24 207,-127.32 207,-118.97"/>
<polygon fill="black" stroke="black" points="210.5,-119.1 207,-109.1 203.5,-119.1 210.5,-119.1"/>
</g>
<!-- node6 -->
<g id="node7" class="node">
<title>node6</title>
<text text-anchor="middle" x="279" y="-85.8" font-family="Times,serif" font-size="14.00">NULL</text>
</g>
<!-- node2&#45;&gt;node6 -->
<g id="edge6" class="edge">
<title>node2&#45;&gt;node6</title>
<path fill="none" stroke="black" d="M221.92,-146.5C231.11,-137.56 243.13,-125.87 253.77,-115.53"/>
<polygon fill="black" stroke="black" points="255.83,-118.43 260.57,-108.95 250.96,-113.41 255.83,-118.43"/>
</g>
<!-- node7 -->
<g id="node8" class="node">
<title>node7</title>
<ellipse fill="none" stroke="black" cx="27" cy="-18" rx="27" ry="18"/>
<text text-anchor="middle" x="27" y="-13.8" font-family="Times,serif" font-size="14.00">32</text>
</g>
<!-- node3&#45;&gt;node7 -->
<g id="edge7" class="edge">
<title>node3&#45;&gt;node7</title>
<path fill="none" stroke="black" d="M54.65,-72.76C50.38,-64.46 45.08,-54.15 40.27,-44.79"/>
<polygon fill="black" stroke="black" points="42.99,-43.44 35.3,-36.15 36.77,-46.64 42.99,-43.44"/>
</g>
<!-- node8 -->
<g id="node9" class="node">
<title>node8</title>
<text text-anchor="middle" x="99" y="-13.8" font-family="Times,serif" font-size="14.00">NULL</text>
</g>
<!-- node3&#45;&gt;node8 -->
<g id="edge8" class="edge">
<title>node3&#45;&gt;node8</title>
<path fill="none" stroke="black" d="M71.35,-72.76C75.56,-64.58 80.77,-54.45 85.53,-45.2"/>
<polygon fill="black" stroke="black" points="88.98,-47.13 90.45,-36.63 82.76,-43.93 88.98,-47.13"/>
</g>
<!-- node11 -->
<g id="node10" class="node">
<title>node11</title>
<text text-anchor="middle" x="189" y="-13.8" font-family="Times,serif" font-size="14.00">NULL</text>
</g>
<!-- node5&#45;&gt;node11 -->
<g id="edge9" class="edge">
<title>node5&#45;&gt;node11</title>
<path fill="none" stroke="black" d="M202.64,-72.05C200.65,-64.32 198.25,-54.96 196.01,-46.27"/>
<polygon fill="black" stroke="black" points="199.2,-45.6 193.32,-36.79 192.42,-47.35 199.2,-45.6"/>
</g>
<!-- node12 -->
<g id="node11" class="node">
<title>node12</title>
<text text-anchor="middle" x="261" y="-13.8" font-family="Times,serif" font-size="14.00">NULL</text>
</g>
<!-- node5&#45;&gt;node12 -->
<g id="edge10" class="edge">
<title>node5&#45;&gt;node12</title>
<path fill="none" stroke="black" d="M218.98,-73.46C225.55,-64.95 233.85,-54.19 241.34,-44.48"/>
<polygon fill="black" stroke="black" points="244.58,-47.02 247.92,-36.96 239.04,-42.74 244.58,-47.02"/>
</g>
</g>
</svg>
