<?xml version="1.0" encoding="UTF-8" standalone="no"?>
<!DOCTYPE svg PUBLIC "-//W3C//DTD SVG 1.1//EN"
 "http://www.w3.org/Graphics/SVG/1.1/DTD/svg11.dtd">
<!-- Generated by graphviz version 8.1.0 (20230707.0739)
 -->
<!-- Pages: 1 -->
<svg width="422pt" height="260pt"
 viewBox="0.00 0.00 422.00 260.00" xmlns="http://www.w3.org/2000/svg" xmlns:xlink="http://www.w3.org/1999/xlink">
<g id="graph0" class="graph" transform="scale(1 1) rotate(0) translate(4 256)">
<polygon fill="white" stroke="none" points="-4,4 -4,-256 418,-256 418,4 -4,4"/>
<!-- node0 -->
<g id="node1" class="node">
<title>node0</title>
<ellipse fill="none" stroke="black" cx="279" cy="-234" rx="27" ry="18"/>
<text text-anchor="middle" x="279" y="-229.8" font-family="Times,serif" font-size="14.00">15</text>
</g>
<!-- node1 -->
<g id="node2" class="node">
<title>node1</title>
<ellipse fill="none" stroke="black" cx="207" cy="-162" rx="27" ry="18"/>
<text text-anchor="middle" x="207" y="-157.8" font-family="Times,serif" font-size="14.00">22</text>
</g>
<!-- node0&#45;&gt;node1 -->
<g id="edge1" class="edge">
<title>node0&#45;&gt;node1</title>
<path fill="none" stroke="black" d="M264.08,-218.5C254.14,-208.83 240.88,-195.94 229.65,-185.02"/>
<polygon fill="black" stroke="black" points="232.51,-182.95 222.9,-178.49 227.63,-187.97 232.51,-182.95"/>
</g>
<!-- node2 -->
<g id="node3" class="node">
<title>node2</title>
<ellipse fill="none" stroke="black" cx="315" cy="-162" rx="27" ry="18"/>
<text text-anchor="middle" x="315" y="-157.8" font-family="Times,serif" font-size="14.00">14</text>
</g>
<!-- node0&#45;&gt;node2 -->
<g id="edge2" class="edge">
<title>node0&#45;&gt;node2</title>
<path fill="none" stroke="black" d="M287.35,-216.76C291.62,-208.46 296.92,-198.15 301.73,-188.79"/>
<polygon fill="black" stroke="black" points="305.23,-190.64 306.7,-180.15 299.01,-187.44 305.23,-190.64"/>
</g>
<!-- node3 -->
<g id="node4" class="node">
<title>node3</title>
<ellipse fill="none" stroke="black" cx="99" cy="-90" rx="27" ry="18"/>
<text text-anchor="middle" x="99" y="-85.8" font-family="Times,serif" font-size="14.00">75</text>
</g>
<!-- node1&#45;&gt;node3 -->
<g id="edge3" class="edge">
<title>node1&#45;&gt;node3</title>
<path fill="none" stroke="black" d="M188.19,-148.81C171.33,-137.88 146.38,-121.71 127.15,-109.24"/>
<polygon fill="black" stroke="black" points="129.25,-105.79 118.96,-103.29 125.45,-111.66 129.25,-105.79"/>
</g>
<!-- node4 -->
<g id="node5" class="node">
<title>node4</title>
<ellipse fill="none" stroke="black" cx="207" cy="-90" rx="27" ry="18"/>
<text text-anchor="middle" x="207" y="-85.8" font-family="Times,serif" font-size="14.00">67</text>
</g>
<!-- node1&#45;&gt;node4 -->
<g id="edge4" class="edge">
<title>node1&#45;&gt;node4</title>
<path fill="none" stroke="black" d="M207,-143.7C207,-136.24 207,-127.32 207,-118.97"/>
<polygon fill="black" stroke="black" points="210.5,-119.1 207,-109.1 203.5,-119.1 210.5,-119.1"/>
</g>
<!-- node5 -->
<g id="node6" class="node">
<title>node5</title>
<ellipse fill="none" stroke="black" cx="315" cy="-90" rx="27" ry="18"/>
<text text-anchor="middle" x="315" y="-85.8" font-family="Times,serif" font-size="14.00">32</text>
</g>
<!-- node2&#45;&gt;node5 -->
<g id="edge5" class="edge">
<title>node2&#45;&gt;node5</title>
<path fill="none" stroke="black" d="M315,-143.7C315,-136.24 315,-127.32 315,-118.97"/>
<polygon fill="black" stroke="black" points="318.5,-119.1 315,-109.1 311.5,-119.1 318.5,-119.1"/>
</g>
<!-- node6 -->
<g id="node7" class="node">
<title>node6</title>
<text text-anchor="middle" x="387" y="-85.8" font-family="Times,serif" font-size="14.00">NULL</text>
</g>
<!-- node2&#45;&gt;node6 -->
<g id="edge6" class="edge">
<title>node2&#45;&gt;node6</title>
<path fill="none" stroke="black" d="M329.92,-146.5C339.11,-137.56 351.13,-125.87 361.77,-115.53"/>
<polygon fill="black" stroke="black" points="363.83,-118.43 368.57,-108.95 358.96,-113.41 363.83,-118.43"/>
</g>
<!-- node7 -->
<g id="node8" class="node">
<title>node7</title>
<text text-anchor="middle" x="27" y="-13.8" font-family="Times,serif" font-size="14.00">NULL</text>
</g>
<!-- node3&#45;&gt;node7 -->
<g id="edge7" class="edge">
<title>node3&#45;&gt;node7</title>
<path fill="none" stroke="black" d="M84.08,-74.5C74.89,-65.56 62.87,-53.87 52.23,-43.53"/>
<polygon fill="black" stroke="black" points="55.04,-41.41 45.43,-36.95 50.17,-46.43 55.04,-41.41"/>
</g>
<!-- node8 -->
<g id="node9" class="node">
<title>node8</title>
<text text-anchor="middle" x="99" y="-13.8" font-family="Times,serif" font-size="14.00">NULL</text>
</g>
<!-- node3&#45;&gt;node8 -->
<g id="edge8" class="edge">
<title>node3&#45;&gt;node8</title>
<path fill="none" stroke="black" d="M99,-71.7C99,-64.13 99,-55.06 99,-46.59"/>
<polygon fill="black" stroke="black" points="102.5,-46.62 99,-36.62 95.5,-46.62 102.5,-46.62"/>
</g>
<!-- node9 -->
<g id="node10" class="node">
<title>node9</title>
<text text-anchor="middle" x="171" y="-13.8" font-family="Times,serif" font-size="14.00">NULL</text>
</g>
<!-- node4&#45;&gt;node9 -->
<g id="edge9" class="edge">
<title>node4&#45;&gt;node9</title>
<path fill="none" stroke="black" d="M198.65,-72.76C194.44,-64.58 189.23,-54.45 184.47,-45.2"/>
<polygon fill="black" stroke="black" points="187.24,-43.93 179.55,-36.63 181.02,-47.13 187.24,-43.93"/>
</g>
<!-- node10 -->
<g id="node11" class="node">
<title>node10</title>
<text text-anchor="middle" x="243" y="-13.8" font-family="Times,serif" font-size="14.00">NULL</text>
</g>
<!-- node4&#45;&gt;node10 -->
<g id="edge10" class="edge">
<title>node4&#45;&gt;node10</title>
<path fill="none" stroke="black" d="M215.35,-72.76C219.56,-64.58 224.77,-54.45 229.53,-45.2"/>
<polygon fill="black" stroke="black" points="232.98,-47.13 234.45,-36.63 226.76,-43.93 232.98,-47.13"/>
</g>
<!-- node11 -->
<g id="node12" class="node">
<title>node11</title>
<text text-anchor="middle" x="315" y="-13.8" font-family="Times,serif" font-size="14.00">NULL</text>
</g>
<!-- node5&#45;&gt;node11 -->
<g id="edge11" class="edge">
<title>node5&#45;&gt;node11</title>
<path fill="none" stroke="black" d="M315,-71.7C315,-64.13 315,-55.06 315,-46.59"/>
<polygon fill="black" stroke="black" points="318.5,-46.62 315,-36.62 311.5,-46.62 318.5,-46.62"/>
</g>
<!-- node12 -->
<g id="node13" class="node">
<title>node12</title>
<text text-anchor="middle" x="387" y="-13.8" font-family="Times,serif" font-size="14.00">NULL</text>
</g>
<!-- node5&#45;&gt;node12 -->
<g id="edge12" class="edge">
<title>node5&#45;&gt;node12</title>
<path fill="none" stroke="black" d="M329.92,-74.5C339.11,-65.56 351.13,-53.87 361.77,-43.53"/>
<polygon fill="black" stroke="black" points="363.83,-46.43 368.57,-36.95 358.96,-41.41 363.83,-46.43"/>
</g>
</g>
</svg>
