<?xml version="1.0" encoding="UTF-8" standalone="no"?>
<!DOCTYPE svg PUBLIC "-//W3C//DTD SVG 1.1//EN"
 "http://www.w3.org/Graphics/SVG/1.1/DTD/svg11.dtd">
<!-- Generated by graphviz version 8.1.0 (20230707.0739)
 -->
<!-- Pages: 1 -->
<svg width="278pt" height="188pt"
 viewBox="0.00 0.00 278.00 188.00" xmlns="http://www.w3.org/2000/svg" xmlns:xlink="http://www.w3.org/1999/xlink">
<g id="graph0" class="graph" transform="scale(1 1) rotate(0) translate(4 184)">
<polygon fill="white" stroke="none" points="-4,4 -4,-184 274,-184 274,4 -4,4"/>
<!-- node0 -->
<g id="node1" class="node">
<title>node0</title>
<ellipse fill="none" stroke="black" cx="135" cy="-162" rx="27" ry="18"/>
<text text-anchor="middle" x="135" y="-157.8" font-family="Times,serif" font-size="14.00">39</text>
</g>
<!-- node1 -->
<g id="node2" class="node">
<title>node1</title>
<ellipse fill="none" stroke="black" cx="99" cy="-90" rx="27" ry="18"/>
<text text-anchor="middle" x="99" y="-85.8" font-family="Times,serif" font-size="14.00">78</text>
</g>
<!-- node0&#45;&gt;node1 -->
<g id="edge1" class="edge">
<title>node0&#45;&gt;node1</title>
<path fill="none" stroke="black" d="M126.65,-144.76C122.38,-136.46 117.08,-126.15 112.27,-116.79"/>
<polygon fill="black" stroke="black" points="114.99,-115.44 107.3,-108.15 108.77,-118.64 114.99,-115.44"/>
</g>
<!-- node2 -->
<g id="node3" class="node">
<title>node2</title>
<ellipse fill="none" stroke="black" cx="171" cy="-90" rx="27" ry="18"/>
<text text-anchor="middle" x="171" y="-85.8" font-family="Times,serif" font-size="14.00">43</text>
</g>
<!-- node0&#45;&gt;node2 -->
<g id="edge2" class="edge">
<title>node0&#45;&gt;node2</title>
<path fill="none" stroke="black" d="M143.35,-144.76C147.62,-136.46 152.92,-126.15 157.73,-116.79"/>
<polygon fill="black" stroke="black" points="161.23,-118.64 162.7,-108.15 155.01,-115.44 161.23,-118.64"/>
</g>
<!-- node3 -->
<g id="node4" class="node">
<title>node3</title>
<text text-anchor="middle" x="27" y="-13.8" font-family="Times,serif" font-size="14.00">NULL</text>
</g>
<!-- node1&#45;&gt;node3 -->
<g id="edge3" class="edge">
<title>node1&#45;&gt;node3</title>
<path fill="none" stroke="black" d="M84.08,-74.5C74.89,-65.56 62.87,-53.87 52.23,-43.53"/>
<polygon fill="black" stroke="black" points="55.04,-41.41 45.43,-36.95 50.17,-46.43 55.04,-41.41"/>
</g>
<!-- node4 -->
<g id="node5" class="node">
<title>node4</title>
<text text-anchor="middle" x="99" y="-13.8" font-family="Times,serif" font-size="14.00">NULL</text>
</g>
<!-- node1&#45;&gt;node4 -->
<g id="edge4" class="edge">
<title>node1&#45;&gt;node4</title>
<path fill="none" stroke="black" d="M99,-71.7C99,-64.13 99,-55.06 99,-46.59"/>
<polygon fill="black" stroke="black" points="102.5,-46.62 99,-36.62 95.5,-46.62 102.5,-46.62"/>
</g>
<!-- node5 -->
<g id="node6" class="node">
<title>node5</title>
<text text-anchor="middle" x="171" y="-13.8" font-family="Times,serif" font-size="14.00">NULL</text>
</g>
<!-- node2&#45;&gt;node5 -->
<g id="edge5" class="edge">
<title>node2&#45;&gt;node5</title>
<path fill="none" stroke="black" d="M171,-71.7C171,-64.13 171,-55.06 171,-46.59"/>
<polygon fill="black" stroke="black" points="174.5,-46.62 171,-36.62 167.5,-46.62 174.5,-46.62"/>
</g>
<!-- node6 -->
<g id="node7" class="node">
<title>node6</title>
<text text-anchor="middle" x="243" y="-13.8" font-family="Times,serif" font-size="14.00">NULL</text>
</g>
<!-- node2&#45;&gt;node6 -->
<g id="edge6" class="edge">
<title>node2&#45;&gt;node6</title>
<path fill="none" stroke="black" d="M185.92,-74.5C195.11,-65.56 207.13,-53.87 217.77,-43.53"/>
<polygon fill="black" stroke="black" points="219.83,-46.43 224.57,-36.95 214.96,-41.41 219.83,-46.43"/>
</g>
</g>
</svg>
