<?xml version="1.0" encoding="UTF-8" standalone="no"?>
<!DOCTYPE svg PUBLIC "-//W3C//DTD SVG 1.1//EN"
 "http://www.w3.org/Graphics/SVG/1.1/DTD/svg11.dtd">
<!-- Generated by graphviz version 8.1.0 (20230707.0739)
 -->
<!-- Pages: 1 -->
<svg width="80pt" height="116pt"
 viewBox="0.00 0.00 80.00 116.00" xmlns="http://www.w3.org/2000/svg" xmlns:xlink="http://www.w3.org/1999/xlink">
<g id="graph0" class="graph" transform="scale(1 1) rotate(0) translate(4 112)">
<polygon fill="white" stroke="none" points="-4,4 -4,-112 76,-112 76,4 -4,4"/>
<!-- A -->
<g id="node1" class="node">
<title>A</title>
<ellipse fill="none" stroke="black" cx="27" cy="-90" rx="27" ry="18"/>
<text text-anchor="middle" x="27" y="-85.8" font-family="Times,serif" font-size="14.00">A</text>
</g>
<!-- B -->
<g id="node2" class="node">
<title>B</title>
<ellipse fill="none" stroke="black" cx="27" cy="-18" rx="27" ry="18"/>
<text text-anchor="middle" x="27" y="-13.8" font-family="Times,serif" font-size="14.00">B</text>
</g>
<!-- A&#45;&gt;B -->
<g id="edge1" class="edge">
<title>A&#45;&gt;B</title>
<path fill="none" stroke="black" d="M27,-71.7C27,-64.24 27,-55.32 27,-46.97"/>
<polygon fill="black" stroke="black" points="30.5,-47.1 27,-37.1 23.5,-47.1 30.5,-47.1"/>
</g>
<!-- B&#45;&gt;B -->
<g id="edge2" class="edge">
<title>B&#45;&gt;B</title>
<path fill="none" stroke="black" d="M46.9,-30.43C59.69,-33.68 72,-29.53 72,-18 72,-9.89 65.91,-5.44 57.85,-4.63"/>
<polygon fill="black" stroke="black" points="57.56,-1.23 47.9,-5.57 58.16,-8.2 57.56,-1.23"/>
</g>
</g>
</svg>
