<?xml version="1.0" encoding="UTF-8" standalone="no"?>
<!DOCTYPE svg PUBLIC "-//W3C//DTD SVG 1.1//EN"
 "http://www.w3.org/Graphics/SVG/1.1/DTD/svg11.dtd">
<!-- Generated by graphviz version 8.1.0 (20230707.0739)
 -->
<!-- Pages: 1 -->
<svg width="62pt" height="132pt"
 viewBox="0.00 0.00 62.00 132.00" xmlns="http://www.w3.org/2000/svg" xmlns:xlink="http://www.w3.org/1999/xlink">
<g id="graph0" class="graph" transform="scale(1 1) rotate(0) translate(4 128)">
<polygon fill="white" stroke="none" points="-4,4 -4,-128 58,-128 58,4 -4,4"/>
<!-- A -->
<g id="node1" class="node">
<title>A</title>
<polygon fill="none" stroke="black" points="11.5,-98 11.5,-120 26.5,-120 26.5,-98 11.5,-98"/>
<text text-anchor="start" x="15.11" y="-104.4" font-family="Times,serif" font-size="14.00">P</text>
<polygon fill="none" stroke="black" points="26.5,-98 26.5,-120 42.5,-120 42.5,-98 26.5,-98"/>
<text text-anchor="start" x="29.44" y="-104.4" font-family="Times,serif" font-size="14.00">Q</text>
<polygon fill="none" stroke="black" points="11.5,-76 11.5,-98 26.5,-98 26.5,-76 11.5,-76"/>
<text text-anchor="start" x="14.33" y="-82.4" font-family="Times,serif" font-size="14.00">R</text>
<polygon fill="none" stroke="black" points="26.5,-76 26.5,-98 42.5,-98 42.5,-76 26.5,-76"/>
<text text-anchor="start" x="30.61" y="-82.4" font-family="Times,serif" font-size="14.00">S</text>
</g>
<!-- B -->
<g id="node2" class="node">
<title>B</title>
<ellipse fill="none" stroke="black" cx="27" cy="-18" rx="27" ry="18"/>
<text text-anchor="middle" x="27" y="-13.8" font-family="Times,serif" font-size="14.00">B</text>
</g>
<!-- A&#45;&gt;B -->
<g id="edge1" class="edge">
<title>A&#45;&gt;B</title>
<path fill="none" stroke="black" d="M27,-72.32C27,-64.22 27,-55.16 27,-46.84"/>
<polygon fill="black" stroke="black" points="30.5,-47.12 27,-37.12 23.5,-47.12 30.5,-47.12"/>
</g>
</g>
</svg>
