<?xml version="1.0" encoding="UTF-8" standalone="no"?>
<!DOCTYPE svg PUBLIC "-//W3C//DTD SVG 1.1//EN"
 "http://www.w3.org/Graphics/SVG/1.1/DTD/svg11.dtd">
<!-- Generated by graphviz version 8.1.0 (20230707.0739)
 -->
<!-- Pages: 1 -->
<svg width="650pt" height="193pt"
 viewBox="0.00 0.00 649.66 192.80" xmlns="http://www.w3.org/2000/svg" xmlns:xlink="http://www.w3.org/1999/xlink">
<g id="graph0" class="graph" transform="scale(1 1) rotate(0) translate(4 188.8)">
<polygon fill="white" stroke="none" points="-4,4 -4,-188.8 645.66,-188.8 645.66,4 -4,4"/>
<!-- head -->
<g id="node1" class="node">
<title>head</title>
<polygon fill="none" stroke="black" points="8,-26.8 8,-49.6 88.66,-49.6 88.66,-26.8 8,-26.8"/>
<text text-anchor="start" x="35.12" y="-34" font-family="Times,serif" font-size="14.00">head</text>
<polygon fill="none" stroke="black" points="8,-4 8,-26.8 88.66,-26.8 88.66,-4 8,-4"/>
<text text-anchor="start" x="11" y="-11.2" font-family="Times,serif" font-size="14.00">0x10558b1f0</text>
</g>
<!-- node0 -->
<g id="node2" class="node">
<title>node0</title>
<polygon fill="none" stroke="black" points="140.66,-70.8 140.66,-92.8 169.66,-92.8 169.66,-70.8 140.66,-70.8"/>
<text text-anchor="start" x="143.5" y="-77.2" font-family="Times,serif" font-size="14.00">data</text>
<polygon fill="none" stroke="black" points="169.66,-70.8 169.66,-92.8 252.66,-92.8 252.66,-70.8 169.66,-70.8"/>
<text text-anchor="start" x="199.11" y="-77.2" font-family="Times,serif" font-size="14.00">next</text>
<polygon fill="none" stroke="black" points="140.66,-48.8 140.66,-70.8 169.66,-70.8 169.66,-48.8 140.66,-48.8"/>
<text text-anchor="start" x="148.16" y="-55.2" font-family="Times,serif" font-size="14.00">15</text>
<polygon fill="none" stroke="black" points="169.66,-48.8 169.66,-70.8 252.66,-70.8 252.66,-48.8 169.66,-48.8"/>
<text text-anchor="start" x="172.66" y="-55.2" font-family="Times,serif" font-size="14.00">0x104d8b220</text>
<polygon fill="none" stroke="black" points="140.66,-26.8 140.66,-48.8 252.66,-48.8 252.66,-26.8 140.66,-26.8"/>
<text text-anchor="start" x="162.65" y="-33.2" font-family="Times,serif" font-size="14.00">alamat node</text>
<polygon fill="none" stroke="black" points="140.66,-4.8 140.66,-26.8 252.66,-26.8 252.66,-4.8 140.66,-4.8"/>
<text text-anchor="start" x="159.33" y="-11.2" font-family="Times,serif" font-size="14.00">0x10558b1f0</text>
</g>
<!-- head&#45;&gt;node0 -->
<g id="edge1" class="edge">
<title>head:contents&#45;&gt;node0:id</title>
<path fill="none" stroke="black" d="M89.33,-15.8C107.68,-15.8 114.74,-15.8 129.03,-15.8"/>
<polygon fill="black" stroke="black" points="128.66,-19.3 138.66,-15.8 128.66,-12.3 128.66,-19.3"/>
</g>
<!-- node1 -->
<g id="node3" class="node">
<title>node1</title>
<polygon fill="none" stroke="black" points="304.66,-114.8 304.66,-136.8 333.66,-136.8 333.66,-114.8 304.66,-114.8"/>
<text text-anchor="start" x="307.5" y="-121.2" font-family="Times,serif" font-size="14.00">data</text>
<polygon fill="none" stroke="black" points="333.66,-114.8 333.66,-136.8 412.66,-136.8 412.66,-114.8 333.66,-114.8"/>
<text text-anchor="start" x="361.11" y="-121.2" font-family="Times,serif" font-size="14.00">next</text>
<polygon fill="none" stroke="black" points="304.66,-92.8 304.66,-114.8 333.66,-114.8 333.66,-92.8 304.66,-92.8"/>
<text text-anchor="start" x="315.66" y="-99.2" font-family="Times,serif" font-size="14.00">5</text>
<polygon fill="none" stroke="black" points="333.66,-92.8 333.66,-114.8 412.66,-114.8 412.66,-92.8 333.66,-92.8"/>
<text text-anchor="start" x="336.22" y="-99.2" font-family="Times,serif" font-size="14.00">0x10686dcf0</text>
<polygon fill="none" stroke="black" points="304.66,-70.8 304.66,-92.8 412.66,-92.8 412.66,-70.8 304.66,-70.8"/>
<text text-anchor="start" x="324.65" y="-77.2" font-family="Times,serif" font-size="14.00">alamat node</text>
<polygon fill="none" stroke="black" points="304.66,-48.8 304.66,-70.8 412.66,-70.8 412.66,-48.8 304.66,-48.8"/>
<text text-anchor="start" x="320.16" y="-55.2" font-family="Times,serif" font-size="14.00">0x104d8b220</text>
</g>
<!-- node0&#45;&gt;node1 -->
<g id="edge2" class="edge">
<title>node0:next&#45;&gt;node1:id</title>
<path fill="none" stroke="black" d="M253.66,-59.8C271.72,-59.8 278.77,-59.8 292.7,-59.8"/>
<polygon fill="black" stroke="black" points="292.66,-63.3 302.66,-59.8 292.66,-56.3 292.66,-63.3"/>
</g>
<!-- node2 -->
<g id="node4" class="node">
<title>node2</title>
<polygon fill="none" stroke="black" points="464.66,-158.8 464.66,-180.8 500.66,-180.8 500.66,-158.8 464.66,-158.8"/>
<text text-anchor="start" x="471" y="-165.2" font-family="Times,serif" font-size="14.00">data</text>
<polygon fill="none" stroke="black" points="500.66,-158.8 500.66,-180.8 543.66,-180.8 543.66,-158.8 500.66,-158.8"/>
<text text-anchor="start" x="510.11" y="-165.2" font-family="Times,serif" font-size="14.00">next</text>
<polygon fill="none" stroke="black" points="464.66,-136.8 464.66,-158.8 500.66,-158.8 500.66,-136.8 464.66,-136.8"/>
<text text-anchor="start" x="472.16" y="-143.2" font-family="Times,serif" font-size="14.00">100</text>
<polygon fill="none" stroke="black" points="500.66,-136.8 500.66,-158.8 543.66,-158.8 543.66,-136.8 500.66,-136.8"/>
<text text-anchor="start" x="507" y="-143.2" font-family="Times,serif" font-size="14.00">None</text>
<polygon fill="none" stroke="black" points="464.66,-114.8 464.66,-136.8 543.66,-136.8 543.66,-114.8 464.66,-114.8"/>
<text text-anchor="start" x="470.15" y="-121.2" font-family="Times,serif" font-size="14.00">alamat node</text>
<polygon fill="none" stroke="black" points="464.66,-92.8 464.66,-114.8 543.66,-114.8 543.66,-92.8 464.66,-92.8"/>
<text text-anchor="start" x="467.22" y="-99.2" font-family="Times,serif" font-size="14.00">0x10686dcf0</text>
</g>
<!-- node1&#45;&gt;node2 -->
<g id="edge3" class="edge">
<title>node1:next&#45;&gt;node2:id</title>
<path fill="none" stroke="black" d="M413.66,-103.8C431.54,-103.8 438.52,-103.8 452.31,-103.8"/>
<polygon fill="black" stroke="black" points="452.16,-107.3 462.16,-103.8 452.16,-100.3 452.16,-107.3"/>
</g>
<!-- node3 -->
<g id="node5" class="node">
<title>node3</title>
<text text-anchor="middle" x="614.66" y="-143.6" font-family="Times,serif" font-size="14.00">None</text>
</g>
<!-- node2&#45;&gt;node3 -->
<g id="edge4" class="edge">
<title>node2:next&#45;&gt;node3</title>
<path fill="none" stroke="black" d="M545.16,-147.8C555.55,-147.8 566.83,-147.8 577.18,-147.8"/>
<polygon fill="black" stroke="black" points="576.96,-151.3 586.96,-147.8 576.96,-144.3 576.96,-151.3"/>
</g>
</g>
</svg>
