<?xml version="1.0" encoding="UTF-8" standalone="no"?>
<!DOCTYPE svg PUBLIC "-//W3C//DTD SVG 1.1//EN"
 "http://www.w3.org/Graphics/SVG/1.1/DTD/svg11.dtd">
<!-- Generated by graphviz version 8.1.0 (20230707.0739)
 -->
<!-- Pages: 1 -->
<svg width="814pt" height="151pt"
 viewBox="0.00 0.00 814.00 151.00" xmlns="http://www.w3.org/2000/svg" xmlns:xlink="http://www.w3.org/1999/xlink">
<g id="graph0" class="graph" transform="scale(1 1) rotate(0) translate(4 147)">
<polygon fill="white" stroke="none" points="-4,4 -4,-147 810,-147 810,4 -4,4"/>
<!-- node0 -->
<g id="node1" class="node">
<title>node0</title>
<polygon fill="none" stroke="black" points="8,-26 8,-48 28,-48 28,-26 8,-26"/>
<text text-anchor="start" x="11" y="-32.4" font-family="Times,serif" font-size="14.00">45</text>
<polygon fill="none" stroke="black" points="28,-26 28,-48 111,-48 111,-26 28,-26"/>
<text text-anchor="start" x="31" y="-32.4" font-family="Times,serif" font-size="14.00">0x1062b2110</text>
<polygon fill="none" stroke="black" points="8,-4 8,-26 111,-26 111,-4 8,-4"/>
<text text-anchor="start" x="21.39" y="-10.4" font-family="Times,serif" font-size="14.00">0x1062b20e0</text>
</g>
<!-- node1 -->
<g id="node2" class="node">
<title>node1</title>
<polygon fill="none" stroke="black" points="163,-48 163,-70 183,-70 183,-48 163,-48"/>
<text text-anchor="start" x="166" y="-54.4" font-family="Times,serif" font-size="14.00">35</text>
<polygon fill="none" stroke="black" points="183,-48 183,-70 263,-70 263,-48 183,-48"/>
<text text-anchor="start" x="185.67" y="-54.4" font-family="Times,serif" font-size="14.00">0x1062b1f60</text>
<polygon fill="none" stroke="black" points="163,-26 163,-48 263,-48 263,-26 163,-26"/>
<text text-anchor="start" x="174.5" y="-32.4" font-family="Times,serif" font-size="14.00">0x1062b2110</text>
</g>
<!-- node0&#45;&gt;node1 -->
<g id="edge1" class="edge">
<title>node0:next&#45;&gt;node1:id</title>
<path fill="none" stroke="black" d="M112.5,-37C130.38,-37 137.36,-37 151.15,-37"/>
<polygon fill="black" stroke="black" points="151,-40.5 161,-37 151,-33.5 151,-40.5"/>
</g>
<!-- node2 -->
<g id="node3" class="node">
<title>node2</title>
<polygon fill="none" stroke="black" points="315,-70 315,-92 335,-92 335,-70 315,-70"/>
<text text-anchor="start" x="318" y="-76.4" font-family="Times,serif" font-size="14.00">25</text>
<polygon fill="none" stroke="black" points="335,-70 335,-92 418,-92 418,-70 335,-70"/>
<text text-anchor="start" x="338" y="-76.4" font-family="Times,serif" font-size="14.00">0x1062b2050</text>
<polygon fill="none" stroke="black" points="315,-48 315,-70 418,-70 418,-48 315,-48"/>
<text text-anchor="start" x="329.17" y="-54.4" font-family="Times,serif" font-size="14.00">0x1062b1f60</text>
</g>
<!-- node1&#45;&gt;node2 -->
<g id="edge2" class="edge">
<title>node1:next&#45;&gt;node2:id</title>
<path fill="none" stroke="black" d="M264,-59C281.88,-59 288.86,-59 302.65,-59"/>
<polygon fill="black" stroke="black" points="302.5,-62.5 312.5,-59 302.5,-55.5 302.5,-62.5"/>
</g>
<!-- node3 -->
<g id="node4" class="node">
<title>node3</title>
<polygon fill="none" stroke="black" points="470,-92 470,-114 490,-114 490,-92 470,-92"/>
<text text-anchor="start" x="473" y="-98.4" font-family="Times,serif" font-size="14.00">15</text>
<polygon fill="none" stroke="black" points="490,-92 490,-114 573,-114 573,-92 490,-92"/>
<text text-anchor="start" x="493" y="-98.4" font-family="Times,serif" font-size="14.00">0x1062b2080</text>
<polygon fill="none" stroke="black" points="470,-70 470,-92 573,-92 573,-70 470,-70"/>
<text text-anchor="start" x="483" y="-76.4" font-family="Times,serif" font-size="14.00">0x1062b2050</text>
</g>
<!-- node2&#45;&gt;node3 -->
<g id="edge3" class="edge">
<title>node2:next&#45;&gt;node3:id</title>
<path fill="none" stroke="black" d="M419.5,-81C437.19,-81 444.11,-81 457.76,-81"/>
<polygon fill="black" stroke="black" points="457.5,-84.5 467.5,-81 457.5,-77.5 457.5,-84.5"/>
</g>
<!-- node4 -->
<g id="node5" class="node">
<title>node4</title>
<polygon fill="none" stroke="black" points="625,-114 625,-136 655,-136 655,-114 625,-114"/>
<text text-anchor="start" x="636.5" y="-120.4" font-family="Times,serif" font-size="14.00">5</text>
<polygon fill="none" stroke="black" points="655,-114 655,-136 708,-136 708,-114 655,-114"/>
<text text-anchor="start" x="666.34" y="-120.4" font-family="Times,serif" font-size="14.00">None</text>
<polygon fill="none" stroke="black" points="625,-92 625,-114 708,-114 708,-92 625,-92"/>
<text text-anchor="start" x="628" y="-98.4" font-family="Times,serif" font-size="14.00">0x1062b2080</text>
</g>
<!-- node3&#45;&gt;node4 -->
<g id="edge4" class="edge">
<title>node3:next&#45;&gt;node4:id</title>
<path fill="none" stroke="black" d="M574.5,-103C592.19,-103 599.11,-103 612.76,-103"/>
<polygon fill="black" stroke="black" points="612.5,-106.5 622.5,-103 612.5,-99.5 612.5,-106.5"/>
</g>
<!-- node5 -->
<g id="node6" class="node">
<title>node5</title>
<text text-anchor="middle" x="779" y="-120.8" font-family="Times,serif" font-size="14.00">None</text>
</g>
<!-- node4&#45;&gt;node5 -->
<g id="edge5" class="edge">
<title>node4:next&#45;&gt;node5:id</title>
<path fill="none" stroke="black" d="M709.5,-125C719.89,-125 731.17,-125 741.52,-125"/>
<polygon fill="black" stroke="black" points="741.3,-128.5 751.3,-125 741.3,-121.5 741.3,-128.5"/>
</g>
</g>
</svg>
