<?xml version="1.0" encoding="UTF-8" standalone="no"?>
<!DOCTYPE svg PUBLIC "-//W3C//DTD SVG 1.1//EN"
 "http://www.w3.org/Graphics/SVG/1.1/DTD/svg11.dtd">
<!-- Generated by graphviz version 8.1.0 (20230707.0739)
 -->
<!-- Pages: 1 -->
<svg width="652pt" height="193pt"
 viewBox="0.00 0.00 652.43 192.80" xmlns="http://www.w3.org/2000/svg" xmlns:xlink="http://www.w3.org/1999/xlink">
<g id="graph0" class="graph" transform="scale(1 1) rotate(0) translate(4 188.8)">
<polygon fill="white" stroke="none" points="-4,4 -4,-188.8 648.43,-188.8 648.43,4 -4,4"/>
<!-- head -->
<g id="node1" class="node">
<title>head</title>
<polygon fill="none" stroke="black" points="8,-26.8 8,-49.6 89.43,-49.6 89.43,-26.8 8,-26.8"/>
<text text-anchor="start" x="35.5" y="-34" font-family="Times,serif" font-size="14.00">head</text>
<polygon fill="none" stroke="black" points="8,-4 8,-26.8 89.43,-26.8 89.43,-4 8,-4"/>
<text text-anchor="start" x="11" y="-11.2" font-family="Times,serif" font-size="14.00">0x112ed8dc0</text>
</g>
<!-- node0 -->
<g id="node2" class="node">
<title>node0</title>
<polygon fill="none" stroke="black" points="141.43,-70.8 141.43,-92.8 170.43,-92.8 170.43,-70.8 141.43,-70.8"/>
<text text-anchor="start" x="144.27" y="-77.2" font-family="Times,serif" font-size="14.00">data</text>
<polygon fill="none" stroke="black" points="170.43,-70.8 170.43,-92.8 251.43,-92.8 251.43,-70.8 170.43,-70.8"/>
<text text-anchor="start" x="198.88" y="-77.2" font-family="Times,serif" font-size="14.00">next</text>
<polygon fill="none" stroke="black" points="141.43,-48.8 141.43,-70.8 170.43,-70.8 170.43,-48.8 141.43,-48.8"/>
<text text-anchor="start" x="148.93" y="-55.2" font-family="Times,serif" font-size="14.00">15</text>
<polygon fill="none" stroke="black" points="170.43,-48.8 170.43,-70.8 251.43,-70.8 251.43,-48.8 170.43,-48.8"/>
<text text-anchor="start" x="173.21" y="-55.2" font-family="Times,serif" font-size="14.00">0x112ed8e20</text>
<polygon fill="none" stroke="black" points="141.43,-26.8 141.43,-48.8 251.43,-48.8 251.43,-26.8 141.43,-26.8"/>
<text text-anchor="start" x="162.42" y="-33.2" font-family="Times,serif" font-size="14.00">alamat node</text>
<polygon fill="none" stroke="black" points="141.43,-4.8 141.43,-26.8 251.43,-26.8 251.43,-4.8 141.43,-4.8"/>
<text text-anchor="start" x="158.71" y="-11.2" font-family="Times,serif" font-size="14.00">0x112ed8dc0</text>
</g>
<!-- head&#45;&gt;node0 -->
<g id="edge1" class="edge">
<title>head:contents&#45;&gt;node0:id</title>
<path fill="none" stroke="black" d="M90.71,-15.8C108.67,-15.8 115.68,-15.8 129.53,-15.8"/>
<polygon fill="black" stroke="black" points="129.43,-19.3 139.43,-15.8 129.43,-12.3 129.43,-19.3"/>
</g>
<!-- node1 -->
<g id="node3" class="node">
<title>node1</title>
<polygon fill="none" stroke="black" points="303.43,-114.8 303.43,-136.8 332.43,-136.8 332.43,-114.8 303.43,-114.8"/>
<text text-anchor="start" x="306.27" y="-121.2" font-family="Times,serif" font-size="14.00">data</text>
<polygon fill="none" stroke="black" points="332.43,-114.8 332.43,-136.8 413.43,-136.8 413.43,-114.8 332.43,-114.8"/>
<text text-anchor="start" x="360.88" y="-121.2" font-family="Times,serif" font-size="14.00">next</text>
<polygon fill="none" stroke="black" points="303.43,-92.8 303.43,-114.8 332.43,-114.8 332.43,-92.8 303.43,-92.8"/>
<text text-anchor="start" x="310.93" y="-99.2" font-family="Times,serif" font-size="14.00">76</text>
<polygon fill="none" stroke="black" points="332.43,-92.8 332.43,-114.8 413.43,-114.8 413.43,-92.8 332.43,-92.8"/>
<text text-anchor="start" x="335.21" y="-99.2" font-family="Times,serif" font-size="14.00">0x112ed8e80</text>
<polygon fill="none" stroke="black" points="303.43,-70.8 303.43,-92.8 413.43,-92.8 413.43,-70.8 303.43,-70.8"/>
<text text-anchor="start" x="324.42" y="-77.2" font-family="Times,serif" font-size="14.00">alamat node</text>
<polygon fill="none" stroke="black" points="303.43,-48.8 303.43,-70.8 413.43,-70.8 413.43,-48.8 303.43,-48.8"/>
<text text-anchor="start" x="320.71" y="-55.2" font-family="Times,serif" font-size="14.00">0x112ed8e20</text>
</g>
<!-- node0&#45;&gt;node1 -->
<g id="edge2" class="edge">
<title>node0:next&#45;&gt;node1:id</title>
<path fill="none" stroke="black" d="M252.43,-59.8C270.48,-59.8 277.54,-59.8 291.47,-59.8"/>
<polygon fill="black" stroke="black" points="291.43,-63.3 301.43,-59.8 291.43,-56.3 291.43,-63.3"/>
</g>
<!-- node2 -->
<g id="node4" class="node">
<title>node2</title>
<polygon fill="none" stroke="black" points="465.43,-158.8 465.43,-180.8 502.43,-180.8 502.43,-158.8 465.43,-158.8"/>
<text text-anchor="start" x="472.27" y="-165.2" font-family="Times,serif" font-size="14.00">data</text>
<polygon fill="none" stroke="black" points="502.43,-158.8 502.43,-180.8 546.43,-180.8 546.43,-158.8 502.43,-158.8"/>
<text text-anchor="start" x="512.38" y="-165.2" font-family="Times,serif" font-size="14.00">next</text>
<polygon fill="none" stroke="black" points="465.43,-136.8 465.43,-158.8 502.43,-158.8 502.43,-136.8 465.43,-136.8"/>
<text text-anchor="start" x="480.43" y="-143.2" font-family="Times,serif" font-size="14.00">5</text>
<polygon fill="none" stroke="black" points="502.43,-136.8 502.43,-158.8 546.43,-158.8 546.43,-136.8 502.43,-136.8"/>
<text text-anchor="start" x="509.27" y="-143.2" font-family="Times,serif" font-size="14.00">None</text>
<polygon fill="none" stroke="black" points="465.43,-114.8 465.43,-136.8 546.43,-136.8 546.43,-114.8 465.43,-114.8"/>
<text text-anchor="start" x="471.92" y="-121.2" font-family="Times,serif" font-size="14.00">alamat node</text>
<polygon fill="none" stroke="black" points="465.43,-92.8 465.43,-114.8 546.43,-114.8 546.43,-92.8 465.43,-92.8"/>
<text text-anchor="start" x="468.21" y="-99.2" font-family="Times,serif" font-size="14.00">0x112ed8e80</text>
</g>
<!-- node1&#45;&gt;node2 -->
<g id="edge3" class="edge">
<title>node1:next&#45;&gt;node2:id</title>
<path fill="none" stroke="black" d="M414.43,-103.8C432.3,-103.8 439.29,-103.8 453.08,-103.8"/>
<polygon fill="black" stroke="black" points="452.93,-107.3 462.93,-103.8 452.93,-100.3 452.93,-107.3"/>
</g>
<!-- node3 -->
<g id="node5" class="node">
<title>node3</title>
<text text-anchor="middle" x="617.43" y="-143.6" font-family="Times,serif" font-size="14.00">None</text>
</g>
<!-- node2&#45;&gt;node3 -->
<g id="edge4" class="edge">
<title>node2:next&#45;&gt;node3</title>
<path fill="none" stroke="black" d="M547.93,-147.8C558.32,-147.8 569.6,-147.8 579.95,-147.8"/>
<polygon fill="black" stroke="black" points="579.73,-151.3 589.73,-147.8 579.73,-144.3 579.73,-151.3"/>
</g>
</g>
</svg>
