<?xml version="1.0" encoding="UTF-8" standalone="no"?>
<!DOCTYPE svg PUBLIC "-//W3C//DTD SVG 1.1//EN"
 "http://www.w3.org/Graphics/SVG/1.1/DTD/svg11.dtd">
<!-- Generated by graphviz version 8.1.0 (20230707.0739)
 -->
<!-- Pages: 1 -->
<svg width="63pt" height="140pt"
 viewBox="0.00 0.00 63.00 140.00" xmlns="http://www.w3.org/2000/svg" xmlns:xlink="http://www.w3.org/1999/xlink">
<g id="graph0" class="graph" transform="scale(1 1) rotate(0) translate(4 136)">
<polygon fill="white" stroke="none" points="-4,4 -4,-136 59,-136 59,4 -4,4"/>
<!-- A -->
<g id="node1" class="node">
<title>A</title>
<polygon fill="none" stroke="black" points="11,-103 11,-125 26,-125 26,-103 11,-103"/>
<text text-anchor="start" x="14.61" y="-109.4" font-family="Times,serif" font-size="14.00">P</text>
<polygon fill="none" stroke="black" points="28,-103 28,-125 44,-125 44,-103 28,-103"/>
<text text-anchor="start" x="30.94" y="-109.4" font-family="Times,serif" font-size="14.00">Q</text>
<polygon fill="none" stroke="black" points="11,-79 11,-101 26,-101 26,-79 11,-79"/>
<text text-anchor="start" x="13.83" y="-85.4" font-family="Times,serif" font-size="14.00">R</text>
<polygon fill="none" stroke="black" points="28,-79 28,-101 44,-101 44,-79 28,-79"/>
<text text-anchor="start" x="32.11" y="-85.4" font-family="Times,serif" font-size="14.00">S</text>
<polygon fill="none" stroke="black" points="8,-76 8,-128 47,-128 47,-76 8,-76"/>
</g>
<!-- B -->
<g id="node2" class="node">
<title>B</title>
<ellipse fill="none" stroke="black" cx="27.5" cy="-18" rx="27" ry="18"/>
<text text-anchor="middle" x="27.5" y="-13.8" font-family="Times,serif" font-size="14.00">B</text>
</g>
<!-- A&#45;&gt;B -->
<g id="edge1" class="edge">
<title>A&#45;&gt;B</title>
<path fill="none" stroke="black" d="M27.5,-72.32C27.5,-64.16 27.5,-55.28 27.5,-47.15"/>
<polygon fill="black" stroke="black" points="31,-47.31 27.5,-37.31 24,-47.31 31,-47.31"/>
</g>
</g>
</svg>
