<?xml version="1.0" encoding="UTF-8" standalone="no"?>
<!DOCTYPE svg PUBLIC "-//W3C//DTD SVG 1.1//EN"
 "http://www.w3.org/Graphics/SVG/1.1/DTD/svg11.dtd">
<!-- Generated by graphviz version 8.1.0 (20230707.0739)
 -->
<!-- Pages: 1 -->
<svg width="645pt" height="193pt"
 viewBox="0.00 0.00 644.66 192.80" xmlns="http://www.w3.org/2000/svg" xmlns:xlink="http://www.w3.org/1999/xlink">
<g id="graph0" class="graph" transform="scale(1 1) rotate(0) translate(4 188.8)">
<polygon fill="white" stroke="none" points="-4,4 -4,-188.8 640.66,-188.8 640.66,4 -4,4"/>
<!-- head -->
<g id="node1" class="node">
<title>head</title>
<polygon fill="none" stroke="black" points="8,-26.8 8,-49.6 88.66,-49.6 88.66,-26.8 8,-26.8"/>
<text text-anchor="start" x="35.12" y="-34" font-family="Times,serif" font-size="14.00">head</text>
<polygon fill="none" stroke="black" points="8,-4 8,-26.8 88.66,-26.8 88.66,-4 8,-4"/>
<text text-anchor="start" x="11" y="-11.2" font-family="Times,serif" font-size="14.00">0x112f60700</text>
</g>
<!-- node0 -->
<g id="node2" class="node">
<title>node0</title>
<polygon fill="none" stroke="black" points="140.66,-70.8 140.66,-92.8 169.66,-92.8 169.66,-70.8 140.66,-70.8"/>
<text text-anchor="start" x="143.5" y="-77.2" font-family="Times,serif" font-size="14.00">data</text>
<polygon fill="none" stroke="black" points="169.66,-70.8 169.66,-92.8 247.66,-92.8 247.66,-70.8 169.66,-70.8"/>
<text text-anchor="start" x="196.61" y="-77.2" font-family="Times,serif" font-size="14.00">next</text>
<polygon fill="none" stroke="black" points="140.66,-48.8 140.66,-70.8 169.66,-70.8 169.66,-48.8 140.66,-48.8"/>
<text text-anchor="start" x="148.16" y="-55.2" font-family="Times,serif" font-size="14.00">15</text>
<polygon fill="none" stroke="black" points="169.66,-48.8 169.66,-70.8 247.66,-70.8 247.66,-48.8 169.66,-48.8"/>
<text text-anchor="start" x="172.5" y="-55.2" font-family="Times,serif" font-size="14.00">0x112f604f0</text>
<polygon fill="none" stroke="black" points="140.66,-26.8 140.66,-48.8 247.66,-48.8 247.66,-26.8 140.66,-26.8"/>
<text text-anchor="start" x="160.15" y="-33.2" font-family="Times,serif" font-size="14.00">alamat node</text>
<polygon fill="none" stroke="black" points="140.66,-4.8 140.66,-26.8 247.66,-26.8 247.66,-4.8 140.66,-4.8"/>
<text text-anchor="start" x="156.83" y="-11.2" font-family="Times,serif" font-size="14.00">0x112f60700</text>
</g>
<!-- head&#45;&gt;node0 -->
<g id="edge1" class="edge">
<title>head:contents&#45;&gt;node0:id</title>
<path fill="none" stroke="black" d="M89.33,-15.8C107.33,-15.8 114.35,-15.8 128.24,-15.8"/>
<polygon fill="black" stroke="black" points="128.16,-19.3 138.16,-15.8 128.16,-12.3 128.16,-19.3"/>
</g>
<!-- node1 -->
<g id="node3" class="node">
<title>node1</title>
<polygon fill="none" stroke="black" points="299.66,-114.8 299.66,-136.8 328.66,-136.8 328.66,-114.8 299.66,-114.8"/>
<text text-anchor="start" x="302.5" y="-121.2" font-family="Times,serif" font-size="14.00">data</text>
<polygon fill="none" stroke="black" points="328.66,-114.8 328.66,-136.8 407.66,-136.8 407.66,-114.8 328.66,-114.8"/>
<text text-anchor="start" x="356.11" y="-121.2" font-family="Times,serif" font-size="14.00">next</text>
<polygon fill="none" stroke="black" points="299.66,-92.8 299.66,-114.8 328.66,-114.8 328.66,-92.8 299.66,-92.8"/>
<text text-anchor="start" x="307.16" y="-99.2" font-family="Times,serif" font-size="14.00">76</text>
<polygon fill="none" stroke="black" points="328.66,-92.8 328.66,-114.8 407.66,-114.8 407.66,-92.8 328.66,-92.8"/>
<text text-anchor="start" x="331.22" y="-99.2" font-family="Times,serif" font-size="14.00">0x112f606a0</text>
<polygon fill="none" stroke="black" points="299.66,-70.8 299.66,-92.8 407.66,-92.8 407.66,-70.8 299.66,-70.8"/>
<text text-anchor="start" x="319.65" y="-77.2" font-family="Times,serif" font-size="14.00">alamat node</text>
<polygon fill="none" stroke="black" points="299.66,-48.8 299.66,-70.8 407.66,-70.8 407.66,-48.8 299.66,-48.8"/>
<text text-anchor="start" x="317.5" y="-55.2" font-family="Times,serif" font-size="14.00">0x112f604f0</text>
</g>
<!-- node0&#45;&gt;node1 -->
<g id="edge2" class="edge">
<title>node0:next&#45;&gt;node1:id</title>
<path fill="none" stroke="black" d="M249.16,-59.8C267.04,-59.8 274.02,-59.8 287.81,-59.8"/>
<polygon fill="black" stroke="black" points="287.66,-63.3 297.66,-59.8 287.66,-56.3 287.66,-63.3"/>
</g>
<!-- node2 -->
<g id="node4" class="node">
<title>node2</title>
<polygon fill="none" stroke="black" points="459.66,-158.8 459.66,-180.8 495.66,-180.8 495.66,-158.8 459.66,-158.8"/>
<text text-anchor="start" x="466" y="-165.2" font-family="Times,serif" font-size="14.00">data</text>
<polygon fill="none" stroke="black" points="495.66,-158.8 495.66,-180.8 538.66,-180.8 538.66,-158.8 495.66,-158.8"/>
<text text-anchor="start" x="505.11" y="-165.2" font-family="Times,serif" font-size="14.00">next</text>
<polygon fill="none" stroke="black" points="459.66,-136.8 459.66,-158.8 495.66,-158.8 495.66,-136.8 459.66,-136.8"/>
<text text-anchor="start" x="474.16" y="-143.2" font-family="Times,serif" font-size="14.00">5</text>
<polygon fill="none" stroke="black" points="495.66,-136.8 495.66,-158.8 538.66,-158.8 538.66,-136.8 495.66,-136.8"/>
<text text-anchor="start" x="502" y="-143.2" font-family="Times,serif" font-size="14.00">None</text>
<polygon fill="none" stroke="black" points="459.66,-114.8 459.66,-136.8 538.66,-136.8 538.66,-114.8 459.66,-114.8"/>
<text text-anchor="start" x="465.15" y="-121.2" font-family="Times,serif" font-size="14.00">alamat node</text>
<polygon fill="none" stroke="black" points="459.66,-92.8 459.66,-114.8 538.66,-114.8 538.66,-92.8 459.66,-92.8"/>
<text text-anchor="start" x="462.22" y="-99.2" font-family="Times,serif" font-size="14.00">0x112f606a0</text>
</g>
<!-- node1&#45;&gt;node2 -->
<g id="edge3" class="edge">
<title>node1:next&#45;&gt;node2:id</title>
<path fill="none" stroke="black" d="M408.66,-103.8C426.54,-103.8 433.52,-103.8 447.31,-103.8"/>
<polygon fill="black" stroke="black" points="447.16,-107.3 457.16,-103.8 447.16,-100.3 447.16,-107.3"/>
</g>
<!-- node3 -->
<g id="node5" class="node">
<title>node3</title>
<text text-anchor="middle" x="609.66" y="-143.6" font-family="Times,serif" font-size="14.00">None</text>
</g>
<!-- node2&#45;&gt;node3 -->
<g id="edge4" class="edge">
<title>node2:next&#45;&gt;node3</title>
<path fill="none" stroke="black" d="M540.16,-147.8C550.55,-147.8 561.83,-147.8 572.18,-147.8"/>
<polygon fill="black" stroke="black" points="571.96,-151.3 581.96,-147.8 571.96,-144.3 571.96,-151.3"/>
</g>
</g>
</svg>
