<?xml version="1.0" encoding="UTF-8" standalone="no"?>
<!DOCTYPE svg PUBLIC "-//W3C//DTD SVG 1.1//EN"
 "http://www.w3.org/Graphics/SVG/1.1/DTD/svg11.dtd">
<!-- Generated by graphviz version 2.43.0 (0)
 -->
<!-- Title: %3 Pages: 1 -->
<svg width="1436pt" height="272pt"
 viewBox="0.00 0.00 1436.00 272.00" xmlns="http://www.w3.org/2000/svg" xmlns:xlink="http://www.w3.org/1999/xlink">
<g id="graph0" class="graph" transform="scale(1 1) rotate(0) translate(4 268)">
<title>%3</title>
<polygon fill="white" stroke="transparent" points="-4,4 -4,-268 1432,-268 1432,4 -4,4"/>
<!-- head -->
<g id="node1" class="node">
<title>head</title>
<polygon fill="none" stroke="black" points="8.5,-25 8.5,-46 107.5,-46 107.5,-25 8.5,-25"/>
<text text-anchor="start" x="45" y="-31.8" font-family="Times,serif" font-size="14.00">head</text>
<polygon fill="none" stroke="black" points="8.5,-4 8.5,-25 107.5,-25 107.5,-4 8.5,-4"/>
<text text-anchor="start" x="11.5" y="-10.8" font-family="Times,serif" font-size="14.00">0x7ad70e66c490</text>
</g>
<!-- node0 -->
<g id="node2" class="node">
<title>node0</title>
<polygon fill="none" stroke="black" points="159,-67 159,-88 223,-88 223,-67 159,-67"/>
<text text-anchor="start" x="162" y="-73.8" font-family="Times,serif" font-size="14.00">coefficient</text>
<polygon fill="none" stroke="black" points="223,-67 223,-88 266,-88 266,-67 223,-67"/>
<text text-anchor="start" x="226" y="-73.8" font-family="Times,serif" font-size="14.00">degree</text>
<polygon fill="none" stroke="black" points="266,-67 266,-88 363,-88 363,-67 266,-67"/>
<text text-anchor="start" x="302.5" y="-73.8" font-family="Times,serif" font-size="14.00">next</text>
<polygon fill="none" stroke="black" points="159,-46 159,-67 223,-67 223,-46 159,-46"/>
<text text-anchor="start" x="187.5" y="-52.8" font-family="Times,serif" font-size="14.00">8</text>
<polygon fill="none" stroke="black" points="223,-46 223,-67 266,-67 266,-46 223,-46"/>
<text text-anchor="start" x="241" y="-52.8" font-family="Times,serif" font-size="14.00">8</text>
<polygon fill="none" stroke="black" points="266,-46 266,-67 363,-67 363,-46 266,-46"/>
<text text-anchor="start" x="269" y="-52.8" font-family="Times,serif" font-size="14.00">0x7ad70e66fa30</text>
<polygon fill="none" stroke="black" points="159,-25 159,-46 363,-46 363,-25 159,-25"/>
<text text-anchor="start" x="227.5" y="-31.8" font-family="Times,serif" font-size="14.00">alamat node</text>
<polygon fill="none" stroke="black" points="159,-4 159,-25 363,-25 363,-4 159,-4"/>
<text text-anchor="start" x="214.5" y="-10.8" font-family="Times,serif" font-size="14.00">0x7ad70e66c490</text>
</g>
<!-- head&#45;&gt;node0 -->
<g id="edge1" class="edge">
<title>head:contents&#45;&gt;node0:id</title>
<path fill="none" stroke="black" d="M108.5,-14C126.72,-14 133.62,-14 147.95,-14"/>
<polygon fill="black" stroke="black" points="148,-17.5 158,-14 148,-10.5 148,-17.5"/>
</g>
<!-- node1 -->
<g id="node3" class="node">
<title>node1</title>
<polygon fill="none" stroke="black" points="415,-110 415,-131 479,-131 479,-110 415,-110"/>
<text text-anchor="start" x="418" y="-116.8" font-family="Times,serif" font-size="14.00">coefficient</text>
<polygon fill="none" stroke="black" points="479,-110 479,-131 522,-131 522,-110 479,-110"/>
<text text-anchor="start" x="482" y="-116.8" font-family="Times,serif" font-size="14.00">degree</text>
<polygon fill="none" stroke="black" points="522,-110 522,-131 621,-131 621,-110 522,-110"/>
<text text-anchor="start" x="559.5" y="-116.8" font-family="Times,serif" font-size="14.00">next</text>
<polygon fill="none" stroke="black" points="415,-89 415,-110 479,-110 479,-89 415,-89"/>
<text text-anchor="start" x="443.5" y="-95.8" font-family="Times,serif" font-size="14.00">6</text>
<polygon fill="none" stroke="black" points="479,-89 479,-110 522,-110 522,-89 479,-89"/>
<text text-anchor="start" x="497" y="-95.8" font-family="Times,serif" font-size="14.00">6</text>
<polygon fill="none" stroke="black" points="522,-89 522,-110 621,-110 621,-89 522,-89"/>
<text text-anchor="start" x="525" y="-95.8" font-family="Times,serif" font-size="14.00">0x7ad70e66dba0</text>
<polygon fill="none" stroke="black" points="415,-68 415,-89 621,-89 621,-68 415,-68"/>
<text text-anchor="start" x="484.5" y="-74.8" font-family="Times,serif" font-size="14.00">alamat node</text>
<polygon fill="none" stroke="black" points="415,-47 415,-68 621,-68 621,-47 415,-47"/>
<text text-anchor="start" x="472.5" y="-53.8" font-family="Times,serif" font-size="14.00">0x7ad70e66fa30</text>
</g>
<!-- node0&#45;&gt;node1 -->
<g id="edge2" class="edge">
<title>node0:next&#45;&gt;node1:id</title>
<path fill="none" stroke="black" d="M364,-57C382.4,-57 389.38,-57 403.85,-57"/>
<polygon fill="black" stroke="black" points="404,-60.5 414,-57 404,-53.5 404,-60.5"/>
</g>
<!-- node2 -->
<g id="node4" class="node">
<title>node2</title>
<polygon fill="none" stroke="black" points="673,-153 673,-174 737,-174 737,-153 673,-153"/>
<text text-anchor="start" x="676" y="-159.8" font-family="Times,serif" font-size="14.00">coefficient</text>
<polygon fill="none" stroke="black" points="737,-153 737,-174 780,-174 780,-153 737,-153"/>
<text text-anchor="start" x="740" y="-159.8" font-family="Times,serif" font-size="14.00">degree</text>
<polygon fill="none" stroke="black" points="780,-153 780,-174 879,-174 879,-153 780,-153"/>
<text text-anchor="start" x="817.5" y="-159.8" font-family="Times,serif" font-size="14.00">next</text>
<polygon fill="none" stroke="black" points="673,-132 673,-153 737,-153 737,-132 673,-132"/>
<text text-anchor="start" x="699" y="-138.8" font-family="Times,serif" font-size="14.00">&#45;1</text>
<polygon fill="none" stroke="black" points="737,-132 737,-153 780,-153 780,-132 737,-132"/>
<text text-anchor="start" x="755" y="-138.8" font-family="Times,serif" font-size="14.00">5</text>
<polygon fill="none" stroke="black" points="780,-132 780,-153 879,-153 879,-132 780,-132"/>
<text text-anchor="start" x="783" y="-138.8" font-family="Times,serif" font-size="14.00">0x7ad70e66d9c0</text>
<polygon fill="none" stroke="black" points="673,-111 673,-132 879,-132 879,-111 673,-111"/>
<text text-anchor="start" x="742.5" y="-117.8" font-family="Times,serif" font-size="14.00">alamat node</text>
<polygon fill="none" stroke="black" points="673,-90 673,-111 879,-111 879,-90 673,-90"/>
<text text-anchor="start" x="729.5" y="-96.8" font-family="Times,serif" font-size="14.00">0x7ad70e66dba0</text>
</g>
<!-- node1&#45;&gt;node2 -->
<g id="edge3" class="edge">
<title>node1:next&#45;&gt;node2:id</title>
<path fill="none" stroke="black" d="M622,-100C640.4,-100 647.38,-100 661.85,-100"/>
<polygon fill="black" stroke="black" points="662,-103.5 672,-100 662,-96.5 662,-103.5"/>
</g>
<!-- node3 -->
<g id="node5" class="node">
<title>node3</title>
<polygon fill="none" stroke="black" points="931,-196 931,-217 995,-217 995,-196 931,-196"/>
<text text-anchor="start" x="934" y="-202.8" font-family="Times,serif" font-size="14.00">coefficient</text>
<polygon fill="none" stroke="black" points="995,-196 995,-217 1038,-217 1038,-196 995,-196"/>
<text text-anchor="start" x="998" y="-202.8" font-family="Times,serif" font-size="14.00">degree</text>
<polygon fill="none" stroke="black" points="1038,-196 1038,-217 1135,-217 1135,-196 1038,-196"/>
<text text-anchor="start" x="1074.5" y="-202.8" font-family="Times,serif" font-size="14.00">next</text>
<polygon fill="none" stroke="black" points="931,-175 931,-196 995,-196 995,-175 931,-175"/>
<text text-anchor="start" x="959.5" y="-181.8" font-family="Times,serif" font-size="14.00">3</text>
<polygon fill="none" stroke="black" points="995,-175 995,-196 1038,-196 1038,-175 995,-175"/>
<text text-anchor="start" x="1013" y="-181.8" font-family="Times,serif" font-size="14.00">3</text>
<polygon fill="none" stroke="black" points="1038,-175 1038,-196 1135,-196 1135,-175 1038,-175"/>
<text text-anchor="start" x="1041" y="-181.8" font-family="Times,serif" font-size="14.00">0x7ad70e66fc40</text>
<polygon fill="none" stroke="black" points="931,-154 931,-175 1135,-175 1135,-154 931,-154"/>
<text text-anchor="start" x="999.5" y="-160.8" font-family="Times,serif" font-size="14.00">alamat node</text>
<polygon fill="none" stroke="black" points="931,-133 931,-154 1135,-154 1135,-133 931,-133"/>
<text text-anchor="start" x="986.5" y="-139.8" font-family="Times,serif" font-size="14.00">0x7ad70e66d9c0</text>
</g>
<!-- node2&#45;&gt;node3 -->
<g id="edge4" class="edge">
<title>node2:next&#45;&gt;node3:id</title>
<path fill="none" stroke="black" d="M880,-143C898.4,-143 905.38,-143 919.85,-143"/>
<polygon fill="black" stroke="black" points="920,-146.5 930,-143 920,-139.5 920,-146.5"/>
</g>
<!-- node4 -->
<g id="node6" class="node">
<title>node4</title>
<polygon fill="none" stroke="black" points="1187.5,-239 1187.5,-260 1251.5,-260 1251.5,-239 1187.5,-239"/>
<text text-anchor="start" x="1190.5" y="-245.8" font-family="Times,serif" font-size="14.00">coefficient</text>
<polygon fill="none" stroke="black" points="1251.5,-239 1251.5,-260 1294.5,-260 1294.5,-239 1251.5,-239"/>
<text text-anchor="start" x="1254.5" y="-245.8" font-family="Times,serif" font-size="14.00">degree</text>
<polygon fill="none" stroke="black" points="1294.5,-239 1294.5,-260 1330.5,-260 1330.5,-239 1294.5,-239"/>
<text text-anchor="start" x="1300.5" y="-245.8" font-family="Times,serif" font-size="14.00">next</text>
<polygon fill="none" stroke="black" points="1187.5,-218 1187.5,-239 1251.5,-239 1251.5,-218 1187.5,-218"/>
<text text-anchor="start" x="1216" y="-224.8" font-family="Times,serif" font-size="14.00">2</text>
<polygon fill="none" stroke="black" points="1251.5,-218 1251.5,-239 1294.5,-239 1294.5,-218 1251.5,-218"/>
<text text-anchor="start" x="1269.5" y="-224.8" font-family="Times,serif" font-size="14.00">2</text>
<polygon fill="none" stroke="black" points="1294.5,-218 1294.5,-239 1330.5,-239 1330.5,-218 1294.5,-218"/>
<text text-anchor="start" x="1297.5" y="-224.8" font-family="Times,serif" font-size="14.00">None</text>
<polygon fill="none" stroke="black" points="1187.5,-197 1187.5,-218 1330.5,-218 1330.5,-197 1187.5,-197"/>
<text text-anchor="start" x="1225.5" y="-203.8" font-family="Times,serif" font-size="14.00">alamat node</text>
<polygon fill="none" stroke="black" points="1187.5,-176 1187.5,-197 1330.5,-197 1330.5,-176 1187.5,-176"/>
<text text-anchor="start" x="1213.5" y="-182.8" font-family="Times,serif" font-size="14.00">0x7ad70e66fc40</text>
</g>
<!-- node3&#45;&gt;node4 -->
<g id="edge5" class="edge">
<title>node3:next&#45;&gt;node4:id</title>
<path fill="none" stroke="black" d="M1136,-186C1154.59,-186 1161.63,-186 1176.25,-186"/>
<polygon fill="black" stroke="black" points="1176.5,-189.5 1186.5,-186 1176.5,-182.5 1176.5,-189.5"/>
</g>
<!-- node5 -->
<g id="node7" class="node">
<title>node5</title>
<text text-anchor="middle" x="1401" y="-225.3" font-family="Times,serif" font-size="14.00">None</text>
</g>
<!-- node4&#45;&gt;node5 -->
<g id="edge6" class="edge">
<title>node4:next&#45;&gt;node5</title>
<path fill="none" stroke="black" d="M1331.5,-229C1342.02,-229 1353.46,-229 1363.92,-229"/>
<polygon fill="black" stroke="black" points="1363.98,-232.5 1373.98,-229 1363.98,-225.5 1363.98,-232.5"/>
</g>
</g>
</svg>
