<?xml version="1.0" encoding="UTF-8" standalone="no"?>
<!DOCTYPE svg PUBLIC "-//W3C//DTD SVG 1.1//EN"
 "http://www.w3.org/Graphics/SVG/1.1/DTD/svg11.dtd">
<!-- Generated by graphviz version 2.43.0 (0)
 -->
<!-- Title: %3 Pages: 1 -->
<svg width="1180pt" height="229pt"
 viewBox="0.00 0.00 1180.00 229.00" xmlns="http://www.w3.org/2000/svg" xmlns:xlink="http://www.w3.org/1999/xlink">
<g id="graph0" class="graph" transform="scale(1 1) rotate(0) translate(4 225)">
<title>%3</title>
<polygon fill="white" stroke="transparent" points="-4,4 -4,-225 1176,-225 1176,4 -4,4"/>
<!-- head -->
<g id="node1" class="node">
<title>head</title>
<polygon fill="none" stroke="black" points="8.5,-25 8.5,-46 105.5,-46 105.5,-25 8.5,-25"/>
<text text-anchor="start" x="44" y="-31.8" font-family="Times,serif" font-size="14.00">head</text>
<polygon fill="none" stroke="black" points="8.5,-4 8.5,-25 105.5,-25 105.5,-4 8.5,-4"/>
<text text-anchor="start" x="11.5" y="-10.8" font-family="Times,serif" font-size="14.00">0x7ad70e66f040</text>
</g>
<!-- node0 -->
<g id="node2" class="node">
<title>node0</title>
<polygon fill="none" stroke="black" points="157,-67 157,-88 221,-88 221,-67 157,-67"/>
<text text-anchor="start" x="160" y="-73.8" font-family="Times,serif" font-size="14.00">coefficient</text>
<polygon fill="none" stroke="black" points="221,-67 221,-88 264,-88 264,-67 221,-67"/>
<text text-anchor="start" x="224" y="-73.8" font-family="Times,serif" font-size="14.00">degree</text>
<polygon fill="none" stroke="black" points="264,-67 264,-88 363,-88 363,-67 264,-67"/>
<text text-anchor="start" x="301.5" y="-73.8" font-family="Times,serif" font-size="14.00">next</text>
<polygon fill="none" stroke="black" points="157,-46 157,-67 221,-67 221,-46 157,-46"/>
<text text-anchor="start" x="185.5" y="-52.8" font-family="Times,serif" font-size="14.00">1</text>
<polygon fill="none" stroke="black" points="221,-46 221,-67 264,-67 264,-46 221,-46"/>
<text text-anchor="start" x="239" y="-52.8" font-family="Times,serif" font-size="14.00">5</text>
<polygon fill="none" stroke="black" points="264,-46 264,-67 363,-67 363,-46 264,-46"/>
<text text-anchor="start" x="267" y="-52.8" font-family="Times,serif" font-size="14.00">0x7ad70e66e3b0</text>
<polygon fill="none" stroke="black" points="157,-25 157,-46 363,-46 363,-25 157,-25"/>
<text text-anchor="start" x="226.5" y="-31.8" font-family="Times,serif" font-size="14.00">alamat node</text>
<polygon fill="none" stroke="black" points="157,-4 157,-25 363,-25 363,-4 157,-4"/>
<text text-anchor="start" x="214.5" y="-10.8" font-family="Times,serif" font-size="14.00">0x7ad70e66f040</text>
</g>
<!-- head&#45;&gt;node0 -->
<g id="edge1" class="edge">
<title>head:contents&#45;&gt;node0:id</title>
<path fill="none" stroke="black" d="M106.5,-14C124.72,-14 131.62,-14 145.95,-14"/>
<polygon fill="black" stroke="black" points="146,-17.5 156,-14 146,-10.5 146,-17.5"/>
</g>
<!-- node1 -->
<g id="node3" class="node">
<title>node1</title>
<polygon fill="none" stroke="black" points="415.5,-110 415.5,-131 479.5,-131 479.5,-110 415.5,-110"/>
<text text-anchor="start" x="418.5" y="-116.8" font-family="Times,serif" font-size="14.00">coefficient</text>
<polygon fill="none" stroke="black" points="479.5,-110 479.5,-131 522.5,-131 522.5,-110 479.5,-110"/>
<text text-anchor="start" x="482.5" y="-116.8" font-family="Times,serif" font-size="14.00">degree</text>
<polygon fill="none" stroke="black" points="522.5,-110 522.5,-131 620.5,-131 620.5,-110 522.5,-110"/>
<text text-anchor="start" x="559.5" y="-116.8" font-family="Times,serif" font-size="14.00">next</text>
<polygon fill="none" stroke="black" points="415.5,-89 415.5,-110 479.5,-110 479.5,-89 415.5,-89"/>
<text text-anchor="start" x="444" y="-95.8" font-family="Times,serif" font-size="14.00">3</text>
<polygon fill="none" stroke="black" points="479.5,-89 479.5,-110 522.5,-110 522.5,-89 479.5,-89"/>
<text text-anchor="start" x="497.5" y="-95.8" font-family="Times,serif" font-size="14.00">4</text>
<polygon fill="none" stroke="black" points="522.5,-89 522.5,-110 620.5,-110 620.5,-89 522.5,-89"/>
<text text-anchor="start" x="525.5" y="-95.8" font-family="Times,serif" font-size="14.00">0x7ad70e66cc40</text>
<polygon fill="none" stroke="black" points="415.5,-68 415.5,-89 620.5,-89 620.5,-68 415.5,-68"/>
<text text-anchor="start" x="484.5" y="-74.8" font-family="Times,serif" font-size="14.00">alamat node</text>
<polygon fill="none" stroke="black" points="415.5,-47 415.5,-68 620.5,-68 620.5,-47 415.5,-47"/>
<text text-anchor="start" x="471.5" y="-53.8" font-family="Times,serif" font-size="14.00">0x7ad70e66e3b0</text>
</g>
<!-- node0&#45;&gt;node1 -->
<g id="edge2" class="edge">
<title>node0:next&#45;&gt;node1:id</title>
<path fill="none" stroke="black" d="M364,-57C382.59,-57 389.63,-57 404.25,-57"/>
<polygon fill="black" stroke="black" points="404.5,-60.5 414.5,-57 404.5,-53.5 404.5,-60.5"/>
</g>
<!-- node2 -->
<g id="node4" class="node">
<title>node2</title>
<polygon fill="none" stroke="black" points="672.5,-153 672.5,-174 736.5,-174 736.5,-153 672.5,-153"/>
<text text-anchor="start" x="675.5" y="-159.8" font-family="Times,serif" font-size="14.00">coefficient</text>
<polygon fill="none" stroke="black" points="736.5,-153 736.5,-174 779.5,-174 779.5,-153 736.5,-153"/>
<text text-anchor="start" x="739.5" y="-159.8" font-family="Times,serif" font-size="14.00">degree</text>
<polygon fill="none" stroke="black" points="779.5,-153 779.5,-174 879.5,-174 879.5,-153 779.5,-153"/>
<text text-anchor="start" x="817.5" y="-159.8" font-family="Times,serif" font-size="14.00">next</text>
<polygon fill="none" stroke="black" points="672.5,-132 672.5,-153 736.5,-153 736.5,-132 672.5,-132"/>
<text text-anchor="start" x="697.5" y="-138.8" font-family="Times,serif" font-size="14.00">22</text>
<polygon fill="none" stroke="black" points="736.5,-132 736.5,-153 779.5,-153 779.5,-132 736.5,-132"/>
<text text-anchor="start" x="754.5" y="-138.8" font-family="Times,serif" font-size="14.00">2</text>
<polygon fill="none" stroke="black" points="779.5,-132 779.5,-153 879.5,-153 879.5,-132 779.5,-132"/>
<text text-anchor="start" x="782.5" y="-138.8" font-family="Times,serif" font-size="14.00">0x7ad70e66d990</text>
<polygon fill="none" stroke="black" points="672.5,-111 672.5,-132 879.5,-132 879.5,-111 672.5,-111"/>
<text text-anchor="start" x="742.5" y="-117.8" font-family="Times,serif" font-size="14.00">alamat node</text>
<polygon fill="none" stroke="black" points="672.5,-90 672.5,-111 879.5,-111 879.5,-90 672.5,-90"/>
<text text-anchor="start" x="730" y="-96.8" font-family="Times,serif" font-size="14.00">0x7ad70e66cc40</text>
</g>
<!-- node1&#45;&gt;node2 -->
<g id="edge3" class="edge">
<title>node1:next&#45;&gt;node2:id</title>
<path fill="none" stroke="black" d="M621.5,-100C639.9,-100 646.88,-100 661.35,-100"/>
<polygon fill="black" stroke="black" points="661.5,-103.5 671.5,-100 661.5,-96.5 661.5,-103.5"/>
</g>
<!-- node3 -->
<g id="node5" class="node">
<title>node3</title>
<polygon fill="none" stroke="black" points="931.5,-196 931.5,-217 995.5,-217 995.5,-196 931.5,-196"/>
<text text-anchor="start" x="934.5" y="-202.8" font-family="Times,serif" font-size="14.00">coefficient</text>
<polygon fill="none" stroke="black" points="995.5,-196 995.5,-217 1038.5,-217 1038.5,-196 995.5,-196"/>
<text text-anchor="start" x="998.5" y="-202.8" font-family="Times,serif" font-size="14.00">degree</text>
<polygon fill="none" stroke="black" points="1038.5,-196 1038.5,-217 1074.5,-217 1074.5,-196 1038.5,-196"/>
<text text-anchor="start" x="1044.5" y="-202.8" font-family="Times,serif" font-size="14.00">next</text>
<polygon fill="none" stroke="black" points="931.5,-175 931.5,-196 995.5,-196 995.5,-175 931.5,-175"/>
<text text-anchor="start" x="960" y="-181.8" font-family="Times,serif" font-size="14.00">4</text>
<polygon fill="none" stroke="black" points="995.5,-175 995.5,-196 1038.5,-196 1038.5,-175 995.5,-175"/>
<text text-anchor="start" x="1013.5" y="-181.8" font-family="Times,serif" font-size="14.00">0</text>
<polygon fill="none" stroke="black" points="1038.5,-175 1038.5,-196 1074.5,-196 1074.5,-175 1038.5,-175"/>
<text text-anchor="start" x="1041.5" y="-181.8" font-family="Times,serif" font-size="14.00">None</text>
<polygon fill="none" stroke="black" points="931.5,-154 931.5,-175 1074.5,-175 1074.5,-154 931.5,-154"/>
<text text-anchor="start" x="969.5" y="-160.8" font-family="Times,serif" font-size="14.00">alamat node</text>
<polygon fill="none" stroke="black" points="931.5,-133 931.5,-154 1074.5,-154 1074.5,-133 931.5,-133"/>
<text text-anchor="start" x="956" y="-139.8" font-family="Times,serif" font-size="14.00">0x7ad70e66d990</text>
</g>
<!-- node2&#45;&gt;node3 -->
<g id="edge4" class="edge">
<title>node2:next&#45;&gt;node3:id</title>
<path fill="none" stroke="black" d="M880.5,-143C898.9,-143 905.88,-143 920.35,-143"/>
<polygon fill="black" stroke="black" points="920.5,-146.5 930.5,-143 920.5,-139.5 920.5,-146.5"/>
</g>
<!-- node4 -->
<g id="node6" class="node">
<title>node4</title>
<text text-anchor="middle" x="1145" y="-182.3" font-family="Times,serif" font-size="14.00">None</text>
</g>
<!-- node3&#45;&gt;node4 -->
<g id="edge5" class="edge">
<title>node3:next&#45;&gt;node4</title>
<path fill="none" stroke="black" d="M1075.5,-186C1086.02,-186 1097.46,-186 1107.92,-186"/>
<polygon fill="black" stroke="black" points="1107.98,-189.5 1117.98,-186 1107.98,-182.5 1107.98,-189.5"/>
</g>
</g>
</svg>
