<?xml version="1.0" encoding="UTF-8" standalone="no"?>
<!DOCTYPE svg PUBLIC "-//W3C//DTD SVG 1.1//EN"
 "http://www.w3.org/Graphics/SVG/1.1/DTD/svg11.dtd">
<!-- Generated by graphviz version 2.43.0 (0)
 -->
<!-- Title: %3 Pages: 1 -->
<svg width="1692pt" height="315pt"
 viewBox="0.00 0.00 1692.00 315.00" xmlns="http://www.w3.org/2000/svg" xmlns:xlink="http://www.w3.org/1999/xlink">
<g id="graph0" class="graph" transform="scale(1 1) rotate(0) translate(4 311)">
<title>%3</title>
<polygon fill="white" stroke="transparent" points="-4,4 -4,-311 1688,-311 1688,4 -4,4"/>
<!-- head -->
<g id="node1" class="node">
<title>head</title>
<polygon fill="none" stroke="black" points="8,-25 8,-46 106,-46 106,-25 8,-25"/>
<text text-anchor="start" x="44" y="-31.8" font-family="Times,serif" font-size="14.00">head</text>
<polygon fill="none" stroke="black" points="8,-4 8,-25 106,-25 106,-4 8,-4"/>
<text text-anchor="start" x="11" y="-10.8" font-family="Times,serif" font-size="14.00">0x7ad70e66ce80</text>
</g>
<!-- node0 -->
<g id="node2" class="node">
<title>node0</title>
<polygon fill="none" stroke="black" points="158,-67 158,-88 222,-88 222,-67 158,-67"/>
<text text-anchor="start" x="161" y="-73.8" font-family="Times,serif" font-size="14.00">coefficient</text>
<polygon fill="none" stroke="black" points="222,-67 222,-88 265,-88 265,-67 222,-67"/>
<text text-anchor="start" x="225" y="-73.8" font-family="Times,serif" font-size="14.00">degree</text>
<polygon fill="none" stroke="black" points="265,-67 265,-88 362,-88 362,-67 265,-67"/>
<text text-anchor="start" x="301.5" y="-73.8" font-family="Times,serif" font-size="14.00">next</text>
<polygon fill="none" stroke="black" points="158,-46 158,-67 222,-67 222,-46 158,-46"/>
<text text-anchor="start" x="186.5" y="-52.8" font-family="Times,serif" font-size="14.00">8</text>
<polygon fill="none" stroke="black" points="222,-46 222,-67 265,-67 265,-46 222,-46"/>
<text text-anchor="start" x="240" y="-52.8" font-family="Times,serif" font-size="14.00">8</text>
<polygon fill="none" stroke="black" points="265,-46 265,-67 362,-67 362,-46 265,-46"/>
<text text-anchor="start" x="268" y="-52.8" font-family="Times,serif" font-size="14.00">0x7ad70e66fe20</text>
<polygon fill="none" stroke="black" points="158,-25 158,-46 362,-46 362,-25 158,-25"/>
<text text-anchor="start" x="226.5" y="-31.8" font-family="Times,serif" font-size="14.00">alamat node</text>
<polygon fill="none" stroke="black" points="158,-4 158,-25 362,-25 362,-4 158,-4"/>
<text text-anchor="start" x="214" y="-10.8" font-family="Times,serif" font-size="14.00">0x7ad70e66ce80</text>
</g>
<!-- head&#45;&gt;node0 -->
<g id="edge1" class="edge">
<title>head:contents&#45;&gt;node0:id</title>
<path fill="none" stroke="black" d="M107,-14C125.4,-14 132.38,-14 146.85,-14"/>
<polygon fill="black" stroke="black" points="147,-17.5 157,-14 147,-10.5 147,-17.5"/>
</g>
<!-- node1 -->
<g id="node3" class="node">
<title>node1</title>
<polygon fill="none" stroke="black" points="414,-110 414,-131 478,-131 478,-110 414,-110"/>
<text text-anchor="start" x="417" y="-116.8" font-family="Times,serif" font-size="14.00">coefficient</text>
<polygon fill="none" stroke="black" points="478,-110 478,-131 521,-131 521,-110 478,-110"/>
<text text-anchor="start" x="481" y="-116.8" font-family="Times,serif" font-size="14.00">degree</text>
<polygon fill="none" stroke="black" points="521,-110 521,-131 620,-131 620,-110 521,-110"/>
<text text-anchor="start" x="558.5" y="-116.8" font-family="Times,serif" font-size="14.00">next</text>
<polygon fill="none" stroke="black" points="414,-89 414,-110 478,-110 478,-89 414,-89"/>
<text text-anchor="start" x="442.5" y="-95.8" font-family="Times,serif" font-size="14.00">6</text>
<polygon fill="none" stroke="black" points="478,-89 478,-110 521,-110 521,-89 478,-89"/>
<text text-anchor="start" x="496" y="-95.8" font-family="Times,serif" font-size="14.00">6</text>
<polygon fill="none" stroke="black" points="521,-89 521,-110 620,-110 620,-89 521,-89"/>
<text text-anchor="start" x="524" y="-95.8" font-family="Times,serif" font-size="14.00">0x7ad70e66d2a0</text>
<polygon fill="none" stroke="black" points="414,-68 414,-89 620,-89 620,-68 414,-68"/>
<text text-anchor="start" x="483.5" y="-74.8" font-family="Times,serif" font-size="14.00">alamat node</text>
<polygon fill="none" stroke="black" points="414,-47 414,-68 620,-68 620,-47 414,-47"/>
<text text-anchor="start" x="471.5" y="-53.8" font-family="Times,serif" font-size="14.00">0x7ad70e66fe20</text>
</g>
<!-- node0&#45;&gt;node1 -->
<g id="edge2" class="edge">
<title>node0:next&#45;&gt;node1:id</title>
<path fill="none" stroke="black" d="M363,-57C381.4,-57 388.38,-57 402.85,-57"/>
<polygon fill="black" stroke="black" points="403,-60.5 413,-57 403,-53.5 403,-60.5"/>
</g>
<!-- node2 -->
<g id="node4" class="node">
<title>node2</title>
<polygon fill="none" stroke="black" points="672,-153 672,-174 736,-174 736,-153 672,-153"/>
<text text-anchor="start" x="675" y="-159.8" font-family="Times,serif" font-size="14.00">coefficient</text>
<polygon fill="none" stroke="black" points="736,-153 736,-174 779,-174 779,-153 736,-153"/>
<text text-anchor="start" x="739" y="-159.8" font-family="Times,serif" font-size="14.00">degree</text>
<polygon fill="none" stroke="black" points="779,-153 779,-174 878,-174 878,-153 779,-153"/>
<text text-anchor="start" x="816.5" y="-159.8" font-family="Times,serif" font-size="14.00">next</text>
<polygon fill="none" stroke="black" points="672,-132 672,-153 736,-153 736,-132 672,-132"/>
<text text-anchor="start" x="700.5" y="-138.8" font-family="Times,serif" font-size="14.00">3</text>
<polygon fill="none" stroke="black" points="736,-132 736,-153 779,-153 779,-132 736,-132"/>
<text text-anchor="start" x="754" y="-138.8" font-family="Times,serif" font-size="14.00">4</text>
<polygon fill="none" stroke="black" points="779,-132 779,-153 878,-153 878,-132 779,-132"/>
<text text-anchor="start" x="782" y="-138.8" font-family="Times,serif" font-size="14.00">0x7ad70e66eb30</text>
<polygon fill="none" stroke="black" points="672,-111 672,-132 878,-132 878,-111 672,-111"/>
<text text-anchor="start" x="741.5" y="-117.8" font-family="Times,serif" font-size="14.00">alamat node</text>
<polygon fill="none" stroke="black" points="672,-90 672,-111 878,-111 878,-90 672,-90"/>
<text text-anchor="start" x="728.5" y="-96.8" font-family="Times,serif" font-size="14.00">0x7ad70e66d2a0</text>
</g>
<!-- node1&#45;&gt;node2 -->
<g id="edge3" class="edge">
<title>node1:next&#45;&gt;node2:id</title>
<path fill="none" stroke="black" d="M621,-100C639.4,-100 646.38,-100 660.85,-100"/>
<polygon fill="black" stroke="black" points="661,-103.5 671,-100 661,-96.5 661,-103.5"/>
</g>
<!-- node3 -->
<g id="node5" class="node">
<title>node3</title>
<polygon fill="none" stroke="black" points="930.5,-196 930.5,-217 994.5,-217 994.5,-196 930.5,-196"/>
<text text-anchor="start" x="933.5" y="-202.8" font-family="Times,serif" font-size="14.00">coefficient</text>
<polygon fill="none" stroke="black" points="994.5,-196 994.5,-217 1037.5,-217 1037.5,-196 994.5,-196"/>
<text text-anchor="start" x="997.5" y="-202.8" font-family="Times,serif" font-size="14.00">degree</text>
<polygon fill="none" stroke="black" points="1037.5,-196 1037.5,-217 1135.5,-217 1135.5,-196 1037.5,-196"/>
<text text-anchor="start" x="1074.5" y="-202.8" font-family="Times,serif" font-size="14.00">next</text>
<polygon fill="none" stroke="black" points="930.5,-175 930.5,-196 994.5,-196 994.5,-175 930.5,-175"/>
<text text-anchor="start" x="959" y="-181.8" font-family="Times,serif" font-size="14.00">3</text>
<polygon fill="none" stroke="black" points="994.5,-175 994.5,-196 1037.5,-196 1037.5,-175 994.5,-175"/>
<text text-anchor="start" x="1012.5" y="-181.8" font-family="Times,serif" font-size="14.00">3</text>
<polygon fill="none" stroke="black" points="1037.5,-175 1037.5,-196 1135.5,-196 1135.5,-175 1037.5,-175"/>
<text text-anchor="start" x="1040.5" y="-181.8" font-family="Times,serif" font-size="14.00">0x7ad70e66c9a0</text>
<polygon fill="none" stroke="black" points="930.5,-154 930.5,-175 1135.5,-175 1135.5,-154 930.5,-154"/>
<text text-anchor="start" x="999.5" y="-160.8" font-family="Times,serif" font-size="14.00">alamat node</text>
<polygon fill="none" stroke="black" points="930.5,-133 930.5,-154 1135.5,-154 1135.5,-133 930.5,-133"/>
<text text-anchor="start" x="986.5" y="-139.8" font-family="Times,serif" font-size="14.00">0x7ad70e66eb30</text>
</g>
<!-- node2&#45;&gt;node3 -->
<g id="edge4" class="edge">
<title>node2:next&#45;&gt;node3:id</title>
<path fill="none" stroke="black" d="M879,-143C897.59,-143 904.63,-143 919.25,-143"/>
<polygon fill="black" stroke="black" points="919.5,-146.5 929.5,-143 919.5,-139.5 919.5,-146.5"/>
</g>
<!-- node4 -->
<g id="node6" class="node">
<title>node4</title>
<polygon fill="none" stroke="black" points="1187,-239 1187,-260 1251,-260 1251,-239 1187,-239"/>
<text text-anchor="start" x="1190" y="-245.8" font-family="Times,serif" font-size="14.00">coefficient</text>
<polygon fill="none" stroke="black" points="1251,-239 1251,-260 1294,-260 1294,-239 1251,-239"/>
<text text-anchor="start" x="1254" y="-245.8" font-family="Times,serif" font-size="14.00">degree</text>
<polygon fill="none" stroke="black" points="1294,-239 1294,-260 1391,-260 1391,-239 1294,-239"/>
<text text-anchor="start" x="1330.5" y="-245.8" font-family="Times,serif" font-size="14.00">next</text>
<polygon fill="none" stroke="black" points="1187,-218 1187,-239 1251,-239 1251,-218 1187,-218"/>
<text text-anchor="start" x="1212" y="-224.8" font-family="Times,serif" font-size="14.00">24</text>
<polygon fill="none" stroke="black" points="1251,-218 1251,-239 1294,-239 1294,-218 1251,-218"/>
<text text-anchor="start" x="1269" y="-224.8" font-family="Times,serif" font-size="14.00">2</text>
<polygon fill="none" stroke="black" points="1294,-218 1294,-239 1391,-239 1391,-218 1294,-218"/>
<text text-anchor="start" x="1297" y="-224.8" font-family="Times,serif" font-size="14.00">0x7ad70e66df60</text>
<polygon fill="none" stroke="black" points="1187,-197 1187,-218 1391,-218 1391,-197 1187,-197"/>
<text text-anchor="start" x="1255.5" y="-203.8" font-family="Times,serif" font-size="14.00">alamat node</text>
<polygon fill="none" stroke="black" points="1187,-176 1187,-197 1391,-197 1391,-176 1187,-176"/>
<text text-anchor="start" x="1243" y="-182.8" font-family="Times,serif" font-size="14.00">0x7ad70e66c9a0</text>
</g>
<!-- node3&#45;&gt;node4 -->
<g id="edge5" class="edge">
<title>node3:next&#45;&gt;node4:id</title>
<path fill="none" stroke="black" d="M1136.5,-186C1154.72,-186 1161.62,-186 1175.95,-186"/>
<polygon fill="black" stroke="black" points="1176,-189.5 1186,-186 1176,-182.5 1176,-189.5"/>
</g>
<!-- node5 -->
<g id="node7" class="node">
<title>node5</title>
<polygon fill="none" stroke="black" points="1443.5,-282 1443.5,-303 1507.5,-303 1507.5,-282 1443.5,-282"/>
<text text-anchor="start" x="1446.5" y="-288.8" font-family="Times,serif" font-size="14.00">coefficient</text>
<polygon fill="none" stroke="black" points="1507.5,-282 1507.5,-303 1550.5,-303 1550.5,-282 1507.5,-282"/>
<text text-anchor="start" x="1510.5" y="-288.8" font-family="Times,serif" font-size="14.00">degree</text>
<polygon fill="none" stroke="black" points="1550.5,-282 1550.5,-303 1586.5,-303 1586.5,-282 1550.5,-282"/>
<text text-anchor="start" x="1556.5" y="-288.8" font-family="Times,serif" font-size="14.00">next</text>
<polygon fill="none" stroke="black" points="1443.5,-261 1443.5,-282 1507.5,-282 1507.5,-261 1443.5,-261"/>
<text text-anchor="start" x="1472" y="-267.8" font-family="Times,serif" font-size="14.00">4</text>
<polygon fill="none" stroke="black" points="1507.5,-261 1507.5,-282 1550.5,-282 1550.5,-261 1507.5,-261"/>
<text text-anchor="start" x="1525.5" y="-267.8" font-family="Times,serif" font-size="14.00">0</text>
<polygon fill="none" stroke="black" points="1550.5,-261 1550.5,-282 1586.5,-282 1586.5,-261 1550.5,-261"/>
<text text-anchor="start" x="1553.5" y="-267.8" font-family="Times,serif" font-size="14.00">None</text>
<polygon fill="none" stroke="black" points="1443.5,-240 1443.5,-261 1586.5,-261 1586.5,-240 1443.5,-240"/>
<text text-anchor="start" x="1481.5" y="-246.8" font-family="Times,serif" font-size="14.00">alamat node</text>
<polygon fill="none" stroke="black" points="1443.5,-219 1443.5,-240 1586.5,-240 1586.5,-219 1443.5,-219"/>
<text text-anchor="start" x="1469.5" y="-225.8" font-family="Times,serif" font-size="14.00">0x7ad70e66df60</text>
</g>
<!-- node4&#45;&gt;node5 -->
<g id="edge6" class="edge">
<title>node4:next&#45;&gt;node5:id</title>
<path fill="none" stroke="black" d="M1392,-229C1410.59,-229 1417.63,-229 1432.25,-229"/>
<polygon fill="black" stroke="black" points="1432.5,-232.5 1442.5,-229 1432.5,-225.5 1432.5,-232.5"/>
</g>
<!-- node6 -->
<g id="node8" class="node">
<title>node6</title>
<text text-anchor="middle" x="1657" y="-268.3" font-family="Times,serif" font-size="14.00">None</text>
</g>
<!-- node5&#45;&gt;node6 -->
<g id="edge7" class="edge">
<title>node5:next&#45;&gt;node6</title>
<path fill="none" stroke="black" d="M1587.5,-272C1598.02,-272 1609.46,-272 1619.92,-272"/>
<polygon fill="black" stroke="black" points="1619.98,-275.5 1629.98,-272 1619.98,-268.5 1619.98,-275.5"/>
</g>
</g>
</svg>
